<?xml version="1.0" standalone="no"?>
<!DOCTYPE svg PUBLIC "-//W3C//DTD SVG 1.1//EN" "http://www.w3.org/Graphics/SVG/1.1/DTD/svg11.dtd" >
<svg xmlns="http://www.w3.org/2000/svg">
<metadata></metadata>
<defs>
<font id="franklingothicsketchdemiOb" horiz-adv-x="1239" >
<font-face units-per-em="2048" ascent="1536" descent="-512" />
<missing-glyph horiz-adv-x="528" />
<glyph horiz-adv-x="2048" />
<glyph horiz-adv-x="2048" />
<glyph unicode="&#xd;" horiz-adv-x="2048" />
<glyph unicode=" "  horiz-adv-x="528" />
<glyph unicode="&#x09;" horiz-adv-x="528" />
<glyph unicode="&#xa0;" horiz-adv-x="528" />
<glyph unicode="!" horiz-adv-x="608" d="M508 1405q4 2 20 2h23h4q7 0 22 1t21 1q14 0 14 -8q-5 -34 -21 -89.5t-20 -76.5l-26 -102l-51 -183q-1 -4 -1 -12t-1 -12l-13 -41q-7 -41 -17 -66t-13 -45v-20l-11 -33l-35 -127q-3 -18 -10 -37.5t-8 -26.5v-10q-16 -104 -41 -110q-5 0 -15 1t-20 1q-8 0 -12 -2 q-3 0 -11 2t-14 2h-10h-10h4h-29h-10q-5 0 -11 -2t-9 -2q-11 0 -7 26l5 17q1 11 0.5 46t1.5 52l4 47q1 12 3.5 30t2.5 25l4 25q6 41 6 149l4 56v16q2 6 2 19q3 14 4.5 36.5t3.5 28.5l-2 21l-2 59q-1 3 2.5 25.5t-0.5 27.5q0 2 4 10q-1 5 0 17.5t0 19.5l9 66q0 4 -1 18t-1 19 q2 2 2 4q0 3 1 10t1 10q0 1 1 3t1 3l2 19q2 6 1.5 19.5t-3.5 19.5l6 24l-2 19q0 12 18 12h21h8h25q3 0 12 -1t12 -1q1 0 3 1t3 1q2 0 7.5 -1t9.5 -1h47q3 0 12 -2t12 -2q20 2 68 2zM57 -2l15 63l8 43q-3 13 2 31q1 9 5.5 27.5t6.5 30.5q4 8 4 24l11 64q0 2 -1.5 7t-1.5 7 q3 14 7 20h14h80q7 0 21 -1t20 -1q12 0 16 2q2 0 5 -1t5 -1h11q2 0 11 2t11 2l31 -6h33l41 4h4q4 0 6 -4l-12 -41q-1 -9 -1 -23.5t-1 -19.5q-9 -36 -9 -45l-2 -12l-8 -49q-1 -3 -3.5 -12.5t-2.5 -14.5v-10q-6 -24 -6 -27q0 -13 -4 -37l-4 -22l-2 -2q-26 0 -59.5 2t-39.5 2 t-16.5 -1.5t-22.5 -2.5q-6 0 -14.5 2t-13.5 2h-15q-28 -4 -34 -4q-2 0 -7.5 1t-7.5 1h-10q-6 0 -8 2q-28 -4 -47 -4q-3 0 -8 1t-7 1z" />
<glyph unicode="&#x22;" horiz-adv-x="768" d="M227 1405q0 4 15 4h20l49 -4q5 0 11.5 1t11.5 1h20q4 0 11 -1t16 -1q8 2 10 2h35q3 0 10 1t10 1q17 0 21 -4q-2 0 -2 -2q0 -1 -1 -4t-1 -4t-1 -4t-1 -5q-2 -10 -6 -38q-6 -18 -6 -19l-3 -16l-8 -27q0 -2 -4 -18.5t-8.5 -35.5t-9.5 -45.5t-8 -47.5q-14 -45 -25 -92 t-15.5 -70.5t-5.5 -24.5v-2q-4 -40 -14 -69q0 -5 -2 -7q0 -6 -4 -34l-10 -11q-8 0 -28 1t-23 1h-23q-5 0 -41 -2t-49 -2q1 6 3.5 20t2.5 17l2 31q0 3 1 14t1 13l4 26q1 3 2 21t4 51t7 65q3 28 9 99.5t7 75.5l6 34q0 3 4 11q-3 6 0 18q1 4 2.5 31t3.5 35v16zM596 1405 q0 4 14 4h21l49 -4q5 0 11 1t11 1h21q4 0 11 -1t16 -1q8 2 10 2h35q3 0 10 1t10 1q17 0 21 -4q-2 0 -2 -2q0 -1 -1.5 -4t-1.5 -4t-1 -4t-1 -5q-2 -10 -6 -38q-6 -18 -6 -19l-2 -16l-8 -27l-7 -26q-6 -27 -13 -60.5t-11 -60.5q-14 -46 -24.5 -92.5t-15 -70t-5.5 -24.5v-2 q-4 -40 -14 -69q0 -5 -2 -7q0 -6 -4 -34l-11 -11q-8 0 -28 1t-23 1h-22q-5 0 -41 -2t-49 -2q1 6 3 20t3 17l2 31q0 3 1 14t1 13l4 26q1 3 2 21t3.5 51t6.5 65q3 28 9.5 99.5t7.5 75.5l6 34q0 3 4 11q-3 6 0 18q0 4 2 31t4 35v16z" />
<glyph unicode="#" d="M758 0q-14 2 -43 2q-2 0 -6.5 -1t-6.5 -1q-4 0 -14 1t-14 1t-7 -1l-3 -1q-4 0 -9 8q0 1 5 14t6 23l20 123q5 7 8.5 21.5t3.5 15.5l4 18q0 8 7 29.5t8 28.5l8 34q0 5 4 29q-70 0 -131 -4h-76q-7 -36 -20 -90l-25 -96q-14 -51 -20 -92t-7.5 -51.5t-7.5 -10.5h-114 q-14 2 -43 2q-2 0 -6.5 -1t-6.5 -1q-4 0 -14 1t-14 1t-7 -1t-4 -1q-3 0 -8 8q0 1 5 14t6 23l20 123q5 7 8.5 21.5t3.5 15.5l4 18q0 8 7 29.5t8 28.5l8 34q0 5 4 25h-31q-9 0 -20 1t-15 1t-20 -4l-16 4q-4 0 -14.5 -3t-20.5 -3h-29q-19 0 -14 41q-1 5 0.5 13t1.5 9v43 q0 13 2.5 30t3.5 22l-2 30q-7 10 -4 21l-2 10q8 6 47 6h100q14 0 40 -1t40 -1l8 33q6 35 8 41l9 39q2 6 3 19.5t3 19.5l8 18q0 11 3 28t3 21l6 29h-45q-9 0 -20 1t-15 1q-6 0 -18 -4l-18 4q-4 0 -13.5 -3t-19.5 -3h-29q-21 0 -16 41q-1 5 0.5 12.5t1.5 9.5v43q1 13 3 28.5 t3 23.5v30q-6 6 -6 21v10q6 6 45 6h100q16 0 45 -1t45 -1h6l15 64l18 75q-1 14 7 36.5t8 27.5l6 39q11 20 16.5 51t1.5 43q1 2 5.5 20t10.5 34t11 16q6 -2 16 -2h6q80 0 80 -3h43q8 0 19 1.5t22 1.5q15 0 17 -5q3 -8 -2.5 -41t-14.5 -61l-10 -37q-1 -8 -7 -31t-7 -36 l-27 -113q-2 -37 -14 -76l7 -3l54 -1q17 1 25.5 2.5t25.5 1.5h45q5 0 23 -1t31 -1l14 62l18 75q-1 14 7 36.5t8 27.5l6 39q11 20 16.5 51t1.5 43q1 2 5.5 20t10.5 34t11 16q6 -2 16 -2h6q80 0 80 -3h43q8 0 19 1.5t22 1.5q15 0 17 -5q3 -8 -2.5 -41t-14.5 -61l-10 -37 q-1 -8 -7 -31t-7 -36l-27 -113q-6 -53 -14 -82h6q5 0 37 2t63 2q43 0 43 -10q0 -2 -2 -14t-4 -19v-22q-1 -4 -0.5 -7t1.5 -6t1 -4q-3 -15 2 -41q-1 -5 -3 -20.5t-3 -20.5q1 -1 6 -20q0 -3 -0.5 -10t-1 -10.5t-1.5 -8.5t-2.5 -7.5t-5 -4.5t-7.5 -2q-3 0 -11 1t-14 1l-55 6 q-14 -2 -47 -2q-40 0 -56 2l-6 -29q-1 -7 -2 -13.5t-2.5 -16t-3.5 -19.5v-26l-8 -29l-4 -29q0 -1 -1 -8t-5 -12l-11 -54l-4 -14q3 0 11 -1t12 -1q5 0 50.5 2t76.5 2q40 0 41 -5q1 -1 0 -5q0 -21 -4 -33l-2 -22q0 -13 4 -17q-1 -5 -1 -20.5t-1 -20.5q3 -16 -2 -41q1 -1 6 -20 q0 -3 -0.5 -8.5t-1 -8.5t-1 -8t-2 -7.5t-3.5 -5.5t-4.5 -4t-6.5 -1q-3 0 -12 1t-14 1l-80 6q-14 -2 -47 -2q-46 0 -62 2l-20 -92l-25 -96q-14 -51 -20 -92t-7.5 -51.5t-7.5 -10.5h-114zM569 573l-4 -8h2q22 -3 22 -5l54 -1q17 1 25.5 2.5t25.5 1.5h45q23 0 37 -2l8 31 q5 29 9 41l8 39q2 6 3 19.5t3 19.5l8 18q0 11 3 28t3 21l6 31q-8 0 -12 2q-72 0 -133 -4h-70l-6 -27q-1 -7 -2 -13.5t-2.5 -16t-3.5 -19.5v-26l-8 -29l-4 -29q0 -1 -1 -8t-5 -12z" />
<glyph unicode="$" d="M1149 1038q-37 -5 -51 -14l-31 -20l-35 -13q-5 1 -34.5 -16.5t-32.5 -18.5l-13 41q-20 55 -94.5 104.5t-157.5 49.5q-12 0 -14 -2l-29 -4q-58 -5 -99.5 -41t-53.5 -74q1 -6 -0.5 -18.5t1 -26.5t11.5 -37l37 -33q26 -20 51 -28q12 -3 41 -14t43 -11q2 2 4 2l33 -8 q18 -6 39 -14.5t33 -10.5l16 -6q4 0 10 -1t13.5 -2.5t11.5 -2.5q3 0 15 -6t14 -6q31 4 129 -55l20 -14l-2 1l45 -47q15 -14 27.5 -32.5t27.5 -34.5q10 -38 27 -60l4 -30l4 -37v-78q0 -49 -8 -72l-23 -61q-18 -36 -61 -93.5t-74 -76.5l-63 -39q-21 -13 -35 -19.5t-29.5 -12 t-29.5 -11.5l-11 -4q-10 -2 -39 -2q-3 0 -32 -8.5t-31 -8.5h-4q-14 0 -29 -2t-24 -2h-7q-16 -4 -26 -4l-6 -39l-2 -12v-10l-7 -31l-6 -25q0 -1 0.5 -3t0.5 -3.5v-3.5t-1 -4l-4 -12q0 -11 -2 -25q0 -8 -2 -12v-8q-2 -15 -31 -15q-3 0 -8.5 1t-7.5 1h-29q-10 0 -25 1t-22 1 h-20q-6 -4 -17 -4h-8q-2 5 2 35l2 14l11 60l12 63l6 45v7q-36 12 -76 12l-16 10q-3 0 -16.5 2t-16.5 2l-8 4l-98 56q-6 -3 -22 8.5t-34.5 27.5t-23.5 19q-2 2 -11.5 17t-19.5 24l-12 16l-9 19q-12 10 -14 16l-8 16q-1 1 -9 21t-14 31l-2 18q-12 32 -12 66q105 21 129 24 l12 -2q2 0 10.5 4t10.5 4h14q88 25 107 25q4 -1 6.5 -7.5t5 -19.5t4.5 -20q7 -34 72.5 -93.5t130.5 -68.5h69q28 0 48 4l8 2q9 1 19.5 4t25 8t29.5 13t29.5 18t27 26t20.5 34q1 2 5.5 16.5t5.5 15.5l-5 35q-2 31 -27 54t-52 33.5t-70 21.5q-5 0 -27 13t-53 13h-20l-17 13 l-24 4q-6 0 -12.5 1.5t-18 5.5t-22.5 8.5t-33 13t-41 16.5q-10 7 -38.5 23.5t-39.5 25.5q-36 32 -55 45l-9 6l-4 12l-14 19q-2 4 -10 12l-2 6l-19 41l-6 31q-2 7 -7.5 31.5t-4.5 25.5l-2 29v65q6 18 6 39l4 29l14 35q10 16 20 43t27 45q0 2 14 14t13 15l21 22q12 19 57 49 t84 45q130 46 184 52q2 0 17.5 1t17.5 1l6 36q2 6 2 25l12 76q4 24 6 28.5t7 4.5q14 0 24 -2h29q3 0 17.5 1t17.5 1q4 0 15.5 -1t15.5 -1q2 2 14 2q9 0 14.5 -0.5t10.5 -3.5t4 -9l-7 -20l-8 -37l-4 -39q0 -4 -4 -16v-11l-8 -51l55 -16q32 -9 58 -21t39 -19t20 -7 q16 -13 30.5 -23t25 -18.5t26.5 -24.5l28 -41q38 -54 52 -80l8 -26q1 -4 7 -18.5t5 -22.5z" />
<glyph unicode="%" horiz-adv-x="1783" d="M459 0q-12 2 -82 2q-2 0 -7.5 -1t-7.5 -1q-4 0 -13 1t-13 1t-8 -1l-4 -1q-2 0 -5 8l11 14q12 13 18 23l82 123q7 7 16.5 20t12.5 17l12 18q5 8 23.5 31.5t21.5 26.5l25 34q32 44 47 72l39 51q2 3 19.5 21.5t21.5 29.5l26 37q6 5 27 33l22 33q8 11 13 18t6 9t3 5t7 9 l70 96q3 6 32 49l109 152q10 10 10 14l103 146l39 51q5 13 24 35t21 28l26 39q20 20 41.5 51t24.5 43q2 2 15 21.5t27 37t19 17.5q4 -2 15 -2h6h35h-3h11l59 -2q8 0 22 1t25 1q18 0 21 -2q-10 -18 -80 -111l-29 -36q-8 -13 -26 -37t-23 -31l-63 -88q-31 -51 -77.5 -110 t-64.5 -87l-24 -32q-21 -33 -37 -54l-31 -43q-11 -15 -33 -49l-22 -26l-23 -29l-18 -29q-5 -10 -15 -20l-36 -54q-22 -27 -25 -32l-74 -103q-6 -11 -21.5 -30.5t-19.5 -26.5q-47 -69 -94 -131l-70 -96q-25 -33 -46 -62.5t-30.5 -45t-17 -27t-11 -15.5t-7.5 -4h-21h-26z M221 739q-4 9 -15 18t-9 23l-9 11q-5 3 -11 26.5t-7 46.5l-4 17q-5 31 -2 45l-2 30l-2 5l2 12v20v6q0 7 5.5 28.5t6.5 31.5l14 57q3 6 4.5 15t4.5 12l6 24l3 4q3 4 3 9l27 51q5 3 17 21.5t13 25.5l10 10q1 1 34 30.5t69.5 52t73.5 26.5l77 10q11 1 18.5 0.5t16 -1.5t10.5 -1 q53 1 96 -18t67 -46.5t41 -55.5t23 -48l5 -20l8 -37q-1 -11 0.5 -22t5 -25t4.5 -21l-2 -10q-1 -5 0.5 -11t1.5 -8l-4 -26q-1 -7 -0.5 -30.5t-1.5 -35.5q0 -2 -2 -6t-2 -6l-2 -10q2 -4 0.5 -8.5t-4 -13t-2.5 -13.5l-2 -14q-3 -22 -25 -62t-24 -49l-8 -16q-6 -6 -12.5 -16 t-10.5 -13l-16 -23q-46 -39 -58 -41l-8 -6l-57 -32q-8 -7 -20 -9.5t-17 -5.5l-25 -4q-42 -6 -53 -6l-43 -2q-60 0 -119 23t-88 81zM383 1038q-2 -27 -6 -73v-11v-12l-4 -24q0 -7 4.5 -21.5t5.5 -26.5l6 -30q6 -27 27 -48t63 -18q11 0 21.5 4t16.5 8.5t14.5 11.5t11.5 9 q13 16 17.5 21.5t10 16.5t6.5 13.5t7.5 21.5t11.5 33l8 21q0 3 -1 7.5t-1 6.5l6 19q0 2 3 10.5t3 9.5v17q0 17 7 38l-3 86q-2 36 -4.5 53.5t-10 37t-21.5 32.5l-23 19q-12 6 -39 6h-14q-15 -3 -49 -25l-8 -10q-50 -79 -66 -194v-9zM1079 100q-4 9 -15 18t-9 23l-8 11 q-5 3 -11.5 27t-7.5 46l-4 17q-5 31 -2 45l-2 30l-2 5l2 12v20v6q0 7 5.5 28.5t6.5 31.5l15 57q3 6 4 15t4 12l6 24l3 4q3 4 3 9l27 51q5 3 17 21.5t13 25.5l11 10q1 1 33.5 30.5t69 52t73.5 26.5l78 10q11 1 18.5 0.5t16 -1.5t10.5 -1q53 1 96 -18t67 -46.5t40.5 -55.5 t22.5 -48l5 -20l8 -37q-1 -11 0.5 -22t5 -25t4.5 -21l-2 -10q-1 -5 0.5 -11t1.5 -8l-4 -26q-1 -7 -0.5 -30.5t-1.5 -35.5q0 -2 -2 -6t-2 -6l-2 -10q2 -4 0.5 -8.5t-4 -13t-2.5 -13.5l-2 -14q-3 -22 -25 -62t-24 -49l-8 -16q-6 -6 -12.5 -16t-10.5 -13l-16 -23 q-46 -39 -58 -41l-8 -6l-57 -32q-8 -7 -20 -9.5t-17 -5.5l-25 -4q-42 -6 -53 -6l-43 -2q-60 0 -119 23t-88 81zM1241 399q-2 -27 -6 -73v-11v-12l-4 -24q0 -7 4.5 -21.5t5.5 -26.5l6 -30q6 -27 27 -48t63 -18q11 0 21.5 4t16.5 8.5t14.5 11.5t11.5 9q13 16 17.5 21.5 t10 16.5t6.5 13.5t7.5 21.5t11.5 33l8 21q0 3 -1 7.5t-1 6.5l6 19q0 2 3.5 10.5t3.5 9.5v17q0 20 6 38l-2 86q-3 52 -10 78t-27 45l-23 19q-12 6 -39 6h-14q-15 -3 -49 -25l-8 -10q-50 -79 -66 -194v-9z" />
<glyph unicode="&#x26;" horiz-adv-x="1509" d="M1503 766q-12 -35 -80 -166q-7 -12 -45 -64.5t-96.5 -123.5t-97.5 -103q0 -15 41 -45l26 -18q10 -2 16.5 -3t10.5 -0.5t13 1t18 0.5q27 0 39.5 2.5t13.5 -0.5l53 4v-14q-1 -7 -6 -46q0 -2 -1 -7.5t-1 -8.5l-4 -22v-7l-8 -32l-6 -45q1 -29 -5 -45q-4 -5 -42.5 -14 t-71.5 -9h-4q-17 0 -38.5 -1t-27.5 -1q-9 0 -27.5 4t-31.5 6q-1 0 -11.5 1.5t-22 5.5t-29 12.5t-42.5 27.5t-53 47l-16 25q-114 -79 -166 -94l-58 -25q-3 -1 -18 -6.5t-18 -5.5l-45 -12q-22 -5 -56.5 -5t-56.5 -2q-27 0 -53.5 1.5t-59 5t-49.5 4.5l-16 4q-2 0 -13.5 4 t-19.5 4l-64 23q-41 28 -69 43q-52 30 -97.5 93t-56.5 115l-6 27q1 5 -2.5 12t-3.5 13l-2 34q-2 16 -1.5 24.5t2 19t1.5 14.5q1 8 2 29.5t6 44.5q2 2 2 6l8 24q1 2 10.5 19.5t18.5 34t12 18.5l62 72q3 0 19.5 14t19.5 16l61 43q7 5 34 19t77 32.5t94 26.5q-2 3 -8.5 14 t-13.5 21t-15 18l-10 29q-36 102 -43 172l2 31q4 45 19 96.5t40 77.5l19 20q3 6 10.5 14t11.5 9l43 37l31 16q1 0 15 6t18 6l32 17q2 0 27 7t27 7l55 12q12 0 36.5 3.5t31.5 3.5h32h37q3 0 9.5 -1t9.5 -1q51 -7 112 -27q24 -5 59 -24t74 -50.5t66 -81t27 -104.5l-2 -25 q-5 -35 -5 -41l-10 -63q-9 -10 -16 -37t-10 -31q-3 -6 -15.5 -22t-17.5 -29l-23 -20q-9 -10 -73 -66l-78 -41q-23 -9 -27 -10q-18 -14 -40 -19.5t-40 -17.5l17 -16q-1 -4 8.5 -17t20 -26.5t10.5 -14.5q2 -3 6.5 -8t15.5 -19t27 -34l2 -8q11 -17 31 -38t30 -40q78 78 103 123 q20 32 36 65l21 43q2 6 13.5 33.5t15.5 42.5l38 -4q5 0 20.5 -4t20.5 -4q51 0 82 -15l35 -4q-6 0 1 -1q3 0 15 -1q71 -6 72 -10zM434 252q4 -2 16.5 -10t18.5 -11t18 -8t25.5 -6.5t30.5 -1.5h12h8q2 0 5 -1t5 -1q104 0 244 104q-1 5 -13.5 22.5t-29 39.5t-22.5 33 q-7 11 -13.5 18.5t-9 10t-5 6.5t-5.5 10l-39 47q-6 9 -16 24.5t-17 24.5q-19 19 -35 45l-30 41l-37 -14l-64 -35l-53 -35q-44 -36 -61 -131q-10 -52 8 -91.5t59 -80.5zM668 1110q0 -21 -2 -29l-2 -47l10 -20q20 -36 82 -107q5 2 40.5 14.5t60 26t50.5 37.5q-1 0 2 3 q36 35 41 65l8 49q-2 2 -2 4l-4 31q-3 34 -48.5 58t-86.5 24q-73 0 -106 -37l-27 -29z" />
<glyph unicode="'" horiz-adv-x="401" d="M227 1405q0 4 15 4h20l49 -4q5 0 11.5 1t11.5 1h20q4 0 11 -1t16 -1q8 2 10 2h35q3 0 10 1t10 1q17 0 21 -4q-2 0 -2 -2q0 -1 -1 -4t-1 -4t-1 -4t-1 -5q-2 -10 -6 -38q-6 -18 -6 -19l-3 -16l-8 -27q0 -2 -4 -18.5t-8.5 -35.5t-9.5 -45.5t-8 -47.5q-14 -45 -25 -92 t-15.5 -70.5t-5.5 -24.5v-2q-4 -40 -14 -69q0 -5 -2 -7q0 -6 -4 -34l-10 -11q-8 0 -28 1t-23 1h-23q-5 0 -41 -2t-49 -2q1 6 3.5 20t2.5 17l2 31q0 3 1 14t1 13l4 26q1 3 2 21t4 51t7 65q3 28 9 99.5t7 75.5l6 34q0 3 4 11q-3 6 0 18q1 4 2.5 31t3.5 35v16z" />
<glyph unicode="(" horiz-adv-x="618" d="M342 -365l-35 3h-45q-44 65 -67 133l-11 20q-3 7 -27.5 58.5t-29.5 78.5l-37 88l-16 72q-1 5 -3.5 14t-2.5 13q-23 50 -23 110l-2 25q-18 142 -14 168l2 12q0 3 -2 23.5t-2 23.5l12 80q10 30 10 35q0 3 2 22t2 21l2 6q2 4 13 53q1 5 22 62.5t23 72.5q13 28 86 158l18 41 q11 20 39.5 52.5t36.5 49.5q1 7 22 33.5t27 38.5q7 15 41 51.5t35 38.5q12 17 22.5 31t16.5 22.5t14 16.5t10.5 10t9.5 8l7 6l16 19h84q6 0 17 -1t14 -1q2 0 5.5 1t4.5 1h25q6 0 16 1t14 1q15 0 21 -2q-1 -4 -7 -12t-16 -19.5t-12 -13.5l-29 -37q-22 -19 -53 -66.5 t-33 -60.5q-6 -9 -21 -30.5t-19 -27.5t-14.5 -22t-14 -21.5t-11.5 -19.5t-12.5 -22.5t-12 -23t-14 -29t-14.5 -33.5q-1 -5 -14 -32t-28 -65.5t-21 -74.5l-7 -17q-4 -26 -17 -65.5t-17 -59.5v-30l-4 -7l-15 -73q-1 -34 -9.5 -83t-8.5 -79l2 -45q0 -6 -2 -39.5t-3 -54.5t1 -27 l6 -57q5 -61 8 -88l6 -35q13 -30 13 -64l6 -32l8 -23q4 -11 6.5 -29.5t7.5 -31.5l6 -19q2 -5 6.5 -21.5t11 -32.5t17.5 -36q16 -48 45 -104l-2 -4h-24q-3 0 -8.5 1t-8.5 1q-12 0 -20 -2q0 2 -5 2t-12 -1l-6 -1z" />
<glyph unicode=")" horiz-adv-x="618" d="M281 1407l34 -2h41q31 -45 72 -133l10 -21q3 -8 28 -59t30 -78l36 -88l17 -72q1 -5 3.5 -13.5t2.5 -12.5q23 -50 23 -111l2 -24q18 -142 14 -168l-2 -13q0 -3 2 -23.5t2 -23.5l-12 -80q-11 -33 -11 -34q0 -3 -2 -22t-2 -21l-2 -7q-4 -7 -6 -16t-3.5 -20t-2.5 -17 q-1 -5 -22 -62.5t-23 -72.5q-13 -28 -86 -158l-18 -41q-11 -20 -39.5 -52.5t-36.5 -49.5q-1 -7 -22 -33.5t-27 -38.5q-7 -15 -41 -51.5t-35 -38.5q-12 -17 -22.5 -31t-16.5 -22.5t-14 -16.5t-10.5 -10t-9.5 -8l-7 -6l-16 -18q-16 1 -31 1t-30.5 -0.5t-22.5 -0.5t-17.5 1 t-13.5 1q-2 0 -5.5 -1t-4.5 -1h-25q-6 0 -16.5 -1.5t-14.5 -1.5q-11 0 -20 3q1 4 7 12t16 19.5t12 13.5l28 36q22 19 53 66.5t33 60.5q73 107 95 149q15 30 38 81q1 5 14.5 32t28.5 65.5t21 74.5l6 16q4 26 17.5 65.5t17.5 59.5v31l4 6l14 74q1 34 10 83t9 79l-2 45 q0 6 2 39t3 54t-1 27l-6 58q-3 43 -9 88l-6 35q-12 28 -12 63l-6 33l-8 22q-3 11 -6.5 29.5t-8.5 32.5l-6 18q-2 5 -6.5 21.5t-11 32.5t-17.5 36q-17 51 -45 105l2 4h25q3 0 8 -1t8 -1q13 0 21 2q0 -2 5 -2t11 1l6 1z" />
<glyph unicode="*" d="M573 961h-10l-28 6q-9 2 -37.5 13t-36.5 11l-23 4q-6 0 -28 9q-27 11 -68 21.5t-53 14.5q1 4 12.5 29.5t17.5 46.5l5 6q3 3 18 39q9 19 24.5 41t20.5 27l14 -8q41 -30 93 -50q8 -3 24.5 -17t56.5 -32l29 -14q41 -26 45 -27v4q2 8 2 41l8 60q3 19 2.5 49.5t2.5 46.5 q9 73 4 107v16l14 4h72q1 0 14.5 -2t19.5 -2h27q8 -2 21 -2h10h2q18 1 18 -12v-2q-2 -12 -14.5 -48t-15.5 -53q-1 -5 -1 -17t-1 -18l-4 -16q-1 3 -5 -5q-8 -21 -30 -112l-9 -28q0 -2 -3.5 -10.5t-4.5 -12.5q6 2 14.5 7t27 16t44.5 24l15 4q59 36 104 51q63 20 102 50l17 10 l8 -12q2 -11 6.5 -35t8 -42.5t3.5 -19.5q-2 -16 5 -41t6 -41q-10 -5 -47 -13t-54 -13h-4q-6 0 -27 -11.5t-34 -11.5q-8 0 -10 2l-13 -4h-2q-8 0 -44.5 -12t-45.5 -14h-39l12 -15q59 -86 67 -86q1 2 4 -4q2 -3 5 -8q12 -29 13 -31q7 -14 29.5 -39.5t27.5 -34.5q6 -14 -14 -24 l-9 -6l-18 -15l-23 -14q-15 -9 -30 -24l-68 -41l-14 -5l-4 15q-5 32 -35 94q-8 13 -17 41.5t-18 44.5l-25 49l-12 37q-2 0 -2 2q-2 -2 -7.5 -10t-13.5 -19.5t-14 -19.5l-20 -31q-32 -39 -43 -61t-17 -29q-40 -46 -69 -98l-12 -17q-46 23 -60 37q-5 4 -13.5 13t-12.5 12l-9 2 q-11 16 -29 31.5t-20 19.5q12 15 45 47t53 55q18 22 25 25l18 16q7 4 30 31.5t30 34.5z" />
<glyph unicode="+" d="M600 1241q5 0 31 1t31 1t20 -1t20 -1q8 4 21 4h6h6h6t6 -0.5t5 -1t5 -1t4 -2t3.5 -3t2.5 -3.5t1 -5q-5 -14 -2 -27l-8 -53q4 -14 4 -47q0 -12 -1 -34.5t-1 -29.5v-55q0 -7 3 -38t3 -38q0 -50 -6 -73q14 0 46 -3.5t48 -3.5h23q15 0 41.5 1t39.5 1h19q3 0 26 -1t27 -1 q5 0 37 2t63 2q44 0 46 -10q-3 -15 -9 -33v-22q1 -2 1.5 -6t1 -6.5t1.5 -3.5q-1 -6 1 -33t2 -29q0 -5 -1.5 -20.5t-1.5 -20.5q5 -5 5 -20q4 -43 -15 -43q-2 0 -11.5 1t-14.5 1l-54 6q-14 -2 -47 -2q-62 0 -94 4h-25q-7 0 -38.5 -3t-38.5 -3q-48 0 -68 4v-47q0 -4 -1 -11.5 t-1 -11.5q0 -2 2 -7t2 -7v-72v-69q1 -8 0 -34.5t0 -31.5q0 -4 4 -20l-4 -17q0 -3 3.5 -14t2.5 -21l2 -28q-2 -17 -41 -17q-10 0 -22 4q-5 0 -21.5 -1t-21.5 -1q-12 0 -37 2t-35 2h-31q-6 -6 -20 -6h-10q-4 4 -9 45v131v91l-2 59q0 29 -2 37v43h-51q-4 0 -11 1t-11 1 q-5 0 -17 -4q-10 0 -35 1t-34 1h-88q-9 0 -20 1t-15 1q-3 0 -23 -4l-14 4q-4 0 -14.5 -3t-20.5 -3h-29q-18 0 -18 41q0 4 2 11.5t2 10.5q0 5 -1 21.5t-1 21.5q0 12 1 37t1 35v31q-6 6 -6 20v10q6 6 45 6h100q15 0 54 -1t55 -1h59q5 0 19 1t18 1h47l-2 3q1 14 4 45t4 47 l-2 22q0 15 -1 57.5t-1 55.5l-2 18q2 6 2 23q0 1 -2.5 34.5t-1.5 65.5q-2 31 -0.5 37t8.5 6q15 0 33 -6h23q4 0 10 1z" />
<glyph unicode="," horiz-adv-x="542" d="M119 -287l-17 -32h-47q-4 0 -11.5 1t-10.5 1h-33q-3 0 -8.5 -1t-7.5 -1q-7 0 -7 4q0 1 3 4.5t4 5.5l47 82l6 12l12 18q3 7 10 15l56 92q0 2 1.5 4.5t4 6.5t4.5 7l41 64q-2 0 -6 -1t-6 -1h-17q-3 0 -25 1t-28 1h-37q-2 0 -7 -1t-7 -1q-9 0 -6 8q2 13 7 38.5t7 39.5 q0 1 -1 4.5t-1 5.5l4 23q0 1 2 4.5t2 5.5q0 4 3.5 29.5t4.5 29.5l4 37q4 13 15 74q3 21 2 22v4q4 0 13 -1t13 -1h17h65q4 0 10 1t11 1h12q7 0 19.5 -1t19.5 -1h23h49q4 0 21 2.5t26 2.5q15 0 16 -17t-4 -37q0 -10 -4 -18l-8 -43l-8 -66q0 -5 -2.5 -12t-2.5 -8l-2 -8 q-6 -18 -6 -19v-6l-12 -70q-6 -7 -20 -27t-19 -24l-20 -20q-1 -4 -19 -31l-55 -76q-6 -14 -21 -28.5t-16 -20.5l-35 -47q-1 -6 -18 -31z" />
<glyph unicode="-" horiz-adv-x="542" d="M524 565q-1 -5 -6 -29.5t-6 -29.5t-4 -20.5t-4 -20.5q4 -7 0 -21q-4 -38 -12 -38q-2 0 -11.5 1t-15.5 1l-78 2l-55 -2q-4 0 -10.5 1t-10.5 1q-8 0 -16 -4q-10 0 -36.5 1t-35.5 1h-12h-16h-41q-9 0 -19 1t-14 1q-7 0 -23 -4l-14 4q-4 0 -15.5 -1t-21.5 -1h-14q-3 0 -8 -1 t-7 -1q-12 0 -12.5 13t2.5 25q1 5 4.5 13.5t3.5 9.5q4 20 4 43q2 12 7.5 31t7.5 28v4l4 27q-5 7 0 27l2 10h43h20h80q16 0 45 -1t45 -1h60q5 0 19 1t18 1h121h47q0 -11 -11 -33l-4 -18v-4v-17z" />
<glyph unicode="." horiz-adv-x="542" d="M27 4q0 4 1 15t2 19t3.5 17t5.5 13l2 34q1 2 7 35t7 35q0 1 1 9t1.5 13.5t-0.5 8.5l13 73q-4 3 0 15.5t4 15.5l2 6q4 3 20 3t41 -1.5t35 -1.5h80q2 0 11.5 2t10.5 2h15q3 0 26 -2t27 -2h29q2 0 10 2t10.5 -0.5t-0.5 -11.5l-14 -82v-10q0 -5 -6 -23l-2 -10 q0 -2 -3.5 -28.5t-3.5 -28.5l-8 -35q0 -3 -3.5 -22.5t-6 -38t-0.5 -21.5v-4l-31 2h-65q-9 0 -17 -1t-22 -1q-7 0 -21.5 2t-21.5 2h-4q-9 -2 -68 -2q-4 0 -23.5 -3t-32 -2.5t-11.5 7.5z" />
<glyph unicode="/" horiz-adv-x="933" d="M-162 -360q-23 -2 -59 -2h-4l-13 -3l-4 7l76 135q6 28 86 131l39 65q11 12 66 111q7 12 22.5 32t26 37t14.5 31l14 23q19 34 61.5 103t53.5 89l19 35q12 24 30 47l62 92q22 41 74 124.5t90.5 147t39.5 73.5l43 71l64 109q1 2 23 41l16 28q3 5 11.5 15t13.5 18.5t6 16.5 l14 26q21 25 40 56.5t21 41.5l9 15q2 3 8.5 16t12.5 21.5t11 9.5h4h5h18h27l-13 -2h6h13q23 0 39 4h18q21 0 27 -2q10 0 23.5 1t17.5 1q7 0 7 -2q0 -1 -1 -2q2 -4 -2.5 -13t-14.5 -25.5t-16 -27.5l-18 -32q-3 -5 -8.5 -11.5t-11.5 -14.5t-13 -20l-60 -102q-10 -15 -26 -43 l-101 -178q-5 -8 -20 -27l-10 -16q-35 -64 -88 -143l-80 -130l-19 -30q-5 -8 -15.5 -24t-20 -32.5t-19.5 -37.5l-16 -27q-10 -18 -31 -49.5t-27 -42.5l-32 -60q-7 -15 -25 -43l-88 -141q-11 -23 -25 -39l-116 -188q-9 -17 -32 -52.5t-30 -48.5l-12 -18q-2 -4 -8 -13.5 t-8 -13.5l-41 -73q-7 -10 -12 -19.5t-7.5 -14t-4.5 -8t-4 -4.5t-5 -1q-1 0 -8 1t-11 1h-4l-10 -2q-11 -3 -16 -3q-12 0 -52 5h-10z" />
<glyph unicode="0" d="M215 168q-3 6 -20.5 32t-16.5 38l-14 18l-14 18q-4 5 -7.5 17t-8 30t-9.5 31q-3 5 -5 27.5t-5 28.5l-4 32q-8 47 -13 82l2 53l-4 17l2 24q0 38 4 58l13 102l18 107q7 9 8 25.5t4 23.5l15 29v16q1 6 6 11t6 11q2 5 5.5 18.5t7.5 24t8 17.5l18 37l18 28l9 21l12 14 q10 10 14 25l12 16q12 12 30.5 39.5t25.5 32.5q2 2 19.5 19t25 23t23.5 19.5t32 23.5t33 19q16 4 48.5 21.5t51.5 21.5l45 11q3 0 26.5 4.5t27.5 5.5h88q13 3 28.5 -2t24.5 -4q16 1 33.5 -3.5t44.5 -14.5t35 -13q78 -42 102 -63t53 -74q3 -4 16.5 -19t24 -29.5t14.5 -25.5 q5 -23 17 -52.5t16 -45.5l17 -64l6 -16q1 -14 6 -49t6 -58l2 -18l4 -41q-4 -46 -4 -74l-6 -90q2 -4 -1 -13l-3 -9q-6 -18 -6 -23v-5q1 -5 1 -10t-1 -8l-4 -12l-4 -29l-7 -28q-8 -14 -8 -43q0 -6 -9 -22.5t-9 -22.5q-4 -25 -25 -66q-20 -40 -20 -51l-17 -31q-21 -43 -37 -59 l-24 -41q-10 -12 -30.5 -36.5t-34 -39.5t-23.5 -20l-15 -13q-5 -6 -32.5 -24t-34.5 -23l-29 -14q-15 -12 -36.5 -20t-30.5 -15l-35 -8q-87 -14 -88 -14l-72 -2q-33 -4 -57.5 0.5t-58 17.5t-52.5 18q-20 5 -96 58l-27 33q-10 8 -30 29.5t-21 29.5zM436 727l-8 -135 q3 -1 0.5 -14.5t-2.5 -16.5q-4 -24 -4 -33q5 -32 4 -34q-1 -8 0.5 -22.5t1.5 -20.5q-3 -23 6 -70l21 -59q6 -32 40.5 -64.5t90.5 -36.5q30 -3 47.5 0.5t42.5 14.5q15 6 42 26.5t30 28.5q10 15 21.5 33t16 25.5t10 20t9.5 29.5l6 21l18 80l9 35q2 14 2 28l14 37q1 4 2 20.5 t2 20.5l6 37q0 3 5 35t5 35l3 34q1 18 2.5 46t2.5 52t1 48q0 48 -2 71q-6 57 -21.5 90.5t-48.5 69.5q-2 0 -24 16t-25 17q-23 7 -54 7.5t-57 -7.5q-16 -3 -44.5 -19.5t-45.5 -29.5l-14 -23q-2 -3 -15.5 -20t-22.5 -31.5t-13 -30.5q-9 -30 -19.5 -79.5t-13.5 -59.5 q-5 -20 -8.5 -51.5t-3.5 -34.5q0 -10 -9.5 -40t-5.5 -46z" />
<glyph unicode="1" d="M123 268l117 2q3 0 40 -3t39 -3l58 4q8 -4 14 -4q1 0 15 1t33 2t32 1h16l2 8q1 7 3 15q1 1 6 22q2 15 5 34.5t5 33t2 16.5l14 90l6 17q1 2 1 12t1 16v7q20 129 21 135q6 43 19.5 116t19.5 109l29 170q-40 -40 -89 -65q-26 -13 -66 -22t-78 -12t-71.5 -4t-54.5 -0.5 t-20 1.5l16 108q2 15 7 51.5t5 38.5q1 4 6 29l5 39q11 2 103 6.5t112 11.5q53 18 94.5 42t60 38.5t21.5 14.5q74 78 86 94q25 0 37.5 -2t15.5 -2t11 1t14 1q16 0 24 -2q8 0 41.5 2t34.5 2q8 0 12 -2q10 0 20 2t19 2q9 -1 3 -29q-3 -16 -5 -27q-2 -9 -6 -26t-10 -47 q-21 -131 -33 -229t-14 -111q-1 -4 -6 -13t-5 -16l-2 -10q0 -38 -12 -117q-13 -79 -26.5 -150t-20.5 -116l4 -16q-4 -9 -8 -23l-19 -117l-20 -131h41q4 0 33 2t61 2q24 0 92 -2t84 -2h51q7 -5 7 -10q0 -2 -3 -7.5t-4 -10.5l-2 -11q-10 -61 -16 -102l-2 -12v-29q-1 -1 -6 -23 q-2 -12 -3 -24.5t-3 -22.5q-2 -12 -25 -12q-104 0 -123 2h-6q-2 0 -6.5 1t-7.5 1q-4 0 -21.5 -2t-32.5 -2h-18q-74 -2 -102 -2q-2 0 -5.5 1t-5.5 1h-12l-17 -1q-17 -1 -26 -1q-14 0 -14 2h-8q-63 0 -109 4q-2 0 -14 -2t-15 -2h-55q-1 0 -3 -1t-3 -1t-3 1t-3 1h-45 q-7 0 -21 -1t-20 -1h-6q-6 0 -12 -1t-9 -1q-6 0 -8 4h-8h-6q-5 0 -12 -1t-9 -1q-6 0 -6 2h-57q-136 0 -193 2h-6q-10 0 -12 1t-2 7q1 2 6 17l2 12q0 17 2 27q0 2 12 55v14l17 66q2 16 0 16v-2l4 21q0 6 2 10q0 4 -1.5 8t-0.5 6q2 2 10 8z" />
<glyph unicode="2" d="M915 262h43l146 2q0 -15 -6 -33q1 -3 -2 -22t-2 -23l-2 -8q-1 -16 -1.5 -24.5t-1 -11t-1 -3.5t-1.5 -4t-2 -10l-4 -35q-2 -8 -2 -20l-6 -25q0 -5 -6 -41q0 -3 -1.5 -5t-4.5 -2.5t-6 0t-9 1t-10 0.5q-7 0 -50 2t-64 2q-78 0 -164 -4q-3 0 -7.5 1t-7.5 1h-10l-74 2 q-50 0 -75 2q-2 0 -14 -2t-15 -2h-55q-1 0 -3 -1t-3 -1t-3.5 1t-3.5 1q-17 0 -38 -1t-25 -1h-43q-3 0 -5.5 1t-4.5 1q-5 0 -10 -2l-5 -2q-4 0 -4 4h-8h-53h-129h-135q-7 3 -4 18q0 3 8 27l1 21q0 20 5 28q3 22 10 60q1 2 0.5 4t-1.5 5t-1 5q2 2 6 20q3 13 0 13v-6l10 73 q3 5 4 20t5 21q2 -2 11.5 5.5t38 27t62.5 37.5l49 29q1 1 4.5 3l7 4t7.5 3l43 26l39 25q31 23 78 51t84 55l67 48q7 6 29.5 19t25.5 15l50 33q26 25 57.5 51.5t46.5 42.5l31 33q16 18 23.5 27t24.5 42t28 75q10 30 -3 63q-9 65 -57.5 106t-107.5 41h-23q-56 -6 -78.5 -14 t-50.5 -33l-18 -14q-1 -1 -14 -17t-18.5 -23.5t-15.5 -21.5t-15 -24.5t-7 -19.5l-31 -91q-24 4 -39 9q-9 0 -71 13t-120.5 27t-57.5 17q5 19 13 39t9 33l2 4q2 2 11 26.5t12 28.5l28 53l60 86q17 13 38 40.5t33 35.5q11 13 45.5 37t77.5 37q31 9 51 20l23 4l22 9 q27 0 52.5 5t44.5 5h35q3 0 9 -1t9 -1t8 1t8 1q29 0 140 -27l20 -4q4 -1 20.5 -8t28.5 -10l17 -9q8 -5 35 -20t47 -31q51 -40 96 -106q56 -81 65 -230q3 -51 -10 -113.5t-41 -105.5l-18 -30q-14 -24 -56.5 -64t-56.5 -55l-29 -23q-14 -16 -57.5 -43t-54.5 -37l-84 -47 q-128 -71 -133 -73l-52 -25q-24 -15 -48.5 -27t-42 -20t-21.5 -10l-29 -19l-26 -14l-66 -25l-2 -6q125 4 139 4q8 0 25 -1t26 -1q19 0 54 1t49 1l41 2q51 -4 198 -4z" />
<glyph unicode="3" d="M102 410q56 7 68 12q4 2 14 2q1 0 16 4.5t17 5.5l39 2q11 1 21.5 4t17.5 4q32 -91 57 -118q4 -11 20 -27t30 -27l14 -10q35 -23 71.5 -30t94.5 -9q56 0 110 25l41 24q56 44 70 127q-1 41 -10 72t-24 50t-26.5 29t-26.5 20q-3 2 -5 3q-21 14 -63.5 24.5t-72.5 10.5h-30 q-9 0 -45 -2t-59.5 -2t-22.5 4q-3 6 0 21l4 16v14q0 1 1 3.5t1 3.5l2 8q-1 3 0.5 10.5t1.5 9.5l4 29v27l10 55q0 2 1 9t1 9q4 18 2 23q12 -2 41 -2l25 2q6 -1 12.5 -1t13.5 0.5t11 0.5l24 -2q27 0 46 1.5t32 0.5q7 2 37 5t53 11q30 14 44.5 23t31 26.5t23.5 43t10 65.5 q4 42 -14 76q-29 58 -73 76t-112 20q-40 6 -88 -14q-24 -11 -34.5 -18.5t-18.5 -16.5t-16 -15l-43 -51l-7 -14t-6.5 -14t-5.5 -11.5t-6 -8.5t-6 -3q-11 0 -21 4l-39 10q-8 4 -10 4q-24 7 -77.5 21t-90.5 23.5t-37 11.5q0 1 3.5 7t3.5 7q0 -2 1 2q1 1 1 2q8 22 14 29l10 22 q10 25 35 50l27 38q9 8 19.5 21.5t16.5 17.5l13 9q4 2 14 12l41 32q68 49 119 62l41 12l39 11q22 0 55.5 5t52.5 3h19h28q2 0 7.5 -1t7.5 -1h16q33 2 111 -17l45 -10q86 -22 137 -65q34 -29 55.5 -51.5t48 -62t37 -91.5t4.5 -115q0 -23 -2 -31l-8 -49q-1 -3 -13 -26.5 t-14 -28.5l-10 -19q-7 -13 -23 -32t-20 -25l-33 -33q-25 -18 -71 -37t-88 -26v-6l39 -8l49 -27q34 -26 51 -35l10 -18q14 0 40 -37t32 -62q2 -10 7.5 -31.5t6.5 -27t4.5 -24.5t3 -24t1.5 -25t-1 -29q-5 -47 -14 -72l-10 -29l-21 -47l-18 -31q-3 -1 -19 -24t-18 -25 q-24 -30 -51 -49l-47 -33q-38 -24 -72 -37l-20 -8q-12 -3 -38 -13t-44 -13l-19 -4q-47 -11 -125 -15h-14q-6 0 -18.5 1t-18.5 1q-12 2 -39 2q-41 0 -59 6l-29 5q-2 0 -7 1t-7 1l-86 24l-25 12q-10 3 -19 7.5t-21.5 13t-17.5 12t-23 17.5t-23 18l-74 70q-2 2 -8.5 10.5 t-12 15t-8.5 6.5l-28 50l-27 55q-11 22 -18 65l-6 17l-3 14q1 2 2 3.5t4 2t5.5 1t8 1t9.5 0.5l43 7q6 0 10 4z" />
<glyph unicode="4" d="M879 1421h41q7 0 32 2t43 2q40 0 72 -4h27q3 0 14.5 1t13.5 1q0 -15 -6 -51l-2 -12q-6 -41 -8 -64t-6 -43q-2 -14 -8.5 -42.5t-8.5 -43.5l-4 -28q-2 -9 -10 -52.5t-10 -52.5l-33 -213q-1 -6 -2 -18.5t-2 -18.5l-2 -14l-21 -129l-10 -68q25 0 99 1t88 1h16q6 -6 6 -10 q0 -1 -3 -6.5t-3 -11.5l-2 -10q-4 -22 -7.5 -41t-5 -28.5t-3.5 -21.5l-3 -10v-33l-8 -24q-3 -21 -2.5 -29.5t-1.5 -19.5q-4 -10 -17.5 -11.5t-66.5 -1.5q-18 0 -42.5 2.5t-39.5 2.5q-4 0 -21 -1.5t-32 -1.5q-3 -51 -12 -100q-2 -16 -8.5 -42.5t-8.5 -35.5l-2 -12v-14 q0 -2 -2 -4t-3.5 -4t-0.5 -3l-2 -30q-3 -22 -7 -48q-2 -19 -4 -22.5t-9 -3.5q-12 0 -23 -4q-16 8 -22 8q-2 0 -9.5 -1t-15.5 -1q-7 0 -30 1t-29 1t-32 -2t-34 -2h-27q-1 0 -3 1t-3 1h-10q-12 -2 -47 -2q-16 0 -21 6t-2 29l9 47q1 5 2 15t2 14q3 16 8.5 45.5t9.5 54.5l4 27 l13 84h-19q-1 0 -2 -1.5t-2 -1.5t-4 1.5t-4 1.5h-53q-14 0 -32.5 -1.5t-25.5 -1.5h-51q-2 0 -5.5 1.5t-4.5 1.5q-6 0 -10 -4l-5 -3q-3 0 -6 7q-96 0 -219 -3h-10h-20t-24.5 -0.5t-25.5 -0.5t-25 0.5t-20.5 1t-14.5 1.5t-5 3l4 16l2 14q0 3 1 10t1 11q7 38 14 57q0 1 1 20.5 t1 20.5q2 5 4 12.5t2 8.5v16q0 -4 -2 -8l5 26q4 8 4 13v20q0 4 2 6l71 99l125 161l285 344l47 58q7 8 28 35t34 43l88 116q14 -2 53 -2q8 2 20 2q7 0 27.5 -1t28.5 -1zM762 1061l4 39l6 18l2 21q-3 -5 -76 -93t-90 -110l-112 -139q-40 -52 -107 -130t-92 -108q170 0 258 2 q6 -1 16 -1t26 0.5t26 0.5h51l2 12q1 2 3.5 10t2.5 11q2 8 2 27l6 32l10 70q5 27 10.5 51.5t6.5 32.5l8 47q4 32 23 129l4 31q1 8 4.5 18t5.5 29z" />
<glyph unicode="5" d="M211 393q8 2 16 2q9 0 144 27q0 -17 11.5 -48t23.5 -44q26 -31 40 -41l11 -6q52 -41 84 -41q3 0 30 -2t53 -2t42 4l20 8q16 3 37 16l39 25l31 33q39 47 49 116q6 29 0 68l-2 29q-2 14 -19.5 47.5t-27.5 36.5q1 1 -6 8.5t-20.5 17.5t-31 19.5t-41 16.5t-47.5 7 q-17 0 -45 -4l-53 -12q-27 -9 -49 -25t-48 -44t-30 -32l-37 13q-4 -2 -23.5 7.5t-27.5 6.5l-10 8q-4 -2 -14 1l-9 3l-51 19q-5 1 -35 10l-27 10q-2 2 -6 2t-15 3l-11 3q-1 0 -1 1t1 3.5t2.5 5t3 5.5t2.5 6h-1q-3 -4 -4 -5q-1 0 1 9l22 92q30 115 56 225v3q7 34 24 83 q-2 2 -2 7q0 1 4.5 7.5t5.5 14.5q0 6 2 10q1 6 4.5 19.5t4.5 19.5l-5 -20q1 4 5 16q1 7 2 20.5t2 20.5q16 34 28 113q-4 0 0 8q1 6 4.5 16.5t8 21t4.5 11.5l2 17q1 9 1 11.5t3.5 4.5t4.5 2h11h47q5 0 17 -1t18 -1h8h23q4 1 13 1t14 1h38h74q1 0 4 1t4 1t2 -1t2 -1h62l12 -4 h17q3 0 19 -0.5t45 -0.5t73 1h12q2 0 6 1t6 1h76q13 0 44 -2t42 -2q14 0 60 2t61 2h23q6 0 24 1t25 1q12 0 12 -2q-2 -15 -16 -59q-2 -8 -2 -25q-1 -3 -8.5 -20.5t-8.5 -22.5q-3 -20 -14 -50.5t-17 -66.5v-14q-4 -13 -12 -19h-37q-16 0 -81 2.5t-89 2.5q-25 0 -42.5 -1.5 t-22.5 -1.5h-33q-9 0 -26.5 -1t-26.5 -1q-6 0 -66.5 1t-136.5 1h-39q-3 0 -7 1.5t-7 1.5q-6 0 -6 -7v-6q-1 -3 -4.5 -18.5t-4.5 -22.5l-18 -82l-2.5 -7.5t-2.5 -8.5t-1 -8q0 -1 -1 -3.5t-1 -4.5q-2 -16 -9 -29t-8 -21q-6 -40 -15.5 -72t-10.5 -38l28 29q4 4 10 10.5t8.5 8.5 t8 7t12.5 9t17 10l10 6q50 27 122 38.5t113 4.5l50 -8q22 -3 47 -15.5t33 -15.5l16 -4l82 -47l41 -35l51 -70l12 -28q13 -9 23 -43t16 -46l6 -18q20 -86 6 -176q-7 -44 -20 -76l-12 -29q-1 -3 -11.5 -23.5t-11.5 -23.5l-29 -53q-5 -6 -24 -29.5t-34.5 -41t-29.5 -29.5 l-59 -51q-20 -14 -80 -43l-22 -11q-7 0 -47.5 -15.5t-49.5 -16.5q-21 -2 -62 -4.5t-63 -4.5h-14q-24 -1 -48 4t-34 5q-35 0 -51 6l-31 4q-2 0 -7 1t-7 1l-78 22l-24 17q-9 5 -42.5 21t-58.5 33t-43 40l-37 41q-3 2 -5.5 6.5t-4.5 5.5l-33 62l-30 63l-17 51q1 3 0 9.5t0 7.5 q1 0 16 1t27 5l43 6l37 8q6 2 37 2z" />
<glyph unicode="6" d="M438 455q-4 -62 8 -88l19 -45q75 -106 166 -103q7 0 22 -1t24.5 -0.5t16.5 3.5l8 4q54 13 66 27l33 29l16 24q15 15 27.5 52.5t15.5 74.5q2 12 2 31l-4 37q-9 92 -123 153q-8 3 -25.5 5t-30.5 3l-13 1h-13q-39 0 -69 -15l-35 -14q-32 -17 -52.5 -36.5t-32 -45.5t-16 -44 t-10.5 -52zM1182 1192l16 -39q21 -76 29 -123q-6 -3 -49 -6h-35q-6 0 -20 -2t-21 -2q-1 0 -7.5 -1t-7.5 -1q-12 0 -14 -2q-3 0 -8.5 -1t-7.5 -1q-3 0 -14 -2t-13 -2h-35q-7 0 -20 -3t-27 -3q-4 0 -4 8l-6 32q-16 52 -25 68l-24 33q-17 22 -50.5 35.5t-54 16.5t-32.5 3h-17 h-6q-26 0 -51 -9.5t-40.5 -20.5t-49.5 -37l-31 -37q-20 -23 -36 -65.5t-27 -63.5l-25 -76q-7 -22 -12.5 -48.5t-8.5 -42t-7.5 -51t-6.5 -47.5l4 3l15 26q40 62 81.5 99t110.5 53l68 14q38 0 61 -2h10q6 -1 43 -2t52 -12l41 -13q56 -31 71 -41l27 -18l24 -23q5 -4 56 -61 l14 -29q9 -7 14.5 -18.5t11 -29.5t11.5 -30l12 -34q9 -26 13 -86q4 -82 -9 -119q-1 -11 -7.5 -33.5t-8.5 -46.5l-14 -33q-3 -1 -10 -15.5t-14.5 -31t-8.5 -18.5q-13 -12 -26.5 -32.5t-22.5 -29.5l-56 -51q-51 -39 -67 -47l-25 -16q-6 0 -43.5 -16t-48.5 -17q-17 -1 -60.5 -8 t-68.5 -7h-6h-39h-37q-6 -1 -14.5 0.5t-18 3.5t-14.5 3l-47 6l-100 41q-101 59 -146 108q-2 5 -17.5 25.5t-19.5 21.5l-39 60l-22 53q-6 20 -15 43t-14 49l-18 172q0 12 -1 36t-1 40q2 14 8 53.5t8 59.5q1 4 1 11t1 11q5 62 29.5 137t25.5 80l13 29q0 3 9 22.5t9 22.5l14 33 q6 3 33 57q4 11 18.5 28t20.5 27l33 41l22 23q16 12 27.5 26.5t24.5 20.5l18 14q7 0 36.5 22t39.5 25q13 4 51 17t57.5 18.5t55.5 11t73 5.5h76l88 -17q15 -7 50.5 -19.5t64.5 -25.5l63 -53q40 -43 62 -70l20 -30z" />
<glyph unicode="7" d="M225 1257q0 4 2 11t2 10l7 53l6 12q3 7 6.5 30.5t7.5 35.5q2 2 45 2h6h33q8 0 26.5 -2t26.5 -2h166q2 0 7.5 -1t8.5 -1h9h18h27h22h8q23 -2 72 -2q2 0 16 1t17 1h55q1 0 2 1t2 1t4 -1t4 -1q13 0 31 1t23 1h39q1 0 4 -1t4 -1q3 0 6.5 1t5.5 1q4 0 6 -2h60h102q3 0 39.5 2 t64 2t27.5 -4q-1 -2 -1.5 -5.5t-1 -8.5t-1.5 -9l-2 -6q1 -3 1 -15t-1 -20l-2 -16q-2 -6 -1.5 -13.5t-0.5 -13.5q0 -2 -1 -13.5t-1 -14.5q-2 -2 -2.5 -9t-2 -22.5t-3.5 -30.5q2 0 2 2l-4 -28q-5 -5 -26 -27t-24 -25l-26 -26l-66 -62q-16 -17 -29.5 -33.5t-29 -37.5t-25 -34.5 t-30 -44t-31.5 -46.5l-14 -19l-41 -65l-21 -41l-35 -62q-46 -68 -97.5 -217.5t-78.5 -265.5l-4 -22q-3 -34 -12 -78q-2 -16 -4 -46t-2 -32q-9 0 -26.5 2t-25.5 2q-1 0 -5.5 -1t-6.5 -1h-4h-82q-4 0 -21.5 1t-21.5 1h-43q-5 0 -18.5 -1t-18.5 -1h-47h-12h-23h-18v6q0 3 2 14 t2 15q0 1 1 3t1 3q0 17 6 35l2 8q2 5 4 20t2 17l13 45q9 43 30 100l35 88q33 86 82 187q41 85 84 141l53 82l76 100q145 164 164 176l25 27q24 27 94 70l2 8h-6q-15 0 -92.5 -1t-90.5 -1h-133q-29 2 -112 2h-68l-225 -4q-3 2 -3 5.5t2 7.5l1 3q0 7 4 17l2 10q7 29 9.5 45.5 t6.5 27.5z" />
<glyph unicode="8" d="M49 340q2 8 2 39l-2 6q7 33 19 68l6 10q0 5 10 24t10 21l8 12q0 2 18 19.5t19 21.5l35 37l49 35q24 14 81 34.5t89 26.5l2 6q-19 3 -52.5 23.5t-41.5 36.5l-10 6q-108 120 -82 297q2 16 7 30.5t14 33t14 32.5l8 19q27 34 33 51q77 91 198 141l62 25q13 2 40 9t62 7l33 10 l29 -2q10 2 73 2q8 0 33 -5t51 -5q1 0 3 1t3 1q16 -4 25 -4l66 -14q30 -10 41 -21l30 -8q4 0 17 -10.5t22 -12.5l23 -16q104 -78 114 -158q0 -3 5 -30.5t6 -51.5q-5 -96 -36.5 -146.5t-90.5 -90.5l-45 -29l-37 -22q-15 -9 -38.5 -18t-39.5 -14l-16 -5l2 -6q22 -7 42 -19 t45.5 -31.5t34.5 -25.5l15 -12q12 -15 30 -33q95 -87 70 -258q-22 -127 -108 -213l-23 -23q-60 -60 -166 -98.5t-178 -44.5l-84 -6q-9 0 -28.5 1t-28.5 1q-24 0 -73 7t-65 7h-6q-29 7 -67 19t-60 18q-22 5 -55 26.5t-39 24.5l-20 17q-4 2 -21 20.5t-24 20.5q0 1 -1 3t-1 3 l-5 10q-6 14 -26 45.5t-26 56t-3 68.5zM322 414v-52q20 -77 86 -116l57 -29q92 -22 131 -22l76 4q56 11 87.5 24t67.5 51q0 6 13 24t14 21l6 50q4 34 -15 65.5t-48.5 54.5t-80.5 46.5t-90.5 38t-99.5 34.5q-172 -41 -204 -194zM500 1135l-11 -52v-20q-1 -49 42.5 -93.5 t111.5 -70.5q14 -5 47 -20t57.5 -24t38.5 -9q12 0 46.5 18t48.5 31q9 8 17 15.5t14 15.5t11 13t9 12.5t6.5 11t5.5 11.5t4 10.5t4 11t4 10.5l5 38q7 70 -56 125t-123 60l-80 8l-102 -14l-25 -15q-12 -7 -19 -11.5t-13.5 -8t-10.5 -7.5t-7 -6t-6.5 -8t-5 -7.5t-6.5 -11 t-7 -13.5z" />
<glyph unicode="9" d="M856 954q4 62 -8 88l-19 45q-75 106 -165 103q-7 0 -22.5 1t-25 0.5t-16.5 -3.5l-8 -4q-54 -13 -66 -27l-32 -29l-17 -24q-15 -15 -27.5 -52.5t-15.5 -74.5q-2 -12 -2 -31l4 -37q9 -92 123 -153q8 -3 25.5 -5t31.5 -3h13h12q42 0 70 14l34 14q32 17 52.5 36.5t32 45.5 t16 44t10.5 52zM133 152l-33 36q-27 61 -47 117q7 4 49 14l45 5q3 1 17 5t22 5q1 0 7.5 2t7.5 2q10 0 14 4q3 0 7.5 2t6.5 2q24 8 27 8l35 6q7 1 19.5 6t25.5 7q1 0 2 -1.5t2 -3.5t2 -3l10 -31q18 -38 37 -55l25 -23q33 -31 129 -31h16l10 2q41 7 69.5 21t68.5 45l30 37 q16 18 24 32t18.5 37t21.5 43l24 76q7 22 12.5 48.5t8.5 42t7.5 51t6.5 47.5l-4 -2l-14 -27q-40 -62 -82 -99t-111 -53l-67 -14q-39 0 -62 2h-10q-6 1 -42.5 2t-51.5 12l-41 13q-63 36 -72 41l-27 18l-24 23q-10 9 -19.5 19t-19.5 22.5t-16 19.5l-15 29q-9 7 -14.5 18.5 t-11 29.5t-11.5 30l-12 34q-4 13 -6.5 26t-3 20.5t-1.5 20.5t-1 19q-4 85 8 119q1 11 7.5 33.5t8.5 46.5l15 33q3 1 10 15.5t14.5 31t8.5 18.5q13 12 26.5 32.5t22.5 29.5l55 51q49 37 68 47l24 16q6 0 43.5 16t48.5 17q17 1 60.5 8t68.5 7h6h39h37q6 1 14.5 -0.5t18 -3.5 t14.5 -3l47 -6l101 -41q99 -57 145 -108q2 -5 17.5 -25.5t19.5 -21.5l39 -60l22 -53q6 -20 15 -43t14 -49l19 -172q0 -12 1 -36t1 -40q-2 -15 -8.5 -54t-8.5 -59q-1 -4 -1 -11t-1 -11q-5 -61 -28.5 -120.5t-26.5 -72.5l-12 -28q0 -3 -9.5 -22.5t-9.5 -22.5l-14 -33 q-6 -3 -33 -57q-4 -11 -18.5 -28.5t-20.5 -27.5l-33 -41l-22 -22q-16 -12 -27 -26.5t-24 -20.5l-19 -15q-14 -13 -43 -32t-43 -25q-10 -4 -36.5 -15.5t-41.5 -16.5t-40 -12.5t-52 -11t-57 -3.5h-76l-88 10q-20 10 -78 26l-67 33q-15 11 -35.5 25t-30.5 24l-24 27z" />
<glyph unicode=":" horiz-adv-x="542" d="M27 4q0 4 1 15t2 19t3.5 17t5.5 13l2 34q1 2 7 35t7 35q0 1 1 9t1.5 13.5t-0.5 8.5l13 73q-4 3 0 15.5t4 15.5l2 6q4 3 20 3t41 -1.5t35 -1.5h80q2 0 11.5 2t10.5 2h15q3 0 26 -2t27 -2h29q2 0 10 2t10.5 -0.5t-0.5 -11.5l-14 -82v-10q0 -5 -6 -23l-2 -10 q0 -2 -3.5 -28.5t-3.5 -28.5l-8 -35q0 -3 -3.5 -22.5t-6 -38t-0.5 -21.5v-4l-31 2h-65q-9 0 -17 -1t-22 -1q-7 0 -21.5 2t-21.5 2h-4q-9 -2 -68 -2q-4 0 -23.5 -3t-32 -2.5t-11.5 7.5zM152 721q0 1 1.5 18.5t4 28.5t6.5 16l2 35q1 2 7 35t7 35q0 1 1 9t1.5 13.5t-0.5 8.5 l13 73q-5 3 -0.5 15.5t4.5 15.5l2 6q4 3 20 3t41 -1.5t35 -1.5h80q2 0 11.5 2t10.5 2h15q3 0 26 -2t27 -2h29q2 0 10 2t10.5 -0.5t-0.5 -11.5l-14 -82v-10q0 -5 -6 -23l-2 -10q0 -2 -3.5 -28.5t-3.5 -28.5l-8 -35q0 -3 -3.5 -22.5t-6 -38t-0.5 -21.5v-4l-31 2h-65 q-9 0 -17 -1t-22 -1q-7 0 -21.5 2t-21.5 2h-4q-9 -2 -68 -2q-4 0 -23.5 -3t-32 -2.5t-11.5 7.5z" />
<glyph unicode=";" horiz-adv-x="542" d="M152 721q0 1 1.5 18.5t4 28.5t6.5 16l2 35q1 2 7 35t7 35q0 1 1 9t1.5 13.5t-0.5 8.5l13 73q-5 3 -0.5 15.5t4.5 15.5l2 6q4 3 20 3t41 -1.5t35 -1.5h80q2 0 11.5 2t10.5 2h15q3 0 26 -2t27 -2h29q2 0 10 2t10.5 -0.5t-0.5 -11.5l-14 -82v-10q0 -5 -6 -23l-2 -10 q0 -2 -3.5 -28.5t-3.5 -28.5l-8 -35q0 -3 -3.5 -22.5t-6 -38t-0.5 -21.5v-4l-31 2h-65q-9 0 -17 -1t-22 -1q-7 0 -21.5 2t-21.5 2h-4q-9 -2 -68 -2q-4 0 -23.5 -3t-32 -2.5t-11.5 7.5zM119 -287l-17 -32h-47q-4 0 -11.5 1t-10.5 1h-33q-3 0 -8.5 -1t-7.5 -1q-7 0 -7 4 q0 1 3 4.5t4 5.5l47 82l6 12l12 18q3 7 10 15l56 92q0 2 1.5 4.5t4 6.5t4.5 7l41 64q-2 0 -6 -1t-6 -1h-17q-3 0 -25 1t-28 1h-37q-2 0 -7 -1t-7 -1q-9 0 -6 8q2 13 7 38.5t7 39.5q0 1 -1 4.5t-1 5.5l4 23q0 1 2 4.5t2 5.5q0 4 3.5 29.5t4.5 29.5l4 37q4 13 15 74q3 21 2 22 v4q4 0 13 -1t13 -1h17h65q4 0 10 1t11 1h12q7 0 19.5 -1t19.5 -1h23h49q4 0 21 2.5t26 2.5q15 0 16 -17t-4 -37q0 -10 -4 -18l-8 -43l-8 -66q0 -5 -2.5 -12t-2.5 -8l-2 -8q-6 -18 -6 -19v-6l-12 -70q-6 -7 -20 -27t-19 -24l-20 -20q-1 -4 -19 -31l-55 -76q-6 -14 -21 -28.5 t-16 -20.5l-35 -47q-1 -6 -18 -31z" />
<glyph unicode="&#x3c;" d="M1100 1241l4 -47q-2 -2 -2 -6q0 -10 4 -23t4 -14v-24.5t-2.5 -11t-3.5 -13.5q3 -1 4 -23.5t1 -47t1 -27.5q-3 -2 -15 -5.5t-30 -11t-39 -20.5q-37 -23 -102 -53.5t-107 -53.5l-49 -18q-41 -26 -197 -103l-22 -8l-47 -22l43 -29q1 0 2 -1t4.5 -3t9.5 -4q27 -10 64 -28.5 t81 -41.5l44 -24l55 -29q20 -11 86 -35l108 -57q13 -7 19 -10t19.5 -9t33.5 -16q3 -3 19.5 -9.5t19.5 -9.5l-6 -81l2 -3q-1 -4 -0.5 -8.5t1.5 -10.5l1 -5q0 -25 -2 -39v-12v-43q4 -20 4 -33q0 -44 2 -57q-6 0 -27 10.5t-26 15.5l-37 10q-7 8 -13.5 13t-9.5 7t-12 5.5 t-14 5.5l-12 10q-30 18 -87 42t-73 32l-209 111v-2l-35 20q-51 22 -68 31l-63 41q-8 4 -21.5 10.5t-19.5 9.5l-20 11q-74 34 -113.5 54.5t-44.5 25.5t-6.5 8t-7.5 6v61q0 42 -3 51q2 2 1.5 20t-3.5 32v2v28v2q0 31 -4 43q4 0 4 7q29 18 56.5 29t38.5 16l112 59l86 45 q4 0 21.5 6.5t25.5 11.5l56 31q18 18 51 29l47 22l59 29q18 6 27 12l55 33q17 0 69 25t73 43l41 22q88 43 96 43v-2q0 -6 2 -8q-3 -6 4 -16q-2 -4 -4 -12t-4 -11z" />
<glyph unicode="=" d="M1171 926q-1 -5 0 -20.5t0 -20.5v-41q5 -11 3 -21q4 -43 -15 -43q-3 0 -12 1t-14 1l-54 6q-14 -2 -47 -2q-70 0 -110 5h-25q-7 0 -39 -3.5t-39 -3.5q-32 0 -76 7q-57 0 -133 -5h-84h-67q-4 0 -11.5 1t-11.5 1t-16 -4q-10 0 -35.5 1t-34.5 1h-12h-16h-41q-9 0 -20 1t-15 1 q-3 0 -23 -4l-14 4q-4 0 -14.5 -3t-20.5 -3h-14h-15q-5 0 -8.5 2.5t-5 7.5t-2.5 9t-1.5 11.5t-0.5 10.5q4 16 4 23v43q-1 13 0.5 28.5t1.5 22.5v4v27q-6 6 -6 20l2 10q5 7 43 7h21h79q16 0 45 -1t45 -1h60q5 0 19 1t18 1h61q2 0 25.5 2.5t32.5 1.5q18 -3 18 -5l53 -1 q17 1 25.5 2.5t25.5 1.5h45q14 0 45.5 -3t47.5 -3h22q15 0 42 1t40 1h19q3 0 34 -1t35 -1q5 0 37 2t63 2q30 0 37 -1.5t9 -9.5q0 -5 -9 -32l2 -19q-2 -2 -2 -4q1 -2 1.5 -6t1 -6.5t1.5 -3.5zM1171 535q-1 -5 0 -20.5t0 -20.5v-41q5 -11 3 -21q4 -43 -15 -43q-3 0 -12 1 t-14 1l-54 6q-14 -2 -47 -2q-78 0 -110 4h-25q-7 0 -39 -3t-39 -3q-39 0 -76 6q-72 0 -133 -4h-84h-67q-4 0 -11.5 1t-11.5 1t-16 -4q-10 0 -35.5 1t-34.5 1h-12h-16h-41q-9 0 -20 1t-15 1q-3 0 -23 -4l-14 4q-4 0 -14.5 -3t-20.5 -3h-14h-15q-5 0 -8.5 2.5t-5 7.5t-2.5 9 t-1.5 11.5t-0.5 10.5q4 16 4 23v43q-1 13 0.5 28.5t1.5 22.5v4v27q-6 6 -6 20l2 10q4 6 43 6h21h79q16 0 45 -1t45 -1h60q5 0 19 1t18 1h61q2 0 25.5 3t32.5 2q19 -2 19 -4v-2q3 -1 52 -1q17 1 25.5 2.5t25.5 1.5h45q14 0 45.5 -3t47.5 -3h22q15 0 42 1t40 1h19q3 0 34 -1 t35 -1q5 0 37 2t63 2q44 0 46 -10q0 -6 -9 -33l2 -18q-2 -2 -2 -4q1 -2 1.5 -6t1 -6.5t1.5 -3.5z" />
<glyph unicode="&#x3e;" d="M199 172l-4 47q2 2 2 6q0 9 -5 23l-4 14q-1 17 0 24t3.5 12.5t3.5 12.5q-3 1 -4 23.5t-1.5 47.5t-1.5 28q3 2 15 5t30 10.5t39 20.5q37 23 102 53.5t107 53.5l49 18q41 26 197 103l23 8l47 23l-43 28q-1 0 -2 1t-5 3t-10 4q-27 10 -65 29t-78.5 41.5t-44.5 24.5l-55 28 q-20 11 -86 35l-109 57q-13 7 -19 10t-19.5 9t-33.5 16q-3 3 -19.5 9.5t-19.5 9.5l7 82l-2 2q1 4 0 8.5t-2 9.5l-1 6q1 25 3 39v12v43q-5 25 -5 33q0 45 -2 58q6 0 27.5 -11t26.5 -16l36 -10q7 -8 13.5 -13t10 -7t12.5 -5.5t14 -5.5l12 -10q30 -18 87 -42t73 -32l209 -111v2 l34 -20q52 -22 68 -31l63 -41q9 -4 22.5 -10.5t18.5 -9.5l21 -10q74 -34 113.5 -54.5t44.5 -25.5t6.5 -8.5t7.5 -6.5v-61q0 -45 2 -51q-2 -2 -1.5 -19.5t3.5 -31.5v-3v-28v-2q0 -31 4 -43q-4 0 -4 -6q-29 -18 -56.5 -29t-37.5 -16l-113 -60l-86 -45q-4 0 -21.5 -6.5 t-25.5 -11.5l-55 -31q-18 -18 -51 -29l-48 -22l-59 -29q-18 -6 -27 -12l-55 -33q-17 0 -68.5 -25t-72.5 -43l-41 -22q-88 -43 -96 -43v2q0 6 -2 8q3 5 -5 17q8 21 9 22z" />
<glyph unicode="?" horiz-adv-x="1060" d="M465 428h-12h-45h-27h-14q0 12 2 18q6 24 10 58q2 6 2 26q2 2 1.5 9.5t1 19t5.5 21.5q7 26 15.5 48t14 35.5t15 28t13 19.5t14 17.5t12.5 14.5l35 31q58 36 143 105l41 32l33 39q4 11 20 35t19 49q6 35 0.5 67.5t-14.5 39.5l-7 18l-12 15q-4 2 -15.5 11.5t-17.5 14.5 q-71 21 -90 21q-7 -2 -23.5 -4.5t-23.5 -4.5l-18 -4l-41 -20q-70 -40 -115 -197q-10 0 -45 10l-55 17q-9 3 -53 12t-78.5 18t-34.5 13q3 22 8 33l12 32q3 2 6 12t12 32.5t25 48.5l25 41q13 10 25.5 30.5t19.5 24.5q4 2 27.5 24.5t60 49t74.5 41.5l49 22l22 6l21 6 q22 -1 56.5 5t49.5 6h43q3 0 8.5 -1t8.5 -1t14 -2.5t14 -2.5q15 0 23 -1.5t19.5 -5t25.5 -5.5l39 -8l31 -14q8 -4 24 -11.5t23.5 -11t21.5 -12t29 -19.5q39 -31 92 -108q3 -6 14 -30.5t15.5 -36.5t12 -36t10.5 -49t3 -55q0 -50 -6 -80l-10 -51q-2 -14 -15.5 -37t-15.5 -31 l-37 -47q-6 -3 -32.5 -30t-32.5 -31l-8 -8l-60 -43q-18 -8 -34.5 -19t-40 -27.5t-33.5 -23.5l-60 -39q-32 -21 -49 -80q-1 -4 -8 -20.5t-11.5 -34.5t-2.5 -35q-2 0 -12 -1t-17 -1h-20q-27 2 -84 2h-31zM276 -4l15 61l6 45v13q1 4 2 7l2 6t2 5l4 23q0 3 1 8t2.5 12t2.5 10v7 l13 75v27q3 13 5.5 15.5t14.5 2.5q14 0 45.5 -1t40.5 -1h14q7 0 20 -1t19 -1q3 0 10 1t9 1h20q9 0 13 2l38 -6h25q42 6 43 6q8 0 8 -4v-8l-10 -35q-1 -8 -3 -35.5t-3 -35.5q-6 -12 -6 -19l-8 -47l-7 -39v-6q-7 -28 -8 -33q2 -12 -2 -35l-4 -20q-2 -2 -6 -2h-23q-18 0 -39 1 t-26 1q-12 0 -37 -4q-1 0 -31 6h-14q-21 -6 -41 -6q-6 0 -15 2t-10 2h-10q-5 0 -23 -1t-24 -1q-19 0 -25 2z" />
<glyph unicode="@" horiz-adv-x="1630" d="M1083 283q-35 0 -56 9.5t-34 35.5l-2 22v4q0 33 2 41q-2 -1 -15.5 -14t-30 -27.5t-27.5 -19.5q-15 -4 -43 -23l-62 -14q-6 -2 -19.5 -2t-28 1t-15.5 1q-2 0 -5 1t-4 1h-20l-41 14l-41 19q-27 12 -41 28l-12 15q-10 7 -16 13.5t-7.5 11t-6 14t-9.5 18.5l-19 33 q0 18 -7.5 51t-8.5 43v47q1 4 2 11.5t2 11.5q0 1 -0.5 20t2 41.5t10.5 34.5l25 80q5 4 13 28.5t22 38.5l16 21q10 11 26.5 29.5t29 31.5t26.5 25l35 25q15 10 35 20l30 14l54 17q4 0 16 4l27 6q58 0 82 4h8q16 0 76 -6q5 0 24 -8t27 -8l43 -29q15 -15 49 -66q3 6 7.5 21.5 t8.5 25.5l7 21q12 20 12 35h12h31h39q8 -1 31.5 0.5t25.5 1.5q5 0 14 1t13 1q14 0 14 -6q0 -1 -2 -6t-2 -9l-29 -88q-7 -15 -22 -61l-29 -98q-10 -33 -20 -60q-9 -29 -21 -67t-16 -56l-17 -37l-12 -43l-12 -34l-2 -5v-8v-2q0 -2 -5 -12.5t-6 -26.5l9 -10q1 0 10 -1t16 -1 q12 4 17 4l37 19l43 32q11 8 33.5 42t25.5 38l25 45l18 43q6 10 10.5 22t6 19.5t3 21t2.5 17.5l9 27q0 1 1 4t1 4q21 136 -8 231l-15 37q-31 40 -31 58q-1 4 -12.5 16t-44 38.5t-78.5 59.5q-7 7 -27 10.5t-28 10.5q-57 20 -92 20l-17 4q-28 0 -68.5 2t-60.5 2 q-102 -10 -174.5 -38t-144.5 -78l-10 -9q-20 -19 -32.5 -29t-16 -12t-11.5 -10.5t-24 -27.5l-25 -23l-29 -45l-16 -22q-4 -12 -4 -17q-35 -52 -58.5 -123.5t-31.5 -124.5q0 -3 -1 -49t-5 -65v-9q0 -72 26 -139l21 -45q11 -32 34 -61t68 -72l35 -18q44 -44 182 -74 q94 -12 127 -12q91 0 196 34.5t185 96.5q2 0 52.5 0.5t74.5 -4.5l58 2q-39 -46 -39 -48q-4 -5 -50.5 -42.5t-48.5 -43.5l-22 -10q0 -1 -9 -8.5t-10 -9.5l-34 -21q-2 -2 -19 -13t-48 -26t-58 -22q-40 -20 -50.5 -24.5t-23.5 -4.5l-107 -20q-2 0 -25.5 -3t-25.5 -3h-26h-19 h-63h-6q-3 0 -29.5 4t-30.5 4h-4q-10 0 -30.5 7t-30.5 7l-17 4q-10 0 -18 4l-35 17q-29 18 -76 37q-12 0 -26.5 10.5t-32 26t-29.5 22.5q-17 10 -26 19.5t-26.5 31t-39.5 43.5q-16 19 -39 53.5t-29 61.5l-10 33q-1 3 -6 20.5t-9.5 33t-4.5 17.5l-4 29q-15 73 -17.5 98 t0.5 66l4 43l6 84l7 12q7 41 12 63.5t21 63.5t42 80q11 16 16 29.5t16 28.5t42 50l6 11q10 20 56.5 66.5t87.5 80.5l16 12q13 9 35.5 27t38 28t26.5 13q71 48 113 59l20 7q14 6 40.5 12t39.5 6l21 4q14 2 74 13.5t96 11.5q8 0 27 -5.5t28 -5.5h18q62 0 117 -18q19 -7 51 -17 t49.5 -16.5t43.5 -20t49 -32.5l49 -41q2 0 6 -4l43 -39l31 -43q100 -171 86 -274l-2 -13q-2 -15 -2.5 -43t-1.5 -35q-3 -24 -13 -41l-24 -86q-19 -52 -27 -63q-8 -24 -42.5 -70t-45.5 -69l-43 -39q-46 -46 -121 -90q-4 0 -8 -4l-35 -19l-51 -24q-17 -5 -36.5 -14t-32.5 -14 t-27 -5q-5 0 -28 -4.5t-32 -3.5zM1085 670l5 18q0 3 0.5 4t0.5 1.5t0.5 1.5t1 4t1.5 8.5t2.5 16.5t3.5 26q6 37 -26.5 74.5t-82.5 41.5q-4 0 -11.5 1t-12.5 1q-31 -5 -47 -9t-33 -12.5l-21 -10.5l-39 -31q-8 -6 -15.5 -15t-16.5 -22t-11 -16l-16 -33l-12 -43q-4 -8 -4 -23 v-18q-7 -50 14 -86l6 -10q1 -2 7.5 -8t15.5 -14t14 -13l20 -4q2 0 12 -4t15 -4h43l31 12q65 24 106.5 73.5t48.5 92.5z" />
<glyph unicode="A" horiz-adv-x="1296" d="M35 -2q-11 0 -26 1t-21 1h-15q-5 0 -17 -1t-17 -1q-6 0 -9 0.5t-2 3.5q0 2 4 6.5t5 7.5v7q3 13 20 30l14 33l2 16q1 3 10.5 20.5t10.5 20.5l14 17q4 30 27.5 63.5t25.5 46.5l5 17l12 18q12 54 28 68l9 12q1 3 17.5 35t17.5 35l6 10q4 23 21 51.5t20 40.5l22 41l2 10 q1 11 12 22t15 19q0 29 20 47l8 11l5 22q2 12 13.5 37t12.5 33l8 10q9 10 9 16l24 49q21 33 51 110.5t39 96.5q9 18 31 65.5t35 74.5q18 37 20 39l56 108l12 31q0 12 4 12q1 0 2.5 -1t5 -2t8.5 -1l21 6v-4q1 0 4 1t4 1h74h2h22h49q4 0 26 -1t30 -1h8q2 0 7.5 1t8.5 1h27h25 q7 0 18 -1t18 -1h15q4 -1 10 -3q5 -1 6 -1.5t2 -2t1 -3.5q0 -5 1 -10l-2 -7q6 -49 12 -59q17 -120 27 -182l8 -62q3 -22 9.5 -65t9.5 -64t4 -20q3 -22 9 -46.5t7.5 -32.5t-0.5 -30v-22q1 2 7 -23.5t11.5 -52t4.5 -27.5l4 -12l2 -30q3 -29 2 -33l12 -37q9 -36 20.5 -110.5 t20.5 -111.5q-2 -9 4.5 -27t5.5 -22q0 -4 -4 -4l9 -33q5 -32 2 -47l4 -12v-27q1 -15 17 -84.5t11 -107.5q0 -2 -8 -2h-29l-73 6l-17 -6l-22 4q-6 2 -15 2q-18 -2 -30 -2h-37q-29 -4 -33 -4h-18l-8 -2q-1 0 -1.5 0.5t-3 1t-6.5 0.5h-16q-7 5 -16.5 24.5t-6.5 38.5 q2 16 -7 45.5t-7 42.5l-4 60q-1 1 -5 49.5t-18 54.5h-47q-26 -2 -192 -2h-4q-6 0 -18 3t-17 3q-15 0 -46 -3t-50 -3q-7 0 -33 3t-41 3q-14 0 -20.5 -13.5t-10.5 -34t-12 -29.5q1 9 -9 -13q-11 -23 -48 -110q-32 -73 -39 -88l-13 -27l-37 -2q-37 0 -49 4l-32 -2 q-27 -2 -74 -2zM492 598l-5 -12q-1 -5 -5 -14.5t-5 -12.5q8 -4 43 -4h31q2 0 18 -1t31 -1q14 0 75 2t79 2h30l11 6q-1 1 -3 16.5t-5.5 49.5t-6.5 59l-4 37q0 2 -2 6l-6 51q-5 66 -23 154l-4 41q-2 6 -8 76t-6 73q-4 -3 -18.5 -36t-30.5 -72t-21 -49q-3 -7 -43 -91.5 t-78 -169.5t-44 -110z" />
<glyph unicode="B" horiz-adv-x="1382" d="M70 -2q-6 1 -9 2l-4.5 1.5t-1.5 2.5t0.5 4.5t2 7t1.5 9.5l9 59q10 48 6 55q6 9 12 41v23q1 6 9 52t9 52v29l11 35q2 25 8.5 64t7.5 48l8 52q2 6 11 49l8 57v1v4.5t0.5 6t1 8t1 10t1.5 11.5q10 66 17 103.5t9 50.5v24q2 15 7.5 39.5t7.5 38.5q1 9 11.5 64.5t12.5 84.5 l2 31q0 1 3.5 8t3.5 11v26l2 2q0 11 6 29l4 23q0 3 2 12t2 12l4 23q-2 9 2.5 19.5t5.5 16.5l4 17q0 14 2 20l2 17v12q0 2 2 16.5t6 20t13 4.5q4 0 19 -1t18 -1h41q4 0 15 1t15 1q7 0 20 -1t17 -1q8 0 26.5 1t27.5 1q20 0 30 -2h13h4h12q17 0 41 -1t31 -1h16q14 0 36 1t50 1 h10q1 0 13 -1t20 -1q3 0 8 1t7 1.5t3 -0.5q24 0 62 1t55 1h11l14 -2h18h33q61 0 70 -6q43 -2 69.5 -11t42.5 -19.5t29 -12.5l18 -19q4 0 10.5 -4t11.5 -8l5 -4q49 -44 79 -102.5t27 -108.5v-37l2 -33l-14 -67q-3 -19 -10.5 -38.5t-14 -31.5t-14.5 -26.5t-10 -18.5 q3 1 -11.5 -14t-37.5 -36t-41 -32q-28 -15 -79 -34t-77 -19v-6q44 -3 72 -19l29 -14l30 -16q40 -23 80 -78l10 -25l7 -24l8 -6q1 -1 4 -12t5 -29.5t1 -34.5q-1 -4 0.5 -11t1.5 -8q-1 -6 -1 -34t-1 -33q-4 -16 -4 -27l-4 -27l-6 -16v-6q-1 -4 -8 -16t-7 -15q-2 -2 -2 -4 q-1 -6 -12 -24t-14 -27l-11 -21q-1 -2 -8 -11.5t-12.5 -16t-16 -18t-25.5 -25.5t-34 -31l-18 -16l-88 -37q-17 -4 -53 -15t-44 -12q-49 -7 -83.5 -8.5t-151.5 -1.5h-31q-3 0 -23 2t-22 2q-39 -2 -55 -2h-55h-15q-14 -2 -24 -2h-35q-10 0 -36 1.5t-44 0.5h-113h-94 q-9 0 -33.5 -1t-27.5 -1zM418 250h78q46 0 81 1t70 2.5t58 2.5h14q12 2 39 2q16 0 41.5 7.5t56.5 23.5t55.5 48t30.5 73q7 39 -7 86.5t-48 64.5l-23 12l-45 17q-5 2 -9 6l-1.5 1.5t-1.5 0.5h-33q-64 0 -100 8h-25l-22 -6h-29q-108 0 -111 -1q-17 -4 -20 -19q-1 -10 -2 -35.5 t-2 -38.5l-6 -27l-17 -94l-12 -70q-1 -4 -5 -32.5t-5 -32.5zM514 842q5 -1 18 -1t31 0.5t25 0.5h28h70h76h26h27q63 0 105 26.5t61 57.5l16 41q11 23 13 32q0 15 4 23q-1 29 -8.5 52.5t-18 38t-28 25.5t-32.5 16t-37.5 8t-37 3.5t-37.5 1t-33 0.5h-37q-12 0 -24 4l-5 -1 q-4 -1 -13 -2t-19 -1q-14 0 -55.5 1t-57.5 1l-4 -4q-2 -10 -2 -41q-6 -30 -20 -120q-7 -42 -19 -109q-1 -7 -6 -26.5t-6 -26.5z" />
<glyph unicode="C" horiz-adv-x="1310" d="M1233 395q-8 -14 -18.5 -44.5t-20.5 -49.5l-8 -6l-6 -27q-5 -7 -11.5 -15.5t-13.5 -19t-10 -14.5l-2 -4q-4 -5 -20.5 -24t-23 -26.5t-19.5 -21.5t-25.5 -24t-26.5 -19l-49 -32l-47 -23q-63 -36 -170 -53l-35 -4q-15 0 -31 -2t-20 -2l-25 -2q-23 0 -55 4h-12q-21 -3 -52 0 l-16 4q-10 1 -29.5 5t-29.5 5q-31 7 -74.5 40.5t-60.5 37.5l-21 14q-61 56 -108 119l-17 27l-10 28q-2 13 -15 35.5t-16 34.5l-2 14q1 3 -6.5 28.5t-7.5 27.5q1 28 -11.5 74.5t-9.5 72.5q0 5 -2.5 17.5t-1.5 19.5l2 12q-2 4 -2 26t2 25l10 101q0 4 4 11t3 11q0 26 26 113 q7 27 23 80l10 28l10 13q10 18 26 48.5t27.5 50t24.5 36.5l23 29q38 43 41 51q14 23 51 55l6 6q9 10 21 19.5t20 14.5t23 14t22 14q26 18 55 31.5t46.5 19.5t55.5 17t54 16q3 -2 16 0t27.5 5t17.5 3q13 0 37.5 -3t40.5 -1q2 0 6 -1t6 -1h11l32 -2q18 -1 105 -27l35 -14 q14 -6 44 -24t44 -26l8 -4l39 -26l43 -45q2 -7 17.5 -25t21.5 -29q76 -140 71 -276l-2 -62q-17 -7 -90 -2q-35 0 -54 -4t-32 -4q-3 1 -8 0.5t-12 -1.5t-8 -1q-8 2 -35 2l-72 -6q-3 8 1.5 30.5t2.5 39.5v30q-1 18 -16.5 60.5t-26.5 62.5q-68 84 -166 84q-82 -2 -138.5 -39.5 t-108.5 -134.5q-48 -72 -64 -205v-10q-1 -2 -6 -35l-4 -45q-1 -3 -4 -34.5t-4 -34.5q-4 -21 -7 -25q-4 -53 5 -117l8 -53q16 -89 71 -136.5t119 -47.5h43q13 0 41 4.5t35 9.5q126 55 170 180q2 3 13.5 29.5t17.5 34.5l69 -12q24 -1 43 -7.5t45 -7.5q2 0 21 -6t22 -6 q6 0 19 -2t20 -2l47 -8q-2 -10 -10.5 -31.5t-11.5 -28.5z" />
<glyph unicode="D" horiz-adv-x="1378" d="M231 -4q-4 0 -27.5 -2t-27.5 -2t-16 4h-35q-5 0 -25 2t-22 2h-21q-9 0 -2 29l2 16q2 12 2 29q0 1 2.5 6.5t4.5 9.5l14 82q11 66 12 68q3 17 6 49.5t6 48.5q1 10 6.5 29t6.5 28l6 33q0 4 4.5 29t9.5 52t6 30l13 79q3 14 0 27l6 29l6 39q3 20 11 53.5t11 52.5l7 43v29l2 6 q1 4 7 32t7 32q1 5 3 22.5t3 22.5q17 91 17 94q7 27 6 30q4 21 12.5 84t17.5 99q9 38 15 98h2q3 0 19 -1.5t41.5 -3t51.5 -1.5q6 0 33 2t33 2q5 0 28 -3t29 -3q1 0 3 1t3 1h21q8 0 35.5 2t48.5 2h2h4q5 0 11 -1l5 -1h5h40h89q2 0 11.5 -2t12.5 -2q44 -1 91.5 -14t74 -25 t68.5 -33q1 0 77 -57q11 -8 31 -36.5t37 -37.5l6 -6q15 -17 24 -33q6 -11 11 -20l16 -25q21 -38 27 -67l8 -19q2 -24 17 -67t16 -72q2 -16 6.5 -55.5t5.5 -56.5t0.5 -46t-4.5 -55q-3 -17 -9.5 -51t-8.5 -49l-4 -27q0 -20 -13 -33q-16 -62 -21.5 -82t-21 -50t-45.5 -75 q-4 -13 -25 -36.5t-28 -41.5q-1 -4 -25 -27t-30 -40l-11 -6q-5 -3 -17 -14.5t-19 -14.5q-14 -2 -35.5 -23.5t-38.5 -29.5l-31 -15q-7 -5 -20 -8q-29 -21 -117 -37l-25 -8q-18 -2 -47 -2l-33 -6q-6 -2 -22 -2h-35q-6 0 -12.5 -2t-11.5 -2q-10 0 -42 2t-36 2q-30 0 -90.5 -3 t-65.5 -3q-9 0 -30 1t-44 1q-3 0 -26 -1t-29 -1q-19 0 -27 2zM412 279l-9 -21q-3 -10 9 -10h8h72q30 0 38 2q16 -2 50 -2q10 4 34.5 1.5t26.5 -1.5q9 3 51 13t53 18q32 13 55.5 27.5t34 23.5t27.5 27t25 26l28 51q10 14 19.5 36t16 41t13.5 50.5t10.5 47t9.5 49.5t7 40 q7 56 6 113t-8 92l-20 76q1 4 -8.5 22t-8.5 21l-20 27q-3 2 -16 23.5t-19 21.5q-23 20 -59.5 37.5t-49.5 17.5q-5 0 -22 3t-23 3q-39 4 -188 4q-13 -81 -23 -164q-4 -6 -12 -59q-5 -33 -6 -37l-2 -16q-2 -9 -8 -40t-11.5 -57t-5.5 -28l-8 -60q-2 -2 -1.5 -8.5t-0.5 -11.5 q-1 -4 -4 -17t-4 -22q-1 -6 -1 -14t-1 -11l-2 -14q-4 -27 -16 -87t-19 -107q-3 -16 -10 -55t-10 -60z" />
<glyph unicode="E" horiz-adv-x="1204" d="M834 4q-6 2 -17 2q-4 0 -15 -2t-20 -2h-20q-6 -2 -25 -2l-16 6l-19 -6h-38h-29q-31 0 -43 -2q-7 0 -17.5 1t-17.5 1h-14h-15q-2 0 -8 -1t-8 -1q-9 0 -38 1t-38 1h-221q-10 0 -35 -2t-35 -2q-4 4 -6 4q-1 0 -10.5 -1t-11.5 -1h-17l-34 -4q-5 0 -6.5 1.5t-0.5 4.5q0 4 4 20 q0 4 1.5 21t3.5 25q0 12 6 24q8 45 8 78q2 10 6.5 31t5.5 30q2 6 2 15l2 6v2q2 12 8.5 32t8.5 31q0 1 2 20.5t4 29.5l18 151l11 57l6 41q2 11 8 45.5t8 45.5q0 3 -1 14t-1 14l35 156q1 2 3 22t3 23l29 178q4 6 8 18q2 10 2 34t2 34v10l8 23l4 18q-1 3 0.5 9t1.5 8l2 18v35 q8 23 8 27l7 30v21q0 4 0.5 6t1.5 3.5t2 2t4 1t5.5 0t8 -0.5h10.5h29q18 -4 64 -4h14q8 0 28 -1t25 -1h33q3 0 9.5 1t10.5 1q0 -2 4 -2h13q20 4 37 4h65l6 -4q15 0 43 2t33 2q2 0 7.5 -1t8.5 -1q6 0 24.5 2t23.5 2h8q18 -2 53 -2q10 0 35 2t35 2q3 0 7 -1t7 -1h14 q5 0 16.5 -1t16.5 -1q2 2 6 2t12.5 -1t12.5 -1h16q2 0 8.5 -1t14 -1t16.5 2q4 0 12.5 -1t12.5 -1t15 3t15 3q6 0 15 -2t12 -2h18h48q4 0 12.5 1t13.5 1q4 -2 12 -2q3 0 10 1t11 1q0 -32 -4 -57q0 -15 -4 -19q-2 -2 -4 -16l-2 -21q-4 -4 -4 -10q-1 -5 -3.5 -31t-3.5 -32 q-4 -6 -4 -13q-3 -10 -2 -14l-4 -22l-6 -33q-12 0 -14 2q-4 0 -16.5 -1t-16.5 -1t-10.5 1t-10.5 1h-47h-16h-10h-37q-22 0 -57.5 -3t-55.5 -3q-15 0 -60 2t-69 2q-53 0 -109 -1t-87 -1q-32 0 -48 2q-1 -2 -10 -47l-2 -15q-23 -120 -26 -145l-15 -86q25 2 111 2l28 -4 q8 4 58 4l10 -1q10 -1 16 -1q25 2 76 2h29q6 0 10 2h62q8 -2 10 -2q3 0 9 1t9 1h51q5 0 16 -1t19 -1q7 0 17 2t12 2q9 0 4 -33l-12 -76l-4 -30q-1 -2 -5.5 -18.5t-5.5 -18.5q-4 -39 -2 -66v-8q-1 -5 -1.5 -5.5t-3 -1.5t-5.5 -3q-8 4 -10 4q-4 0 -11 -2t-12 -2h-32 q-3 0 -19 1t-18 1q-11 0 -49.5 -2t-57.5 -2q-13 0 -41.5 2t-44.5 2h-104q-5 0 -16 -2t-19 -2q-13 0 -25 2q-19 0 -31 -1t-14 -1h-8l-29 4q-10 -7 -10 -16q-1 -9 -0.5 -30t-5.5 -52l-6 -33l-6 -12l-6 -36l-12 -72t-11 -71q6 -6 33 -6q16 0 32 2t29 2h66l35 4q5 0 53 -8h16 q5 0 15.5 1t15.5 1q6 0 25.5 -2t25.5 -2l12 4l23 4q54 -4 80 -4q12 0 41 2t45 2h33q6 0 21 1t22 1q24 0 34 -4.5t7 -17.5l-7 -41q3 -6 0 -14q-4 -13 -4 -15q2 -2 2 -6l-6 -53q0 -4 -4 -16q3 -31 -6 -86q-1 -9 -4.5 -13t-8.5 -6t-7 -4h-48q-4 -2 -10 -2q-5 0 -14.5 3t-13.5 3 q-6 0 -13 -4t-8 -4q-4 0 -4 4q-17 2 -46 2.5t-38 1.5h-20z" />
<glyph unicode="F" horiz-adv-x="1122" d="M279 -2h-15q-6 2 -57 2h-43l-62 -4q-3 0 -9 -1t-9 -1h-16q-6 2 -8 3.5t-1 4.5q0 3 2 9t2 9q2 9 3.5 31t3.5 33q3 19 9 46t7 36q2 15 4 37t2 26l2 4q6 11 10 29v8q2 9 7 52l2 4q1 7 2 20t2 19l6 38q1 8 6 28.5t6 25.5l8 49q0 1 -1.5 12.5t-0.5 20.5l13 73q0 5 5 19.5 t5 15.5l2 21q9 27 10 32q0 4 1 15.5t1 15.5l6 37q1 7 2.5 18.5t2.5 21t1 17.5l19 113l27 168q1 1 6 22q0 2 2 27t4 37q1 7 5 20.5t5 18.5l6 37l-2 16v2l4 27q8 16 8 26q-4 23 -2 35q0 9 7 23v6l6 6h34q25 0 58 -4t55 -4h35l6 4l41 -4q12 4 16 4q15 0 23 -2q8 2 10 2l6 4 q28 -4 43 -4h35h6q5 0 22 -1t27 -1q4 0 9 1t6 1h24q29 -4 47 -4q0 3 2 3.5t7 0.5t10 2h14h35h6q8 0 27.5 -2t32.5 -2l30 6q5 0 15.5 -1t15.5 -1h33h4q4 0 28.5 1t28.5 1h4h13h24h12h62q8 0 19 1t14 1h18q3 -24 0 -37q-4 -26 -6 -33t-4 -20l-4 -16q-2 -14 -9 -51t-8 -44 l-8 -49q-4 -8 -4 -14q-3 -9 0 -17q-4 -2 -8 -2q-5 0 -13 4.5t-14 4.5h-14q-20 4 -27 4h-8q-34 -6 -69 -6q-46 0 -54 2q-5 0 -14 -1t-14 -1q-8 0 -28 1t-28 1l-11 -1q-11 -1 -26 -2t-26 -1h-25q-10 0 -27.5 4t-27.5 4q-35 0 -47 -6l-121 6q-17 0 -23 2q-12 -2 -16 -39 q-4 -21 -6 -37q-12 -50 -16 -94l-9 -43q-2 -21 -10.5 -60t-9.5 -45q24 -6 100 -6h17l53 4q6 0 18.5 1t18.5 1q3 0 9.5 -1t14.5 -1q3 0 12 1t15 1q8 0 12 -2q15 -1 45 0.5t39 1.5h56q8 0 36 -2t37 -2q5 0 16.5 2t16.5 2t9.5 -0.5t12 -7t5.5 -18.5q-2 -2 -2 -6l-2 -17 q-1 -4 -6 -15.5t-5 -15.5l-4 -24q-2 -4 -2 -33q0 -3 -2 -26.5t-2 -26.5l6 -12l-18 -45q3 -8 0 -17q-2 -8 -10 -12q-1 0 -17 3t-24 3h-89q-3 0 -6.5 -1t-5.5 -1h-18q-3 0 -144 6q-6 0 -27 -3t-26 -3h-18q-4 0 -10.5 1t-10.5 1l-37 4h-20l-72 -6q-1 -4 -5 -15.5t-5 -15.5v-14 l-2 -12q-3 -10 -6 -31l-8 -53l-17 -90q0 -4 -1 -12.5t-1 -12.5q-4 -12 -4 -23q-1 -7 -3 -27t-3 -26l-12 -69q-1 -9 -5.5 -23.5t-5.5 -17.5l-2 -15q2 -2 1.5 -9t0.5 -11q-2 -1 -8 -13v-8q0 -49 -8 -57q-9 -1 -31 1.5t-35 0.5q-5 -4 -20.5 -2.5t-19.5 0.5z" />
<glyph unicode="G" horiz-adv-x="1388" d="M1165 754q5 0 42 2.5t60.5 2.5t39.5 -3q-1 -5 -4.5 -31.5t-4.5 -30.5q-2 -8 -2 -26q-2 -5 -6 -19l-6 -45q-3 -21 -11 -60t-11 -59q-1 -9 -5.5 -32.5t-5.5 -32.5l-4 -21q0 -3 -2 -9t-2 -9l-2 -16q-5 -16 -10 -48q0 -14 -2 -20l-6 -37v-12l-4 -27q-10 -41 -13 -57l-6 -43 q-1 -6 -2 -17t-2 -16l-4 -31q-1 -4 -1 -13t-1 -13q-3 -17 -4.5 -24t-8.5 -13t-20 -6l-33 2q-19 0 -47 -4h-18q-2 0 -5.5 1t-4.5 1l-9 47q-1 3 -6 18.5t-6 44.5l-6 29l-8 63l-13 -24q-2 -3 -23.5 -24.5t-23.5 -24.5q-80 -80 -116 -86l-33 -17q-10 -4 -70 -22l-18 -2 q-24 0 -53 -4t-39 -4h-11q-7 -1 -27.5 0.5t-27.5 -2.5q-24 6 -43 6q-22 1 -48 14t-46 18q-1 0 -6 5l-27 12q-7 4 -17 9.5t-17 9t-13 5.5l-18 7l-29 20q-20 14 -39.5 37.5t-32.5 34.5l-22 26q-4 12 -17 25q-3 3 -15.5 26.5t-28 66t-19.5 79.5q-23 127 -23 178v64l2 69l17 96 l10 33q15 83 29 119l28 74q7 20 21 40.5t18 28.5v7q4 10 37 57l23 31q4 4 10.5 13.5t9.5 12.5l14 17l17 20l43 43q1 1 14.5 10.5t20.5 16.5l12 12q7 7 22 12.5t17 7.5l45 25q42 23 109.5 42.5t123.5 25.5h33q4 -2 21 -2q12 4 18 4q4 0 12 -1t13 -1q1 0 21 -3t30 -1 q24 -5 47.5 -13t52.5 -12q72 -26 107 -49l26 -19q25 -16 66 -57l10 -8l6 -8t9 -10.5t12 -14.5l22 -33q4 -7 10.5 -20l8.5 -17l16 -32q1 -3 10 -21l8 -16q0 -14 3 -17q10 -29 28 -114q-14 -2 -35 -2q-4 0 -11 -3t-11 -3q-10 0 -17 -5h-2q-33 0 -49 -8h-10q-14 0 -34.5 -3.5 t-48.5 -9.5t-36 -7l-22 -4l-29 -4l-6 26q-2 18 -8 45q1 6 -5.5 18.5t-5.5 18.5l-10 19l-33 55q-32 34 -63 48t-82 22q-5 0 -21 -1t-21.5 -1.5t-19 -2t-19.5 -2.5t-17 -3.5t-18 -5.5t-16 -7.5t-17 -9.5l-33 -21q-3 -5 -31 -28l-25 -25q-10 -10 -28.5 -40t-18.5 -34l-18 -35 q-11 -16 -29 -77l-8 -27l-6 -39q-14 -31 -21 -80q-1 -3 -2 -26.5t-2 -30.5l-8 -64q-4 -25 -3 -67t7 -70q5 -61 28 -107t54.5 -70t61 -36t55.5 -14l29 -2q70 -5 135.5 23.5t109.5 99.5l43 88v8q3 4 11 29q1 3 -1 4t-5.5 1t-7.5 -0.5t-9 -1.5t-8 -1q-4 0 -10 -1t-9 -1 q-2 0 -23.5 1t-39.5 1q-4 0 -13 -1t-12 -1q-6 2 -13 2t-15.5 -1t-14.5 -1l-24 4q-5 0 -16.5 -1t-16.5 -1h-18q-13 0 -19 -2l-16 2q-4 -1 -3 4q0 2 2 8l5 18l6 37q1 3 1 11.5t1 13.5l16 88q0 1 3 22t4 33q1 8 3.5 13t7.5 7t8.5 2t13 -0.5t14.5 -0.5h30h25q5 0 18 1t19 1 q4 -2 14 -2h21q12 2 45 2h57q25 0 58 -2t47 -2h14q1 0 3 1t3 1h4q3 0 9.5 -1t9.5 -1q12 4 16 4q1 0 5.5 -1t10.5 -1z" />
<glyph unicode="H" horiz-adv-x="1355" d="M51 18q1 8 -1 19t-1 16q0 11 6 17l8 22l5 35q1 3 6 14.5t6 14.5l6 45q0 3 5 14.5t5 13.5l-2 25q1 3 -0.5 7t-1.5 5q0 2 8 10l15 86l16 109q0 3 5 28.5t5 28.5l13 105q4 34 20 101t21 95l-2 29l6 45q10 30 10 35l20 166q1 6 6.5 18t6.5 17q0 2 2.5 40t9.5 58l10 66 q1 4 3 11t3 11l2 8q0 3 4 15q1 6 2.5 19.5t2.5 18.5q4 25 12 25h29q2 0 12 -2t14 -2t12 1t11 1q7 0 37 -6h10q4 0 21 3t34 3h39l14 -2q2 0 13.5 3t13.5 3h4.5t8.5 -0.5l10 -1t9 -1.5t6.5 -2.5t2.5 -2.5l-4 -23q-1 -8 -1.5 -12.5t-1 -6t-1 -2.5t-1 -2.5t-1.5 -5.5t-2 -12 l-7 -47q-1 -4 -3 -11t-3 -11q-2 -10 -2.5 -36t-1.5 -30t-3 -11t-3 -11l-8 -54l-8 -24q-12 -40 -17 -80q-10 -58 -10 -92l-16 -68q0 -7 6 -10h78q21 0 93.5 -2t121.5 -2q16 0 36.5 -0.5t32.5 -0.5h27t23.5 1t17 2.5t12.5 4.5t6 7l17 62q6 18 6 51l14 92q4 3 8 19q7 52 11 77 q2 16 5 33.5t7 38.5t6 33q2 16 9.5 53.5t9.5 50.5q2 16 8 35q1 0 7 -2t13 -2q4 0 12.5 2t12.5 2q2 0 9 -1t9 -1l25 -2q4 2 12 2q3 0 14 -1t13 -1h35q2 0 20 1t20 1h27q6 0 17 0.5t19 1t9 0.5q5 0 11 0.5t10 0.5h7.5t5 -1.5t1.5 -3.5q0 -11 -6 -14q-1 -9 -3.5 -25.5 t-2.5 -21.5q-11 -51 -13 -64l-6 -33q-5 -34 -6 -41l-6 -26v-15q0 -2 -2 -6q-1 -7 -10 -61l-2 -6q0 -3 -4.5 -29.5t-4.5 -28.5l-12 -69q0 -5 -4.5 -32.5t-5.5 -31.5q-2 -7 -3.5 -18t-2.5 -13q-6 -50 -6 -55l-9 -51q-21 -117 -22 -127l-2 -12l-8 -11l-2 -34q2 -11 -4 -39 q-1 -7 -5 -31t-6 -41v-4q-3 -13 -8 -59q-2 -16 -9 -43.5t-9 -36.5l-2 -17l2 -18q0 -3 -6 -24t-7 -27l-6 -35l-4 -29q-3 -29 -12 -92q-1 -8 -4 -19.5t-4 -19.5q-1 -7 -1 -19.5t-1 -17.5q-2 -9 -15 -12.5t-57 -3.5q-23 0 -27 4h-8h-110h-60q-4 2 -33 -9q-13 -4 -13 1q0 2 1 4 l12 47l11 63q4 8 4 11l6 28v29l10 68q-2 3 2 22q4 35 14 62l5 30q3 21 12 61.5t12 61.5v10l2.5 10t2.5 10.5t1 6.5q1 5 -0.5 18.5t-1.5 14.5l6 39l-4 6l-12 -6h-16q-1 0 -8.5 -1t-8.5 -1q-10 0 -30.5 1t-30.5 1q-5 0 -18.5 -1t-18.5 -1q-179 0 -285 2q-14 -2 -18.5 -6.5 t-5.5 -13.5v-3q-6 -44 -9 -65l-14 -88l-6 -17l-10 -67q-5 -4 -9 -34.5t-4 -43.5q-4 -26 -10 -75t-10 -75l-4 -22l-6 -13q0 -4 -6.5 -36t-10.5 -35h-108q-8 2 -23 2q-7 0 -26 -1t-29 -1h-100h-4h22h-6q-26 0 -29.5 5.5t-1.5 20.5z" />
<glyph unicode="I" horiz-adv-x="606" d="M287 -2q-8 0 -25.5 1t-25.5 1h-23l-16 -4h-35l-4 4h-13h-86q-2 0 -2.5 6.5t1.5 19.5t3.5 24.5t5 31t5.5 29.5q3 16 8.5 45.5t9.5 54.5q0 15 2 27t7.5 32.5t8.5 39t3 38.5l45 279q4 8 5.5 15.5t2.5 16.5t2 15q4 42 8 67q2 13 7 36.5t7 33.5l2 6q4 32 6 51.5t2 30t1 16.5 l2 5q1 13 6.5 44t7.5 44l6 39l10 43q2 14 2 32l15 86q4 8 4 19q3 18 8 78l12 34q1 3 -1 7.5t-1 11.5q0 2 3 11.5t3 12.5v9v4l7 8q40 6 71 6q13 0 38.5 -1t41.5 -1h84h23q8 -2 28 -2h9q3 0 15 1t15 1q-1 -8 -4 -24.5t-4 -20.5l-2 -12q-4 -26 -6 -40t-2 -16t-0.5 -8t-3.5 -20 q-2 -15 -6.5 -43t-6.5 -43l-4 -29q-2 -9 -10 -52t-10 -52l-33 -213q-1 -6 -2 -18.5t-2 -18.5l-4 -29q-2 -13 -4 -19.5t-4 -17.5q-2 -9 -13 -92l-4 -29q-1 -4 -3 -11t-3 -11l-10 -60l-4 -22l-17 -123q0 -3 -4 -14.5t-4 -14.5l-4 -18q-3 -20 -7 -60.5t-7 -60.5 q-2 -17 -7.5 -42t-6.5 -32l-3 -12v-10q-3 -9 3 -15l-11 -30l-6 -39l-2 -12q-2 -7 -2 -16q-1 -7 -3 -8t-12 -1h-5q-5 4 -39 4q-6 0 -19 -2t-20 -2z" />
<glyph unicode="J" horiz-adv-x="823" d="M43 -14l-23 6q-2 1 -17 0.5t-28.5 4t-19.5 17.5q0 4 1 9t2.5 11t2.5 9l-4 8l8 25q5 15 21 86l2 12q0 1 -2 7t-2 7l2 15q3 15 8.5 30.5t7.5 26.5l2 16q17 0 50.5 -11t64.5 -11h45q49 0 102 31l45 34l25 39q3 7 9.5 19.5t8 16t5 12.5t5.5 17.5t5 22.5l2 7l6 41 q1 4 2.5 29.5t3.5 35.5l4 27l12 84l11 65q1 6 4 17.5t4 17.5q6 18 6 51q3 18 11 59t11 62q-1 4 3 35q6 34 14 72t10 51l-2 18l4 21q2 14 11.5 49t11.5 51q3 13 0 29q5 48 14 63l-4 12q1 3 3 8.5t3 8.5v29q3 11 18 14h15h16h41h17h20q2 0 12.5 2t12.5 2t5 -1t5 -1q1 0 20 1 t25 1q6 -2 18 -2q11 0 34.5 1t37.5 1h18q16 -13 11 -41q0 -3 -2 -7.5t-2 -6.5v-9q0 -4 -6.5 -25.5t-8.5 -25.5l2 -24l-10 -23q0 -1 -1 -4t-1 -4q-1 -8 0 -22t0 -21q-10 -49 -19 -84.5t-14 -65.5q-5 -29 -17 -116.5t-16 -112.5q-3 -14 -6.5 -28t-5.5 -21t-2 -8 q-1 -4 -5 -50.5t-9 -74.5q-6 -34 -10 -41v-6q-1 -3 -4.5 -17.5t-4.5 -17.5l4 -16q-7 -21 -8 -25l-2 -12q0 -4 -1 -12t-1 -11l-8 -57l-6 -17q-15 -66 -17 -82l-10 -18l-4 -22q0 -14 -14 -35l-4 -23q-7 -10 -26 -51t-42 -61l-20 -17l-66 -55q-23 -16 -65 -23.5t-70 -17.5 l-23 -6l-73 -6q-18 0 -28 -1t-17 -1h-35q-2 0 -7.5 1t-7.5 1l-43 4q-4 0 -13.5 1t-14.5 1q-1 0 -4 -1.5t-8.5 -3t-10.5 -1.5q-6 0 -10 2z" />
<glyph unicode="K" horiz-adv-x="1316" d="M209 0q-15 0 -61.5 -2t-63.5 -2l-16 4q-27 0 -17 39l15 70q1 2 8 22v6l26 148q4 13 9 41q0 12 2 18l2 16q4 27 13.5 73.5t12.5 64.5q1 6 17 90l4 20q0 25 2 35l16 86q1 5 1.5 16t2.5 21l6 35l17 102l22 141q8 24 11 54l12 55q8 57 10 86q6 27 10 53l6 45q0 2 1.5 9.5 t1.5 9.5l4 12v8l6 33h49h33q11 0 47 -2t49 -2q12 2 39 2h6q3 0 15.5 1t15.5 1l12 -2q4 -1 16.5 1t20 2.5t8.5 -3.5l-8 -57q-5 -10 -8 -19v-12l-4 -23q-2 -8 -3.5 -13t-2 -9l-1.5 -12l-12 -97q-4 -8 -8 -20q-10 -46 -8 -68l-13 -49q-3 -16 -6.5 -40t-5.5 -32q0 -12 -4 -28 q-2 -11 -8.5 -53.5t-9.5 -57.5q0 -8 -4 -24l-7 -35q-4 -16 -2 -23l21 27l55 74q3 4 18.5 24.5t24.5 30.5l17 18q11 16 67 72q3 4 14 20.5t15 20.5l49 55q24 21 45.5 52.5t42.5 50.5l33 41q12 16 43 47l51 61l70 80q4 0 47 -1t47 -1h45q2 0 7.5 1t9.5 1t5 -2h48q15 0 45.5 1 t48.5 1h16l6 -6q-3 -9 -45 -51l-35 -41l-39 -43l-38 -47q-16 -20 -51.5 -57t-53.5 -62l-24 -31l-29 -33q-10 -10 -27.5 -31t-23.5 -26q-1 -11 -35 -40.5t-37 -35.5l4 -18q5 -22 12.5 -47t13 -41t18 -50t18.5 -51l8 -32q3 -41 20 -84q22 -56 32.5 -105.5t10.5 -50.5 q20 -42 25 -80l8 -31q3 -6 7.5 -25t10 -34.5t11.5 -19.5v-19q8 -17 19 -55.5t18 -52.5v-25q1 -3 6 -10.5t9.5 -17t6.5 -21.5l10 -31q-10 -6 -32 -6q-8 0 -23.5 1t-22.5 1h-81q-2 0 -7.5 1t-7.5 1h-53h-2q-2 0 -14.5 -2.5t-20 -3t-14.5 3.5l-43 -4l-13 12q-8 3 -11 28.5 t-11.5 67.5t-26.5 74l-16 55l-4 31q-4 16 -10 31l-11 33l-30 116q-7 14 -7 25l-10 27q2 13 -13.5 75t-25.5 82q-29 -28 -90 -100t-65 -76l-60 -67l-63 -72l-6 -51q-4 -6 -5.5 -14t-2.5 -18t-1 -13q-2 -8 -3 -24.5t-3 -24.5q0 -5 -2 -11t-2 -8l-2 -18l-16 -90q-1 -7 -3 -21.5 t-3 -21.5q-6 -27 -41 -27q-6 0 -28 1t-32 1h-30q-6 2 -29 2z" />
<glyph unicode="L" horiz-adv-x="1032" d="M145 -4q-99 0 -96 6q0 1 0.5 3.5t1.5 8t2 11.5l8 43l11 32q0 1 1 4.5t1 4.5q0 3 1 9t1 9l6 37q4 19 -2 29l4 20q1 7 2 20.5t2 20.5q4 6 8 20q1 9 0 22.5t0 18.5q0 3 4 15l13 24l-4 31l18 86l-2 8l2 19l6 30l10 58l9 51q5 25 10 55l6 37v19l4 16l4 31q1 7 2 20t2 19 q1 8 6.5 26.5t6.5 26.5l4 24q2 11 11 50t11 51l4 24q2 16 2 30t2 32q1 7 3.5 20t4 22.5t3.5 14.5l2 12q0 3 4 15l2 14q3 20 9.5 62.5t8.5 58.5q1 3 3.5 15.5t4.5 21.5q1 5 1 16.5t1 18.5q0 9 5 14l20 6q10 0 23.5 -1t23.5 -1q2 2 4 2h131q1 0 8.5 -1t8.5 -1h10q4 0 11 1 t11 1q5 0 17 -2t18 -2q10 0 15.5 1t15.5 1q11 -5 8 -14q0 -1 -4 -17q-1 -3 -1 -11.5t-1 -10.5q0 -4 -2 -10t-2 -9v-26q-8 -16 -8 -23q-1 -4 -1 -13.5t-1 -15.5q-6 -18 -6 -26q0 -1 -1.5 -3t-1.5 -3l-14 -92q-6 -12 -6 -21q-3 -15 -5 -48t-5 -50l-4 -23l-6 -47 q-15 -67 -19 -94l-12 -86q-8 -30 -10 -45q-5 -45 -5 -47q-3 -20 -17.5 -91.5t-16.5 -88.5q0 -39 -6 -72q-1 -2 -7 -27q-2 -9 -5 -34t-5 -33q0 -9 -4 -13q0 -4 -2 -11.5t-2 -11.5t1.5 -9t7.5 -8t16 -5h32q27 0 37 4q21 0 74 -1t76 -1q7 0 19 3t20 3q3 0 6.5 -1t5.5 -1h33 q7 0 18 -2t18 -2q20 0 41 6q9 0 24.5 -2t18.5 -2q17 0 35 2q9 0 15 -2h10h20q22 0 23.5 -14.5t-4.5 -34.5l-8 -63q-1 -3 -5.5 -24t-5.5 -23l-2 -19q-4 -8 -8 -24v-11l-6 -39q-2 -4 -4.5 -8t-3.5 -6t-3 -4t-4.5 -2.5t-6 -1t-9.5 -0.5h-20q-6 -2 -13 -2h-6q-6 0 -12 -2 q-10 0 -16 2h-4q-6 0 -15 2t-12 2q-1 0 -13 -2t-26 -2q-1 0 -23 2t-34 2q-5 0 -9 -3t-20 -3h-18q-4 2 -15 2h-16h-10l-56 4q-27 0 -39 -2h-188q-2 0 -5 1t-5 1h-19q-3 0 -11.5 -1t-12.5 -1q-7 0 -39 1t-49 1q-2 0 -26.5 -2t-27.5 -2z" />
<glyph unicode="M" horiz-adv-x="1820" d="M770 0h-20q-6 0 -26 -1t-22 -1l-10 76l-4 28q1 3 0 9.5t0 9.5l-8 29q0 4 -4.5 23.5t-5.5 25.5l-4 30q0 5 -2 14t-2 11q-2 19 -12.5 72t-12.5 80q0 1 -1.5 9.5t-0.5 14.5l-4 49l-13 78q-2 13 -3 31.5t-3 30.5t-6 18l-12 35v18l-4 31l-2 22l-27 148v33l-8 20l-8 74 q-3 18 -14 90.5t-15 91.5q-3 -2 -5.5 -15.5t-4 -30t-2.5 -19.5q-4 -20 -4 -29l-2 -14l-6 -74q-1 -5 -6.5 -22.5t-6.5 -22.5l-24 -162l-6 -35q-1 -4 -4 -17t-3 -18l-4 -34q-2 -13 -8 -55.5t-8 -53.5l-4 -18q-5 -33 -14.5 -87t-12.5 -69l-22 -145q-1 -4 -1 -13.5t-1 -13.5 q0 -2 -2.5 -7.5t-2.5 -6.5l-4 -19q-1 -11 -4 -27t-4 -20q-2 -6 -2 -22l-4 -33q-2 -2 -2 -8q-1 -4 -3 -10.5t-3 -10.5q0 -21 -2 -27q0 -8 -4 -12q0 -8 -2 -12q0 -5 -1 -14l-1 -9q-1 -5 -1 -10.5t-1 -7.5h-13q-12 0 -29 2t-32 2l-4 -2q-2 0 -6 2t-7 2q-2 0 -7 -1t-7 -1h-2 q-3 0 -28.5 -2t-28.5 -2q-2 0 -11 3t-12 3q-6 0 -33 -1t-38 -1h-14.5t1.5 14q0 3 2 11t2 12l2 4q0 5 4.5 17t4.5 16l2 8q0 16 2 22q1 10 7.5 29.5t8.5 26.5v24l2 19q0 1 1 4.5t1 5.5q0 9 4 25q2 15 8.5 43.5t8.5 42.5q0 4 1 12.5t1 13.5q3 30 10 60q1 5 2 22.5t2 22.5l8 61 q1 5 5 21.5t5 21.5l9 62q1 3 2 8.5t2 7.5q1 6 2 17.5t2 17.5q2 13 7 37t7 36q4 4 4 11l6 53l19 111l6 36l8 45l12 78q0 3 3.5 25t3.5 33q17 81 18 90q1 5 2 14.5t2 13.5q0 11 4 27q0 4 1 13t1 14q1 3 6 28v17q1 2 7 20q0 3 1 8t1 7q4 16 12 20q21 0 31 -2h45q2 0 2 2h28 l60 -4h59q1 0 2 1t2 1q3 0 18.5 -1t24.5 -1q25 0 33 6h16q77 0 91 -6q3 0 10.5 1t11.5 1q0 -2 4 -2q2 0 7.5 3t7.5 3q1 -3 17 -3t17 -3l4 -37q2 -15 6.5 -42.5t6.5 -53.5l4 -17q-1 -6 6 -47l6 -47q2 -25 14.5 -81t14.5 -79t9 -61.5t9 -54.5l10 -80q-2 -25 9 -74t12 -69 l2 -23l4 -49l6 -55l43 96q4 20 29.5 68t32.5 71q6 14 42 85t52 116l14 26q70 136 90 191l9 16q9 20 25 52.5t26.5 54t11.5 26.5v4q3 2 5 5t4.5 8.5t4.5 9.5q7 12 10 25.5t5 17.5h166h20q3 0 7 -1t5 -1q2 0 9 1t14 1h31q18 0 26 2h8q1 0 7.5 -0.5t16 -1t15.5 -0.5h58l2 -2 q8 2 24 2q5 0 17 -1t22 -1q6 0 28.5 1t29.5 1q8 0 8.5 -1.5t-0.5 -16.5q0 -2 -1 -6t-1 -7v-16q-1 -4 -6 -19q-5 -23 -3 -32q-2 -3 -3.5 -9.5t-2.5 -7.5q-1 -4 -1.5 -17t-2.5 -22q0 -4 -1 -8.5t-2.5 -10t-2.5 -9.5q-5 -38 -14 -92q-2 -9 -4 -26.5t-2 -19.5l-7 -36l-18 -113 q-1 -4 -5 -17.5t-5 -17.5l-2 -18q-1 -4 -1 -18t-1 -21l-15 -49q0 -17 -2 -25l-4 -35l-10 -67q-3 -24 -6 -45q-2 -15 -9.5 -44.5t-9.5 -39.5l-4 -25q0 -5 -8 -45q-1 -8 -6 -41.5t-6 -44.5l-6 -39q0 -1 -6 -29q-9 -45 -7 -57l-4 -22q-3 -16 -5.5 -33.5t-4.5 -26.5 q-1 -8 -4 -26.5t-4 -26.5q0 -3 -5 -22t-5 -25l2 -8q-2 -11 -9 -37l-6 -35q-1 0 -3 -1t-3 -1q-2 0 -11.5 1t-12.5 1l-13 -4q-23 4 -75 4h-50q-14 2 -41 2h-96q-5 1 -13.5 1t-12.5 1l8 57l12 23v4q3 10 -2 29l4 22q3 21 11.5 66.5t11.5 60.5l6 37q1 10 3 28.5t3 28.5l10 58 q3 19 13 61.5t12 65.5q0 2 6 26l8 60q1 3 2.5 20t3.5 25v10l10 37l9 49l26 164q14 96 27 147l2 15q0 1 8 47q0 3 4 23t4 22q-1 -1 -4.5 -9l-7 -16t-4.5 -8l-64 -133q-30 -54 -43 -86l-12 -27l-72 -145l-8 -10q-8 -19 -27 -61.5t-26 -61.5l-25 -51l-26 -54q-7 -23 -29 -63 l-63 -133l-27 -47q-3 -23 -27.5 -64.5t-29.5 -62.5q-3 -17 -24 -53.5t-25 -49.5q-3 -6 -7 -16.5t-7 -17.5t-7.5 -13t-9.5 -6q-7 1 -23.5 -0.5t-19.5 -1.5h-37q-1 0 -19.5 1t-19.5 1z" />
<glyph unicode="N" horiz-adv-x="1376" d="M422 1407h37q1 0 9.5 -1t10.5 -1q3 0 15 1t14 1q3 -2 11 -0.5t11 -1.5h21q2 0 9.5 1t8.5 1h4q5 0 16 -1t17 -1h33l29 -68l22 -45q3 -14 14.5 -39.5t14.5 -33.5q9 -18 27 -68.5t34 -75.5l15 -47q30 -98 65 -170l12 -35q2 -9 21 -47l20 -51q3 -8 6.5 -20t7 -19t9.5 -14 l16 -43q29 -103 34 -94q1 0 1 2l4 94q4 9 8 31l5 32l10 62l8 57q3 21 11 58.5t13 69t7 58.5q4 8 4 19q5 38 6 43l4 33q1 7 2 21.5t2 21.5l4 10l15 84q0 2 2 7.5t2 6.5l4 31q0 2 1 7.5t1 8.5q1 5 1 10.5t-0.5 10t-0.5 6.5q4 8 4 10q0 1 1 3t1 3q11 68 18 68h2h21q4 2 8 2h19 q1 0 16.5 2t17.5 2q1 0 29.5 -1t30.5 -1q1 0 4 1t4 1h10q20 -4 31 -4h-2q9 0 26.5 1t26.5 1h8l-2 -16q-1 -2 -2 -5.5t-2 -5.5v-10l-2 -20l-8 -52l-19 -114l-12 -78q-1 -5 -2 -14t-2 -13q-2 -8 -2 -26l-6 -41q-8 -16 -8 -25q-2 -9 -3 -29.5t-3 -29.5q0 -7 -9 -25l-18 -125 q-6 -12 -6 -22q-1 -4 -2 -11.5t-2 -11.5l-23 -112q0 -23 -2 -35l-6 -35q-2 -14 -5 -28t-4.5 -23.5t-2.5 -20.5l-6 -39q-1 -10 -3.5 -31.5t-3.5 -31.5l-4 -19q-1 -6 -4 -18t-4 -18q-4 -40 -4 -56q-9 -36 -14 -67v-9l-2 -16q-1 -4 -1 -12.5t-1 -11.5q-1 -9 -4.5 -22.5 t-4.5 -18.5q-2 -6 -2 -19q-1 -7 -6 -37q-1 -3 -1 -9t-1 -11q0 -1 -1 -6t-1 -7v-4v-2l-2 -12h-45q-7 0 -8 -1q0 -1 -6 -1q-3 0 -8 1t-7 1h-104q-9 0 -38 -1t-38 -1h-6q-17 11 -19.5 29t-7.5 24l-8 17q-3 6 -18 39l-11 32l-26 72q-4 3 -8.5 11.5t-10.5 22t-8 17.5l-8 27l-6 4 q-3 6 -7 24t-7 25l-23 45q-2 14 -12.5 33.5t-12.5 30.5l-8 28q-14 45 -24 64l-6 8q-2 5 -14.5 34.5t-20.5 45.5l-15 26l-26 80l-17 43l-43 117l-49 127l-18 -127l-17 -113q-4 -24 -4 -36l-4 -27l-18 -123l-8 -53q-1 -3 -2.5 -10.5t-2.5 -10.5q0 -8 -4 -16l-8 -64 q-1 -7 -3 -28.5t-3 -28.5q-11 -39 -14 -59v-17q-2 -13 -9 -47t-10 -53l-6 -35q0 -33 -4 -49q0 -3 -2.5 -14.5t-3.5 -16.5q0 -6 -2 -8l-4 -33q0 -2 -1 -8t-1 -8q1 -1 0 -5.5t-2.5 -9.5t-1.5 -6q-1 -9 -2 -13.5t-4 -6.5t-5 -2.5t-9 0t-11 0.5q-15 0 -36 1t-38 1h-20h-31 q-8 0 -22 1t-19 1q-9 0 -26 -1t-21 -1h-12q-1 0 -6.5 1t-6.5 1q6 14 6 16l9 54q0 16 2 24q0 3 8 41l4 25q1 4 1 13t1 15q0 1 2 7.5t2 7.5l8 55q3 15 6 33l7 33v8q2 4 2 14q2 8 2 23l2 8q0 2 4 10q3 21 11 62t11 61q2 12 6.5 32t6.5 31q0 17 2 25l2 21q2 4 2 12q6 28 4 39 l16 63q2 10 5.5 34.5t5.5 35.5l2 20q4 22 9 50.5t5 29.5l2 17q1 9 4.5 29t5.5 30q2 6 2 23l6 40q1 6 4.5 17.5t4.5 17.5t2.5 17.5t2.5 20.5t1 16l4 18q3 16 5.5 28.5t4.5 24.5q0 31 2 41q1 6 3.5 18.5t2.5 16.5q8 25 4 29q6 18 6 34v13q1 2 3.5 8t3.5 8v10q1 5 2 11t1.5 8.5 t2.5 4t6 1.5t20.5 -1t20.5 -1q21 0 34 1t17 1h25q2 0 5.5 1t4.5 1v-2z" />
<glyph unicode="O" horiz-adv-x="1357" d="M102 664q2 18 5.5 52.5t5.5 51.5q4 6 9 25t9.5 40t5.5 25l4 23q5 26 14.5 54t23.5 63.5t20 52.5q6 20 29 53t24 39l18 22l9 19l24 30l37 37q32 24 66 58l26 18q3 3 24 14.5t23 14.5l17 6q11 7 37.5 20.5t84 31.5t107.5 18q40 0 76 -4.5t76 -4.5q15 0 43 -12t38 -14l21 -6 l18 -11q9 -5 43.5 -21.5t63.5 -36.5t49 -46q20 -28 45.5 -60t38 -50.5t20.5 -41.5q29 -65 41 -149q0 -23 11.5 -76.5t9.5 -81.5q-3 -27 -4.5 -72t-3.5 -63q-1 -6 -2 -20t-2 -21l-17 -61q-2 -19 -13 -62.5t-24 -71.5q-2 -6 -16.5 -35t-15.5 -40q-10 -33 -31 -65.5t-29 -53.5 l-31 -39q-4 -4 -4 -8l-24 -33l-27 -18q-10 -16 -41.5 -39.5t-32.5 -24.5l-28 -24q-3 -1 -15.5 -9t-23.5 -14t-14 -6l-23 -4q-1 0 -13.5 -7.5t-13.5 -7.5q-24 -2 -73 -17t-66 -19l-96 -5h-6q-6 -2 -27 -2q-22 0 -29 5l-63 14q-33 0 -129 49l-29 16l-47 31q-7 5 -8 6t-2.5 3 t-6 9t-12.5 17l-26 29q-3 6 -38 51.5t-40 58.5q-47 102 -53 170q-15 52 -18 83t1 99q1 3 1 11t1 12q3 17 -2 25zM444 391q1 -2 3.5 -5.5t5.5 -10.5t2 -10l14 -23l12 -20q0 -7 4 -19l17 -14q49 -51 176 -51l39 4q6 2 22 7.5t26.5 9.5t22 11t15.5 15q67 60 94 115.5t61 183.5 q0 11 11 41t12 37q0 15 4 38.5t4 30.5v17q1 4 1 22t-1 25l2 14l2 59l-2 25l-4 29l-6 53l-6 26q-2 15 -6.5 27t-10 20t-15.5 24t-19 32l-33 35q-2 0 -20 11t-25 11q-12 0 -44.5 5t-53.5 5q-13 0 -39.5 -4t-28.5 -4q-6 0 -64 -39l-14 -6l-20 -28q-25 -22 -36 -38t-28 -57 q-1 -4 -11 -23.5t-11 -21.5q-8 -23 -20.5 -70.5t-20.5 -70.5q-1 -24 -12 -89.5t-11 -92.5l-6 -133q0 -4 8 -39.5t10 -63.5z" />
<glyph unicode="P" horiz-adv-x="1265" d="M838 532q-3 0 -19.5 -1t-19.5 -1q-20 2 -60 2h-12q-24 -6 -86 -6q-6 0 -14 1t-9 1h-28h-98q-16 4 -23 4q-10 -3 -14 -22q0 -29 -2 -41q-13 -54 -15 -80l-8 -45q-1 -4 -1 -11t-1 -11q-3 -18 -8 -43q-2 -16 -6 -40.5t-6 -35.5l-7 -37q4 -8 -2 -27l-2 -14q-1 -9 -10 -49 q0 -4 -1 -11t-2.5 -16t-2.5 -14q-4 -30 -6 -35h-53q-6 -2 -21 -2h-47q-4 0 -9.5 -1t-8.5 -1q-4 0 -19.5 2t-19.5 2h-50q-6 0 -12.5 -1t-7.5 -1t-2 1t-2 1h-21q-8 2 -20 2q-4 0 -11 -1t-8 -1q-6 0 -12 6q6 21 10 27q-1 7 1 26t1 29q9 28 11 41l6 27l4 30q2 14 8 31 q2 12 3.5 38.5t4.5 43.5q2 25 15 68l2 12q0 3 2 9t2 9l2 6q0 3 4 15v14q0 6 4 14q4 38 2 56q1 5 4.5 20.5t3.5 18.5q1 5 2 14t2 14l2 17q1 7 4 19.5t5 19.5q1 6 1.5 24t2.5 29q1 9 7 28t9 35l4 29q1 5 1 13.5t1 11.5q24 125 31 137q0 4 1 30t1 27t1.5 5t3.5 10t3 8l-2 4 l10 61v13q1 8 4.5 23.5t4.5 23.5l8 51q4 18 8 29q2 18 2 57q0 2 2.5 7.5t3.5 12.5q0 25 2 37l2 12q9 57 17 62h37h61q5 0 14.5 1t14.5 1h41q8 -4 10 -4h20q5 0 9 4q24 0 28 -2h31h35q3 0 8 1t8 1l12 -6l11 6q4 0 12.5 -1t13.5 -1h29q12 4 37 4h31q18 -4 40 -4q25 2 78 2 q5 0 10 -2t11 -2t18 1t17 1q9 -4 47.5 -13.5t46.5 -9.5l35 -8l57 -18l22 -17l37 -16l39 -39q2 -5 17 -20q13 -13 44 -75t31 -102l5 -8l2 -61q0 -5 -9 -68q0 -5 -6.5 -37t-9.5 -36l-14 -58q-28 -69 -72 -125l-39 -41q-14 -19 -63 -49t-97 -53h-14q-6 -2 -29.5 -4t-27.5 -4 l-33 -11q-6 -2 -25.5 -0.5t-27.5 0.5zM518 872q-6 -33 -8 -43q-2 -13 -2.5 -22.5t2 -15.5t4.5 -9.5t9.5 -4.5t11.5 -1.5t15.5 0t16.5 0.5h15q12 0 22 -2l39 4q6 0 34 -1t44 -1q35 1 64.5 4.5t52 7.5t41 13.5t31 15.5t24 21t17.5 22t14 27t11 28.5t11 32.5l-2 41 q-7 89 -61.5 128.5t-153.5 39.5q-14 0 -46 -2t-46 -2q-10 0 -16 2h-27h-68q-4 -8 -6 -16q-1 -6 -2 -22.5t-2 -24.5l-2 -9q-3 -20 -5 -41.5t-5 -42.5q-2 -12 -10.5 -42.5t-10.5 -41.5z" />
<glyph unicode="Q" horiz-adv-x="1368" d="M106 664l11 104q4 6 9 25t9.5 40t5.5 25l4 23q5 26 14.5 54t23.5 63.5t20 52.5q6 20 29 53t24 39l18 22l9 19l24 30l37 37l66 58l26 18q3 3 24 14.5t23 14.5l17 6q11 7 37.5 20.5t84 31.5t107.5 18q40 0 76 -4.5t76 -4.5q15 0 43.5 -12t38.5 -14l20 -6l18 -11 q9 -5 43.5 -21.5t63.5 -36.5t49 -46q20 -28 45.5 -59.5t38.5 -50.5t21 -42q29 -65 41 -149q0 -23 11 -76.5t9 -81.5q-3 -27 -4.5 -72t-3.5 -63l-4 -41l-17 -61q-2 -19 -13 -62.5t-24 -71.5q-2 -6 -16.5 -35t-15.5 -40q-10 -33 -31 -65.5t-29 -53.5l-30 -39q-5 -5 -5 -8 l-24 -33l-27 -18q-7 -12 -20.5 -23.5t-29.5 -23t-23 -17.5l-29 -24q-1 -1 -22.5 -14t-28.5 -15q1 -19 9 -32t25.5 -21.5t26.5 -11t29 -7.5l45 -6l76 6q2 0 8 -1t11.5 -0.5t10.5 3.5l19 4v-49q-2 0 -2 -6q-1 -3 1 -12.5t1 -14.5l-4 -36q-2 -9 -0.5 -34t-3.5 -50 q-1 -9 -1.5 -17t-1 -11t0 -6t-1 -3.5t-3 -0.5t-6.5 0.5t-10 0.5l-74 -8l-20 2q-16 -2 -55 -2q-18 0 -31 1t-17 1l-40 8q-52 7 -60 18l-24 12q-12 9 -39.5 38t-26.5 34l-25 37q-2 3 -4.5 40.5t-1.5 45.5q1 3 0 9t0 9v5h-2l-96 -5h-6q-6 -2 -27 -2q-20 0 -28 5l-64 14 q-33 0 -129 49l-29 16l-47 31q-5 4 -6.5 5t-3 3t-2.5 4t-5 8t-11 15l-27 29q-3 6 -38 51.5t-40 58.5q-47 102 -53 170q-15 52 -18 83t1 99q1 3 1.5 11t1.5 12q3 16 -3 25zM449 391q1 -2 3 -5.5t5 -10.5t2 -10l14 -23l12 -20q0 -7 4 -19l17 -14q49 -51 176 -51l39 4 q6 2 22 7.5t26.5 9.5t22 11t15.5 15q68 61 95 116.5t61 182.5q0 11 10.5 41t11.5 37q0 15 4 38.5t4 30.5v17q1 4 1 22t-1 25l2 14l2 59l-2 25l-4 29l-6 53l-6 26q-2 15 -6.5 27t-10 20t-15.5 24t-19 32l-33 35q-2 0 -20 11t-25 11q-12 0 -44.5 5t-53.5 5q-13 0 -39.5 -4 t-28.5 -4q-4 0 -63 -39l-15 -6l-20 -28q-25 -22 -36 -38t-28 -57q-1 -4 -11 -23.5t-11 -21.5q-8 -23 -20.5 -70.5t-20.5 -70.5q-1 -24 -12 -89.5t-11 -92.5l-6 -133q0 -4 8.5 -39.5t10.5 -63.5z" />
<glyph unicode="R" horiz-adv-x="1386" d="M862 0q-1 2 -1 10t-1.5 15.5t-5.5 11.5l-2 26q-17 38 -27 109l-18 55q-6 35 -8 41l-27 94q0 3 -1 9t-1 10l-6 20q-16 44 -26.5 92.5t-16.5 61.5h-86h-19l-14 2h-45q-18 0 -42 -1t-40 -1q-4 0 -6 -0.5t-3 -2.5t-1.5 -3.5t-1.5 -6t-2 -7.5l-6 -41q-1 -4 0 -12.5t0 -12.5 l-13 -57q0 -17 -8 -41l-18 -105q4 -6 0 -22q-2 -9 -6.5 -19t-6.5 -20q3 -3 2.5 -8t-2.5 -14t-2 -11l-6 -33l-24 -139q-8 0 -47.5 -1t-55.5 -1h-14q0 4 -8 4q-4 0 -15 -2t-14 -2q-15 0 -32 1t-31 1h-19q-1 0 -13 -2t-16 -2q-5 0 -13.5 4t-14.5 4q-2 0 -13 -2t-14 -2h-4 q-5 0 -2 6l14 70q2 2 2 4q0 14 2 26q2 10 5 29t4 23l2 12q0 21 10 51q2 32 8 74q3 15 12 50t11 54q2 9 2.5 28.5t1.5 23.5q1 1 2 3t2 3l6 22q9 63 12 88q7 17 13 60l4 28q2 12 9 45t15 78q0 15 4 19l33 176l-2 28l8 19q14 48 8 70l7 45q8 18 12 53q2 2 2 6q0 2 12 49 q0 1 1 8.5t0 12.5t-5 8l2 2l-2 2q0 1 1.5 2.5t4 5.5t4.5 10l7 45q0 3 4 27q2 5 3.5 11l2.5 10t2 6l2 4q0 12 12 12q15 0 49 -6q2 0 7.5 1t13.5 1h22q10 0 21.5 2t23.5 2h11h6q12 0 52.5 -2t55.5 -2q3 0 9.5 1t9.5 1h47q10 4 29 4q10 0 20 -4q3 0 18 2t23 2h10h21h30 q13 0 32 -3t28 -3h14q45 0 55 2l60 -6l63 -12q9 -5 23 -6.5t33 -8.5l20 -6l31 -16q2 -2 20 -11l27 -12q7 -4 14 -11t15 -16.5t14 -15.5l20 -18q16 -16 47.5 -83t40.5 -132q-1 -3 2.5 -21.5t2.5 -21.5q-2 -11 -6 -47t-9 -50l-2 -10l-26 -69q-17 -38 -29 -56l-43 -49 q-9 -11 -18 -19.5t-26.5 -22t-29.5 -23.5q-11 -11 -43 -24t-58 -20l-26 -8q0 -1 3 -4t3 -4v-20q-1 -5 7.5 -25.5t7.5 -23.5l4 -13q5 -30 10 -45q1 -12 10 -35.5t8 -38.5q1 -5 9.5 -29.5t9.5 -37.5q-1 -2 3 -11.5t9 -23.5t6 -25q3 -14 17 -65l10 -29q3 -11 4 -15.5t3 -15 t7 -30.5q0 -13 2 -19l4 -18l13 -37q1 -11 5.5 -26t4.5 -17q-4 -4 -10 -4h-13q-1 0 -27.5 -1t-33.5 -1h-33q-20 4 -37 4q-16 -4 -26 -4h-15q-5 0 -25.5 1t-25.5 1q-8 3 -22.5 3t-33.5 -1.5t-26 -1.5zM504 872l-6 -36l-6 -31h18h12h62q-1 1 -6 2q5 0 16.5 -2t21.5 -2l33 2 q14 0 65 2t62 2q198 0 236 152q14 70 -17 122.5t-86 63.5l-18 6l-66 4h-106l-17 -2l-40 2h-13h-71h-12.5t-6 -2.5t-3 -4.5t-1.5 -9t-2 -13q-2 -12 -6 -41l-23 -120q0 -5 -8 -37z" />
<glyph unicode="S" horiz-adv-x="1210" d="M1110 1049q-35 -2 -53 -13l-35 -6l-35 -12q-6 1 -55 -13t-53 -14l-13 43q-17 60 -69 101t-138 41q-12 0 -14 -2l-31 -5q-60 -6 -104.5 -40.5t-56.5 -73.5q1 -6 -0.5 -19t1 -28t11.5 -39l39 -35q25 -22 53 -31q12 -3 42.5 -13.5t45.5 -10.5q2 2 4 2l35 -11 q16 -5 38.5 -13.5t35.5 -10.5l16 -6q1 0 37 -6q3 0 16 -7.5t15 -7.5q30 5 132 -56l23 -16l-2 1l47 -50q14 -14 27.5 -34t30.5 -37q9 -39 26 -64l4 -33l5 -38q1 -8 1 -26.5v-37.5l-1 -20q0 -2 0.5 -12t0.5 -17t-2.5 -19.5t-7.5 -25.5l-22 -66q-22 -41 -65.5 -100.5 t-75.5 -79.5l-66 -41q-27 -17 -54 -27t-44 -20l-11 -4q-12 -2 -40 -2q-3 0 -33.5 -8.5t-32.5 -8.5h-6q-14 0 -29 -2t-26 -2h-7q-16 -4 -32 -4q-4 0 -16 2t-19 2q-4 0 -32 4.5t-38 4.5q-34 2 -65.5 9t-69.5 9l-16 12q-3 0 -16.5 3t-16.5 3l-8 7q-7 4 -50 25t-51 26 q-6 -3 -22 9.5t-35 30t-25 21.5q-3 3 -10.5 20t-17.5 27l-15 17l-6 20q-12 11 -14 17l-8 20q-5 20 -19 55l-4 19q-10 36 -8 67q1 0 34.5 6.5t63.5 11.5t37 5l12 -2q2 0 11.5 4t11.5 4l14 -2q77 22 113 20q4 -1 6 -7.5t4 -21.5t4 -24q8 -37 65 -92.5t124 -64.5h71q3 0 27 2 t27 2l1 1q127 20 168 101q1 4 3 8q1 2 5 18t5 17l-4 39q-1 24 -16 43t-42.5 32.5t-50 21t-55.5 16.5q-6 0 -29 15t-55 15h-20l-19 13l-24 4q-7 0 -14 1.5t-19.5 6t-23 8.5t-34.5 13.5t-43 17.5q-6 4 -36.5 22t-42.5 29q-47 41 -58 49l-10 6l-4 13l-14 20q-1 2 -11 12l-2 6 l-20 46l-6 30q-15 60 -13 62l-2 30v68q6 24 6 41l5 33l14 37q12 17 22 45t27 47q0 3 15 15t14 15l20 25q14 20 61.5 52t86.5 46q131 47 192 56q2 0 19.5 1t19.5 1l123 -11q20 0 102 -28q32 -11 59 -25t40.5 -22.5t21.5 -8.5q16 -15 37.5 -32.5t42.5 -40.5l14 -29 q4 -10 15.5 -20t25 -29t25.5 -53l6 -29q1 -5 4.5 -14.5t5 -16.5t0.5 -14z" />
<glyph unicode="T" horiz-adv-x="1032" d="M111 1200l12 62l-2 8l16 112l2.5 7.5t2 6.5t2 5l2 4t2 2.5t3 2t4 1t5.5 0.5q8 0 33.5 -2t37.5 -2q9 0 24.5 2t23.5 2h10h18h62q3 0 10 -2t10 -2h19q10 0 30 2t27 2q1 0 15.5 -3t31.5 -3q10 0 30.5 1t30.5 1q21 0 23 -2l22 4q9 -4 48 -4q7 0 21.5 1t21.5 1h57q23 0 37 2 q37 0 84.5 -3t50.5 -3q8 0 35 6h131h41q18 0 26 -2.5t10 -3.5t-1 -12.5t-4 -14.5l-2 -14l-9 -51l-8 -19l-2 -22q-4 -12 -4 -13q-1 -1 -0.5 -4t-1.5 -12q0 -5 2 -5l2 -1q0 -2 -5 -24t-5 -25q0 -2 -1 -5.5t-1 -4.5v-5q0 -10 2 -14l-6 -16q-3 -2 -6.5 -2t-7.5 1t-5 1h-57h-27 q-4 0 -10.5 1t-9.5 1q-2 0 -15 1t-25.5 1t-19.5 -2h-14l-90 -4q-2 0 -34.5 1t-33.5 1l-10 -58v-6l-12 -94q-3 -39 -15 -68l-16 -94q3 -11 0 -20v-10l-8 -43q-2 -15 -7 -38t-7 -32q-1 -5 -2 -15.5l-2 -21t-3 -20.5l-4 -33q-1 -7 -4 -19l-4 -16q0 -3 -3.5 -33t-8.5 -57 l-14 -94q-2 -14 -6 -40.5t-6.5 -46t-4.5 -24.5l-2 -18q-28 -87 -31 -123l-8 -45l-4 -25l-2 -14l-2 -19q-1 -2 -3 -9.5t-3 -8.5q-7 0 -20 1t-21 1h-53h-111q-14 0 -38.5 1t-35.5 1q-8 0 -18 -1t-12 -1q-7 0 -7 6.5t2 18.5l3 6v14l6 12v33q2 4 2 12q4 16 4 25q1 5 6 22.5 t6 30.5q4 8 0 15l16 94l5 28q0 1 2 11t4 16q2 20 8 75.5t6 57.5l2 6q1 5 4 19t4 22l6 35v18l7 41l-2 9q0 5 6 14v14q3 20 9 38.5t7 23.5l4 35q2 8 2.5 27t1.5 24l8 51q5 25 5 35l8 39q2 15 9.5 50.5t8.5 41.5l6 35q2 19 9 48.5t8 33.5q2 11 -11 12h-7h-5h-33q-5 0 -16.5 -1 t-17.5 -1h-48q-64 0 -92 -4h-41q-4 0 -11.5 1t-12.5 1t-26.5 -1t-31.5 -1t-10 10q1 4 5 8.5t5 7.5q1 12 7 29v4z" />
<glyph unicode="U" horiz-adv-x="1357" d="M1190 1411h12q33 0 53 -4q92 0 127 2q10 -10 11 -12q-1 -3 -6.5 -22.5t-6.5 -22.5l-6 -41q0 -1 -3 -5t-3 -6l-2 -18q-2 -9 -1.5 -25.5t-0.5 -23.5q-4 -20 -17.5 -71.5t-17.5 -78.5q3 -20 -4 -67q-5 -35 -18.5 -94.5t-18.5 -87.5q2 -8 -2 -29l-14 -88q-1 -6 -4 -19.5 t-4 -19.5t-2 -18.5t-2 -18.5l-3 -35q-4 -12 -4 -16q-1 -7 -2 -19.5t-2 -19.5q-2 -12 -10.5 -43t-11.5 -45q-2 -13 -3 -23.5t-1.5 -16t-1.5 -9.5q0 -13 -4 -23q-4 -7 -8.5 -35t-12.5 -37q0 -3 -9 -27.5t-9 -27.5l-37 -51q-3 -8 -5.5 -13t-6.5 -11t-6 -8.5t-8.5 -8.5t-9 -8.5 t-13 -11t-15.5 -13.5l-43 -37q-24 -21 -55.5 -38t-73.5 -31.5t-69.5 -22t-77.5 -20.5l-70 -10q-2 0 -11.5 3t-12.5 3q-15 0 -35 -4l-84 10q-3 0 -13.5 1t-13.5 1l-57 10l-17 6l-20 2q-60 6 -123 56l-27 18l-36 31l-19 20l-8 4l-39 43q-43 82 -43 107q-2 13 -6.5 38.5 t-3.5 30t2 33.5l-2 31q0 2 4 31t4 32v23q1 9 5 27.5t5 27.5q1 6 2 17.5t2 17.5q-1 0 1 8t4.5 19t3.5 14q1 6 2 17.5t2 17.5l16 115q0 2 -1 4.5t-1 3.5t1 3.5t1 4.5q1 5 0 16t0 17q1 7 6 16v6l6 10q-2 0 -2 7q1 5 5.5 16t4.5 12l3 17q2 10 2 32l12 68l10 68q0 2 2 6t2 6l6 67 q12 37 15 66l22 139q6 9 6 17q0 1 1 3t1 3q0 6 6.5 8t30.5 2q14 0 76 -4q6 0 34.5 1t41.5 1q9 0 23 -1t30 -1q10 0 53 2t49 2q0 -13 -4 -49l-6 -29v-35l-4 -16l-10 -70q-2 -14 -10.5 -44t-10.5 -42q-4 -56 -18 -104q-26 -150 -35 -219l-4 -29l-8 -14q-4 -25 -5.5 -49.5 t-6.5 -55.5l-13 -67q-6 -86 -12 -168q-11 -69 47 -121.5t154 -52.5h8q73 0 131 24l18 6q40 13 76 64l10 10l29 60q1 5 8 42t11 60q0 3 1 9t1 9q4 7 6 19v14q19 126 35 213q-1 16 0 23.5t5 24.5t5 26l6 35q0 3 6 33t6 32q3 21 6 45t6 45l3 17q4 19 10.5 44t7.5 29 q0 3 -1.5 13.5t-0.5 13.5q1 5 3 13.5t3 13.5l6 39l4 12l2 12q13 80 9 84l2 8q0 3 4.5 9t3.5 8l2 51q44 6 88 6z" />
<glyph unicode="V" horiz-adv-x="1159" d="M592 0h-10h-15h-22q-10 0 -30.5 -1t-29.5 -1h-10q-12 0 -16 2h-53h-74q-8 0 -8 1q-3 23 -9 40l-6 35q1 9 0.5 21t-2.5 14l-8 61q0 27 -7.5 64.5t-8.5 52.5l-4 16q3 18 -3 58.5t-19 108.5t-19 120l-5 29q0 16 -6 60t-8 69l-10 69q0 23 -2 35l-12 78q-5 22 -9.5 60.5 t-7.5 56.5l-18 125q-1 0 -7 16.5t-10.5 40.5t-1.5 39l-2 33q-1 3 -4 40q2 8 -6 29t-6 31q2 8 29 8h22h62h51q3 0 8 -1t8 -1h25q8 -5 21.5 -5t17.5 -1l82 4q6 -12 2 -39q9 -25 9 -44.5t5 -33.5v-26q-2 -13 3.5 -39t6.5 -37l8 -62q-3 -20 5.5 -56.5t7.5 -43.5l2 -18 q2 -4 4.5 -27t5.5 -33l-2 -14q6 -60 22 -157t23 -181l12 -115q-4 -16 17 -145q0 1 9 24.5t11 26.5l12 39q2 4 5 11.5t5.5 13t2.5 6.5q0 2 5.5 12t6.5 10l31 78q19 34 34.5 75.5t36.5 82.5l9 24q4 6 10 23t10 24l16 37l47 103q30 71 37 90q6 22 14 39t25.5 51t36.5 78l8 20 q2 18 14.5 34.5t14.5 27.5q2 7 28 67.5t33 73.5l34 -1h22q61 1 61 -1h21l16 2q17 0 31 -2t39 -2q2 0 6 1t6 1t7.5 1t8.5 1h15q4 0 4 -4q-2 -8 -17 -39q-26 -39 -33.5 -66t-19.5 -45l-10 -22q-10 -16 -16 -35q-2 -8 -20 -43t-21 -53q-6 -12 -33 -60.5t-35 -78.5l-29 -60 q-7 -10 -14.5 -32.5t-13.5 -30.5l-7 -19l-30 -65q-9 -18 -24.5 -51t-18.5 -39l-10 -23l-11 -29q-8 -29 -25.5 -59.5t-21.5 -42.5q-38 -68 -72 -160l-14 -31q-20 -36 -49 -102l-29 -63l-16 -37q0 -1 -3.5 -6t-6.5 -11t-4 -10v-6q-11 -19 -19 -36.5t-12 -25t-5.5 -13.5 t-6.5 -7l-7.5 -1.5t-15.5 -0.5h-14h-8h-5h-24z" />
<glyph unicode="W" horiz-adv-x="1869" d="M1442 59q-10 -17 -15.5 -36.5t-11.5 -24.5l-59 2l-62 -8q0 2 -2 2l-178 4q0 6 -3.5 31.5t-2.5 42.5l-4 20q1 8 -12 72l-2 33q-5 67 -5 69l-4 37q-13 25 -14.5 73t-5.5 64q-17 69 -17 148l-6 20q-6 20 -8 61t-4 56l-6 53q-7 22 -11 67t-5 52l-13 94q-5 -6 -18 -43t-15 -41 l-36 -102q-1 -3 -24 -68.5t-34 -83.5l-6 -22q-8 -17 -10 -27q-61 -140 -111 -297l-8 -24q-1 -2 -2.5 -6t-2.5 -6.5t-1 -4.5l-18 -53q-9 -22 -23.5 -53.5t-22 -52t-10.5 -39.5q0 -3 -2 -5l-8 -18q-9 -12 -12 -25.5t-6 -18.5t-15 -5q-2 0 -12.5 2t-11.5 2h-72h-104l-5 2 q1 -1 -15 -1.5t-40 -1t-35 -1.5q-3 23 -16 154l-6 51q-1 17 -7.5 58.5t-7.5 64.5l-4 8q0 8 -1 20t-1 17l-4 35l-4 53q-7 27 -4 37l-8 67q-12 79 -21 215l-10 33v29l-6 20q-14 116 -12 152l-6 6q3 28 -19 135l-2 16v27l-10 68l-10 90q-1 5 -5 21.5t-4 23.5q0 6 13 6h28l101 2 v-2l16 -2q1 0 7 1t7 1h19q10 -2 30 1t27 3h80q7 -2 6.5 -27.5t3.5 -27.5l-2 -31q3 -7 3.5 -18.5t0.5 -19t2 -7.5q0 -8 -2 -10q6 -24 6 -27v-8l7 -64q0 -2 -1 -17.5t1 -16.5q4 -28 7.5 -89t12.5 -126l6 -19q-1 -23 2.5 -62.5t3.5 -52.5l2 -16q1 -10 4.5 -65.5t9.5 -119.5 t13 -110q0 -4 -2 -6q2 -5 6 -8l14 14l93 230l6 12l10 33q7 19 26.5 66t28.5 71l4 12q10 25 21.5 56.5t13.5 35.5q2 0 5 9t7.5 24.5t8.5 24.5l8 24q-2 4 -2 8q0 2 2 2l8 7q4 28 19.5 59.5t17.5 42.5v6l35 94q5 24 12 33.5t8 15.5q2 4 2 15l6 4l9 20l2 6q3 7 5.5 11.5t6.5 5.5 h16q2 0 5.5 1t5.5 1h26q5 0 38.5 1t39.5 1h57l9 -4h22q6 4 14 4l7 -4l16 4l37 -2l6 -62v-6q-1 -5 6 -73l10 -82l-4 -8q8 -24 6 -31l5 -31l2 -25q3 -26 13 -82.5t13 -97.5l2 -26q5 -73 23 -230t20 -176v-4q-1 -3 0 -5t1.5 -3.5t2 -3.5t2.5 -4l15 34q12 30 41.5 115t44.5 121 q7 8 20.5 41.5t30 80t18.5 50.5l7 18q16 43 24 74l39 86q0 3 2 10.5t2 10.5l14 20q1 6 4.5 15t4.5 12q0 1 5 15t5 16q7 21 27 66.5t28 70.5q0 2 8.5 21.5t8.5 21.5q1 8 14 30q1 11 4.5 16.5t5.5 6.5t9 0.5t8 -0.5h24h12q4 -2 31 -2q3 0 7.5 1t8.5 1l21 -4q18 4 55 4 q34 0 67 -1t38 -1q-15 -32 -23 -55l-10 -25q-13 -29 -62 -154l-18 -38q-21 -61 -37 -102t-39.5 -97.5t-42.5 -104.5l-32 -67q-14 -32 -29 -78l-10 -16q-5 -17 -26.5 -64t-29.5 -76l-6 -10q-4 -2 -4 -4l-10 -35q-24 -53 -43 -100l-19 -45q0 -10 -10 -27l-14 -37 q-2 -8 -31 -73l-8 -21q-18 -47 -21 -53l-4 -6q-6 -6 -6 -8l2 -5q-18 -41 -18 -45z" />
<glyph unicode="X" horiz-adv-x="1257" d="M-92 0q0 6 41 53l12 21q18 18 45 63l29 33q2 3 5 9.5t6 11t7 8.5l19 22q2 3 22 31t46.5 63.5t49.5 59.5l13 14q4 8 16.5 22t18.5 27l28 37q11 14 35.5 49.5t40.5 53.5l23 26q11 12 26 37t25 33l18 28q2 3 7.5 8t9 10t4.5 9q0 1 9 10.5t7 12.5l-20 47q-4 11 -14.5 30 t-14.5 33l-25 51q-6 21 -25.5 59t-25.5 56q-4 10 -19 36t-18 44l-33 72q-5 16 -18.5 46t-17.5 40l-9 16l-24 53l-4 7l-8 14t-8.5 18t-6.5 21q0 2 -2 5t-3.5 5t-0.5 2q7 0 32.5 -1t33.5 -1h22h33q16 0 28.5 1.5t28.5 0.5l23 -2q1 0 6.5 1t9 1.5t4.5 -0.5h25q1 -2 6.5 -2 t10.5 1l5 1q1 0 12 -1t13 -1q1 0 8 0.5t14.5 0.5h17.5t17 -1l49 -121l15 -33q6 -13 36.5 -80t49.5 -114q4 -3 11 -20t16.5 -42t13.5 -34l22 38l17 23l32 49l23 35q5 5 16 27l35 45l17 26l28 43q9 12 17 27l24 35q10 16 37 53.5t31 44.5q17 2 43.5 0t38.5 0h47q13 0 24 -1 t13 -1q12 0 26 4h43h25q2 0 14 -1t17 -1q17 0 20 -2q-29 -43 -39 -49l-2 -2l-4 -8q-9 -11 -17.5 -24.5t-9.5 -14.5l-28 -37q-6 -8 -29 -41t-35 -47l-22 -29q-212 -282 -219 -291l-21 -26q-51 -64 -63 -84q0 -6 2 -11.5t4 -9t7.5 -11t8.5 -11.5l31 -72q11 -40 50.5 -118 t45.5 -95l8 -14q7 -14 18 -40.5t15 -35.5l10 -23q10 -29 26.5 -59t20.5 -47l4 -8l25 -50l27 -67q6 -9 18 -41l23 -41q-5 0 -23.5 1t-23.5 1h-41q-27 -2 -78 -2h-37q-137 0 -152 4q-3 3 -7.5 15.5t-6.5 17.5l-6 20q-3 9 -13.5 24.5t-13.5 31.5l-6 16l-20 41q-3 18 -19 47 l-12 27q-2 8 -19 51t-30 67l-6 15q-6 16 -26 62t-26 61l-16 41q-4 -7 -16 -26.5t-13 -20.5l-37 -54l-10 -8q-15 -25 -49.5 -77.5t-38.5 -59.5l-16 -25q-27 -41 -72 -98q-6 -8 -28 -42.5t-40.5 -61.5t-23.5 -27l-29 -41l-51 4q-6 0 -20 -2t-17 -2l-43 4q-4 1 -11.5 -1.5 t-10.5 -2.5q-8 0 -27 1t-25 1h-28h-84z" />
<glyph unicode="Y" horiz-adv-x="1118" d="M594 -4q-18 2 -57 2q-66 0 -74 -2h-51h-6h-17q-10 0 -16 -2q-15 0 -26 3t-19 3q-2 2 -0.5 10t4 20t2.5 13q0 9 4 33q17 89 22 106q0 22 5 51q2 18 8 50t8 41q0 10 2 14l6 39q1 7 4 36.5t4 37.5l4 26q10 33 11 45l4 16t4 19l2 37q-1 6 -11 24.5t-10 28.5l-14 33l-14 25 q-3 7 -3.5 15t-4.5 13l-27 55l-25 62l-8 27q-7 16 -22 43t-21 43l-4 16l-6 18l-10 21q-4 8 -6 14.5t-6 17.5t-9 23l-16 33q-12 36 -21 45l-14 41q-1 2 -7.5 9t-10.5 22q-2 10 -9.5 25.5t-11.5 25.5l-4 12q-3 21 -14.5 41.5t-14.5 30.5l-10 28q-6 9 -6 17q2 2 4 2t7.5 -1 t8.5 -1l43 2h17h4l22 2h25q17 0 25 -2q10 6 36 6q7 0 97 -4q2 0 29 1t28 1l12 -35q1 -3 47 -112l29 -78q14 -22 19.5 -48.5t11.5 -39.5l20 -45l17 -45q10 -40 16 -50l14 -28q21 -81 25 -90l45 63l33 49q25 21 37 54l41 63q12 15 24 37.5t21 34.5l22 32q42 68 64 93l28 47 q14 18 31 44.5t26.5 40.5t12.5 13q1 0 7.5 -1t11.5 -1.5t10 0.5h14h37l22 2q13 0 29 -1t21 -1h12q3 0 10 1t10 1q4 1 14.5 -1.5t14.5 -2.5l16 2q11 0 30 1t30 1q0 -6 2 -10q-31 -43 -45 -66l-64 -88l-53 -78q-15 -15 -20 -28l-13 -17l-43 -61q-35 -47 -49 -74l-10 -10 q-5 -8 -14.5 -20.5t-12.5 -16.5l-33 -49q-1 -4 -6.5 -12t-5.5 -9l-35 -53q-78 -87 -100 -143l-63 -82l-9 -74l-8 -26l-8 -54q-1 -9 -2 -28.5t-2 -28.5q-1 -8 -9.5 -45.5t-9.5 -48.5l-14 -80l-10 -70l2 -14q-2 -2 -2 -14q0 -3 -3.5 -9.5t-2.5 -9.5l-2 -24l-11 -66 q-16 -4 -22 -4q-4 0 -10 1t-13.5 1t-17.5 -2z" />
<glyph unicode="Z" horiz-adv-x="1208" d="M819 1141h-12q-10 0 -20.5 -1t-22.5 -1q-9 0 -19.5 1t-13.5 1q-5 0 -11 -1t-9 -1q-22 0 -36.5 1t-17.5 1q-16 0 -28 -2h-54q-3 0 -21.5 1t-21.5 1q-24 -4 -36 -4q-6 0 -35.5 2t-36.5 2h-100q-2 0 -16.5 -1.5t-27 -2.5t-12.5 0q-13 0 -30.5 -1t-28.5 -1q-2 0 -10 1.5 t-14.5 1.5t-10.5 -3q2 5 4 19t4 20q1 6 0 11t0 11q0 4 5 24.5t8 24.5q0 15 2 23q0 5 6 14q1 6 3 32.5t3 31.5l6 18q0 5 1 21.5t1 21.5q10 2 62 2q15 0 58.5 -4t55.5 -4l62 6h28q19 0 41 -2t51 -2t82 4h80q4 0 14.5 -1t14.5 -1h51q12 0 14 2q8 0 29 -2t39 -2q13 0 26 2t19 2 t13 -1t12 -1h22q9 0 17 -2h45q2 0 -2 0q-1 1 -5 1q-9 1 -8 1h41q21 0 33 -2l33 2q3 0 8 1t8 1q2 0 6.5 -1t6.5 -1h18q6 -2 20 -2q6 0 16.5 1.5t18.5 3.5l8 1q2 0 2 -4q0 -6 -2 -12q0 -7 -2 -11l-4 -36q-1 -2 -2.5 -11t-3 -20t-2.5 -15q-3 -26 -2 -28l-22 -109l-56 -59 l-24 -29q-23 -23 -33 -37q-15 -17 -80 -84.5t-88 -103.5l-33 -35q-6 -4 -15.5 -15t-28.5 -32t-42 -43l-12 -12q-1 -3 -16 -18.5t-15 -18.5l-22 -25l-90 -102l-9 -10q-16 -14 -70.5 -76t-68.5 -82l-113 -109l-2 -6q43 2 133 2q6 0 19 -1t20 -1q35 0 82 6h33q23 -4 57 -4h37 q5 0 27 -1t33 -1q20 0 26 2h68q21 0 34 4t36 4h24q11 0 52 -2.5t44 -5.5q-3 -29 -6 -43q-2 -9 -3 -16t-1.5 -14.5t-1.5 -12.5l-6 -37q-8 -20 -8 -26q0 1 0 -1.5t-1 -11t-2 -19t-3 -27.5t-5 -35q0 -4 -0.5 -8t-0.5 -6.5t-0.5 -5t-1.5 -3.5t-3.5 -1.5t-5.5 -0.5q-12 0 -37 2 t-39 2h-6q-8 0 -22 -2t-35 -2h-25q-4 2 -11 4t-11 4l-21 -6q-10 -4 -26 -4q-15 0 -28 2t-26 2q-3 0 -11.5 -1t-12.5 -1q-2 0 -5 1t-5 1q-9 0 -25 -1t-24 -1h-27h-72h-43h-98q-15 0 -47 -1t-47 -1h-49q-24 0 -72 3.5t-72 2.5h-26q-20 -4 -29 -4q-4 0 -14.5 -1t-16.5 -1h-112 q-2 2 -8 2.5t-10.5 0.5t-4.5 3l6 31q-1 1 -0.5 2.5t1 3.5t1 3.5t0.5 2.5q1 7 9 41.5t10 52.5q2 10 5 44.5t5 43.5l29 31q4 5 23.5 24.5t23.5 24.5q22 27 31.5 38.5t14 16t15.5 15t23 22.5q20 20 76 88.5t83 96.5l39 43q20 20 21 20l55 60l102 112l56 66q3 4 31.5 38t29.5 42 l53 49q2 3 58 60t61 65z" />
<glyph unicode="[" horiz-adv-x="618" d="M184 -354h-12q-13 0 -31 2t-26 2q-19 0 -43.5 -2t-26.5 -2q-8 0 -16 3t-15 3q-5 -1 -5 -3q1 -1 -1 -2q-4 -1 -20 -1h-8q-5 1 -8 4t-4 8t-1.5 10.5t0.5 13t1.5 12.5t2 13.5t2.5 11.5q5 5 9 23q1 7 2 21.5t2 19.5l2 10q0 4 2 21.5t2 21.5l6 35q0 1 1.5 8.5t3.5 18t3 16.5 q0 2 1 5.5t1 4.5l2 10q1 6 2 20.5t2 20.5q1 8 5.5 27t5.5 31q4 27 13.5 99.5t12.5 94.5l4 17q0 28 8 86q3 18 13 35q13 106 20 149q1 7 6.5 23t6.5 24q1 9 2 23t2 22q1 2 2.5 10.5t3.5 14.5l2 6l8 59v25l5 21q1 3 1 6l2 6q2 15 7 28.5t6 18.5l2 10q1 8 1 26t1 23q2 8 9 28.5 t9 35.5l2 16q1 6 6 53.5t6 53.5l17 98q5 28 11 77t7 54q12 36 12 51l7 31q1 7 0 23.5t0 19.5q0 4 2 4h24q5 0 41 -6h19q16 0 21.5 4t19.5 4q3 0 8.5 -1t7.5 -1q4 0 24 2t25 2t13 -2t12 -2h16q9 0 47.5 -1t48.5 -1q25 0 35 2h25q1 0 10.5 1t15.5 1q8 0 13 -3t7 -7t2.5 -9 t0 -9t-1.5 -7v-4q0 -1 -0.5 -3t-3.5 -10.5t-6 -19.5l-2 -6q0 -14 2 -18q-1 0 -2 2v-15l-2 -6q0 -20 -17 -20q-4 0 -14.5 1t-14.5 1q-8 0 -16.5 -1t-11.5 -1q-4 0 -36.5 2t-37.5 2q-11 0 -23.5 -1t-17.5 -1q-4 0 -15 1t-16 1h-18h-6l-6 -8q-1 -3 -4.5 -33.5t-4.5 -32.5 q-1 -10 -6.5 -32t-7.5 -37q-5 -33 -14 -109t-13 -100l-10 -70l-18 -66q0 -8 -4 -16q-4 -29 -5.5 -63.5t-9.5 -81.5l-8 -49q0 -27 -2 -41q-2 -15 -8 -42t-8 -42l-10 -62q-4 -28 -5 -33q0 -6 -4 -10l-32 -194q-2 -3 -9.5 -31.5t-7.5 -32.5l-6 -33q-2 -11 -4 -32.5t-4 -30.5 l-10 -74q-3 -20 -9.5 -68t-9.5 -67q0 -2 -3 -6.5t-3 -5.5q0 -4 6 -4q7 0 14.5 1t28.5 1h6h6q8 0 17 1t16 1q4 0 13.5 -1t13.5 -1q12 2 59 2h15q11 0 16 -1t8.5 -6t1.5 -16q0 -5 -1 -6.5t-1 -5.5l-4 -19l-2 -8l4 13v-3l-2 -14q0 -4 -6 -22l-4 -35q-2 -4 -10 -4h-15h-2h-26 q-4 0 -21.5 1t-21.5 1h-17q-20 0 -44.5 -1t-35.5 -1z" />
<glyph unicode="\" horiz-adv-x="933" d="M782 -360h-10q-40 -5 -51 -5q-5 0 -9 3l-5 2h-5q-4 0 -10 -1t-8 -1q-3 0 -4.5 1t-2.5 4.5t-2 8t-3.5 14t-5.5 19.5l-17 73q0 4 -3 13.5t-3 13.5l-6 18q-1 5 -13 44t-16 57l-53 188q-8 16 -12 39l-41 141q-7 20 -10 43l-13 60q-2 7 -11.5 39.5t-14.5 52.5l-9 27 q-3 21 -6.5 36.5t-10 34t-7.5 23.5l-8 30l-37 130q-29 89 -39 143l-6 16q-1 1 -5.5 11t-5.5 16l-40 178q-8 28 -13 43l-26 102q-3 16 -9.5 29t-7.5 17l-8 32q-2 10 -7 28.5t-5 22.5t2 15q-1 3 1 4t4 0h1q4 0 17.5 -1t23.5 -1q6 2 27 2h18q16 -4 31 -4h12h6q-8 0 -12 2h26h19 h4h4q5 -1 8 -9.5t5 -21t3 -16.5l5 -15q-2 -9 7 -40.5t21 -57.5l6 -26q-2 -8 0 -16t7.5 -19l7.5 -15l6 -28q8 -28 8 -41l29 -109l18 -71q-3 -10 15 -73t42.5 -147.5t32.5 -124.5l27 -92q14 -31 14 -47l8 -35q4 -21 24 -90t26 -102l8 -23q-1 -18 12.5 -55.5t15.5 -44.5 q24 -102 29 -111l19 -65q13 -29 18.5 -51t8.5 -43.5t7 -36.5l33 -135q-2 -2 -3 -3.5t-1.5 -2.5t-1.5 -1q-4 3 -12 3h-4q-31 0 -54 2z" />
<glyph unicode="]" horiz-adv-x="618" d="M438 1409h13q13 0 31 -2t26 -2q19 0 43.5 2t26.5 2q8 0 15.5 -3t14.5 -3q5 1 5 3q0 1 2 2l20 1h8q7 -1 10 -6t3 -15t-0.5 -16.5t-3.5 -20t-3 -16.5q-5 -5 -8 -22q-1 -7 -2 -21.5t-2 -19.5l-2 -10q0 -4 -2 -21.5t-2 -21.5l-6 -35q0 -1 -2 -8.5t-4 -18t-3 -16.5q0 -2 -1 -6 t-1 -5l-2 -10q-1 -6 -2 -20.5t-2 -20.5q-1 -8 -5 -26t-5 -31q-5 -28 -14.5 -101.5t-12.5 -93.5l-4 -16q0 -28 -8 -86q-3 -21 -12 -35q-10 -82 -21 -149q-1 -7 -6 -23t-6 -24q-1 -9 -2 -23t-2 -22q-1 -2 -2.5 -10.5t-3.5 -14.5l-2 -6l-8 -60v-24l-4 -10q-2 -7 -3 -17l-2 -6 q-2 -15 -6.5 -28.5t-5.5 -18.5l-2 -10q-1 -8 -2 -34.5t-2 -31.5q-2 -8 -9 -28t-9 -35l-3 -17q-1 -6 -6 -53t-6 -53l-16 -98q-3 -19 -19 -132q-12 -36 -12 -51l-6 -30q-1 -7 0 -23.5t0 -19.5q0 -5 -2 -5h-25q-8 0 -15 1t-14.5 3t-11.5 3h-18q-16 0 -21.5 -4.5t-19.5 -4.5 q-3 0 -8.5 1t-7.5 1q-4 0 -24.5 -2t-25.5 -2t-12.5 2t-11.5 2h-17q-9 0 -47.5 1t-48.5 1q-25 0 -35 -2h-24q-1 0 -11 -1t-16 -1q-8 0 -13 3t-7 7t-2.5 9t0 9t1.5 7l1 4q0 1 0.5 3t3.5 10.5t6 19.5l2 6q0 15 -2 19q1 0 2 -2v14l2 6q0 21 16 21q4 0 14.5 -1.5t14.5 -1.5 q8 0 17 1.5t12 1.5q4 0 36 -2.5t37 -2.5q11 0 23.5 1t17.5 1q4 0 15 -1t16 -1h19h6l6 9q1 3 4 33t4 32q1 10 6.5 32.5t7.5 37.5q5 33 14 109t13 100l12 86l19 65q0 9 4 17q4 30 5 64t9 81l8 49q0 27 2 41q2 15 8.5 42.5t8.5 41.5l10 62q1 6 2 16.5t2 15.5q0 7 4 11l33 194 q2 3 9 31.5t7 32.5l7 32q2 11 4 33t4 31l10 74q3 19 9 67t9 68q0 2 3.5 6.5t3.5 5.5q0 4 -7 4t-14.5 -1t-28.5 -1h-6h-6q-8 0 -17 -1t-16 -1q-4 0 -13 1t-13 1q-12 -2 -60 -2h-14q-11 0 -16 1t-9 6t-2 16q0 5 1 6.5t1 5.5l5 18l2 8l-5 -12v2l3 15q0 4 6 22l4 35q2 4 10 4h14 h2h27q4 0 21.5 -1t21.5 -1h16q20 0 44.5 1t35.5 1z" />
<glyph unicode="^" horiz-adv-x="1054" d="M963 709h-33h-4q-7 0 -18.5 -1t-12.5 -1q-14 0 -35.5 1t-28.5 1h-106q-2 4 -9 25t-18 48q-15 35 -23 59t-26 70l-14 47q-9 26 -16 40t-11.5 25t-11.5 40l-8 20l-31 103l-25 -82q0 -5 -6 -17q-22 -40 -29 -62t-10 -28l-18 -53q-34 -71 -39 -84l-14 -24q-3 -8 -9.5 -25.5 t-21.5 -44.5q-8 -11 -23 -55h-43h-10q-2 0 -4 2h-18h-2q-3 0 -33 -1t-31 -1q-14 0 -22 2h-11h-32q-6 -2 -23 -2h-43q-3 12 35 75l8 31q8 10 12 18t7.5 18t5.5 15l6 13q11 22 14.5 28.5t6.5 17.5t10 27q60 141 59 127l-6 -20l16 37q3 10 14 33t15 34l24 58l17 34l8 23 q16 37 29.5 66t20 42.5t9.5 22.5q2 3 57.5 1.5t57.5 -3.5q3 0 19 1t18 1q6 0 12 -2q1 0 4.5 1t5.5 1t8 -1t9 -1q1 0 5.5 1t6.5 1h6h2h50h43q16 0 26 2q0 -1 3 -2q1 -1 1.5 -1t1.5 -1q25 -54 29 -70l41 -114l27 -80q-4 -7 20 -47l23 -68l20 -49q1 -4 2.5 -10.5t2.5 -11 t1 -7.5l23 -53q4 -8 10 -27.5t14 -33.5l17 -45l32 -84h-2h-6q-2 0 -5.5 -1t-6.5 -1t-8 1t-8 1z" />
<glyph unicode="_" horiz-adv-x="1054" d="M1100 -180l6 -78q0 -5 -1 -14t-1.5 -14.5t-1.5 -13.5t-1.5 -13t-2 -11.5t-3 -10t-3.5 -7t-5 -5t-6 -1.5t-13 2t-15 2l-60 10q-6 -3 -14 -3.5t-20 0.5t-17 1q-97 0 -115 4h-26q-7 0 -40.5 -4t-41.5 -4q-7 0 -21 -0.5t-22.5 -0.5t-20.5 1t-22 4q-78 0 -144 -8h-92l-73 8 q-5 0 -13 3t-12 3q-6 0 -16 -10q-12 0 -40 2t-38 2h-15h-16h-45q-10 0 -22 3t-17 3q-3 0 -10.5 -4t-11.5 -6l-19 10q-4 0 -14.5 -7t-20.5 -7h-16h-14q-13 0 -14.5 30t1.5 56q1 14 2 17q2 7 7 73q-6 18 -3 43v21q8 12 50 12h22h86q18 0 50 -2t48 -2h66q5 0 20.5 2t20.5 2h66 q27 0 48 1.5t36.5 0.5t56.5 -6q20 2 28.5 5t26.5 3h49q16 0 50.5 -6t52.5 -6h24q16 0 67.5 2t65.5 2h21q3 0 11.5 -2t12.5 -2q5 0 40.5 4t68.5 4q34 0 40.5 -3t4.5 -18q-3 -40 -10 -67z" />
<glyph unicode="`" horiz-adv-x="1054" d="M418 1393l-4 6q1 3 19.5 32t25.5 54l28 43q6 6 13 20l10 13l10 -7q47 -36 72 -51q2 -1 8 -4.5t8 -5.5q18 -14 43 -27t39 -26l33 -23q11 -12 22 -20t30 -18t30 -17l49 -33q9 -6 14.5 -10.5t10.5 -7.5l-7 -11l-5 -12q-7 -13 -7 -14l-8 -14q-2 -3 -4.5 -9.5t-5.5 -11.5 l-13 -20q-1 -3 -3 -8.5t-3.5 -9t-3.5 -3.5q-8 0 -39 17.5t-32 17.5l-17 4q-7 3 -18.5 9.5t-16.5 8.5l-12 9q-41 14 -45 22l-10 6q-3 0 -34 15.5t-34 15.5l-22 12q-1 3 -90 47q-1 0 -15.5 5.5t-15.5 5.5z" />
<glyph unicode="a" horiz-adv-x="1142" d="M33 186q-14 64 -8 103q23 155 139 235l49 31l18 10q7 2 22.5 9.5t28 13t15.5 4.5l37 12q6 1 43 11t51 10q98 16 131 16q6 0 28.5 3t28.5 3q78 0 119 6q4 0 4 27q8 24 9 29q0 2 1 6.5t1 7.5l-2 14q4 4 4 29l-1 6q-1 5 -3.5 15.5t-7 21t-13 20.5t-18.5 15l-41 20 q-8 4 -78 4q-53 -7 -88 -22l-37 -23q0 -3 -11 -17.5t-12 -17.5q-22 -31 -22 -36l-2 -7q-7 -6 -10 -17.5t-5 -14.5l-34 4q-3 0 -19 2t-20 2l-41 6q-82 13 -96 14l-64 11q2 2 2 4q13 41 26.5 65t22.5 32.5t10 14.5l13 13l11 16q11 16 24.5 32.5t43.5 39t68 39.5l23 10 q27 12 41 14l41 12q64 17 131 21l6 -1q6 -1 10 -1q8 0 12 2h54q4 2 43 2q37 0 110 -25l27 -6q10 -7 39 -20t54.5 -30.5t41.5 -43.5q12 -8 28.5 -36.5t18.5 -39.5q4 -21 10.5 -42t9 -35t-0.5 -33q-31 -208 -37 -242q-1 -8 -5.5 -28.5t-5.5 -28.5q-4 -26 -11 -78t-11 -76 l-8 -51q-10 -40 -10 -47l-3 -12q3 -8 0 -17l-8 -49l2 -16l-2 -33q-5 -42 6 -78h-20h-31q-25 0 -39 -2q-37 2 -153 2h-49q-4 96 10 182q0 2 2 7v1l-43 -73q-97 -126 -240 -140l-24 -4q-25 -4 -72 -4q-20 0 -66.5 17t-62.5 28l-27 15q-13 4 -20 10.5t-15.5 16.5t-17.5 18 q-50 66 -55 112zM340 309v-10q-4 -13 6.5 -48.5t28.5 -51.5l20 -19q4 -1 15 -5.5t19.5 -6.5t19.5 -2q88 0 146.5 56.5t84.5 156.5l4 16q2 4 8 37l8 31q2 5 9 31q4 16 0 16q-30 0 -84 -8l-62 -10q-5 -2 -35.5 -9.5t-50.5 -15.5l-47 -23q-73 -42 -90 -135z" />
<glyph unicode="b" horiz-adv-x="1142" d="M88 -4q-4 0 -17.5 1t-17.5 1q-8 1 -9.5 2.5t1.5 7.5t4 12q1 4 4.5 14.5t5.5 26.5q4 23 5 37l2 13l8 41q1 2 2 16t2 16q3 21 9 60.5t9 60.5q8 24 8 41v6q1 3 3.5 14t4 19.5t1.5 11.5v29q2 7 14 66q2 14 5 45t5 45l7 28q6 28 8 45q3 20 7 53t5 40q15 74 16 79l6 35 q-2 11 -2 17l11 57l8 25v16l2 16q4 19 8 49q1 7 2.5 22t3.5 25.5t6 18.5l29 178q3 18 6.5 32.5t7.5 41.5l4 16l4 33l25 -4h4q2 0 10.5 3t30.5 3l27 -6h20q3 0 9 1t8 1h39q2 0 5 -1t5 -1l45 2l41 2q8 -1 19 -1t11 -3v-2l-4 -12q0 -3 1 -12l1 -9q0 -1 -3.5 -7.5t-4.5 -14.5 q-2 -16 -0.5 -20.5t0.5 -6.5l-4 -12l-33 -172q0 -3 -7 -54t-7 -53l-2 -18q-1 -3 -3 -17.5t-3 -17.5l-19 -80l7 2q1 0 4.5 6.5t11.5 20t18 26.5q33 42 66 68.5t66 37t53 13t49 2.5q3 0 23 -2t22 -2t5 -2t5 -2q10 0 31 -4.5t26 -5.5l29 -17l37 -26l10 -2l11 -15q54 -58 59 -73 l20 -48q0 -2 2 -5.5t2 -6.5q5 -21 14 -50t13.5 -49t3.5 -42q2 -14 3.5 -55t0.5 -52l-16 -168q-5 -17 -15 -53t-15 -53.5t-17 -45t-27 -52.5l-6 -19q-17 -35 -53 -77.5t-64 -68t-35 -28.5q-11 -4 -33 -17.5t-30 -17.5l-14 -6q-4 0 -12 -5t-9 -5l-14 -6t-16 -4.5t-16 -3 t-18.5 -2.5t-17 -1.5t-19.5 -0.5h-18.5h-20h-18.5q-4 0 -11 1t-11 1l-37 4q-7 0 -17.5 2.5t-13.5 3.5l-2 -2l-30 6l-58 37q-7 0 -21.5 12t-15.5 23l-10 12q-29 23 -31 41l-14 18q4 12 -14 35q-15 -24 -40 -72.5t-26 -58.5q0 -1 -4 -12t-7.5 -21.5t-2.5 -11.5h-27l-10 2 q-8 -3 -15 -0.5t-12 -1.5l-18 -2h-35h-4zM422 459q-3 -21 -8 -51v-43l2 -48q0 -6 5 -23.5t5 -19.5l4 -10q4 -15 16 -29t20 -19t30 -19q56 -11 73 -11q1 0 25 4l12 7q17 8 21 12l24 16q11 7 18 15.5t15 25t12 23.5q46 82 70 237q2 8 3 22t5 42l2 10q2 10 2 31l2 47 q-4 87 -37 139q-25 34 -88 43q-22 2 -52 -4t-44 -18q-83 -46 -113 -224q-2 -12 -6 -32l-2 -21z" />
<glyph unicode="c" horiz-adv-x="1069" d="M991 336q-2 -2 -6 -14t-4 -13l-6 -16q-3 -8 -27 -62q-3 -6 -28 -45l-19 -26l-20 -23q-12 -11 -31 -31.5t-35 -35t-33 -21.5q-14 -9 -30.5 -16t-22.5 -10l-49 -19q-64 -20 -123 -20l-18 -4l-25 -3l-65 5q-21 0 -37 4.5t-35 5.5l-29 10l-14 10q-7 3 -21 10l-18 9t-14 7.5 t-14.5 8t-13 8t-15.5 10.5t-16 12.5t-21 16.5l-64 78q0 3 -11 23.5t-11 23.5q-10 29 -27 64q-28 108 -22 174l4 69q0 21 2 27l8 51q0 5 12 41v10q0 4 5 12.5t5 12.5q2 2 3.5 9.5t0.5 8.5l17 37q3 6 13 28.5t18 37.5q9 20 36 52t31 42q11 8 39 35t58.5 49.5t66.5 36.5l12 6 q15 0 64 22l39 11l69 10h86h9q34 0 83.5 -11t59.5 -16l33 -16q90 -52 123 -102l26 -39q9 -15 17 -35t18 -49.5t16 -44.5q1 -3 2 -26.5t3 -43.5t6 -23h-23q-2 -2 -33 -2l-34 2q-6 0 -24 -2t-24 -2l-53 -4q-6 0 -39 -4t-47 -4q-6 0 -5 5q2 10 1 20v18q-4 35 -22 70l-3 8 q-17 33 -54.5 53.5t-78.5 20.5l-55 -11q-8 -2 -47 -30l-8 -9q-24 -24 -33 -47l-27 -57l-30 -113q-1 -5 -6 -25.5t-5 -27.5q-10 -93 1 -159.5t38 -92.5l27 -26q0 -6 39 -12.5t69 -6.5q5 0 10 1t7 1q64 22 87.5 44.5t53.5 94.5q4 11 11 25.5t8 20.5q3 -4 120 -19l23 -2 q1 -1 29 -6q5 0 10 -1t8 -2t4 -1l21 -2q4 0 12 -4q17 0 25 -2z" />
<glyph unicode="d" horiz-adv-x="1140" d="M885 0h-4h-45h-140q-3 3 -9.5 0.5t-12.5 -0.5h-15h-18q2 0 4 13t3.5 26t2.5 14q0 3 9.5 51.5t11.5 67.5q-19 -32 -23 -37l-18 -26q-4 -8 -12.5 -18.5t-14.5 -16.5l-6 -6l-14 -13q-17 -19 -60 -45l-59 -24l-31 -9q-2 1 -2 3q-3 -1 -15.5 -4t-19.5 -3l-37 9q-29 0 -53 6 q-20 4 -28 8t-15.5 9.5t-17.5 10.5q-1 0 -8.5 4.5t-10.5 4.5l-12 6q-8 4 -26 24.5t-27 24.5q-5 3 -22.5 28t-37 67t-24.5 77l-2 18q-12 45 -12.5 97.5t2.5 103.5l18 141q3 28 37 117q3 17 10.5 35t14 29.5t23 37t24.5 39.5q8 12 8 13l28 47q11 20 72 65l14 17l17 6l33 20 l45 19q8 1 27.5 4.5t29.5 3.5q2 0 5 2t5 2t24 1t25 1q65 0 101 -16.5t84 -57.5q13 -11 28 -43t23 -58t6 -26l4 -4l10 80q1 3 9.5 48t9.5 48l2 19q1 2 9 46.5t9 47.5l21 150v12q0 1 3 5.5t5 20.5q4 14 4 21l3 8q3 8 3 12v13q2 10 31 12h41q4 0 13 -3l9 -3l7 4h16q2 0 5 1t5 1 h39q2 0 7.5 -1t8.5 -1q7 1 12 0.5t10.5 -1.5t6.5 -1l25 6q22 0 30.5 -3t10.5 -3h4l24 4q-4 -27 -4 -33l-4 -16q-5 -25 -9 -37.5t-7 -32.5l-29 -178q1 -14 0.5 -18.5t-4 -20.5t-4.5 -22q-5 -38 -10 -54l-2 -16l-5 -16l-2 -25l-10 -57l-4 -17l-6 -35q-1 -8 -4 -35t-6 -44 q-3 -25 -19 -93q-5 -42 -12 -75q-2 -15 -7 -45.5t-7 -44.5q-11 -37 -11 -66l-8 -29q0 -25 -4 -45l-4 -6q0 -23 -6 -41q-3 -20 -9.5 -60.5t-9.5 -60.5q-1 -2 -4 -16t-4 -16l-6 -41l-4 -16t-6 -34q-5 -36 -6 -40q-1 -5 0.5 -12t-0.5 -8.5t-13 -2.5h-30zM702 465l19 98l2 21 q4 20 6 32q10 58 -6.5 123t-56.5 90q-7 12 -35 21.5t-45 9.5q-62 -9 -94 -39q-45 -47 -76 -143l-8 -45q0 -3 -1.5 -8t-3 -12t-2.5 -11l-2 -10q-2 -11 -12 -62q-25 -145 -2 -233q9 -39 31 -59l18 -17q3 -3 17 -10l10 -6l8 -2t6.5 -1.5t5.5 -0.5q43 0 74 6q66 32 84 65l6 11 q3 5 13.5 20.5t13.5 20.5l16 47l6 43q5 30 8 51z" />
<glyph unicode="e" horiz-adv-x="1112" d="M985 471q-4 -2 -31 -2h-69h-19h-45l-55 -4l-4 4q-1 0 -4.5 -1t-5.5 -1h-4l-99 4h-6q-6 0 -6 -2h-27q-7 0 -25 1.5t-26 0.5h-33q-8 -2 -24 -2q-8 0 -27.5 -1t-28.5 -1h-28h-29q-3 -2 -10 -2t-8 -2l-9 -53q-4 -64 20 -116t62 -77l19 -12l33 -6q6 -1 25 -5t26 -4 q116 9 172 99l12 18q6 10 11 23.5t6 21.5l2 8q75 -12 90 -16l18 -2l8 -6q57 -9 80 -12l4 -2q6 0 12 -3t9 -4h22q13 -3 15 -8q-7 -14 -19 -41q-6 -14 -24 -43t-23 -39l-16 -20q-23 -23 -47 -53l-15 -11q-25 -29 -65 -53l-21 -12l-69 -31q-26 -6 -33 -10l-45 -6 q-54 -15 -78 -15h-33q-12 0 -28 1t-31 1h-15q-21 -1 -47 11.5t-30 13.5h-17q-5 0 -14 5l-8 5l-23 6q-42 22 -61 37l-53 43l-11 6q-21 22 -46 61.5t-38 67.5l-4 11q-2 5 -14 53q-3 3 -9.5 35t-7.5 53l-4 23q0 6 -2.5 30.5t0.5 32.5q1 14 5 42t4 34q1 5 3 14t3 14v17l8 47 q4 21 16 37l-2 4q3 8 9.5 26.5t9.5 26.5q4 6 21.5 36t21.5 36q35 75 120 145l23 23q12 9 66 41l26 12q5 2 23.5 13t27.5 14h21l8 6q13 0 39 5.5t33 6.5l47 2h43q32 0 104 -18l33 -9l43 -16q26 -11 47 -27l51 -38q3 -3 11.5 -9t11.5 -10l22 -24l39 -58q1 -4 7.5 -17.5 t7.5 -17.5q3 -8 9.5 -21.5t10.5 -24.5t6 -23l8 -41q15 -68 11 -166q-3 -18 -7.5 -46t-5.5 -36q-6 -1 -30 2.5t-27 -0.5zM772 696q-2 42 -13 80.5t-26 48.5l-33 29q-38 23 -100 20q-58 -1 -102 -34.5t-58 -65.5l-24 -41q-1 -4 -5 -16.5t-5 -16.5l-15 -55q0 -2 33 -2h27 q20 2 49 2h10h25q6 0 24.5 -1t24.5 -1q2 -2 10 -2h37q40 4 59 4q0 -2 15 -2h14q8 0 12 2q1 0 3 -1t4.5 -1.5t6.5 0.5h25q0 35 2 53z" />
<glyph unicode="f" horiz-adv-x="669" d="M141 1040q5 0 10 -0.5t7.5 -0.5t4.5 -0.5t3 -0.5h65l13 80q1 8 3.5 19t6 24t4.5 19l16 45q10 47 54 102l24 31q6 7 29.5 24.5t24.5 18.5q11 9 23 16t26 12.5t22.5 8.5t25.5 7.5t23 6.5l21 6q50 10 69 10h43h39h27q14 0 34.5 -3.5t37.5 -4.5l32 -2q-1 -5 -5 -24.5 t-5 -24.5t-1 -15.5t-1 -15.5l-6 -30v-5q-3 -15 -6 -22q0 -18 -4 -41q0 -2 -3 -31t-3 -30l-45 8q-20 0 -36 1t-22 1q-1 0 -11 -1t-11 -1q-26 0 -55.5 -14t-45.5 -42l-8 -18q-9 -19 -12 -35l-2 -4l-6 -35q-1 -3 -2 -7q-7 -21 -5 -26.5t17 -5.5h6q2 0 7.5 -1t8.5 -1 q12 0 49.5 2t57.5 2q47 -5 53 -2h1q3 0 3 -1t-1 -2l-3 -19q0 -2 -2 -11.5t-2 -11.5q-1 -4 -1 -6.5t-1 -7.5q-4 -12 -4 -18q-3 -3 0 -9l-4 -22q0 -4 -4 -12l-2 -7l-6 -53q0 -3 -2.5 -9t-2.5 -9q-1 -4 -2 -16t-2 -15q0 -6 -10 -8q-8 0 -8 -2q-15 0 -41 2t-39 2t-27 -2t-30 -2 l-9 1q-5 1 -8 1h-32q-7 -15 -11 -51q0 -13 -2 -23q-1 -14 -6.5 -38.5t-7.5 -35.5q-4 -21 -12 -73t-13 -80l-6 -37q-3 -25 -10.5 -61.5t-9.5 -47.5q-2 -13 -4 -37t-4 -36q-1 -9 -7 -39.5t-6 -32.5l-6 -25q-2 -22 -4.5 -37t-5.5 -28t-4 -21v-8l-4 -20q-8 -19 -7 -29t-2 -20 l-2 -25h-139q-4 0 -6 2q-3 0 -7.5 -2t-6.5 -2l-15 6q-16 0 -55 -1t-55 -1q-3 3 -11 1t-8 1q0 6 5 23t6 20q2 12 4 32t4 32l16 96q1 4 4 17.5t4 17.5v4q1 4 2 16.5t2 18.5l7 32q0 1 -1 3.5t-1 4.5q16 64 20 93q2 9 1.5 18.5t0.5 15.5q4 12 4 19l10 53q2 17 8.5 55.5t8.5 55.5 q1 3 5 20.5t5 20.5q21 130 21 133l-46 2q-3 0 -19 -1t-22 -1h-38q-3 9 2 24q0 3 2 10.5t2 10.5l6 72q0 1 1 3t1 3q0 8 2 14q1 7 1 15.5t1 11.5q0 2 1.5 7.5t0.5 8.5l2 6q1 1 2 5.5t2 6.5q0 3 -2 14.5t-2 14.5q3 10 6 10h10q2 0 14 1t15 1q1 0 3 -1t3 -1z" />
<glyph unicode="g" horiz-adv-x="1081" d="M-76 -123q6 44 25.5 78t47 54t47.5 30t40 16q41 11 43 17q-1 1 -16 9.5t-22 14t-19.5 16.5t-22.5 25t-18 31l-9 31q-3 25 3 67q2 14 6.5 28t8.5 23.5t12 22t11.5 18.5t13 19t11.5 16l33 29q24 19 62 42.5t50 24.5l25 11q-49 25 -86 80q-27 44 -31 69l-8 45q0 1 -1 18 t-1 19q4 16 4 35l2 8q6 34 12 51l23 52l39 53q14 17 45 43l31 20l30 15q45 18 68 30l29 6q7 5 16 5q2 0 5.5 2t4.5 2l68 12q10 2 24.5 1.5t28.5 0.5l41 2q8 -2 33 -2q5 0 16.5 -1t16.5 -1q3 0 26 -2l27 -2q3 0 9 -3t9 -3l15 -4q1 0 2.5 -1t3.5 -1q3 0 7 14t8 32.5t7 24.5 l6 25q1 7 2 10.5l2 7t4 7.5t5.5 7l10 12t13.5 17l7 10l8 11q1 0 28 22l35 21l47 16q4 2 22.5 3.5t20.5 4.5q12 -2 62 -2l43 -2q2 0 1.5 -4t-1 -10.5t1.5 -15.5l-2 -11q-1 -4 -2 -11.5t-2 -17t-2 -14.5v-26q-1 -3 -2 -8t-1.5 -8t-1.5 -5v-31l-2 -45q-58 7 -79 7 q-86 -10 -111 -56l-12 -35q12 -5 39 -24.5t32 -24.5l29 -30q0 -1 6 -7.5t6 -7.5l8 -16q19 -37 19 -39l4 -21l6 -36q0 -5 1 -14.5t1 -14.5l-4 -35q2 3 1 -12l-5 -37l-23 -57q-16 -39 -56 -81t-105 -73l-37 -16q-2 -2 -27.5 -8t-53.5 -12.5t-34 -8.5l-39 -6q-23 -4 -46 -4 t-42.5 2t-23.5 2q-8 0 -28 3t-36 3l-22 4q-10 2 -27 3.5t-21 2.5q-17 2 -48.5 -25t-35.5 -55q-6 -37 18.5 -57t63.5 -25l17 -2h33q26 0 59 -6h53q11 0 15 -2h20q10 -1 42.5 -2t49.5 -6h12h11q16 0 45 -5.5t58.5 -13t37.5 -8.5q3 -1 19.5 -13.5t25.5 -14.5q37 -20 72 -66 t39 -94l6 -62l-2 -32l-10 -43q-27 -87 -89 -144l-22 -18q-7 -6 -16 -11t-31 -16.5t-49 -27.5l-21 -9q-3 -1 -26.5 -8.5t-31.5 -9.5l-26 -6.5t-31.5 -5.5t-25.5 0h-12l-29 -4q-25 0 -53 -4l-90 -7h-74h-37q-39 0 -55 4h-47q-22 0 -93 17l-12 4q-3 0 -16 4t-15 4l-20 4l-33 8 q-31 21 -48.5 35t-40.5 39.5t-32 57t-4 69.5zM395 -197h45l4 -2q5 0 16 1t15 1h4q60 0 80 2l16 5q49 2 80 16l54 29q23 36 24 47q2 2 2 8v31l-26 26q-5 1 -21 8t-24 7q-49 8 -99 8q-9 0 -31 1t-32 1q-4 -1 -12 -0.5t-19 1.5t-12 1q-68 0 -99 4t-55 4q-35 0 -73.5 -16 t-49.5 -52q-5 -36 8 -59l17 -20q107 -52 188 -52zM422 766l-4 -14q-10 -59 6 -98.5t49 -53.5l35 -14l53 -8h21q54 8 98 30l29 29l20 29q13 17 21 73q8 49 -8.5 84.5t-41.5 53.5l-41 18q-4 0 -21 2t-20 2q-156 2 -192 -111z" />
<glyph unicode="h" horiz-adv-x="1155" d="M713 485l6 37l2 15l12 45q1 11 7.5 42t7.5 50l-3 53q1 45 -24.5 71.5t-67.5 26.5l-7 1q-7 2 -11 2.5t-13 1t-17 -1.5t-18 -5t-21 -9t-21 -15l-31 -25q-31 -38 -41 -55l-10 -27l-12 -39q-7 -18 -17 -67q-1 -6 -2 -20t-2 -19l-4 -25q-1 -4 -1 -18t-1 -19l-6 -36l-10 -46 q-1 -2 -1 -7.5t-1 -8.5l-5 -35q-1 -3 -3.5 -9.5t-3 -9.5t0.5 -9q-5 -20 -16 -88q0 -28 -6 -58q-4 -27 -17 -88l-4 -29q-4 -20 -6 -26q0 -17 -2 -25q-3 0 -0.5 -4t-1.5 -4h-49q-15 0 -35.5 0.5t-31.5 0.5t-27 -1t-33 -4q-82 0 -107 4h-18v4q1 7 6.5 36.5t7.5 45.5q2 8 2 27 q3 15 10 39.5t9 33.5q1 7 1 12t1 9q0 4 1 9t2.5 11t2.5 9l4 22q2 12 3 36.5t3 37.5q1 5 7 26t8 31q0 23 2 35l20 123q2 5 6 29q0 8 -2 10q1 10 5.5 32t6.5 33q1 7 3.5 27t3.5 31l6 18l2 12l16 111q2 6 2 27q1 2 3 7t3 7l4 35q7 18 7 28q0 19 2 27l2 18q2 13 2.5 24t1.5 15 q0 2 2 12t4 19.5t6 15.5l4 25q4 48 6 57q2 13 10.5 54.5t10.5 56.5q1 1 0 1t0 1l2 12q0 9 6 27q-1 3 0 8t3 12.5t3 12.5l8 53h29q38 4 63 0h93h14q4 0 15 -1t16 -1q20 0 32 2h11q3 0 7 0.5t6 1t4.5 0t3 -2t1 -5t0 -9t-1.5 -14.5q0 -9 -6 -45q-4 -14 -4 -22q-2 -16 -6 -43.5 t-6 -40.5t-6.5 -31t-10.5 -33l-4 -57q0 -1 -6 -29q-4 -21 -2 -28l-6 -23q-1 -3 -2 -10t-2 -10q0 -9 -2 -11v-12q-2 -13 -5.5 -38t-5.5 -38q-3 -17 -2 -22q2 1 8 13t18.5 31.5t29.5 35.5q34 32 59.5 46.5t63 25.5t53.5 18h10q2 0 6 1t6 1l56 4q18 1 53 -4.5t37 -5.5l14 -4 q51 -25 80 -46q5 -4 6.5 -5.5t12 -10.5t16 -17.5t15.5 -23.5t15 -32.5t9.5 -39t4.5 -49t-5 -57.5v-6q-1 -10 -5 -46.5t-6 -47.5l-4 -25q-5 -32 -12.5 -67t-9.5 -48l-6 -41q-1 -4 -2 -17.5t-2 -18.5l-2 -15q-1 -7 -4.5 -30.5t-4.5 -30.5l-6 -39q-1 -6 -9 -44.5t-11 -62.5 q-2 -11 -4 -32.5t-4 -30.5l-5 -27l-14 -94q-1 -6 -2 -17.5t-2 -15.5v-5.5t-2.5 -1.5t-9.5 -1h-99q-16 0 -20 -2q-6 0 -32 1t-32 1q-5 0 -16.5 -1t-15.5 -1q-5 0 -13.5 1.5t-17.5 0.5l-43 -4q-3 2 -4.5 5.5t-0.5 9t2.5 12t4 17t4.5 21.5l4 27l13 72q1 6 4 16.5t4 16.5 q1 8 3 35.5t3 35.5q1 2 8 23l2 12q0 15 1.5 27.5t2.5 18.5t0 9q10 46 15 76q2 10 1 11.5t1 11.5q3 18 6 30z" />
<glyph unicode="i" horiz-adv-x="567" d="M377 1130h-10q-10 0 -51.5 -1t-65.5 -1q-12 0 -13.5 6t1.5 17l2 18q0 2 2.5 9.5t3.5 9.5q0 11 4 31l12 81q6 30 6 31q1 3 1 8.5t1 8.5l4 30q0 1 1 4t1 4v21l5 18q18 0 26 -2h29q10 4 39 4q7 0 22.5 -1t22.5 -1q4 0 22 1t23 1q12 -4 37 -4q4 0 27.5 2t50.5 2h8 q-2 -8 -2 -26q-4 -26 -8 -35q0 -2 -1.5 -14t-1.5 -15q-3 -21 -6 -26l-14 -92v-13q-1 -2 -4 -13t-4 -13q-2 -10 -2 -25.5t-2 -24.5h-13q-4 0 -34 5l-62 -5l-9 2q-9 1 -13 1t-18 -1.5t-17 -1.5zM236 1051h120q10 -2 50 -2h10q6 0 24 -1t21 -1q6 0 12 -3q13 1 21.5 3t15.5 2 q4 -2 9 -3q4 -1 3 -3q-1 -1 -1.5 -2t-0.5 -3q-1 -11 -8 -48.5t-10 -55.5q-2 -11 -4 -32.5t-4 -33.5l-9 -43l-6 -57q-5 -34 -8 -39l-6 -37q-5 -40 -6 -47q-2 -9 -5 -27t-5 -26l-11 -62q-1 -2 -2 -12t-2 -14l2 -12l-8 -37q-3 -19 -8 -66q-1 -6 -4.5 -18t-3.5 -13l-6 -45 l-19 -112q-1 -5 -2 -17t-2 -16l-6 -45q0 -1 -6 -25v-18q-1 -8 -5.5 -28t-5.5 -25q-4 -20 -4 -21v-2q-1 -3 -7 -3q-9 0 -17 -1h-4l-9 -1q-9 -1 -14 -1q-11 0 -36 2t-38 2q-3 0 -20 -1t-21 -1h-36h-54q-16 0 -34 -1l-17 -1q-2 0 -4 12l8 29q0 5 1 16.5t1 16.5q6 6 6 18l9 53 q0 6 3.5 24.5t4.5 22.5q0 9 4 37l8 47q1 2 2 7t2 8q6 48 6 51l15 96q5 18 6 21q1 6 2 18.5t2 18.5q6 43 29 168q1 5 3.5 36t4.5 47q1 5 3.5 13t2.5 10l6 35v2l2 12l12 101q1 10 10 48.5t9 57.5l2 20q3 8 7 5t7 -2z" />
<glyph unicode="j" horiz-adv-x="565" d="M373 1126h-11q-10 0 -53 -1t-67 -1q-12 0 -14 6t1 17l4 27q4 12 7 18q0 17 2 27l12 81q6 30 6 31q1 3 1 8.5t1 8.5l4 30q0 1 1 4t1 4v21l4 18q19 0 27 -2h33q10 4 39 4q7 0 22.5 -1t22.5 -1q4 0 20 1t21 1q12 -4 47 -4q4 0 26.5 2t49.5 2h12q-6 -24 -6 -26q-4 -26 -8 -35 q0 -2 -1.5 -14t-1.5 -15q-3 -21 -6 -26l-14 -92v-13q-1 -2 -3 -11t-3 -11q-2 -10 -3 -29.5t-3 -28.5h-13q-10 0 -34 4l-66 -4l-9 1q-9 1 -13 1t-18 -1t-17 -1zM33 -25l6 29q0 1 5 20t5 25q6 9 6 23l8 53q0 6 4 24t5 23q0 9 4 37l8 47q1 2 2 7t2 7q6 48 6 52l19 114 q5 18 6 21q1 6 2 18.5t2 18.5q6 43 29 168q2 13 12 83q1 5 3.5 13t2.5 10l8 39v2l2 12l13 101q1 10 9.5 45.5t8.5 54.5l2 20q3 8 7 4.5t7 -2.5l17 5h110q10 -2 49 -2h11q6 0 28 1t25 1q8 0 12 -2q12 1 21 2.5t16 1.5q4 -2 9 -3q4 -1 3 -3q-1 -1 -1.5 -2t-0.5 -3 q-1 -10 -8 -44.5t-10 -53.5q-2 -11 -4 -32t-4 -33l-8 -43l-9 -62q-4 -30 -12 -43l-6 -37q-5 -40 -6 -47q-2 -9 -5 -27t-5 -26l-11 -62q-1 -2 -2 -12t-2 -14l-2 -12l-8 -37q-3 -19 -8 -66q-1 -6 -4.5 -18t-3.5 -13l-9 -63l-18 -113q-1 -5 -2 -16.5t-2 -15.5l-6 -46l-6 -24 v-19q-1 -8 -5.5 -28t-5.5 -25q-1 -4 -2 -9l-1.5 -7.5t-0.5 -3.5q-23 -136 -46 -187q-16 -35 -36 -53q-35 -48 -65.5 -72.5t-77.5 -35.5q-55 -19 -59 -19l-43 -4q-8 -2 -33 -2h-13h-24q-10 4 -33 4h-22q-18 4 -45 4h-13q-35 0 -51 8q0 3 5.5 26t6.5 28l2 43q3 12 9 32v19 l2 14q1 7 1 14t1 17q6 18 6 20q0 15 2 23v6q3 0 39.5 -2t68.5 -2l31 12q16 5 23 10l20 21l10 12q1 5 4.5 7.5t6.5 13.5z" />
<glyph unicode="k" horiz-adv-x="1142" d="M188 0h-94q-6 0 -19 -1t-16 -1q-18 0 -18 10q1 3 3.5 12.5t2.5 14.5q1 3 2 12t2 22t2 19l6 31v16q13 51 17 74v22l10 58l4 6q0 5 2.5 21t1.5 24l4 6l2 8l4 31v7v5q0 1 2.5 3t2.5 3l18 117q1 20 16 107q7 14 7 28l4 21q1 6 3 24.5t3 26.5l2 16l16 74q1 8 2 23t2 22 q4 6 4 17q1 3 2 7.5t2 6.5l3 18q3 20 10 59t10 58l4 27q0 1 2 10.5t4 15.5l19 121l6 17q1 5 1 15.5t1 14.5q5 21 8 41q1 3 2 9.5t2 9.5l4 30v15q0 1 2 3.5t2 4.5t-1 4.5t-1 3.5l4 8v27q2 4 18 4.5t44.5 -1t38.5 -1.5h16q3 0 9 -1t8 -1l59 4h6q4 0 12 1t13 1q8 0 17 -1t17 -1 h43q1 -4 -4 -31q-1 -3 -2.5 -8t-2.5 -8.5t-1 -5.5l-8 -56q-2 -6 -6 -32q-4 -22 -12 -90l-2 -9l-17 -104l-4 -23l-33 -194q-1 -8 -4.5 -26.5t-5.5 -28.5l-2 -15q-1 -6 -3 -8.5t-3 -7.5l-2 -17q-1 -6 -2 -17.5t-2 -16.5l-2 -15q-1 -9 -10.5 -49.5t-12.5 -54.5v-21l25 31 q4 1 6 2.5t2.5 2.5t1.5 4t2 5l37 41q7 8 24.5 26t24.5 26l16 16q34 34 66 70l18 14l47 53q3 2 6.5 5.5t8 8.5t6.5 7l25 24q26 25 61 64l25 22q2 2 6.5 8.5t9.5 11.5t10 7l10 10q3 3 9 10t8 9h31h4h12q8 0 31.5 -1t31.5 -1q5 0 18 2t17 2h19q3 0 11 -1t11 -1h29h41q1 0 11 -1 t11 -1q6 0 22.5 2t22.5 2q0 -3 -26 -23l-43 -43q-1 -2 -6.5 -6t-6.5 -6l-49 -53q-15 -9 -37 -35l-79 -78l-25 -25q-17 -20 -48.5 -44.5t-45.5 -43.5l14 -49q6 -6 6 -14l15 -43q0 -1 7 -28t17 -44l25 -72q0 -7 10.5 -40.5t22.5 -53.5l6 -33q11 -44 22 -63l8 -21q0 -11 7 -28 q20 -51 30.5 -90.5t26.5 -71.5q6 -6 6 -16l8 -27q-8 -4 -12 -4t-13.5 2t-13.5 2q-5 0 -13.5 -1t-12.5 -1q-2 0 -7 1t-10 1h-18q-6 0 -25.5 1t-25.5 1h-17q-9 0 -24 -2t-21 -2l-103 2h-5l-15 45l-6 25q-12 30 -12 32l-12 39q2 4 0 6l-4 13q-4 18 -21 61l-10 39q-15 33 -29 88 l-16 66l-11 32q0 6 -3.5 20.5t-6.5 14.5q-2 0 -4 -2t-3.5 -4.5t-2.5 -3.5l-23 -18q-12 -15 -42 -41t-35 -31l-21 -23q-4 -3 -18.5 -20t-18.5 -21l-12 -10q-4 -6 -19.5 -16.5t-19.5 -14.5l-4 -43q0 -6 -3.5 -15t-4.5 -13q-6 -38 -7.5 -50.5t-2.5 -19.5l-5 -22q0 -3 -2 -10 t-2 -11q-8 -15 -2 -24q-5 -20 -10 -45q0 -5 -1 -11t-1 -8v-4l-43 2q-1 0 -10.5 -2t-11.5 -2h-17q-10 0 -36 1t-38 1z" />
<glyph unicode="l" horiz-adv-x="555" d="M231 2q-5 0 -20 -1t-21 -1h-30h-78h-19h-10q-3 0 -8 10q1 7 4 18t4 15q0 21 2 29q0 2 2 4.5t2 3.5l7 47q0 15 2 25q2 8 8 38l6 33q2 13 7 38t7 38l2 18q0 2 1 5.5t1 5.5q0 4 1 11.5t1 10.5l4 31v2l17 104q0 1 2 8t4 11v29q0 6 4 10l12 82q3 6 7 22q0 3 1 11t1 12l12 65 q1 10 3 21.5t5 25t4 21.5l2 12q8 66 8 70l5 28v3l14 88l10 61q5 37 6 53q2 13 9 47.5t10 55.5q1 5 3 16t3 16q0 11 4 27q0 4 1 13t1 14q1 8 4 21t4 18v16q0 2 2 8t2 8q2 6 2 13q2 10 8 10h5h4h18h152q6 0 33.5 1t29.5 1q4 -2 12 -2q12 0 22 1t17 1q7 -7 0 -35l-2 -20 q-4 -17 -7 -34t-5 -22l-4 -26q-4 -20 -14 -94l-5 -27l-16 -105q-2 -28 -8 -71q-6 -24 -6 -25l-19 -112q-1 -6 -2 -17t-2 -16q0 -4 -1 -9t-2.5 -11t-2.5 -9l-20 -131q-1 -4 -4.5 -16t-4.5 -19l-2 -22q-2 -9 -2.5 -29t-1.5 -25q-1 -4 -3 -11t-3 -11q-1 -6 -18 -125 q-1 -5 -4 -18.5t-4 -18.5v-8l-27 -164l-8 -53q-4 -12 -4 -17q-2 -8 -2 -34q-1 -3 -3.5 -13t-4 -18t-1.5 -12q-4 -20 -4 -21q0 -3 -0.5 -4t-5 -2t-15 -1.5t-30.5 -0.5q-9 0 -35.5 2t-34.5 2z" />
<glyph unicode="m" horiz-adv-x="1716" d="M760 -2q-6 2 -25 2h-82l-26 -2l-4 4q29 155 43 256q0 11 4 27q1 9 6 29.5t6 33.5l4 23v10l4 29l6 30l2 37q2 8 8 22.5t7 22.5l2 23l6 41l16 92l4 33q0 4 -1 15t-1 15t-1.5 13.5t-3.5 14t-5.5 12.5t-8 12t-11.5 10.5t-15.5 10.5t-20.5 8.5t-26 8.5h-18h-4q-35 0 -61 -13.5 t-52 -45.5q-21 -17 -42 -67l-21 -50q0 -3 -3.5 -21t-3.5 -24q-2 -12 -5 -37t-6 -43.5t-7 -31.5l-16 -101q-1 -7 -5.5 -21t-5.5 -22q-2 -13 -5 -44t-5 -44q-1 -8 -5 -27.5t-5 -29.5q-4 -16 -4 -31q0 -2 -4 -10l-2 -25q-5 -5 -5 -6q-1 -4 -1 -12t-1 -12q0 -7 -4 -19 q-2 -11 -2.5 -30.5t-1.5 -24.5q-1 -1 -2 -4.5t-2 -5.5q-2 -10 -2 -23q0 -8 -18 -8q-2 2 -11 2h-55q-1 0 -33.5 1t-33.5 1q-3 0 -8 -1t-7 -1q-1 0 -3 1t-3 1l-72 -6q-2 -2 -8 -2q-7 0 -21.5 3t-15.5 3h-14q-5 0 -5 2t1 12v6q2 14 6 34.5t8 43.5l2 6q0 2 1 12.5t1 18.5 q2 7 9.5 33.5t9.5 44.5q1 11 3 41t5 41l6 41q8 34 10 51q2 12 7.5 36t7.5 38q2 6 6 22l8 29q0 13 12 100q6 15 9 27q1 5 2 18t2 19l4 29l14 92q2 11 5.5 38t6.5 46l2 22q7 14 7 27q2 8 2 22l4 23l8 43q0 1 1 4t1 4q1 3 1 9t1 9q0 7 6 7q1 0 9.5 -1t15.5 -1h10q2 0 8.5 1 t9.5 1q4 0 6 -3.5t3 -3.5q6 0 16 5h51l53 -2h43q1 0 6 1t7 1q3 -5 8 -5q3 0 12.5 2.5t11.5 2.5q5 0 5 -7l-11 -55q-1 -5 -18 -119l2 -4l7 13q6 13 17 33t26 42t36 43.5t43 32.5l27 14l47 17l37 8l57 4q2 2 8 2q38 0 93 -21.5t79 -45.5l29 -37q13 -12 27 -40.5t20 -54.5 l14 23q7 7 15 23q8 7 29 32.5t26 30.5l24 18l31 25q8 4 14 4l31 17q6 1 16 4.5t13 3.5l43 10q4 0 15 1t16 1q3 0 14.5 1t15.5 1h13q21 0 79 -17t72 -30l6 -6l27 -17l14 -10q7 -14 31.5 -47t28.5 -49l14 -49q4 -18 5 -61.5t-1 -55.5l-2 -6q-1 -7 -1 -14.5t-1 -12.5 q-2 -10 -8 -37q-2 -14 -3 -26.5t-3 -26.5q-1 -5 -3.5 -20.5t-3.5 -24.5l-2 -22l-6 -45q-1 -3 -6 -29t-6 -29l-18 -115q0 -3 -6.5 -22.5t-6.5 -22.5l2 -12q-8 -16 -8 -29l-6 -28q-2 -25 -10 -70q-3 -18 -6 -33l-15 -102q-6 -2 -22 -2q-9 0 -33 2t-49 2q-4 0 -10 -1t-9 -1 h-118h-25q-21 0 -29 -2v4q0 3 2 11.5t2 11.5q3 3 3 6l6 43q6 12 6 28q1 4 6 29l12 92q-2 4 -2 17q1 7 6 24.5t6 22.5l9 55v16q0 1 2 8t4 11l39 258q0 1 3 14t6 28t3.5 36t-4.5 37l-4 14l-10 22q-3 5 -10 11t-13 8.5t-6 1.5l-41 20q-3 0 -12 -1t-13 -1q-3 0 -8.5 1t-7.5 1 q-18 -6 -33 -6l-26 -12q-15 -6 -38 -25t-32 -39l-4 -6q-12 -16 -20 -37.5t-10.5 -34.5t-7 -42.5t-5.5 -34.5l-8 -51q0 -3 -4 -11q-1 -6 -2.5 -20t-2.5 -19q0 -6 -3.5 -17.5t-4.5 -14.5l-2 -13q-1 -4 -4 -15.5t-4 -18.5q0 -3 -1 -9.5t-1 -9.5q-1 -3 -2 -9t-2 -9v-11l-8 -49 q-4 -16 -4 -22q-1 -3 -2 -10.5t-3 -23t-4 -32.5q-9 -43 -14 -80l-4 -24v-15q0 -3 -12 -61q-1 -6 -2 -19.5t-2 -17.5q0 -4 -4 -12q-45 0 -67.5 1t-24 2l-3 2t-8.5 1l-16 -4q-3 0 -14 1l-11 1q-2 0 -7 -1t-7 -1z" />
<glyph unicode="n" horiz-adv-x="1150" d="M715 457q1 10 6 32.5t6 28.5l10 66q9 59 13 100.5t0 68.5t-8.5 42.5t-19.5 24t-25.5 11t-34.5 5.5q-86 0 -113 -29l-19 -14q-33 -37 -43 -54q-11 -15 -19 -37.5t-12 -39.5t-5 -19l-7 -45q-6 -17 -10 -47l-10 -70l-16 -90q-5 -15 -5 -26q-2 -6 -2 -13q-1 -8 -4.5 -21.5 t-3.5 -15.5l-4 -24q0 -1 -3 -13l-5 -20l-2 -18q-1 -10 -3.5 -30t-4.5 -35.5t-4 -27.5l-11 -65q-1 -3 -2.5 -9.5t-2.5 -11t-1 -8.5l-4 -20v-17q0 -2 -0.5 -4t-0.5 -3.5t-0.5 -3.5t-2 -3t-4.5 -1.5t-8 -0.5h-39q-3 0 -20.5 -1t-30.5 -1q-5 0 -46 1t-51 1h-80q-1 0 -9.5 -1.5 t-11 1t-1.5 10.5t4.5 23.5t5.5 23.5q2 15 4 35t2 23q2 12 9 38t10 48l-2 8q1 5 6 25.5t6 31.5q1 7 2 18t2 17q1 10 6 30.5t6 24.5l4 27l5 31v14l6 14q0 23 6 35l4 19q10 73 12 86l6 36l13 78q2 11 4 28.5t2 20.5q1 7 3 19t4 22t5 19l8 49q0 7 4 27q0 3 2.5 8.5t2.5 7.5 q0 1 2 18t2 23l4 29q0 12 2 18l2 21l6 43q1 0 2 1t2 1t6 -2t10 -2h13q3 0 10.5 1t21.5 1h27h51h43h23h35q2 1 4 1h3.5t2.5 -0.5t2 -0.5q7 -1 19 -0.5t14 -1.5l-11 -33v-27q0 -2 -1 -6.5t-1 -7.5q0 -1 -1 -3t-1 -3l-4 -25q-1 -6 -5 -26.5t-5 -26.5l-4 -29l2 -2 q62 100 109 135l43 33l84 33q25 8 98 8q17 0 34 -3.5t36.5 -10t29.5 -9.5l39 -22q10 -3 25 -18l12 -15q16 -6 35 -36.5t22 -41.5l15 -37l8 -40q7 -40 -4 -134l-4 -18q0 -9 -4 -29q-1 -10 -4.5 -29t-4.5 -24l-10 -70q-2 -6 -2 -24q-1 -4 -4 -17.5t-4 -17.5l-6 -39l-13 -72 l-16 -102q-2 -18 -10 -65l-12 -84q-2 -9 -5.5 -23t-5.5 -23v-20l-6 -43h-47q-21 0 -29 2h-39q-7 0 -23 -2t-24 -2q-13 0 -34.5 1t-32.5 1q-1 0 -6.5 1t-6.5 1q-7 0 -26.5 -2t-28.5 -2.5t-12 2.5q0 5 6 30t8 42q1 4 1 12.5t1 13.5q1 6 6.5 24t6.5 28l14 118q1 4 4 16.5 t4 16.5l2 21q4 26 10 40l4 21z" />
<glyph unicode="o" horiz-adv-x="1126" d="M590 -18h-74l-18 -2h-23q-4 1 -18 3t-17 3l-18 6q-6 2 -25.5 3.5t-29.5 8.5l-29 14q-72 18 -152 101l-41 53q-3 9 -21.5 33t-19.5 43l-18 43q-6 33 -12 57l-4 37q-4 31 -2 41l2 84v12v13q1 6 1.5 22.5t2.5 24.5v10q9 33 12 49q0 2 5.5 19t4.5 20q8 20 17 47l6 27 q1 5 16.5 26t16.5 31l6 12l20 29q38 48 74 82q62 62 129 86l51 27l119 26q2 0 6 1t6 1q4 0 10 -1t9 -1q6 0 23 1t30 1q1 0 3.5 -1t4.5 -1l27 -4h4l20 -2q10 0 15 -1t11 -3t15 -4l23 -8q10 -3 16 -9l21 -6q75 -33 113 -67q38 -33 67 -80l6 -15q2 -5 12.5 -17t10.5 -15l4 -8 q4 -15 16 -41.5t18 -42.5q3 -26 9.5 -59.5t9.5 -63t0 -70.5l-2 -27q-1 -13 -8.5 -53.5t-10.5 -66.5l-2 -4q0 -13 -8 -21q0 -4 2 -4q-9 -30 -49 -113l-6 -12q-15 -35 -25 -51l-28 -35q-15 -20 -19 -23l-67 -57q-12 -7 -29.5 -21t-31 -23t-25.5 -9l-15 -8q-50 -25 -86 -33z M528 182q59 9 89 23.5t51 56.5l22 45l4 11q5 12 11 31t12.5 41t12 46.5t7.5 44.5l4 19q0 6 4.5 26.5t4.5 26.5l4 55q4 20 2 31v39l-2 39q-5 35 -19 78l-10 14l-25 33q0 2 -4 3t-9 2t-7 3l-14 8l-52 12h-18q-3 0 -6.5 -1t-5.5 -1l-37 -8q-9 -3 -24 -12t-25 -17l-11 -8 q-49 -49 -75 -155l-17 -76q-2 -8 -4 -22.5t-2 -16.5l-6 -61q-4 -24 -4 -56v-63q5 -59 14 -90l13 -35l14 -23q32 -43 94 -43h14z" />
<glyph unicode="p" horiz-adv-x="1140" d="M215 1049q2 2 8 2q4 0 12 -1t11 -1q6 0 8 2q8 -2 31 -2h22q2 0 6 1t6 1h52q10 -2 22 -2q3 0 24 1t34 1q41 0 41 -7q-5 -10 -7 -18v-8q-1 -5 -3 -22.5t-3 -22.5q-1 -6 -4 -20t-5.5 -26.5t-4.5 -23.5v-8l-10 -39q22 29 22 39l15 20q1 4 6 9.5t8 11.5q6 5 17.5 21.5 t19.5 19.5l20 18q4 5 8 8t10 6t11 7l31 18l30 17q46 14 123 14q13 -2 43.5 -10t36.5 -8l29 -15q4 0 17 -9t20 -11l41 -33q1 -1 3.5 -4.5t6 -7.5t6.5 -6l10 -15q19 -25 19 -28q11 -10 19 -29.5t16.5 -48t17.5 -47.5l10 -78q18 -60 -4 -193q-1 -3 -1 -9t-1 -9l-2 -23 q-4 -20 -20 -80t-19 -84l-29 -67q0 -3 -20 -35l-21 -39q-9 -8 -20 -22.5t-16 -20.5l-23 -29l-31 -32q-21 -21 -45 -33l-20 -10q-17 -14 -43 -23l-31 -14l-51 -10q-5 -3 -14 -3.5t-21 0.5t-14 1q-98 0 -146 38l-33 25q-11 8 -53 55l-4 11q-8 14 -14.5 29.5t-7.5 17.5l-5 -4 q-1 -23 -7.5 -59.5t-8.5 -55.5q0 -1 -4 -21.5t-4 -21.5l2 -8q-1 -11 -9 -50.5t-9 -44.5l-7 -38q-2 -14 -5 -42.5t-7 -46.5l-2 -18l-4 -16t-4 -21q-2 -10 -2 -18q-1 -2 -3 -14.5t-3 -14.5q0 -12 -2 -16q0 -11 -19 -11h-18h-21q-2 0 -13.5 1.5t-12.5 1.5h-49q-12 -3 -46 -3 q-8 0 -21.5 1.5t-16.5 1.5h-17h-26q-20 0 -41 -3l2 13l10 55q2 14 7.5 41t6.5 43l6 33q11 82 13 96l6 35q0 8 4 20l12 80q2 2 2 12l6 48l6 14q1 4 1.5 11t1.5 11l4 29l2 8l4 25q1 12 9.5 49.5t6.5 52.5q0 1 6 31l6 41q1 5 2.5 17.5t2.5 17.5q1 6 4 18.5t4 18.5l2 18 q2 15 7 42t7 38q2 10 2 27l6 34q3 12 6 27l5 31l4 24q1 2 1 8t1 9l2 18q0 2 2 9t2 10q0 12 4 28q1 10 5 30t5 26q0 2 2 8.5t2 9.5l2 14l6 29q0 17 3 29l6 18q-2 29 12 90q0 3 2 9t2 8zM434 575q-1 -8 -6 -28q-1 -6 -2 -19t-2 -20l-8 -55q-10 -78 -8.5 -109t14.5 -65 q6 -20 37.5 -55.5t66.5 -35.5h19h8q44 0 61 17l27 18q11 11 41 51l10 15q10 14 21 50.5t14 59.5l8 29v14q1 4 2.5 12.5t2.5 14t1 8.5l7 37q2 16 7 46t7 43.5t3.5 32t0.5 32.5v18q1 14 -4 37t-6 31l-17 39l-20 24q-26 35 -94 35h-2q-24 0 -59 -19t-56 -45l-21 -22v-4 q-8 -12 -15 -26t-12 -27.5t-8 -24.5t-5.5 -19.5t-2.5 -9.5l-6 -37q0 -27 -4 -43z" />
<glyph unicode="q" horiz-adv-x="1142" d="M1069 1051q2 -2 8 -2q3 0 12.5 1t12.5 1q9 0 9.5 -0.5t-1.5 -8.5q-2 -10 -5 -21.5t-7 -25.5t-6 -22q0 -3 -3.5 -20.5t-3.5 -20.5l-8 -35q-1 -3 -4 -15.5t-4 -15.5l-2 -24q-1 -10 -5 -31.5t-5 -32.5q-1 -2 -2.5 -14t-3.5 -19l-7 -34l-4 -33q-1 -3 -1 -11.5t-1 -11.5 q1 -2 -4 -30l-10 -50q0 -6 -4 -14q-14 -75 -16 -92l-11 -55q0 -3 -2 -11t-2 -12l-4 -20q-1 -6 -2 -18t-2 -17l-4 -29q-8 -61 -10 -84l-11 -45l-4 -28q0 -12 -6 -21v-14l-10 -45v-17l-10 -57q0 -5 -6 -23v-10q-1 -3 -2.5 -10t-2.5 -10l-6 -37q-2 -18 -7 -49.5t-7 -42.5 l-6 -35q-2 -12 -7.5 -38.5t-7.5 -45.5l-4 -23q-1 -7 -1 -16t-0.5 -14t-2.5 -7q-11 0 -20 3q-6 0 -15.5 -1.5t-23.5 -1.5h-16q-29 0 -43 -2q-3 0 -14 1t-13 1h-103h-12h-10q-8 0 -14 -2q-17 0 -19 2q4 12 4 21v14q3 20 8.5 35.5t6.5 22.5q1 6 3 24.5t3 24.5q3 20 8 40t8 38 l6 30q0 11 4 41l4 29l3 8v19l30 157l-2 4q-2 -2 -7 -9.5t-13.5 -21.5t-18.5 -26l-10 -15t-14 -19.5t-16.5 -17.5t-20.5 -16l-41 -22q-9 0 -51 -14l-23 -2q-8 -1 -33 -2.5t-34 -2.5q-7 0 -27 4.5t-21 4.5l-18 4l-47 18q-36 9 -79.5 57t-70.5 103l-18 41l-10 33q-13 28 -10 39 l-5 57v10l-2 12q-3 50 7 138l6 32q1 4 2 11t2 10q2 16 6 35q0 3 1 10.5t1 11.5l12 47q4 9 11 34t14 36l18 43l27 51q15 31 43.5 68t46.5 55q21 14 48 42.5t42 35.5l35 18l20 6q14 7 25 7h2l35 8q31 8 108 8q9 0 24 -2t21 -2l50 -6l20 -13l39 -18q5 -4 16.5 -13.5t16.5 -13.5 h2q6 0 23.5 -20t17.5 -23l18 -30q5 -6 6 -9.5t6 -9.5l7 -12q0 -7 6 -19q14 18 25 36t21.5 37t16.5 28q9 14 20 42t15 34q3 0 42 -1t42 -1h10q23 0 33 2zM723 623q6 18 6 39l6 38l-2 33q1 6 -4 29.5t-8 30.5l-25 41q-15 15 -39.5 26.5t-44.5 11.5h-24q-42 0 -72 -24l-29 -23 l-30 -45q-59 -116 -74 -227l-8 -59q0 -4 -8 -52v-10l-2 -33q-5 -21 -3.5 -63t11.5 -66l8 -20q8 -23 22 -43l7 -6q7 -2 15 -10t15 -9l9 -4q24 -6 51 -6q2 0 7.5 1t6.5 1q61 12 96 53l8 11q64 81 84 213l7 49l10 84q4 24 4 39z" />
<glyph unicode="r" horiz-adv-x="743" d="M213 1049q4 4 10 4q1 0 7 -1t10 -1h49q10 -1 23 -2.5t18 -1.5q2 0 17 1t20 1h12q3 0 16 1l13 1q26 0 30 -2q13 1 33.5 0t28.5 0q7 0 8.5 -2.5t-1.5 -10t-3 -10.5q-2 -15 -10 -53t-11 -60q-17 -106 -20 -112q12 16 55 112l39 56q4 4 12 13.5t14.5 16t10.5 9.5l31 22l49 23 l26 6q2 0 11 2t14 2h10q12 2 19 2l29 -2h1q-6 -42 -6 -57l-4 -31q-1 -4 -2.5 -21.5t-3.5 -33.5q-1 -3 -2 -11t-2 -12q-3 -10 0 -16q-2 -6 -1.5 -14.5t-0.5 -14.5l-12 -92q-1 0 -18 -1t-19 -1q-4 0 -14 -1t-15 -1q-2 0 -10 -3t-10 -3l-15 -5h-16l-33 -18l-37 -25 q-70 -67 -104 -163q0 -3 -6 -13.5t-7 -15.5q-1 -6 -3 -16.5t-3 -16.5l-2 -6q0 -2 -4 -14l-22 -117l-25 -145l-16 -97q-1 -4 -3 -13t-3 -13v-27l-7 -18q-4 -20 -4 -21q0 -8 -57 -8q-9 0 -25 2t-24 2q-1 0 -7 -1t-8 -1h-30h-113h-29h-6h-10q-3 0 -3 1q0 3 -1 5q1 5 4 17.5 t4 17.5q-2 9 2 27l6 30l2 6q0 19 2 27q1 6 4.5 23.5t4.5 23.5l4 23q1 5 2 15.5t2 16.5q1 14 12 68q0 2 4.5 16.5t3.5 22.5l15 96q1 3 6 21q1 5 1 13.5t1 12.5q5 32 29 166l2 21l16 98q2 8 8 35q3 20 8 49t6 43l3 18q2 9 4 30.5t4 31.5q6 30 6 39z" />
<glyph unicode="s" horiz-adv-x="980" d="M-25 252q-1 2 -3.5 11t-4.5 16.5t-2 11.5q4 4 8 4h31q12 2 16 2l23 4l72 8q4 0 22 6h19q1 2 8.5 2h18.5t18 2l24 5q4 -69 49 -97l17 -10q52 -41 131 -41q45 0 81 7t56.5 17t34.5 22.5t18.5 21t5.5 14.5q8 49 -8 68l-14 16q-1 1 -9 7t-10.5 7t-11 6t-14.5 6.5t-16.5 4.5 t-23.5 5t-28 3l-28 6q-19 1 -93 19l-22 6q-3 0 -6 1t-6.5 2.5t-5.5 2.5l-25 2q-17 5 -30 11.5t-24.5 13.5t-17.5 10l-20 14l-8 4l-13 8l-34 29q-3 4 -12.5 15t-12.5 18l-21 32q-2 11 -13.5 35.5t-10.5 40.5l-4 33v21q0 157 92 249l27 27q17 17 45 29l24 12q61 27 105 37 l20 6q10 3 29 4t36 1t45 -0.5t42 -0.5h22q9 -2 44 -5.5t59 -10.5l32 -11q15 -4 36 -15.5t32 -14.5l45 -31q12 -12 24.5 -26.5t20.5 -22.5q7 -7 20 -29.5t19 -28.5l6 -14l8 -20q0 -1 1 -3t1 -3q3 -15 8.5 -28t8.5 -20.5t2 -11.5q-22 -9 -80 -16h-2q-6 0 -25.5 -7t-27.5 -8h-7 q-39 0 -55 -8l-39 -8q-2 7 -14 47l-8 21q-2 2 -12.5 15t-22.5 19q-45 35 -109 43h-24q-119 -2 -146 -81q-2 -2 -2 -7q0 -1 -1 -4.5t-1 -5.5q0 -34 23 -55l14 -10q27 -15 80 -25q22 -4 54.5 -9.5t50 -8.5t47.5 -10.5t65 -18.5l14 -6q17 -2 34.5 -13.5t23.5 -11.5l12 -8 q1 -4 12.5 -13.5t28 -22t21.5 -17.5q31 -46 47.5 -105t11.5 -104l-2 -17q0 -20 -2 -30l-8 -23l-13 -45l-10 -22q-12 -28 -24 -49l-62 -60q-7 -12 -41 -33.5t-41 -21.5q-16 -10 -29 -16.5t-20 -9t-20.5 -6.5t-22.5 -7q-16 -2 -48.5 -8t-72.5 -11h-41h-45q-9 0 -26.5 2.5 t-26.5 2.5l-57 10q-21 2 -56.5 16.5t-62.5 22.5l-6 6q-3 0 -16.5 8t-16.5 8l-31 17l-33 32q-6 0 -22 25l-35 53q-12 18 -16.5 30t-6.5 23.5t-4 18.5z" />
<glyph unicode="t" horiz-adv-x="757" d="M217 803q-6 2 -20 2q-7 0 -28 -1t-26 -1h-84q-4 0 -4 6q0 1 5 16t6 23v12l12 74q0 1 1 16.5t1 16.5l14 71q6 2 35 2h29h55h57q3 20 12 69t11 58q1 10 5 29l3 18q4 19 13 60t12 61q11 2 31.5 3t38 0.5t36.5 -1t21 -0.5l69 2h2q2 0 6 0.5t9 1t13.5 0.5h18.5q2 -2 7 -2 q4 0 13.5 2t12.5 2q9 0 6 -14q-3 -16 -9.5 -41.5t-8.5 -36.5l-8 -59q-1 -6 -4 -20t-5 -23v-6l-8 -56q-2 -4 -2 -10q-4 -16 -4 -30q-3 -3 0 -7h14h158h47q3 0 7 0.5t6.5 1t4.5 0t3 -2.5t0 -5q-1 -2 -2 -8.5t-2 -9.5q0 -14 2 -17l-8 -10l-11 -63l-16 -99q-1 -16 -5 -21t-14 -5 h-24q-2 0 -12.5 -1t-16.5 -1q-2 0 -1 1t-1 1h-76q-6 0 -18.5 2t-17.5 2q-3 0 -11 -1t-12 -1h-45q-4 -3 -7.5 -21.5t-8 -53.5t-5.5 -44q-2 -11 -8 -63q-3 -10 -10 -43q-4 -40 -10 -62l-2 -12q-1 -9 -17 -96q-8 -46 -8 -70l-2 -23q-7 -21 8 -65l15 -12q25 -21 49 -21l37 -2h63 q21 0 32 1t21.5 3.5t18.5 3.5q-5 -26 -6 -26l-11 -66v-10q0 -1 -1 -4.5t-1 -5.5v-5q-6 -6 -6 -12q-1 -3 0.5 -11t1.5 -11q-4 -12 -4 -17q-8 -32 -8 -53q0 -2 -1 -4t-2 -3t-3.5 -2t-4 -1.5t-4.5 -1t-4.5 -1t-5.5 -1t-6 -0.5l-20 -2l-10 -2l-35 -7h-23q-2 0 -21 -2t-22 -2 l-35 2l-20 1q-19 1 -23 1h-39h-4q-20 0 -55 9.5t-63 23.5q-32 9 -70 48t-49 106l-4 72q1 10 3 34.5t3 34.5l8 53q1 7 5 22.5t5 22.5l6 41q1 7 3.5 20.5t3.5 20.5q5 25 8 50l8 38q0 3 3 11t3 10q1 6 5.5 29.5t8.5 45.5t7 33l4 15l6 33v10q1 4 4 15t4 18z" />
<glyph unicode="u" horiz-adv-x="1130" d="M440 575q-6 -25 -14 -75l-2 -15q0 -1 -8.5 -43.5t-14.5 -83t-4 -53.5q0 -26 6.5 -43t21 -26.5t24.5 -13t28 -7.5q66 0 98 29l37 32q53 66 66 138q1 4 7.5 24t6.5 27l15 74l16 104q7 35 12 45q1 6 2 18.5t2 18.5l2 23q17 76 17 77q3 22 8 63.5t6 51.5q1 8 4 27.5t4 33.5 l4 23v16q1 7 6.5 8t24.5 1q9 0 16 -1t11 -1q3 0 20.5 1t30.5 1q4 0 51 -1t57 -1h62q3 0 7.5 0.5t7 0.5t5.5 -0.5t4.5 -1.5t2 -3.5t0.5 -6.5q-1 -5 -4 -17.5t-5 -25.5q-6 -37 -6 -41q-11 -70 -14 -73l-4 -27l2 -8q-1 -9 -6 -31.5t-6 -32.5q-1 -6 -2.5 -17.5t-2.5 -17.5 q-2 -13 -7 -39t-7 -44l-2 -15l-6 -29q0 -3 -2 -12t-2 -12q0 -22 -4 -27l-2 -18q-7 -48 -15 -86l-6 -37l-12 -80q-1 -5 -1.5 -15t-1.5 -18.5t-3 -15.5q-1 -12 -6.5 -32.5t-6.5 -26.5l-8 -50q0 -16 -2 -28q-4 -12 -4 -17q-6 -12 -6 -41l-4 -26q2 -2 1 -12l-1 -11 q-1 -3 -2 -9.5t-2 -10.5l-2 -10q-2 -12 -3 -17.5t-2 -5.5h-2h-1q-2 0 -5.5 1t-5.5 1h-45h-24q-2 0 -14.5 -1t-20.5 -1h-70h-22h-29q-8 -2 -14 -2q-22 0 -25 11t4 36q0 13 4 25v6l4 24q1 6 6.5 30t6.5 30l4 28l-2 2q-1 0 -10.5 -16.5t-23.5 -39t-26 -34.5l-45 -47 q-29 -33 -75 -49l-43 -14q-30 -9 -89 -13q-36 0 -110 17l-35 14q-3 2 -9.5 5t-11 5.5t-8.5 6.5l-16 12q-23 9 -44 50.5t-30 74.5l-8 35q-7 42 10 141l2 18q1 4 6 29l11 55l10 72l2 12q2 12 2 15q4 20 8 36l6 46q1 2 2.5 9t2.5 9q4 25 8 45.5t6 32.5q1 5 6 33t8 47 q1 9 3 28.5t3 28.5l11 57l10 68q0 3 1 9t1 9q0 1 1 3.5t1 3.5l6 43h57q14 0 29 -3h68q6 0 18 2.5t23 2.5l67 -5l21 3q17 0 18 -6v-5q0 -4 -1.5 -10.5t-5 -18.5t-5.5 -26v-8l-4 -35q-1 -4 -4 -16.5t-4 -16.5l-19 -131q0 -4 -3 -18t-3 -19l-4 -20q-6 -30 -6 -41l-2 -23z" />
<glyph unicode="v" horiz-adv-x="960" d="M971 1047q9 0 31 1t32 1l-18 -35q-10 -22 -20 -45.5t-23 -51.5t-37 -77l-10 -17q-4 -13 -16 -33.5t-15 -29.5l-25 -55q0 -1 -4 -7t-4 -8l-47 -94q-3 -9 -10 -23l-12 -24q-13 -24 -31.5 -70t-26.5 -61l-10 -21q-29 -47 -61 -116l-5 -9q-5 -10 -15 -30.5t-15 -30.5l-27 -53 l-74 -150q-2 -4 -4 -6.5t-4 -3.5t-4.5 -1.5t-4 -0.5h-4.5h-5q-17 0 -44 2t-42 2h-8h-11h-2h-106h-10q-13 0 -15 12l-2 21l-12 69q-2 19 -5 36t-8 37t-8 36l-10 61q-2 7 -4 21.5t-4 21.5l-4 13q-1 30 -25 151q-15 76 -32 148l-9 49q0 3 -6.5 40t-9.5 48l-14 72v8l-9 49 q-6 36 -6 37l-6 26l-20 95q5 0 15 1t15 1q6 0 44.5 -2t60.5 -2q19 0 35.5 1t21.5 1q4 0 8 -1l4 -1l52 -2q12 -4 36 -0.5t33 2.5q2 0 2 -27q4 -4 8.5 -27t4.5 -24l10 -92l18 -111q-2 -7 2 -16l2 -13q5 -28 14.5 -91.5t26.5 -158.5l6 -47l9 -57h4l16 39q17 30 19 43l47 104 q11 36 36.5 86.5t28.5 57.5l17 30q1 1 2 3t2 3.5t1.5 2.5t0.5 2l24 55q6 20 21 47l16 31l8 20q8 20 18 43.5t23 51.5t23 43h18q5 0 28.5 1t29.5 1q13 0 43.5 -1t46.5 -1z" />
<glyph unicode="w" horiz-adv-x="1517" d="M1057 391h4q3 8 8.5 24t11.5 29l6 9q1 15 29 73l37 82q17 58 35 80l6 17l20 51l27 55q3 14 17 38t18 36q0 1 12 31t28 69t25 59h60q12 0 27.5 1.5t29.5 1.5q6 0 42 -1.5t50 -1.5q7 0 18 1.5t13 1.5l-27 -60q-7 -15 -14.5 -30t-11.5 -25l-19 -43q-1 -2 -7 -13t-10.5 -20 t-9 -20.5t-5.5 -18.5l-11 -18q-2 -5 -9 -18.5t-11.5 -24t-5.5 -19.5l-10 -20q-2 -4 -24 -47.5t-34 -71.5l-22 -47q-11 -23 -31 -69t-29 -64l-10 -23q-10 -22 -30 -61t-27 -53l-6 -19q-7 -14 -16.5 -33.5t-16.5 -34.5l-8 -16l-48 -104q-4 -7 -10 -28t-13 -33.5t-18 -12.5h-79 h-15h-30h-64q-7 0 -29.5 -1t-29.5 -1q-12 0 -15 4t-4 17v4l-2 69q-2 13 -2 28.5t-2 24.5l-2 25q6 27 -14 143l-4 35q1 39 -2 76.5t-9.5 95t-9.5 96.5v62l-4 -2l-8 -25q-23 -46 -50.5 -124t-43.5 -107l-6 -19q-5 -10 -19.5 -43.5t-21.5 -48.5l-8 -21q-40 -88 -44 -118 l-43 -94l-24 -68q-2 -5 -5 -7.5t-4.5 -3t-5 0t-4.5 0.5h-63q-10 0 -12 -2q-3 0 -10.5 1t-10.5 1h-14q-1 0 -25 1t-29 1h-67q-4 0 -6.5 1t-4 2t-2 4t-0.5 6t-0.5 9t-0.5 11l-2 26l-9 31q-2 10 -1.5 25t-2.5 20l-8 33q1 5 -0.5 20.5t-6.5 47t-9.5 62t-14 87t-16.5 98.5 q-2 13 -6 60.5t-10 79.5l-15 63q0 4 -2 8l-6 37q0 11 -4 31l-4 59q0 2 1 8.5t1 8.5l-10 55l-13 51q3 16 -16 103h86q15 -3 37 -3h29h16q8 0 20.5 1.5t20.5 1.5q6 0 34 -1.5t35 -1.5q4 0 24 1.5t24 1.5q2 -10 5 -67.5t5 -74.5l4 -49q8 -82 14 -127l4 -47l17 -158 q1 -8 4.5 -31t3.5 -36q1 -2 1 -22t3 -36h4q6 11 14 38.5t11 35.5l6 10q0 1 3 10t8 20t9 15q31 77 52 125l10 23q1 2 19 52.5t30 66.5l31 73q2 2 15 36t30 78.5t24 61.5h27h33h65q2 -1 8 1t9 2q2 0 9.5 -2t10.5 -1h16q6 0 17.5 1.5t17.5 1.5q21 -3 47 -3q15 0 19 -2l8 -137 q0 -78 4 -82l2 -18q4 -29 4 -88l2 -23l11 -155v-11q4 -25 5 -72t5 -65z" />
<glyph unicode="x" horiz-adv-x="999" d="M18 -6h-63h-23h-6q-3 0 -11 -1t-11 -1q-4 0 -2 4l73 96q4 9 20.5 27.5t20.5 27.5l64 82l37 45l37 41q16 26 92 123l28 37q7 8 23 29t29 37.5t14 17.5l-2 2l2 2l-41 82q-40 110 -61 133l-15 35q-8 13 -14 26.5t-9 22.5l-3 10l-35 70q-4 11 -21 40.5t-24 57.5l-6 13h30h25 q4 0 18 -1t19 -1h12q6 -2 23 -2h36q9 0 47.5 1t45.5 1q55 0 84 -2q24 -49 28 -74l13 -37q3 -9 16 -35t16 -43l15 -31q3 -2 7 -17.5t10 -36t13 -32.5q16 16 76 103l53 76q5 5 13.5 16t13.5 16l6 11l33 45q6 4 16.5 20t16.5 21h69q2 2 4 2q7 0 23.5 -2t24.5 -2q12 0 18 2h6h25 h51h39l-27 -33q-9 -14 -27.5 -36.5t-25.5 -35.5l-10 -10l-64 -82q-9 -15 -49 -66l-68 -88l-65 -86l-49 -51q0 -18 8 -26l14 -29q11 -18 15 -35l22 -55l45 -99q6 -15 15.5 -35t13.5 -30l18 -39q1 -1 9 -15t10 -22l12 -28l45 -97q2 -4 9 -16.5t12.5 -24t7.5 -16.5q-1 -2 -8 -2 h-35h-19h-22q-8 0 -22 -1t-19 -1q-2 0 -7.5 1t-9.5 1h-22q-5 0 -16.5 1t-16.5 1q-12 -2 -26 -2h-29l-43 2l-35 -4q-46 105 -49 117l-21 41q-4 12 -22 52.5t-21 55.5l-14 29q-2 8 -8.5 21t-9.5 20l-15 32q-3 -3 -24 -31.5t-31 -39.5l-8 -8q-24 -31 -47 -64l-21 -33 q-79 -97 -102 -133l-35 -47l-4 -10h-33h-20h-23q-3 0 -9 1t-9 1q-6 0 -28 -1t-26 -1z" />
<glyph unicode="y" horiz-adv-x="950" d="M602 147l-72 -147q-1 -4 -9 -20.5t-15.5 -30.5t-7.5 -15q-55 -118 -95 -161q-67 -77 -133 -105q-55 -18 -59 -18l-51 -10h-33l-14 -2h-25q-4 2 -11.5 2t-15.5 -1l-8 -1h-22q-11 2 -13.5 -0.5t-3.5 -2.5h-12q-31 0 -45 7q0 29 4 53l2 43q1 5 2 16.5t2 14.5v18l2 14 q1 6 0.5 9.5t1.5 13.5q0 4 -1 12l-1 8q2 2 2 23q0 4 2 6q3 0 23.5 -3t52.5 -3l53 -2h52l28 6l45 18q1 5 14.5 11.5t16.5 17.5l23 35l26 57l-6 21l-4 20l-14 68q-6 24 -29 108l-10 62q-3 6 -13 41l-4 12q-1 31 -34 150q-2 11 -7.5 42t-11 53.5t-14.5 49.5l-8 49q0 10 -21 84 l-16 72v8l-13 49q-1 4 -3.5 14.5t-2.5 16.5l-8 24l-22 95h26q8 1 38.5 0t51.5 0q15 1 25.5 1t19.5 -0.5t13 -0.5h12h51q13 -2 27.5 -2t31 1t23.5 1q3 0 5.5 -14.5t2.5 -20.5q4 -4 7 -23t3 -20l13 -84l22 -111q0 -3 1 -8.5t1 -7.5l2 -12q9 -32 14 -56t14.5 -78.5t23.5 -121.5 l2 -19l10 -63h4l18 43q13 23 15 36l41 82q8 27 19 54t23.5 53t16.5 37l16 30q1 2 2.5 4l3 4t1.5 3l24 57q6 20 21 47l16 31l7 20q8 20 17.5 43.5t22.5 51.5t23 43h18h64q13 0 43.5 -1t46.5 -1q9 0 31 1t32 1l-18 -35q-29 -63 -84 -174l-10 -23q-4 -13 -16 -33.5t-15 -29.5 l-25 -56q0 -1 -4 -6.5t-4 -7.5l-45 -94q-1 -3 -3.5 -7.5t-5 -9.5t-3.5 -6l-13 -24q-13 -24 -31 -67t-26 -58l-10 -21q-13 -22 -32 -69.5t-23 -55.5l-5 -8q-5 -10 -15 -31.5t-15 -31.5z" />
<glyph unicode="z" horiz-adv-x="911" d="M127 938l12 68q4 12 4 20v16q0 7 13 7h16h6h72h100h60q9 0 25 1t26 1q6 0 16.5 -1t16.5 -1h63h68q6 0 20.5 -1t20.5 -1q7 0 23.5 1t23.5 1h73h17q5 0 14 -1t12 -1t9 1l6 1h43h18h17q6 0 12.5 1t7.5 1q3 -2 2.5 -3.5t-3.5 -10t-3 -15.5l-10 -61q-1 -3 -1.5 -13t-2.5 -16 q-1 -2 -1 -8t-1 -9l-13 -75q-12 -11 -15 -14.5t-6.5 -8.5t-13.5 -16l-51 -53q-10 -11 -25 -31t-28 -33l-20 -27q-4 -4 -12.5 -12t-12.5 -12l-33 -35q-12 -12 -31.5 -38.5t-29.5 -35.5l-19 -18l-71 -80l-47 -53q-6 -10 -35 -39l-27 -25l-53 -63q-16 -21 -19 -25h15q1 0 5 1 t7 1q5 0 15 -1t16 -1q7 1 19 1t21 0.5t13 2.5h21q14 0 30 -2t29 -2q5 0 13.5 1t15.5 1h98q3 0 9 -1t9 -1t24 1t40 1h26h27h6t2.5 -1.5t-0.5 -4.5q0 -1 -1 -7t-1 -11l-18 -107q-3 -3 -5.5 -23.5t-2.5 -25.5q-5 -27 -7 -37q0 -6 -2 -8l-47 2h-51h-78h-35h-65q-2 0 -8 -1t-8 -1 q-6 0 -23.5 2t-28.5 2q-3 0 -8 -1t-8 -1h-14q-10 0 -30 1t-28 1q-3 0 -15 -1t-15 -1h-39q-5 0 -18.5 1t-18.5 1h-37q-4 0 -17 -1t-18 -1h-80q-3 0 -15 1t-20 1q-12 0 -25.5 -2t-23.5 -2q-6 0 -14.5 1t-9.5 1h-4h-13q-7 0 -7.5 2.5t-0.5 20.5q2 6 5 21.5t5 21.5l2 18 q2 18 7 37q1 4 1.5 15t2 21.5t4.5 20.5l2 23q8 16 24 32l64 66q2 1 6.5 8t7.5 10l74 80q5 9 22 26.5t21 25.5q44 55 88 96l14 18q14 24 109 123l69 88l5 2l26 29q2 0 2 2l21 22q-2 0 -7 -1t-8 -1q-9 0 -23 1t-24 1q-16 0 -24 -2h-23q-4 0 -12.5 -1t-13.5 -1q-4 2 -15 2h-78 q-49 0 -61 2h-57q-9 0 -28 -1t-28 -1q-5 0 -15 1t-15 1l8 50q0 6 5 27.5t3 31.5z" />
<glyph unicode="{" horiz-adv-x="618" d="M451 -270l-13 -84l-6 -8l-12 2h-55q-2 0 -6.5 -1t-6.5 -1h-41h-6q-67 -2 -94 6l-25 6q-47 23 -55 35l-10 18l-21 27q-19 77 -8 143l45 266q6 18 6 29l19 115l6 36q10 60 -9 100t-53 46q-6 2 -9.5 3t-4.5 1t-6 1t-12 3l2 23q3 8 10 41q0 6 2.5 24.5t3.5 26.5l6 2 q2 0 6.5 1t6.5 1t14 4q21 6 33 12l16 8q41 20 62 111l20 123l-2 16q1 4 5 15.5t5 15.5l43 266q1 14 13.5 47.5t13.5 40.5l18 35q69 131 277 121l43 -2h43h18q-1 -10 -1.5 -13t-1.5 -7t-3 -13l-2 -12q-1 -7 -4 -28.5t-4 -28.5q-3 -13 -6 -23h-54q-77 0 -96 -111q0 -16 -2 -32 l-4 -21q-6 -41 -15.5 -95t-11.5 -65q-2 -21 -10 -69l-22 -123q-2 -4 -2 -10q-23 -152 -132 -207l-24 -12q-22 -11 -45 -11v-6l29 -4q28 -8 43 -20l18 -19l18 -24l17 -45l4 -37l-2 -50q0 -16 -2 -24q-18 -91 -25 -152q-3 -17 -8.5 -55t-7.5 -53q-1 -8 -8 -43.5t-12.5 -67.5 t-6.5 -39q-8 -54 -6 -71l-2 -19q0 -5 4 -12t8 -8l17 -6q10 -5 61 -5h21q2 0 2 -6t-2 -8q0 -1 -1 -10t-1 -10z" />
<glyph unicode="|" horiz-adv-x="1054" d="M678 -358l-43 6h-23l-45 -4h-35l-8 4h-12q-24 -4 -76 -4q-12 0 -16 18.5t-3 44t-1 51.5q2 35 2 203q0 11 -2 23q0 11 2 30.5t2 32.5q0 40 -4 51l-2 279q4 12 4 129q1 13 -1.5 35.5t-2.5 31.5q6 75 6 111l2 6q-1 42 -4.5 67.5t-3.5 30.5v5q0 9 2 38t2 50v39l2 145 q0 25 -6 33v86q0 1 1.5 7.5t0.5 10.5q1 43 0 51t-10 27l4 35q0 2 -3.5 19t-3.5 24q8 16 5 24v9q-2 2 -2 4l6 8q35 6 67 6q13 0 38.5 -1t41.5 -1q5 0 14 1.5t29 2.5t55 0h9q3 0 12 1t12 1q12 -9 12 -51v-12q0 -44 1.5 -68.5t1.5 -40.5q0 -11 -2 -40.5t-1 -45.5l-2 -29v-54 q1 -53 1 -98.5t-1 -53.5l-2 -213v-37v-29q0 -8 0.5 -24.5t0.5 -30t-1 -23.5q7 -61 7 -174v-29q0 -4 -1.5 -11t-1.5 -11l3 -59l-7 -23v-123q0 -3 -2 -14.5t-2 -14.5l2 -18q0 -19 2 -59.5t2 -61.5q0 -15 -1 -39t-1 -35l2 -114v-10q0 -11 7 -15l4 -31v-38v-13l-1.5 -12 t-3.5 -6.5t-5.5 -3t-9.5 -2.5t-13 -4z" />
<glyph unicode="}" horiz-adv-x="618" d="M219 1319l12 84l7 8l12 -2h55q2 0 6 1t6 1h41h7q67 2 94 -6l24 -6q48 -24 56 -35l10 -18l20 -27q19 -80 9 -143l-46 -267q-6 -18 -6 -28l-18 -115l-6 -37q-10 -60 8.5 -99.5t52.5 -45.5q5 -2 33 -9l-2 -22q-3 -8 -10 -41q0 -6 -2.5 -24.5t-3.5 -26.5l-7 -2q-2 0 -6 -1 t-6 -1t-14 -4q-16 -5 -33 -13l-16 -8q-41 -20 -62 -110l-20 -123l2 -17q-1 -4 -5 -15t-5 -15l-44 -267q-1 -14 -13 -47.5t-13 -40.5l-19 -35q-69 -130 -276 -120l-43 2h-43h-18q1 8 1.5 11.5t1 4.5t1.5 5t2 11l2 13q1 7 4 28.5t4 28.5q3 12 6 23h53q78 0 97 110q0 17 2 33 l4 20q1 6 26 160q1 12 11 70l22 123q2 4 2 10q23 152 131 207l25 12q20 10 45 10v6l-29 5q-28 8 -43 20l-18 18l-19 25l-16 45l-4 37l2 49q0 17 2 25q16 81 24 151q3 18 9 58t8 51q1 5 7.5 42.5t12 68.5t6.5 38q9 59 7 72l2 18q0 5 -4.5 12.5t-8.5 8.5l-16 6q-8 4 -61 4h-21 q-2 0 -2 6t2 8q0 1 1 10.5t1 10.5z" />
<glyph unicode="~" d="M1079 825h19h10q8 2 25 2q6 -2 18 -2h18q13 0 19 -2l43 4l4 -4l-6 -18l-6 -35q-10 -24 -13 -45l-10 -27q-28 -66 -49 -90l-39 -47l-29 -31q-12 -10 -18 -16l-72 -27q-8 -3 -17 -4.5t-15.5 -2t-17 -0.5t-17.5 -1l-31 4q-44 0 -96 23l-15 8q-4 2 -28 18l-15 5q-11 9 -32 21 t-25 15l-37 23q-1 1 -23 13.5l-44 25t-49.5 26.5t-50.5 23t-36 10q-4 0 -15 -1t-15 -1l-6 -4q-5 -3 -8 -5t-9 -7t-10 -10t-9.5 -13t-9 -16.5t-7 -20t-5.5 -24.5l-8 -47q0 -2 -25 -2q-2 0 -6 1t-6 1t-6 -1t-6 -1q-20 4 -27 4q-4 0 -16.5 -1t-20.5 -1l-88 -2l9 32q2 5 4 15 t4 14l2 17l16 43q4 7 8.5 21.5t8.5 21.5l20 28q3 8 9 20.5t28.5 41.5t48.5 45l20 12q46 27 74 31l72 6q11 0 37.5 -5.5t32.5 -6.5l16 -5q3 -1 10.5 -3t32.5 -17l22 -12q3 -2 21 -13t47.5 -29t56.5 -36l37 -25l74 -45q56 -28 94 -26q35 3 59 42t31 87q1 6 3 14t3 14h37z" />
<glyph unicode="&#xa1;" horiz-adv-x="608" d="M100 -369q-4 -2 -20 -2h-23h-4q-7 0 -22 -1t-21 -1q-14 0 -14 8q5 34 21 89.5t20 76.5l26 103l52 182q1 4 1 12.5t1 12.5l12 41q7 41 17.5 65.5t13.5 44.5v21q0 4 10 32l35 127q3 18 10 37.5t8 26.5v10q17 105 41 111q5 0 15 -1t20 -1q8 0 12 2q3 0 11 -2t14 -2h10h10h-4 h29h10q5 0 12 2t9 2q10 0 6 -27l-4 -16q-1 -11 -0.5 -46.5t-1.5 -52.5l-4 -47q-1 -12 -4 -30t-3 -25l-4 -25q-6 -41 -6 -149l-4 -55v-17q-2 -6 -2 -18q-3 -14 -4.5 -37t-3.5 -29l2 -20l2 -60q1 -3 -2.5 -25.5t0.5 -27.5q0 -2 -4 -10q1 -5 0 -17.5t0 -19.5l-8 -66 q0 -4 1 -17.5t1 -18.5q-2 -2 -2 -4q0 -3 -1 -10.5t-1 -10.5q0 -1 -1.5 -3t-1.5 -3l-2 -19q-2 -6 -1.5 -19t3.5 -19q-1 -4 -3 -12.5t-3 -12.5l2 -18q0 -13 -18 -13h-21h-8h-24q-3 0 -12.5 1t-12.5 1q-1 0 -3 -1t-3 -1t-6 1t-10 1h-47q-3 0 -12.5 2t-12.5 2q-20 -2 -68 -2z M551 1038l-14 -63l-9 -43q3 -13 -2 -31q-1 -9 -5.5 -27t-6.5 -30q-4 -8 -4 -25l-10 -63q0 -2 1 -7.5t1 -7.5q-3 -16 -6 -20h-15h-80q-7 0 -21 1t-20 1q-12 0 -16 -2q-2 0 -5 1t-5 1h-10q-2 0 -11.5 -2t-11.5 -2l-31 6h-32l-41 -4h-4q-5 0 -7 4l13 41q1 9 1 23.5t1 19.5 q8 32 8 45l2 12l8 49q1 3 3.5 12.5t2.5 14.5v10q6 24 6 27q0 7 5 37l4 22l2 2q26 0 59 -2t39 -2t16.5 1.5t22.5 2.5q6 0 15 -2t14 -2h14q28 4 35 4q2 0 7 -1t7 -1h10q6 0 8 -2q28 4 48 4q3 0 7.5 -1t6.5 -1z" />
<glyph unicode="&#xa2;" d="M1055 549q-2 -2 -4 -7t-4 -11t-3 -7l-6 -16l-22 -55q-4 -10 -11.5 -21t-13.5 -22l-18 -25l-19 -20q-8 -8 -26.5 -29.5t-32.5 -34t-31 -18.5q-13 -9 -49 -25l-43 -18q-59 -19 -98 -19v-2q0 -2 1 -5.5t1 -4.5l-25 -156q-1 -4 -3.5 -12.5t-2.5 -11.5v-15l-4 -12 q-1 -4 -1 -11t-1 -14l-4 -20q-2 -14 -31 -14q-3 0 -8.5 1t-7.5 1h-29q-9 0 -25 1t-22 1h-20q-6 -4 -17 -4h-8q-1 1 4 34l10 74l6 25q6 25 7 39l16 96v16q-2 0 -6 1t-6 1l-27 9l-14 10q-7 4 -21.5 11t-18.5 9t-14 7.5t-14.5 9t-14 9.5t-18 13t-20.5 17l-57 73q0 3 -10.5 21.5 t-10.5 21.5q-8 28 -25 60q-25 107 -20 162l4 65q0 19 2 25l8 47q0 15 11 37v10q0 4 5 11.5t5 12.5q1 1 2.5 5.5t2 7.5t-0.5 4l14 35q20 47 29 61q8 19 31.5 49t27.5 37q10 8 35.5 33.5t54 47t60.5 34.5l12 4q11 0 55 22l37 9l62 10l14 82q0 20 2 24l12 76q3 24 4.5 28.5 t6.5 4.5q14 0 24 -2h29q3 0 17.5 1t17.5 1q4 0 15 -1t15 -1q2 2 15 2h11t9 -1t7 -4t1 -7q0 -2 -2 -9t-2 -12l-8 -37l-4 -39l-6 -16q0 -2 1 -5.5t1 -4.5l-16 -90l53 -15l31 -16q85 -48 110 -96l25 -35q11 -18 27 -64.5t20 -56.5q1 -3 1.5 -24t2 -40t4.5 -22h-21q-2 -2 -28 -2 l-33 2q-5 0 -20.5 -2t-20.5 -2l-49 -4q-5 0 -32 -2t-40 -2q-5 0 -5 3q2 14 1 21v19q-3 31 -22 65l-2 10q-15 30 -50.5 50t-74.5 20l-54 -8q-1 -1 -10 -7.5t-18.5 -13t-16.5 -10.5l-6 -8q-15 -13 -31 -45l-26 -55l-27 -109q-10 -30 -10 -51q-21 -189 37 -244l22 -24 q0 -4 38.5 -10.5t66.5 -6.5q4 0 9 1t7 1q61 21 83.5 43t47.5 90q3 8 8 17t8 15.5t3 10.5q3 -3 25 -6t49 -5.5t30 -2.5l23 -2q0 -1 24 -6l21 -4l18 -2q6 0 10 -2q17 0 23 -2zM682 260v-2q2 0 2 1z" />
<glyph unicode="&#xa3;" d="M893 807v-4q-2 -6 -2 -19l-17 -100q3 -3 0 -12q0 -3 -0.5 -8.5t-1 -8t-1.5 -6.5t-2.5 -5.5t-5 -3t-7.5 -1.5q-48 0 -59 2q-3 0 -9 -1t-8 -1q-9 0 -9 2l-4 2h-11q-2 0 -10 -2t-15 -2h-29q-3 0 -5.5 1t-6.5 1t-10 -1t-10 -1v-16l-6 -29q1 -6 -4 -18.5t-5 -14.5 q-1 -5 -3 -15.5t-3 -15.5l-10 -32q-3 -6 -6 -16.5t-7 -18t-10 -14.5l-22 -39q-2 -4 -9.5 -12.5t-9.5 -12.5l-18 -23q-6 -6 -22 -24.5t-25 -26.5l-21 -20l-36 -23v-6h8q11 0 43.5 1t36.5 1q14 -1 31 -1.5t31 -0.5t26 0.5t20 1.5h8q70 0 150 43q62 33 94 96q19 44 31 56 q2 -1 76 -23l43 -16h8l121 -39q8 -2 11.5 -4.5t6.5 -3.5q-27 -67 -53 -109l-12 -18q-2 -2 -4 -5.5t-3 -4.5l-24 -29q-31 -41 -78 -79t-78 -56l-24 -15q-6 -4 -39.5 -17t-90.5 -27.5t-100 -14.5q-3 0 -6.5 1t-5.5 1t-5 -1t-5 -1h-17q-20 0 -22 2h-8h-58h-4l-74 4 q-1 0 -13.5 -2t-14.5 -2h-51q-1 0 -3.5 -1t-3.5 -1t-3 1t-3 1q-10 0 -25.5 -1t-19.5 -1h-74h-8h-18q-4 0 -4 2q-6 0 -19.5 -1t-19.5 -1q-3 0 -7 1t-7 1h-72l-164 -2q-15 0 -16 0.5t0 9.5q0 3 4 19v6q0 9 4 41q6 40 12 59v23q3 8 5.5 20.5t4 20.5t2.5 8q1 22 11 61h20 q1 0 4.5 -1t5.5 -1h62q4 0 13.5 -1t14.5 -1q32 0 37 4q50 8 90 33.5t60.5 55t34 61.5t17 49.5t3.5 23.5q12 71 10 127v25h-20q-4 2 -12 2h-13h-10l-4 2q-2 0 -10 -4q-3 0 -8.5 1t-8.5 1q-4 0 -8 -2t-10 -2q-8 0 -14 2h-33q-3 -1 -9.5 -1t-15 0.5t-10.5 0.5q-12 0 -13.5 3 t3.5 11.5t6 14.5q4 20 8 28q0 20 8 68q1 8 5.5 20.5t5.5 16.5v4l2 14q-5 8 -2 23v8q11 8 47 8q4 0 12 -1t12 -1h27h7.5t2.5 0.5t0.5 0.5t1.5 0.5t4 0.5h8q6 0 19.5 -1t19.5 -1v37l-2 20q1 5 2 15t2 14v33q0 2 1 7t1 7q1 10 4.5 43t7.5 54t11 36l12 29l31 68l43 67 q9 11 30 30t29 28l17 12q34 24 63 39l25 12l82 21q15 4 38.5 6t39 2.5t54.5 0t54 -0.5t23 -2l55 -15q26 -4 45.5 -14t28.5 -10q16 -10 38.5 -23t47.5 -31l22 -28q4 -9 23.5 -36t27.5 -52l13 -31q2 -5 8 -16t6 -15q-3 -9 -20 -12l-130 -59q-7 1 -22.5 -4.5t-31.5 -13 t-32.5 -14.5t-26 -8.5t-11.5 5.5q-1 20 -5.5 39t-15 41t-33.5 35.5t-55 13.5q-112 0 -147 -86l-13 -17q-10 -20 -10 -28l-4 -33q-2 -7 -2 -12t1 -9t1 -6q-4 -8 -4 -14q-3 -13 -0.5 -33t0.5 -39v-6q1 -4 -2 -23.5t2 -21.5h20q9 0 9 -2q-5 0 -5 -2h11h59q3 0 5 -1t5 -1 q18 0 42 2t42 2h23h14q5 -2 2 -10q-5 -19 -8 -27z" />
<glyph unicode="&#xa5;" d="M1202 557l-20 -123q0 -43 -21 -43q-2 0 -11.5 1t-14.5 1l-52 6q-16 -2 -49 -2q-138 0 -170 4h-24q-6 0 -66 -6q0 -3 -1 -7.5t-1 -6.5q-1 -6 -9 -44t-9 -50l-15 -80l-10 -70l2 -14q-2 -2 -2 -14q0 -3 -3.5 -9.5t-2.5 -9.5l-2 -24l-10 -66q-16 -4 -23 -4q-4 0 -10 1 t-13.5 1t-17.5 -2q-18 2 -57 2q-66 0 -74 -2h-74q-10 0 -16 -2q-15 0 -26 3t-19 3q-2 2 -0.5 10t4 20t2.5 13q0 9 4 33q15 82 23 106q0 28 4 51q2 18 8 50t8 41q0 10 2 14l6 39q0 1 1 8t1 12h-45q-4 0 -10 1t-10 1q-7 0 -19 -4q-10 0 -35 1t-34 1h-70q-9 0 -19 1t-14 1 t-24 -4l-12 4q-4 0 -15.5 -3t-21.5 -3h-29q-5 0 -8 2.5t-4 7.5t-1 9.5t0.5 11.5t0.5 10q1 2 8 23q4 10 5 16t1.5 10.5t1.5 17t4 29.5q-5 8 -2 21l2 10q6 6 45 6h101q15 0 44.5 -1t45.5 -1h59q5 0 19 1t18 1h47l2 27q-1 6 -10.5 24.5t-9.5 28.5l-15 33l-14 25q-2 7 -2.5 12.5 t-1.5 7.5h-2q-10 0 -35.5 1t-34.5 1h-69q-9 0 -19 1t-14 1q-5 0 -25 -4l-12 4q-4 0 -15.5 -3t-21.5 -3h-29q-5 0 -8 2.5t-4 7.5t-1 9.5t0.5 11.5t0.5 10q2 4 8 22q4 10 5.5 16t2 10.5l2 18t3.5 29.5q-5 8 -2 21l2 10q6 6 45 6h100q8 0 25 -1t26 -1q-33 64 -35 68l-4 16 l-6 18l-10 21q-4 8 -6 14.5t-6 17.5t-9 23l-16 33q-12 38 -20 45l-15 41q-1 2 -7.5 9t-10.5 22q-2 10 -9.5 25.5t-11.5 25.5l-4 12q-3 21 -14 41.5t-14 30.5l-11 28q-6 9 -6 17q2 2 4 2t8 -1t9 -1l43 2h20l23 2h24q17 0 25 -2q10 6 37 6q6 0 96 -4q2 0 29 1t28 1l13 -35 q1 -3 47 -112l28 -78q14 -22 19.5 -48.5t11.5 -39.5l21 -45l16 -45q10 -40 16 -50l15 -28q23 -87 24 -90l45 63l33 49q25 21 37 54l41 63q12 15 24 37.5t21 34.5l22 32q42 68 64 93l29 47q14 18 30.5 44.5t26 40.5t12.5 13q1 0 7.5 -1t11.5 -1.5t10 0.5h51l23 2 q13 0 28.5 -1t20.5 -1h12q3 0 10.5 1t10.5 1q4 1 14 -1.5t14 -2.5l17 2q11 0 29 1t30 1q0 -6 2 -10q-31 -43 -45 -66l-63 -88l-54 -78q-15 -15 -20 -28l-12 -17l-44 -61q-35 -47 -49 -74l-10 -10q-5 -8 -14.5 -20.5t-12.5 -16.5l-26 -39q37 -2 90 -2q5 0 37 2t63 2 q43 0 43 -10l-20 -123q0 -43 -21 -43q-2 0 -11 1t-15 1l-51 6q-16 -2 -50 -2q-138 0 -170 4h-12q-31 -44 -37 -63l-63 -82l-4 -29h8h22q15 0 42 1t40 1h19q3 0 65 -1t66 -1q5 0 37 2t63 2q43 0 43 -10z" />
<glyph unicode="&#xa6;" horiz-adv-x="1054" d="M496 1405q5 -1 55 0t55 0h41q10 5 21 2q43 4 43 -14q0 -3 -1 -12t-1 -15l-7 -53q3 -21 3 -47q0 -71 -5 -111l5 -88v-68q0 -4 -1.5 -11t-1.5 -11q0 -1 5 -16q0 -10 -1 -35.5t-1 -34.5v-12v-17v-20q0 -9 -1.5 -20t-1.5 -15q0 -3 2 -11.5t3 -11.5l-5 -14q0 -4 3.5 -14.5 t3.5 -20.5v-14v-14q0 -5 -2.5 -8.5t-8 -5.5t-9 -2.5t-11.5 -1.5t-10 -1q-16 4 -23 4h-43q-14 -1 -67 0.5t-54 1.5h-4h-26q-6 -6 -21 -6l-10 2q-6 4 -6 43v21v80q0 16 1 35t1 34v60q0 5 -1 18.5t-1 17.5v62l-2 -30l-2 -22q0 15 6 167v18q0 3 1 34.5t1 35.5q0 5 -2 37t-2 63 q0 43 10 45q9 0 33 -8l18 2q2 -2 4 -2q2 1 6 1.5t7 1t4 1.5zM496 344q5 -1 55 0t55 0h41q10 5 21 2q43 4 43 -14q0 -2 -1 -12t-1 -15l-7 -53q3 -21 3 -47q0 -18 -5 -58l5 -108v-68q0 -4 -1.5 -11t-1.5 -11q0 -2 5 -17q0 -10 -1 -35t-1 -34v-13v-16v-41q0 -9 -1.5 -20 t-1.5 -15q0 -3 2 -10.5t3 -11.5l-5 -15q0 -4 3.5 -14t3.5 -20v-15v-14q0 -5 -2.5 -8.5t-7.5 -5t-9 -2.5t-11.5 -1.5t-10.5 -0.5q-16 4 -23 4h-43q-14 -1 -67 0.5t-54 1.5h-4h-26q-6 -6 -21 -6l-10 2q-6 4 -6 43v20v80q0 15 1 45t1 45v59q0 5 -1 19t-1 18v62q0 7 -1 -2 q0 -4 -1 -18l-2 -20q0 15 6 175v18q0 16 -1 54t-1 63q0 43 10 45q9 0 33 -8l18 2q2 -2 4 -2q2 1 6 1.5t7 1t4 1.5z" />
<glyph unicode="&#xa7;" d="M1067 1135h-2q-9 0 -48.5 -12.5t-78.5 -18.5q1 0 1.5 4.5t0 12t-3 17.5t-8 21t-14 22t-23.5 20.5t-33 16.5t-45 10.5t-59 2.5q-6 0 -18.5 -1t-18.5 -1l-47 -10q-39 -8 -70 -32.5t-37 -56.5l-4 -26q1 -1 1.5 -3t1 -5.5t1.5 -5.5q18 -57 103 -84l28 -13q41 -17 64 -22 l28 -17l19 -10l24 -6q13 -3 78 -37q21 0 44 -15t41 -31t24 -17l18 -19q9 -9 15.5 -17.5t10 -13.5t9.5 -16.5t10 -17.5l15 -43q2 -10 2 -23l4 -14l2 -58q3 -17 0 -26q-1 -5 -4.5 -19.5t-5.5 -27.5l-9 -23q-8 -22 -17 -41t-15.5 -29.5t-18 -29t-18.5 -29.5l-13 -14 q-1 -2 -4.5 -5.5t-3.5 -4.5l-18 -21q-4 -2 -11.5 -10t-11.5 -10l-20 -17q-2 -2 -3.5 -3t-2.5 -1.5t-2.5 -1.5t-3.5 -2q18 -15 26 -16l21 -19q9 -7 20 -22l10 -21q8 -17 16.5 -34t12 -23.5t6.5 -15t4 -17.5l4 -57q0 -27 -2 -37q-1 -6 -4.5 -22t-5.5 -25l-8 -23 q-24 -70 -44.5 -105.5t-55.5 -72.5l-46 -45l-69 -45q-22 -17 -84 -38t-82 -25q-27 0 -69.5 -7.5t-65.5 -7.5q-4 0 -14 1t-17 1h-16q-3 0 -9.5 -1t-9.5 -1q-2 0 -5 1t-5 1h-16q-15 0 -29 2.5t-34 8t-32 8.5l-10 4q-4 0 -4 2q0 1 -1.5 2t-4.5 2q-20 7 -26.5 10t-8.5 4.5 t-13.5 7.5t-33.5 17l-8 6q-5 3 -41 27l-25 20l-26 39q-1 2 -14.5 14.5t-14.5 20.5l-14 28l-9 27l-4 14q0 7 -5 22t-5 19q2 5 23 11q9 2 14 4l47 8q44 8 60 12q82 16 104 19q2 0 3.5 -5t4 -11.5t4.5 -8.5q29 -63 77.5 -90.5t135.5 -42.5q5 0 24 1t23 1q172 15 189 117v18v2 q7 60 -53 101l-25 16q-3 4 -7 6.5t-10.5 5t-9.5 4.5l-35 17q-34 19 -47 22q-7 0 -29.5 10.5t-35.5 12.5l-27 10l-49 20q-8 0 -22 7t-17 8l-49 22q-32 21 -66 35l-43 37q-3 2 -7 8t-10 14.5t-11 14.5l-15 16l-4 6l-10 25q0 3 -4 16t-4 17l-8 30v89q2 10 6 26l10 39 q21 69 43 105l33 49l27 24q41 47 75 68q-68 68 -63 94l-4 12l-4 19q1 4 0 12t0 14l-2 31q0 5 2 20t2 25l14 57l12 31q9 14 25 44.5t30 50t31 30.5l45 37q7 6 22.5 14.5t33.5 17t24 11.5l23 8q95 39 131 39l41 6q9 0 27.5 2t27.5 2h29q4 0 12.5 -1t13.5 -1l62 -12q4 -2 14 -2 l12 -6q29 -4 59 -19t46 -18l16 -12q3 -2 31 -21l14 -14q4 -7 22.5 -26.5t31.5 -45.5l16 -31l6 -24l8 -25q-22 -8 -98 -30zM797 446q24 27 32 54l5 16v4q2 15 -5 43l-12 27l-8 14l-21 14l-30 21q-44 32 -68 39l-41 14q-10 1 -28.5 12t-32.5 15l-23 8q-4 2 -13.5 7t-16.5 7 q-40 -9 -63.5 -35.5t-31.5 -52.5l-10 -39q0 -51 19 -67l18 -17q4 -3 20.5 -12t31 -17t13.5 -7l50 -25q4 -1 14 -7.5t18 -6.5l21 -6q8 -4 18 -12t19.5 -12.5t23.5 -6.5l6 -4q6 0 21 -7.5t18 -7.5l15 10t12.5 8.5t9 7t10 9.5t9.5 12z" />
<glyph unicode="&#xa8;" horiz-adv-x="1054" d="M369 1327v8q0 2 1 6.5t1 6.5q1 47 37 82.5t79 35.5q63 -9 93 -28t30 -68l6 -18l2 -11q-6 -38 -34 -68.5t-62 -41.5h-35q-19 0 -49 9t-30 15q0 -3 -8 8q-31 42 -31 64zM881 1460q17 0 35.5 -16t23.5 -31l12 -31q0 -2 0.5 -8t0.5 -11.5t-1 -10.5q-1 -61 -37 -93t-77 -32 q-10 0 -33 5t-33 5l-8 6q-21 11 -37.5 43.5t-15.5 59.5v10l4 20q5 5 2 8l10 21q8 16 33 35.5t33 19.5h4q3 0 11.5 4t10.5 4q2 -2 31.5 -4.5t30.5 -3.5z" />
<glyph unicode="&#xa9;" horiz-adv-x="1515" d="M43 735q0 5 -1 22t-1 27q0 54 16 70v31q7 8 20 56t21 60q107 179 183 250l26 15q4 1 8 5.5t8 10t5 6.5q25 20 53.5 37.5t52.5 29t51 21.5t43 15t34 10t20 6q40 0 126 9t132 9q33 -9 68.5 -17t53.5 -12.5t27 -9.5q26 0 104 -35.5t105 -64.5l4 -8l35 -12v-11 q-1 -1 20.5 -21.5t55.5 -55.5t55 -62q4 -6 16 -36t35 -54q2 -5 9.5 -32.5t19.5 -43.5q28 -59 33 -96v-35q0 -15 5 -41t5 -39v-14q-2 -6 -2 -12q0 -2 1 -6.5t1 -6.5q0 -25 -10 -70.5t-11 -54.5q-16 -105 -63 -189.5t-133 -186.5q-12 -12 -12 -19q-55 -58 -154 -113t-152 -67 q-30 -8 -89 -11t-83 -7h-47q-178 0 -331 88q-4 2 -8.5 6.5t-8.5 5.5q-18 8 -33.5 17t-32 22.5t-25 21t-28.5 27t-26 25.5q-201 193 -201 540zM776 156h8l11 2h16q116 0 213 63q82 19 203 201q0 6 20 48t23 67q2 17 8 36.5t6 24.5q0 4 -1 13t-1 16q0 2 2.5 16.5t5 34.5 t2.5 35q-9 117 -47.5 215t-104.5 171.5t-164 114.5t-218 41q-104 0 -212 -39.5t-175 -117.5q-3 -3 -16.5 -21.5t-18.5 -21.5q-42 -51 -61 -100.5t-35 -127.5l-7 -10q-8 -32 -8 -55v-60v-34q3 -17 5.5 -48t6 -53.5t9.5 -34.5q20 -40 22 -63q3 -15 26.5 -49t29.5 -51 q7 -2 34.5 -38.5t36.5 -43.5q24 -17 60 -49q2 0 27.5 -15t61 -31.5t62.5 -19.5h17q48 -16 90 -16h63zM1126 569q0 -23 -10 -51l-6 -20q-1 -5 -6.5 -16.5t-7.5 -18.5l-23 -35q-96 -133 -268 -133l-29 -4q-6 1 -17 2t-16 2l-30 4q-2 0 -14 2.5t-24.5 5t-21.5 6.5l-26 9l-21 12 l-39 18l-22 13q-15 12 -28 25.5t-23.5 26.5t-14.5 17l-24 31q0 5 -7.5 13t-7.5 11l-12 23q0 1 -9 17t-17.5 40.5t-8.5 44.5q0 3 -1 14.5t-1 14.5v12q0 2 -1 13t-1 14v10v49l-2 15q0 25 23 110l2 15l6 8q21 53 45 88l6 6q4 3 9.5 9t10.5 12l5 6l10 14q1 3 11.5 8t10.5 8l6 7 q5 6 21.5 14.5t24.5 15.5q20 14 40.5 21.5t48 13t38.5 8.5h12q10 0 16 2l12 4h11q6 0 14 -1.5t16 -0.5h17h8h10q61 0 80 -16l57 -21q1 0 3.5 -2t3.5 -2l34 -22l54 -47q1 -1 11.5 -14.5t16.5 -22.5l19 -35q12 -18 22 -65l6 -23l-41 2q-13 -3 -25.5 -3.5t-28.5 0.5t-23 1h-19 q-1 0 -8 -1t-12.5 -1t-7.5 2q-4 5 -12 29t-19 39l-19 22q-44 39 -114 39q-142 0 -187 -100q-41 -49 -41 -142v-30v-39q-1 -3 3 -19t4 -18q0 -19 22 -70l10 -16q23 -51 76.5 -84t95.5 -33h9q79 0 118 39l23 23q1 3 9 14.5t11 21.5q1 7 5.5 18.5t5.5 22.5h69q12 2 33 2 q12 -3 36 -2t25 -2z" />
<glyph unicode="&#xaa;" horiz-adv-x="749" d="M127 899q-7 24 0 68q5 35 27 67.5t41 48.5t26 17l27 18l10 6q4 1 14.5 6t18 8.5t10.5 2.5l23 8q2 0 26.5 6t32.5 6q16 2 44.5 6t39.5 4q4 0 18.5 2.5t18.5 2.5h6q5 0 14.5 0.5t20 1t20 1t13.5 1.5l2 20q1 2 2 8t2 9v10l-2 6v10q2 39 -25 49l-25 13q-3 2 -49 2 q-29 -3 -57 -15l-23 -12q0 -1 -4.5 -6t-5.5 -8q-14 -17 -14 -23l-2 -4q-4 -3 -5.5 -10.5t-4.5 -9.5l-23 4h-22l-29 4q-57 2 -62 2l-38 4v2q3 20 11.5 37t16 27.5t8.5 13.5l9 8q1 1 8.5 9t17 17t29.5 22t43 24l14 6q20 8 25 8l28 6q46 12 84 12h11h6h39q4 2 10 2q55 0 80 -10 h16q6 -4 26.5 -9.5t39.5 -15.5t30 -26q7 -6 17 -22t12 -23q11 -44 6 -76q-4 -24 -10 -71.5t-10 -71.5q-1 -5 -4 -17.5t-4 -17.5q-1 -9 -6 -41.5t-7 -50.5l-4 -31q-8 -24 -8 -29v-6v-10l-4 -31v-10l-2 -18q-2 -12 4 -47h-12h-21h-22h-99h-39q-2 40 5 96q2 4 2 6l-19 -27 q-84 -78 -166 -84l-16 -2q-14 -2 -47 -2q-13 0 -39 4.5t-35 8.5l-16 8q-5 2 -41 26q-33 44 -33 72zM334 971q-2 -4 -2 -6q-2 -8 3.5 -27t16.5 -27l13 -10q18 -6 32 -6q60 0 100.5 33t49.5 92l2 10q2 5 4 12.5t2 8.5l2 18q0 2 1 6.5t1 7.5q1 3 1 7t-1 4q-4 0 -12 -1.5t-19 -3 t-16 -2.5l-43 -8q-2 -1 -11 -2.5t-20 -4.5t-20 -7l-31 -14q-48 -24 -53 -80z" />
<glyph unicode="&#xab;" horiz-adv-x="729" d="M133 594q20 20 47 65l23 29l33 43q11 15 23 32.5t21 29t21 24.5q1 0 3 -1t3 -1h6h15h30h7h22q6 -2 14 -2q-13 -22 -39 -76l-8 -12q-11 -29 -59 -123l-45 -86l20 -100q7 -51 13 -78l10 -43q3 -23 8 -45t6 -29q-2 -1 -6 -1t-6 -1h-31h-20q-6 0 -15 -1t-12 -1q-2 0 -2 1 q-1 1 -4 1q-2 0 -4 -1t-4 -1l-25 64q-3 5 -12 28.5t-12 28.5l-13 20q-3 7 -9.5 28.5t-12.5 31.5l-19 35q-10 25 -10 28l-14 31v6l8 8zM408 594q20 20 47 65l22 29l33 43q11 15 23 32.5t21 29t21 24.5q1 0 3.5 -1t3.5 -1h6h14h31h6h23q6 -2 14 -2q-13 -22 -39 -76l-8 -12 q-8 -22 -60 -123l-45 -86l21 -100q9 -63 12 -78l10 -43q3 -22 8.5 -44t6.5 -30q-2 -1 -6.5 -1t-6.5 -1h-30h-21q-6 0 -14 -1t-12 -1q-2 0 -3 1l-4 1q-2 0 -4 -1t-4 -1l-24 64q-3 6 -13 29t-12 28l-12 20q-3 7 -10 28.5t-13 31.5l-18 35q-10 25 -10 28l-15 31v6l8 8z" />
<glyph unicode="&#xac;" d="M975 598h4h18q16 2 39 2h15h30q2 0 8 1t9 1q37 0 42 -8q2 -3 1 -8q1 -3 -0.5 -13t-1.5 -14l-6 -53q2 -14 2 -47q0 -36 -7 -64l2 -24q0 -5 0 1q1 1 1 6l2 17q2 -15 0 -188l-3 -57v-35q-1 -3 1 -10.5t2 -10.5l-5 -16q0 -3 4 -14t3 -21v-29q0 -3 -1 -5.5t-2.5 -4t-3.5 -2.5 t-5 -2t-5 -1.5t-6 -0.5h-6h-6.5h-5.5q-11 0 -23 4q-5 0 -21.5 -1t-21.5 -1q-12 0 -37 2t-35 2h-30q-6 -6 -21 -6h-10q-6 6 -6 45l2 55q3 90 1 -1q1 73 3 216l2 23v24q-2 0 -5.5 1t-4.5 1h-25q-7 0 -39 -3t-39 -3q-38 0 -75 6q-73 0 -134 -4h-151q-4 0 -11.5 1t-11.5 1 t-16 -4q-10 0 -35.5 1t-34.5 1h-69q-9 0 -20 1t-15 1q-3 0 -23 -4l-14 4q-4 0 -15.5 -3t-21.5 -3h-28q-17 0 -17 41q5 20 6 23q0 5 -1 21.5t-1 21.5q0 12 2 36.5t2 34.5v31q-6 6 -6 21l2 10q4 6 43 6h101q15 0 44.5 -1t45.5 -1h59q5 0 19 1t18 1h61q2 0 25.5 2.5t32.5 1.5 q18 -3 18 -5l53 -1q17 1 26 2.5t26 1.5h45q14 0 45 -3t47 -3h22q12 0 34 1t32 1q2 4 10 4q7 0 27 -4q3 0 9.5 -1t10.5 -1h4h4h5h2q2 0 5.5 1t4.5 1z" />
<glyph unicode="&#xad;" horiz-adv-x="542" d="M524 565q-1 -5 -6 -29.5t-6 -29.5t-4 -20.5t-4 -20.5q4 -7 0 -21q-4 -38 -12 -38q-2 0 -11.5 1t-15.5 1l-78 2l-55 -2q-4 0 -10.5 1t-10.5 1q-8 0 -16 -4q-10 0 -36.5 1t-35.5 1h-12h-16h-41q-9 0 -19 1t-14 1q-7 0 -23 -4l-14 4q-4 0 -15.5 -1t-21.5 -1h-14q-3 0 -8 -1 t-7 -1q-12 0 -12.5 13t2.5 25q1 5 4.5 13.5t3.5 9.5q4 20 4 43q2 12 7.5 31t7.5 28v4l4 27q-5 7 0 27l2 10h43h20h80q16 0 45 -1t45 -1h60q5 0 19 1t18 1h121h47q0 -11 -11 -33l-4 -18v-4v-17z" />
<glyph unicode="&#xae;" horiz-adv-x="1515" d="M43 735q0 5 -1 22t-1 27q0 54 16 70v31q7 8 20 56t21 60q107 179 183 250l26 15q4 1 8 5.5t8 10t5 6.5q25 20 53.5 37.5t52.5 29t51 21.5t43 15t34 10t20 6q40 0 126 9t132 9q33 -9 68.5 -17t53.5 -12.5t27 -9.5q26 0 104 -35.5t105 -64.5l4 -8l35 -12v-11 q-1 -1 20.5 -21.5t55.5 -55.5t55 -62q4 -6 16 -36t35 -54q2 -5 9.5 -32.5t19.5 -43.5q28 -59 33 -96v-35q0 -15 5 -41t5 -39v-14q-2 -6 -2 -12q0 -2 1 -6.5t1 -6.5q0 -25 -10 -70.5t-11 -54.5q-16 -107 -65 -199t-131 -190q-12 -12 -12 -18q-54 -57 -151 -106t-155 -62 q-26 -7 -84.5 -13t-87.5 -14h-47q-178 0 -331 88q-4 2 -8.5 11t-8.5 10q-18 8 -33.5 17t-32 22.5t-25 21t-28.5 27t-26 25.5q-201 193 -201 540zM776 156h8l11 2h16q116 0 213 63q94 22 213 201q0 4 23.5 47.5t23.5 69.5q0 15 5 35t5 24t-1 13t-1 16q0 2 2 15t4 31.5t2 33.5 q-23 265 -162 402.5t-384 137.5q-262 0 -375 -157q-29 -22 -31 -23q-35 -38 -57 -80.5t-29.5 -72t-19.5 -87.5l-6 -10q-5 -20 -5 -49q0 -14 1 -39.5t1 -36.5q0 -22 -6 -24q6 -16 12 -69t21 -71q11 -22 14 -55q3 -15 26.5 -49t29.5 -51q7 -2 31 -40t34 -46q8 -6 29 -11 t31 -20q2 0 29 -17.5t64 -36.5t64 -22h17q1 0 21 -8t35.5 -12t27.5 -4h63zM952 309q-4 1 -12 -1.5t-12 1.5l-21 39q-3 5 -6 9l-4.5 6t-3 6t-2.5 10l-12 24l-15 25l-6 14q-8 17 -12 23l-25 43q0 3 -1 5.5t-1 4.5q-6 10 -31.5 58.5t-33.5 62.5q-8 0 -21.5 -1t-15.5 -1h-12 q-1 0 -2.5 1t-2.5 1h-28q-7 0 -16.5 -1t-15.5 -1t-11 2q-4 0 -5 -2t0 -6.5t1 -5.5v-39v-41v-25v-57q2 -4 2 -14q0 -3 -1 -9t-1 -12q2 -1 2 -5t-1 -9l-1 -4v-21v-78q-3 0 -16.5 -1t-22.5 -1h-8q-2 2 -7 2q-2 0 -6.5 -1t-5.5 -1q-8 0 -19.5 1t-19.5 1h-14q-12 -4 -17 -4 t-8.5 1t-7.5 1h-8q-5 0 -5.5 1t-0.5 6v6q0 3 1 7.5t1 8.5q0 2 -1 7t-1 7l1 6q1 6 1 9v30v35q-2 16 -2 41q0 10 2 29.5t2 29.5q0 4 -2 16.5t-2 16.5q0 2 1 9t1 10q0 13 -1 27.5t-1 17.5q0 8 1 17t1 16v83q0 11 2 11v98l-4 14q0 11 4 27l-4 20v29q0 4 1 14.5t1 14.5v8v25v12 v16v25v26v5q0 4 4 4q17 0 31 -4q0 2 6 2h14q6 0 13.5 1t13.5 1h8h2q21 0 53 -4q4 2 10 2h25h12q1 0 3 1t3 1q11 0 17 -2h37h6h14h21q6 -2 13 -2t14 1t10 1h8q29 0 35 2l10 -2h35h14q33 -5 41 -7h6q20 -10 53 -10l13 -4l22 -10q2 0 4.5 -1t3.5 -1l6 -4q10 -4 31 -21l6 -4 q1 -2 5.5 -4t5.5 -4l4 -6q25 -36 32 -60l7 -20v-8l2 -6v-7l4 -11q2 -9 2 -15v-27q0 -18 -2 -38.5t-2 -28.5l-9 -31q-4 -12 -6 -16l-30 -48q-1 -2 -23 -18q-17 -14 -52.5 -25t-62 -15.5t-26.5 -2.5q0 -1 1 -3t1 -3l8 -12q8 -20 23 -35l14 -29q0 -5 20 -39t27 -41 q5 -15 10.5 -24t19 -30t31.5 -54l7 -17l12 -16q3 -4 7 -13t7 -12q-1 -2 -4 -2h-10h-31l-18 -2q-2 0 -9.5 1t-9.5 1l-10 2l-25 -2q-22 -2 -34 0h-13zM625 801v-23v-20q2 -1 9 -1t11 -1h47q4 2 10 2h70h24q45 0 65 0.5t46.5 4.5t38 13t23 25.5t18.5 42.5q2 4 2 28v5 q0 41 -31 67.5t-88 26.5h-57l-72 2l-12 -4l-14 4l-23 -2h-41q-24 0 -26 -2v-35l2 -76q0 -2 -1 -10.5t-1 -11.5v-35z" />
<glyph unicode="&#xaf;" horiz-adv-x="1054" d="M985 1362q-8 -36 -8 -37q-2 -4 -2 -25l-4 -24q-1 -8 -4 -10t-11 -2q-4 0 -13.5 1t-14.5 1h-19q-12 2 -61 2q-13 0 -19 -2h-90q-1 0 -6 1t-10 1h-43q-15 0 -23 2l-24 -4q-13 2 -47 2q-15 0 -23 -4q-33 0 -57 6h-12q-18 0 -64 -3t-63 -3q-4 0 -11 1t-10 1q-5 0 -13.5 -1 t-13.5 -1l-4 6l11 61l6 43q4 20 4 37q16 4 37 4h30q13 0 17 -2q11 0 37.5 -0.5t44 -0.5t37.5 1t32 4q15 0 45 -2t52 -2q69 0 98 2q6 0 17 -1t14 -1h24q7 0 30.5 -1t35.5 -1q6 0 22.5 -0.5t25.5 -0.5t21.5 1.5t20.5 5.5l14 -4v-10q-4 -20 -4 -27q-2 -4 -2 -14z" />
<glyph unicode="&#xb0;" d="M432 1075q-17 55 -2 121q29 105 80 152l10 10q10 14 51 39q14 3 57.5 22t73.5 19h11q2 0 25.5 -5.5t25.5 -5.5q10 0 30.5 -7t24.5 -7q11 0 22 -5.5t25 -17t23 -16.5q51 -27 86 -89t35 -120v-45q0 -17 -9 -51t-24 -49q-5 -42 -66 -95t-90 -59q-15 0 -35.5 -8t-27.5 -8 l-92 4q-56 1 -109 40.5t-83.5 88t-41.5 92.5zM618 1024l60 -31h37q56 0 76 8t59 52q14 34 14 80v14q0 3 1 14.5t0.5 18t-4.5 18t-13 23.5l-21 26l-45 27q-25 14 -32.5 16t-32.5 2h-15l-79 -32q-28 -14 -42.5 -56.5t-12 -72.5t2.5 -37z" />
<glyph unicode="&#xb1;" d="M555 1241q5 0 30.5 1t30.5 1t20.5 -1t20.5 -1q8 4 21 4h6h6h6t6 -0.5t5 -1t5 -1t4 -2t3.5 -3t2.5 -3.5t1 -5q-5 -14 -2 -27l-8 -53q4 -14 4 -47q0 -12 -1 -34.5t-1 -29.5v-55q0 -7 3 -38t3 -38q0 -50 -6 -73q14 0 46 -3.5t48 -3.5h22q15 0 42 1t40 1h19q3 0 26 -1t27 -1 q5 0 37 2t63 2q43 0 45 -10q-4 -23 -8 -33v-22q1 -2 1.5 -6t1 -6.5t1.5 -3.5q-1 -6 0.5 -33.5t1.5 -28.5q0 -5 -1 -20.5t-1 -20.5q4 -4 4 -20q4 -43 -14 -43q-2 0 -11 1t-15 1l-54 6q-14 -2 -47 -2q-62 0 -94 4h-25q-7 0 -38.5 -3t-38.5 -3q-48 0 -68 4v-47q0 -4 -1 -11.5 t-1 -11.5q0 -2 2 -7t2 -7v-72v-69q1 -8 0 -34.5t0 -31.5q0 -4 4 -20l-4 -17q0 -3 3.5 -14t2.5 -21l2 -28q-2 -17 -41 -17q-10 0 -22 4q-5 0 -21.5 -1t-21.5 -1q-12 0 -37 2t-35 2h-31q-6 -6 -20 -6h-10q-4 4 -9 45v131v91l-2 59q0 29 -2 37v43h-51q-4 0 -11 1t-11 1 q-5 0 -17 -4q-10 0 -35 1t-34 1h-88q-9 0 -20 1t-15 1q-3 0 -23 -4l-14 4q-4 0 -14.5 -3t-20.5 -3h-29q-18 0 -18 41q0 4 2 11.5t2 10.5q0 5 -1 21.5t-1 21.5q0 12 1 37t1 35v31q-6 6 -6 20v10q6 6 45 6h100q15 0 54 -1t55 -1h59q5 0 19 1t18 1h47l-2 3q1 14 4 45t4 47 l-2 22q0 15 -1 57.5t-1 55.5l-2 18q2 6 2 23q0 1 -2.5 34.5t-1.5 65.5q-2 31 -0.5 37t8.5 6q15 0 33 -6h23q3 0 9 1t7 1zM1130 35q-1 -5 0 -20.5t0 -20.5v-41q6 -11 3 -21q4 -43 -15 -43q-2 0 -11 1t-15 1l-54 7q-14 -2 -47 -2q-78 0 -110 4h-25q-7 0 -39 -3t-39 -3 q-38 0 -76 6q-72 0 -133 -4h-84h-67q-4 0 -11.5 1t-11.5 1t-16 -4q-10 0 -35.5 1t-34.5 1h-12h-16h-41q-9 0 -20 1t-15 1q-3 0 -23 -4l-14 4q-4 0 -14.5 -3.5t-20.5 -3.5h-14h-15q-5 0 -8.5 2.5t-5 7.5t-2.5 9t-1.5 11.5t-0.5 10.5q4 16 4 23v43q-1 13 0.5 28.5t1.5 22.5v4 v27q-6 6 -6 20l2 11q4 6 43 6h21h79q15 0 45 -1t46 -1h59q5 0 19 1t18 1h61q2 0 25.5 2.5t32.5 1.5q19 -2 19 -4v-2h52q17 1 25.5 2.5t25.5 1.5h46q14 0 45 -3t47 -3h22q15 0 42 1t40 1h19q3 0 34 -1t35 -1q5 0 37.5 2t63.5 2q30 0 36.5 -1.5t8.5 -9.5q0 -5 -9 -32l2 -19 q-2 -2 -2 -4q1 -2 1.5 -6t1 -6.5t1.5 -3.5z" />
<glyph unicode="&#xb2;" horiz-adv-x="817" d="M684 735h29l84 2q-4 -20 -4 -22t-3.5 -14.5t-3.5 -14.5v-4q-2 -9 -2.5 -15.5t-0.5 -8v-3.5t-0.5 -3.5t-2.5 -6.5l-4 -18q-2 -2 -2 -13l-2 -14q-2 -13 -3.5 -20t-2.5 -13q-1 -4 -16 -4q-3 0 -35 1t-45 1q-31 0 -59 0.5t-40 0.5t-24 -1h-10h-9h-10h-16h-15h-6q-33 0 -47 2 q-1 0 -8.5 -1t-9.5 -1h-35q-1 0 -2 -1t-2 -1q-2 2 -43 2h-29q-1 0 -3 1t-3 1q-3 0 -5 -1t-3 -1q-2 0 -4 2h-6h-33h-82h-78q-4 0 -4 11q0 1 2 7.5t4 8.5q0 12 3.5 37t6.5 28q-2 7 -2 9q2 4 2 12l2 8v-4l7 51q2 3 2 12t2 13q2 -2 6 1t20 13.5t37 20.5l19 14l12 6l24 12l31 17 q6 3 21 12l40 24t50 29l43 27q30 22 35 25l30 20q47 26 70 47l18 19q0 1 11.5 10t17.5 16.5t14.5 25.5t12.5 42q0 35 -2 41q-4 36 -38 55.5t-61 19.5h-12q-34 -3 -51 -9t-35 -23l-12 -8q-33 -39 -41 -62l-17 -53q-19 0 -39 8q-10 0 -82.5 16t-72.5 19q2 10 5 20t4.5 16.5 t2.5 12.5v4q3 1 14 23l17 32l37 54q9 7 24.5 23.5t24.5 21.5q1 3 13.5 12.5t33.5 20.5t41 16q27 9 33 12l12 2l14 6q17 0 43 3t39 3h21h12h10q29 0 76 -14l12 -2q4 -1 20.5 -9.5t22.5 -10.5l11 -7q7 -4 23.5 -12.5t29.5 -17.5q9 -6 17.5 -14.5t14.5 -15.5t15.5 -19t15.5 -19 q2 -8 14.5 -35.5t19 -56.5t1.5 -57q-8 -51 -45 -119l-18 -19q-6 -13 -16.5 -24t-28 -26t-27.5 -25l-19 -11q-6 -8 -20 -16.5t-34.5 -19t-22.5 -11.5l-27 -16q-9 -5 -28 -12.5t-35 -14.5l-37 -18q-15 -7 -31.5 -15t-27.5 -13t-15 -7l-18 -10l-15 -8l-39 -15l-2 -4q78 2 86 2 q5 0 15 -1t16 -1q13 0 36 1t32 1l24 2q15 -2 125 -2z" />
<glyph unicode="&#xb3;" horiz-adv-x="817" d="M147 815q33 0 43 6h9q2 0 11 1t11 1l25 2q6 0 15 2t13 2q5 -45 17 -61q3 -6 11 -17t15 -19l7 -7q39 -27 100 -27q31 0 74 19l28 14q36 31 47 78q1 33 -5.5 55t-13.5 29.5t-19 13.5q-20 15 -91 15h-20h-10.5h-14.5h-16h-16.5t-14 0.5t-9.5 1.5t-3 2q0 6 2 12l2 10 q0 1 -1 3.5t-1 4.5q0 1 4 5v4q0 2 2 6.5t2 5.5l2 18v17l4 22l2 4q-4 0 -4 -4l2 17q2 2 2 6l-2 6q1 1 4 2.5t5 3.5q3 0 9 -1t9 -1l16 2q6 -2 21 -2h16q20 0 35 1t21 1q45 11 47 12q30 13 49 36.5t22 47.5q7 26 -2 45q-30 62 -110 62q-30 0 -52 -10q-12 -5 -21.5 -10.5 t-13.5 -8.5t-10.5 -9.5t-9.5 -8.5l-22 -31q-4 -5 -9 -14t-8 -14t-6 -5q-6 0 -12 4l-31 2q-4 4 -8 4q-30 2 -77.5 9.5t-47.5 11.5q2 2 2 4l12 28l2 3l7 14q4 7 12.5 17.5t9.5 11.5l18 24q8 5 17.5 14t11.5 11l8 6l6 6q0 -1 5.5 3.5t16.5 12.5t24 16t30.5 15.5t32.5 10.5 l25 10l26 6q16 0 38.5 6t31.5 6h10h21q1 0 4 -1t4 -1q2 0 5.5 1t6.5 1q33 0 66 -10l30 -6q20 -3 54.5 -18t48.5 -29q39 -32 55.5 -68.5t5.5 -107.5q0 -11 -4 -19l-12 -29q-5 -10 -13 -18l-6 -12q-4 -6 -13 -16.5t-13 -16.5l-25 -23q-65 -34 -102 -40v-5l22 -4l43 -14 q22 -18 31 -23l4 -2q15 0 45 -59q14 -25 15 -50t-5 -52q-3 -16 -16 -45l-8 -17q0 -2 -5 -14t-5 -14l-15 -19q-21 -21 -26 -31q-21 -18 -35 -28l-35 -23q-34 -18 -47 -22l-12 -7q-8 -1 -29.5 -8.5t-32.5 -7.5h-6q-5 -1 -34 -6t-44 -6h-8q-6 0 -14 1t-11 1h-26q-31 0 -37 2 l-19 2q-1 0 -4 1t-4 1l-53 10l-16 6q-39 16 -82 50l-29 36q-1 1 -4 6t-6.5 9t-5.5 4l-15 31l-8 34q-8 19 -8 43l-2 11v8q1 3 4.5 3.5t9 0t13.5 0.5l28 4q2 0 10 4z" />
<glyph unicode="&#xb4;" horiz-adv-x="1054" d="M942 1395v-6q-1 0 -3 1t-3 1q-10 -2 -81 -32t-85 -40l-22 -14q-3 -1 -33 -11.5t-33 -11.5l-14 -6q-1 -4 -14.5 -10t-26.5 -10l-13 -3l-16 -10q-4 -3 -7 -4l-7.5 -2.5l-10.5 -3.5l-18 -6q-10 -4 -24.5 -12t-25 -13t-18.5 -6q-1 0 -2 4.5t-2.5 11t-3.5 9.5l-8 16 q-13 22 -10 31l-6 10q-8 10 -6 14l-9 17q22 15 35 16l51 35q4 4 6 4q14 8 32.5 17t32 17t28.5 21l39 23q16 13 44.5 27.5t49.5 29.5l16 8q22 14 29 16t28 17l15 10l16 11l6 -13q4 -4 9 -20l8 -12q59 -106 57 -119v-2z" />
<glyph unicode="&#xb5;" d="M504 575q-4 -12 -8 -36l-4 -33l-5 -21l-4 -20v-2l-18 -96l-6 -37q-2 -6 -2 -21v-4q0 -25 7 -42.5t22.5 -27t25.5 -13t29 -7.5q66 0 98 29l37 32q51 64 65 138q1 5 8 24.5t7 26.5l14 74l16 104q6 32 13 45l4 37l2 23q14 64 16 77q3 23 8.5 65t6.5 50t4 27.5t4 33.5l4 23 v16q1 7 7 8t24 1q9 0 15.5 -1t10.5 -1q3 0 20.5 1t30.5 1q4 0 51.5 -1t57.5 -1h61q3 0 7.5 0.5t7 0.5t5.5 -0.5t4.5 -1.5t2 -3.5t0.5 -6.5l-8 -43q-6 -37 -6 -41q-11 -69 -15 -73l-4 -27l2 -8q-1 -9 -6 -31.5t-6 -32.5l-4 -35q-2 -13 -7 -39t-7 -44l-2 -15l-7 -29 q0 -3 -2 -12t-2 -12q0 -22 -4 -27l-2 -18q-10 -65 -14 -86l-6 -37l-13 -80q-1 -5 -1.5 -15t-1.5 -18.5t-3 -15.5q-1 -9 -3 -19t-5 -21.5t-4 -18.5l-8 -50q0 -16 -2 -28q-4 -12 -4 -17q-7 -14 -7 -41l-4 -26q1 -2 1 -12l-1 -11l-4 -20l-2 -10q-2 -12 -3 -17.5t-2 -5.5h-2h-1 q-2 0 -5 1t-5 1h-70q-2 0 -14.5 -1t-20.5 -1h-120q-8 -2 -15 -2q-22 0 -24.5 11t4.5 36q0 13 4 25v6l4 24l12 60l8 28l-2 2q-2 0 -10 -19.5t-20.5 -46.5t-22.5 -40l-41 -55q-16 -23 -80 -45l-43 -11q-3 1 -23 3t-28 5t-24.5 17t-32.5 39q-4 -12 -4 -41l-7 -45l-18 -113 l-4 -33l-6 -45l-6 -24v-19l-11 -53q-1 -4 -2 -9l-1.5 -7.5t-0.5 -3.5v-2q-1 -3 -7 -3q-9 0 -17 -1h-4l-9 -2q-9 -1 -14 -1q-11 0 -36 2.5t-38 2.5q-3 0 -20 -1t-21 -1h-90q-16 0 -34 -2l-17 -1q-3 0 -3 5q0 4 -1 8l8 28q0 5 1 16.5t1 16.5q6 6 6 19l9 53q0 6 3.5 24.5 t4.5 22.5q0 9 4 37l8 47l4 14q6 48 6 51l15 97q4 16 6 20l4 37q6 42 29 168q0 1 2 11t7 31.5t9 43.5l10 55l10 72l2 12q3 12 3 15l8 36l6 46q1 2 2 8.5t2 9.5l14 78l15 80l6 57l10 57l10 68q0 3 1 9t1 9q0 1 1 3.5t1 3.5l7 43h57q14 0 29 -3h67q6 0 18 2.5t23 2.5l68 -5 l20 3q18 0 19 -6v-5q0 -4 -2 -10.5t-5 -18.5t-6 -26v-8l-4 -35l-8 -33l-18 -131q0 -4 -3.5 -18t-3.5 -19l-4 -20q-6 -30 -6 -41l-2 -23z" />
<glyph unicode="&#xb6;" d="M489 242l7 43q2 17 2.5 23t1.5 8l1.5 3t2 9l4.5 24l2 14q1 14 3 34.5t3 35.5l12 64q2 10 4 22q-49 4 -88 15q-9 2 -27 5.5t-31 7.5t-26 11q-19 0 -61 38.5t-66 70.5q-2 6 -9.5 20t-13.5 27t-9 24t-10 27t-11 27.5t-2 19.5l-8 21v32v97l6 20v8q6 28 6 31v4l17 27 q6 24 10 32l8 29q0 3 3.5 7.5t8.5 11t7 10.5l14 22q-2 2 6 9t18 16t11 16l10 19l12 10q5 4 16.5 20t18.5 19l29 18l2 4q15 17 21.5 21t17 9t28.5 20l35 18q5 3 19.5 8t26 9t11.5 6l43 8q60 12 84 12l48 -2l10 2h28q14 0 25 -1t29 -1q11 0 17.5 1t19.5 1h28l37 -2h49 q9 0 52.5 1t52.5 1h-2q15 0 43 -1t43 -1q16 0 29 2t57 2h12q45 0 49 -10q-6 -18 -6 -29l-4 -16q-4 -28 -5.5 -50t-4.5 -38l-9 -4q-3 -1 -11.5 0.5t-22.5 -0.5q-15 -4 -21 0t-8 4l-37 -6q-12 6 -29 2l-2 -19q-1 -5 -22 -108l-4 -29q-4 -37 -19 -104l-24 -152l-2 -37l-6 -29 q-1 -5 -7 -24l-2 -12l-1 -18l-1 -13l-4 -29l-6 -22l-8 -60l-31 -145l-8 -49l4 -23l-10 -59l-2 -23l-4 -28q-2 -16 -8.5 -48t-8.5 -45q-2 -12 -2 -17.5t-2 -18.5l-4 -29l-8 -37l-8 -49q-8 -75 -15 -105l-4 -28q-1 -10 -4 -39.5t-6 -46.5q-3 -19 -8.5 -50t-11.5 -73l-2 -12 q-8 -45 -19 -52q-3 0 -14.5 1t-14.5 1h-16q-76 4 -88 1q7 2 -6 10l-4 6q0 2 2.5 7t1.5 17q-1 15 4.5 22t5.5 9l4 74q6 8 8.5 14.5t3.5 10.5t2 13t3 17q0 3 5 18.5t3 22.5l20 121l6 39q2 12 4 35.5t7.5 61t15.5 91.5q-2 6 -2 19l6 43q2 17 2.5 23t1.5 8l1.5 3t2 9l4.5 24 l2 14q2 14 4 34.5t3 35.5v2q1 1 2 6t2 13t3.5 21.5t5.5 29.5t7.5 40.5t9.5 51.5q-4 16 -2 25q0 3 10 22q4 27 3 34.5t6 33.5l24 157v5q1 3 7 24.5t14 65.5t16 112l17 109q7 11 14 45q3 25 0 31h-51q-22 0 -44 1t-32 1h-49l-2 -21q-2 -17 -12 -61t-11 -47l-4 -29 q-5 -46 -18 -104l-25 -152l-2 -37l-6 -29q-1 -9 -6 -24l-2 -12l-1 -18l-1 -13l-4 -29l-7 -22l-8 -60l-24 -145l-9 -49l-2 -23l-10 -59l-2 -23l-4 -28q-2 -13 -4.5 -27.5t-6 -34t-5.5 -31.5t-2.5 -18t-2.5 -18l-4 -29l-8 -37l-8 -49q-9 -84 -14 -105l-4 -28q-1 -7 -4 -38 t-7 -48q-3 -19 -8.5 -50t-11.5 -73l-2 -12q-8 -45 -19 -52q-3 0 -14 1t-14 1h-17q-59 3 -82 1q12 1 -2 10l-4 6q0 2 2.5 7t1.5 17q-1 15 5 22t6 9l4 74q3 10 9.5 30t9.5 30t6.5 31.5t4.5 49.5q4 4 6 7t3 10t1 12.5t1 20t2 26.5l6 39q3 21 5.5 49t4.5 39v4q1 5 3 5q1 0 1.5 1 t2 6.5t2.5 16.5t3 32.5t4 53.5z" />
<glyph unicode="&#xb7;" horiz-adv-x="374" d="M4 371q0 1 1.5 18.5t4 28.5t6.5 16l2 35q1 2 7.5 35t7.5 35q0 1 1 8.5t1.5 13t-0.5 8.5l12 74q-5 3 -0.5 15.5t4.5 15.5l2 6q4 3 20 3t41.5 -1.5t35.5 -1.5h79q2 0 12 2t11 2h14q3 0 26 -2t27 -2h29q2 0 10.5 2t11 -0.5t-0.5 -11.5l-15 -82v-10q0 -5 -6 -23l-2 -10 q0 -2 -3 -29t-3 -29l-8 -34q0 -3 -3.5 -22.5t-6 -38t-0.5 -21.5v-4l-31 2h-66q-9 0 -17 -1t-22 -1q-7 0 -21.5 2t-21.5 2h-4q-9 -2 -67 -2q-4 0 -24 -3t-32.5 -2.5t-11.5 7.5z" />
<glyph unicode="&#xb8;" horiz-adv-x="1054" d="M438 -2q5 0 17 2t16 2q6 0 6 -4q0 -2 -16.5 -39t-22.5 -49l10 1q10 1 13 1q9 0 37 -5t34 -5h-2l1 -1q1 -1 4 -2.5l6 -3t7 -3t7 -4l6 -5t4 -4.5l27 -22q17 -25 21 -49.5t-1 -57.5l-2 -14q-4 -8 -4 -15l-2 -8q0 -2 -6 -13.5t-6 -14.5l-14 -17q-12 -14 -22.5 -23.5 t-15.5 -13.5t-21 -14t-25 -16l-19 -7q-2 0 -12 -3t-12 -3l-19 -6q-2 0 -10 -2t-10 -2h-25q-2 0 -5.5 -1t-4.5 -1q-57 0 -135 35l-58 29l9 18q2 8 11.5 20.5t12.5 30.5l8 17q20 -17 29 -17l20 -4l15 -10h10q24 -17 86 -17q35 0 54.5 18.5t33.5 49.5l2 8q1 5 -0.5 13.5 t-3.5 14.5l-2 5l-10 16l-15 13q-4 0 -8 4l-22 6q-8 6 -21 6h-12q-25 0 -35 2l-43 -4l2 6l4 8l15 21v-2q0 1 1 4q10 40 17 49q12 10 12 23v4l4 4l13 24q7 9 8.5 18t7.5 11h37q10 0 14 -2z" />
<glyph unicode="&#xb9;" horiz-adv-x="817" d="M195 737l14 2q8 -4 22 -4l25 4h-1q-7 -2 3 -2q12 -1 45 0q1 0 3.5 -1t4.5 -1l10 1q10 0 23 0.5t21 0.5h10l2 6v9q4 4 4 12q2 13 1.5 22t0.5 9l8 53l4 10v16v5q2 10 8.5 39.5t8.5 42.5q3 20 13 66.5t13 72.5l15 90q-18 -18 -56 -33q-10 -4 -23 -8t-27 -6.5t-28.5 -4.5 t-28 -3t-26.5 -1.5t-24 -1t-19 -0.5h-12l-4 1l10 65q1 6 3 27.5t3 25.5q0 2 2 8t2 9l6 35q10 2 62 4.5t65 5.5q42 12 73.5 28t44.5 25.5t16 9.5q41 48 49 56q16 0 25 -1t12 -1q2 0 7.5 1t8.5 1q10 0 16 -2q6 0 32 -2l26 -1h8q8 0 14 1.5t10 1.5q6 -1 3 -11q-3 -11 -5 -22 q-1 -4 -3.5 -15t-4.5 -30q-12 -77 -18 -126t-8 -59q-1 -3 -3.5 -8t-3.5 -8v-6q-1 -3 -4 -27.5t-6 -42.5q-8 -50 -21 -107t-16 -81v-10q0 -3 -4 -15l-10 -78l-6 -49h28q2 0 21 1t41 1q16 0 45 -1t41 -1h35q2 -2 2 -4.5t-1 -6t-1 -5.5l-2 -6q-2 -15 -17 -84v-6q-2 -4 -2 -19 q0 -8 -2 -12q0 -3 -4 -21q0 -8 -18 -8q-24 0 -51 2h-3h-10q-3 0 -15 -1t-22 -1h-14h-66h-8h-8h-27h-10h-6q-6 0 -34.5 1t-35.5 1q-1 0 -10.5 -1t-11.5 -1h-37h-2h-4h-33h-24h-5q-3 0 -7 -1t-7 -1q-4 0 -6 2h-4h-4h-12h-7h-69q-14 0 -51 2h-5q-8 0 -8 4q0 3 4 11v8v14 q1 6 4.5 13.5t4.5 13.5q2 6 2 8q0 5 5.5 34t4.5 36l2 12v6v8q2 0 6 4h23z" />
<glyph unicode="&#xba;" horiz-adv-x="741" d="M471 776l-45 -2h-12h-13q-5 0 -13 1t-9 1l-19 2q-3 1 -10.5 1t-14 1.5t-11.5 5.5l-19 5q-50 15 -98 61l-23 31q-2 4 -13.5 19.5t-12.5 27.5l-11 31q-5 34 -6 38l-2 21q0 6 -1 14t-1 10l4 52l4 10q0 1 2.5 4.5t2.5 5.5q1 5 1 14t1 13v6q11 11 14 29q0 2 3 12t3 12 q1 3 7.5 10.5t6.5 10.5l4 16q1 4 12.5 16t12.5 17l2 8l16 16q13 17 50 50q43 34 86 49l32 14l80 14h6h13h35q1 0 2 -1t2 -1h16l4 -2h12q5 0 29 -4l18 -4q7 0 9 -4l14 -2q78 -37 113 -94l2 -8q11 -11 16 -21v-4q9 -41 14 -51q1 -16 5.5 -37.5t5 -31.5t-3.5 -48l-2 -16 q-1 -6 -8.5 -31.5t-10.5 -42.5v-2q0 -2 -2 -3.5t-4 -2.5h-2v-4q-11 -36 -37 -66l-2 -8q-1 -1 -9.5 -13t-13.5 -18l-16 -18q-3 -3 -6.5 -8t-5.5 -7l-47 -32q-8 -4 -19 -12t-20 -13.5t-15 -5.5l-12 -4q-34 -16 -57 -19zM440 895q67 9 92 53l17 27l5 15q5 16 11.5 39.5 t9.5 41.5l3 10q1 4 3 16.5t3 16.5l2 33q1 3 2 9t2 9v25v20q-4 30 -10 47l-5 9l-14 18q0 2 -8 6l-6 6l-37 9h-10q-2 0 -4.5 -1t-3.5 -1l-25 -3l-39 -20q-41 -36 -53 -90l-13 -47q-1 -4 -2 -11.5t-2 -11.5l-6 -37q0 -12 -4 -32v-39q0 -38 8 -54l6 -20l11 -14q2 -4 8 -9.5 t20 -12.5t31 -7h8z" />
<glyph unicode="&#xbb;" horiz-adv-x="729" d="M647 508l-49 -68q-20 -20 -47 -65l-23 -29l-32 -43q-11 -14 -23.5 -32t-21.5 -29.5t-21 -24.5q-1 0 -3 1t-3 1h-6h-15h-30h-6h-23q-6 2 -14 2q13 22 39 76l8 12q11 29 59 123l45 86l-20 100q-9 63 -12 78l-11 43q-3 23 -8 45t-6 29q2 1 6 1t6 1h31h20q7 0 15 1t12 1 q2 0 2 -1l1 -0.5t3 -0.5t4 1t4 1l25 -63q3 -6 13 -29.5t12 -28.5l12 -20q3 -7 9.5 -28.5t12.5 -31.5l19 -34q10 -25 10 -29l14 -31v-6zM373 508l-49 -68q-23 -22 -48 -65l-22 -29l-33 -43q-11 -15 -23 -32.5t-21 -29t-21 -24.5q-1 0 -3 1t-3 1h-7h-14h-31h-6h-22q-6 2 -15 2 q13 22 39 76l8 12q8 22 60 123l45 86l-21 100q-9 63 -12 78l-10 43q-3 23 -8 45t-6 29q2 1 6 1t6 1h31h20q7 0 15 1t12 1q2 0 2 -1l1 -0.5t3 -0.5t4 1t4 1l25 -63q3 -5 12 -29t12 -29l12 -20q3 -7 10 -28.5t13 -31.5l18 -34q11 -28 11 -29l14 -31v-6z" />
<glyph unicode="&#xbc;" horiz-adv-x="1857" d="M139 737l15 2q8 -4 22 -4l25 4h-1q-7 -2 3 -2q12 -1 45 0q1 0 3.5 -1t4.5 -1l10 1q10 0 22.5 0.5t20.5 0.5h10l3 6v9q4 4 4 12q2 13 1.5 22t0.5 9l8 53l4 10v16v5q2 10 8 39t8 43q3 21 13.5 67t13.5 72l14 90q-18 -18 -55 -33q-10 -4 -23 -8t-27 -6.5t-28.5 -4.5t-28 -3 t-26.5 -1.5t-24 -1t-19 -0.5h-12l-4 1l10 65q1 6 3 27.5t3 25.5q0 2 2 8t2 9l6 35q10 2 62 4.5t65 5.5q42 12 73 28t44 25.5t16 9.5q41 48 49 56q16 0 25 -1t12 -1q2 0 8 1t9 1q10 0 16 -2q4 0 18 -1t26 -1.5t13 -0.5h9q7 0 13 1.5t11 1.5q6 -1 3 -11q-3 -11 -5 -22 q-1 -4 -3.5 -15t-4.5 -30q-11 -76 -18 -124.5t-9 -60.5q-1 -3 -3 -8t-3 -8v-6q-1 -3 -4 -27.5t-6 -42.5q-8 -50 -21 -107t-16 -81v-10q0 -3 -4 -15l-10 -78l-6 -49h28q2 0 21 1t41 1q16 0 45 -1t41 -1h34q2 -2 2 -4.5t-1 -6t-1 -5.5l-2 -6q-3 -23 -16 -84v-6q-2 -4 -2 -19 q0 -8 -2 -12q0 -3 -4 -21q0 -8 -19 -8q-24 0 -51 2h-2h-10q-3 0 -15 -1t-22 -1h-14h-66h-8h-8h-27h-10h-6q-6 0 -34.5 1t-35.5 1q-1 0 -10.5 -1t-11.5 -1h-37h-2h-4h-33h-25h-4q-3 0 -7 -1t-7 -1q-4 0 -6 2h-4h-4h-13h-6h-70q-14 0 -51 2h-4q-8 0 -8 4q0 3 4 11v8v14 q1 6 4 13.5t4 13.5q2 6 2 8q0 5 6 34t5 36l2 12v6v8q2 0 6 4h22zM479 0q-12 2 -82 2q-2 0 -7 -1t-7 -1q-4 0 -13.5 1t-13.5 1t-8 -1l-4 -1q-1 0 -4 8l12 14q11 13 17 23l82 123q7 7 15.5 20t12.5 17l13 18q5 8 23.5 31.5t21.5 26.5l24 34q32 44 47 72l39 51q2 3 19.5 21.5 t21.5 29.5l27 37q5 4 10 10t10 13.5t6 9.5l23 33q8 11 13 18t6 9t3 5t7 9l69 96q4 8 9.5 16t12.5 17.5t11 15.5l109 152q10 10 10 14l102 146l39 51q5 13 24 35t21 28l27 39q20 20 41 51t24 43q2 2 15.5 21.5t27.5 37t19 17.5q4 -2 14 -2h6h35h-2h10l60 -2q7 0 22 1t25 1 q17 0 20 -2q-10 -18 -80 -111l-28 -36q-8 -13 -26 -36.5t-24 -31.5l-63 -88q-31 -51 -77 -110t-64 -87l-25 -32q-21 -33 -37 -54l-30 -43q-11 -15 -33 -49l-23 -26l-22 -29l-19 -29q-6 -12 -14 -20l-37 -54q-16 -20 -24 -32l-74 -103q-6 -11 -21.5 -30.5t-19.5 -26.5 q-47 -69 -94 -131l-70 -96q-25 -33 -46 -62.5t-30.5 -45t-17 -27t-11.5 -15.5t-8 -4h-20h-27zM1602 848h26q5 0 22 1t27 1q5 0 23 -1t22 -1h21h18q-4 -16 -4 -31l-2 -6q-3 -25 -3.5 -34t-2.5 -21q-1 -8 -5 -25.5t-5 -25.5l-2 -17q-1 -7 -7 -35l-6 -28l-20 -127q-1 -4 -1 -12 t-1 -11v-8l-12 -78l-9 -49h113h10l2 -6l-4 -12v-7q-2 -11 -6 -43l-2 -6v-20l-6 -15q-1 -6 -1 -10v-5.5v-3v-3.5t-1 -6q-3 -8 -29 -8h-16q-10 0 -27 1t-26 1h-35q-4 -44 -8 -62q-1 -9 -4.5 -25t-4.5 -22v-6q0 -1 -1 -4t-1 -4q0 -6 2 -6l-2 -19v-1q-6 -42 -10 -43q-2 -1 -5 -1 q-8 0 -15 -2q-12 4 -19 4h-14h-39q-2 0 -20 -1t-23 -1h-16l-5 2h-6q-8 -2 -28 -2q-12 0 -16 4t-3 17l6 28q0 3 1 9t1 8q2 13 6.5 31.5t6.5 29.5l2 16l8 48h-12q-2 -2 -4 -2l-3 2h-34q-7 0 -22 -1t-19 -1h-33q-1 0 -2 1t-2 1q-3 0 -6 -2.5t-4 -2.5q-2 0 -2 5q-89 0 -146 -2 h-6h-16h-20.5t-23 0.5t-20 1t-15.5 2t-5 2.5q0 4 2 10v8q2 4 2 12q1 6 4 17.5t4 17.5q2 23 2 25q1 2 2 6t2 6q0 8 -2 8v-4l2 17l4 6v12v4l62 59l79 97l181 207l30 34q4 4 9.5 11t13.5 17.5t14 18.5l56 60h34h17h33zM1534 653v23l6 12l2 12q-10 -10 -51 -56t-53 -62l-74 -84 q-24 -30 -69 -83t-62 -75h170h43h35v6q6 6 6 12q2 6 2 17l4 20l6 43q3 13 4.5 22t2 16t1.5 11l4 29q2 16 7 40t6 38l4 18q1 3 2.5 16t3.5 25z" />
<glyph unicode="&#xbd;" horiz-adv-x="1857" d="M479 0q-12 2 -82 2q-2 0 -7 -1t-7 -1q-4 0 -13.5 1t-13.5 1t-8 -1l-4 -1q-1 0 -4 8l12 14q11 13 17 23l82 123q7 7 15.5 20t12.5 17l13 18q5 8 23.5 31.5t21.5 26.5l24 34q32 44 47 72l39 51q2 3 19.5 21.5t21.5 29.5l27 37q5 4 10 10t10 13.5t6 9.5l23 33q8 11 13 18 t6 9t3 5t7 9l69 96q4 8 9.5 16t12.5 17.5t11 15.5l109 152q10 10 10 14l102 146l39 51q5 13 24 35t21 28l27 39q20 20 41 51t24 43q2 2 15.5 21.5t27.5 37t19 17.5q4 -2 14 -2h6h35h-2h10l60 -2q7 0 22 1t25 1q17 0 20 -2q-10 -18 -80 -111l-28 -36q-8 -13 -26 -36.5 t-24 -31.5l-63 -88q-31 -51 -77 -110t-64 -87l-25 -32q-21 -33 -37 -54l-30 -43q-11 -15 -33 -49l-23 -26l-22 -29l-19 -29q-6 -12 -14 -20l-37 -54q-16 -20 -24 -32l-74 -103q-6 -11 -21.5 -30.5t-19.5 -26.5q-47 -69 -94 -131l-70 -96q-25 -33 -46 -62.5t-30.5 -45 t-17 -27t-11.5 -15.5t-8 -4h-20h-27zM139 737l15 2q8 -4 22 -4l25 4h-1q-7 -2 3 -2q12 -1 45 0q1 0 3.5 -1t4.5 -1l10 1q10 0 22.5 0.5t20.5 0.5h10l3 6v9q4 4 4 12q2 13 1.5 22t0.5 9l8 53l4 10v16v5q2 10 8 39t8 43q3 21 13.5 67t13.5 72l14 90q-18 -18 -55 -33 q-10 -4 -23 -8t-27 -6.5t-28.5 -4.5t-28 -3t-26.5 -1.5t-24 -1t-19 -0.5h-12l-4 1l10 65q1 6 3 27.5t3 25.5q0 2 2 8t2 9l6 35q10 2 62 4.5t65 5.5q42 12 73 28t44 25.5t16 9.5q41 48 49 56q16 0 25 -1t12 -1q2 0 8 1t9 1q10 0 16 -2q4 0 18 -1t26 -1.5t13 -0.5h9 q7 0 13 1.5t11 1.5q6 -1 3 -11q-3 -11 -5 -22q-1 -4 -3.5 -15t-4.5 -30q-11 -76 -18 -124.5t-9 -60.5q-1 -3 -3 -8t-3 -8v-6q-1 -3 -4 -27.5t-6 -42.5q-8 -50 -21 -107t-16 -81v-10q0 -3 -4 -15l-10 -78l-6 -49h28q2 0 21 1t41 1q16 0 45 -1t41 -1h34q2 -2 2 -4.5t-1 -6 t-1 -5.5l-2 -6q-3 -23 -16 -84v-6q-2 -4 -2 -19q0 -8 -2 -12q0 -3 -4 -21q0 -8 -19 -8q-24 0 -51 2h-2h-10q-3 0 -15 -1t-22 -1h-14h-66h-8h-8h-27h-10h-6q-6 0 -34.5 1t-35.5 1q-1 0 -10.5 -1t-11.5 -1h-37h-2h-4h-33h-25h-4q-3 0 -7 -1t-7 -1q-4 0 -6 2h-4h-4h-13h-6h-70 q-14 0 -51 2h-4q-8 0 -8 4q0 3 4 11v8v14q1 6 4 13.5t4 13.5q2 6 2 8q0 5 6 34t5 36l2 12v6v8q2 0 6 4h22zM1647 170h28l84 2q-4 -20 -4 -22t-3 -14.5t-3 -14.5v-4q-2 -9 -2.5 -15.5t-0.5 -8v-3.5t-0.5 -3.5t-2.5 -6.5l-4 -19q-2 -2 -2 -12l-2 -14q-2 -13 -3.5 -20t-2.5 -13 q-1 -4 -17 -4q-3 0 -35 1t-45 1h-123h-10h-8h-10h-17h-14h-6q-33 0 -47 2q-1 0 -9 -1t-10 -1h-35q-1 0 -2 -1t-2 -1q-2 2 -43 2h-28q-1 0 -3 1t-3 1q-4 0 -6 -1t-3 -1q-2 0 -4 2h-6h-33h-82h-77q-4 0 -4 10q1 1 2.5 8t3.5 9q0 12 3.5 37t6.5 28q-2 6 -2 8q2 4 2 13l2 8v-4 l6 51q2 3 2 12t2 13q1 -1 1.5 -1t2 0.5t3.5 2t4.5 3t6 3.5t8 5t10 6t13 7t15.5 8l18 15l12 6l25 12l31 17q6 3 41.5 25t68.5 40l43 27q26 19 35 24l31 21q44 25 69 47l19 18l11 9q11 10 17 17t14.5 25.5t12.5 42.5q0 35 -2 41q-4 36 -37.5 56t-60.5 20h-12 q-34 -3 -50.5 -9.5t-35.5 -23.5l-13 -8q-34 -39 -41 -61l-16 -53q-19 0 -39 8q-10 0 -83 16t-73 19q3 11 7.5 26.5t5.5 22.5v4q4 1 14 22l16 33l37 53q9 7 24.5 23.5t24.5 21.5q1 3 13.5 12.5t33.5 21t41 16.5q27 9 33 12l12 2l15 6q17 0 43 3t39 3h20h13h10q29 0 76 -14 l12 -2q4 -1 20.5 -10t22.5 -11l10 -6q5 -3 22.5 -12.5t30.5 -18.5q18 -13 64 -67q2 -7 14.5 -35.5t19 -57.5t1.5 -57q-8 -50 -45 -118l-19 -19q-6 -13 -16 -24t-28 -26.5t-28 -25.5l-18 -10q-6 -8 -20.5 -17t-34.5 -18.5t-23 -11.5l-26 -16q-8 -5 -28 -12.5t-36 -14.5 l-37 -18q-15 -7 -31.5 -15t-27.5 -13t-15 -7l-18 -10l-14 -9l-39 -14l-2 -4q78 2 86 2q5 0 15 -1t16 -1q13 0 35.5 1t31.5 1l25 2q16 -2 125 -2z" />
<glyph unicode="&#xbe;" horiz-adv-x="1857" d="M553 0q-12 2 -82 2q-2 0 -7 -1t-7 -1q-4 0 -13.5 1t-13.5 1t-8 -1l-4 -1q-1 0 -4 8q2 2 7.5 9l11 14t9.5 14l82 123q7 7 16.5 20t12.5 17l12 18q5 8 23.5 31.5t21.5 26.5l25 34q32 44 47 72l39 51q2 3 19.5 21.5t21.5 29.5l26 37q6 5 27 33l23 33q13 19 17.5 26t10.5 15 l70 96q4 8 9.5 16t12.5 17.5t11 15.5l108 152q10 10 10 14l103 146l39 51q5 13 24 35t21 28l26 39q20 20 41.5 51t24.5 43q2 2 15 21.5t27 37t19 17.5q4 -2 15 -2h6h35h-2h10l59 -2q8 0 22 1t25 1q18 0 21 -2q-10 -18 -80 -111l-29 -36q-8 -13 -26 -37t-23 -31l-63 -88 q-31 -51 -77.5 -110t-64.5 -87l-24 -32q-21 -33 -37 -54l-31 -43q-11 -15 -33 -49l-22 -26l-23 -29l-18 -29q-6 -12 -14 -20l-37 -54q-22 -27 -25 -32l-73 -103q-6 -11 -21.5 -30.5t-19.5 -26.5q-38 -56 -95 -131l-69 -96q-25 -33 -46 -62.5t-30.5 -45t-17 -27t-11.5 -15.5 t-8 -4h-20h-27zM100 815q33 0 43 6h9q2 0 11 1t11 1l25 2q7 0 16 2t12 2q5 -45 17 -61q3 -6 11 -17t15 -19l6 -7q39 -27 101 -27q31 0 74 19l28 14q36 31 47 78q1 33 -6 55t-14 29t-19 14q-20 15 -90 15h-20h-10.5h-14.5h-16h-16.5t-14 0.5t-9.5 1.5t-3 2q0 6 2 12l2 10 q0 1 -1 3.5t-1 4.5q0 1 4 5v4q0 2 2 6.5t2 5.5l2 18v17l4 22l2 4q-4 0 -4 -4l2 17q2 2 2 6l-2 6q1 1 3.5 2.5t4.5 3.5q3 0 9.5 -1t9.5 -1l16 2q6 -2 21 -2h16q20 0 34.5 1t20.5 1q5 1 13 2.5t16 3.5t19 6q30 13 49 36.5t22 47.5q7 26 -2 45q-30 62 -110 62q-29 0 -52 -10 q-12 -5 -21.5 -10.5t-13.5 -8.5t-10.5 -9.5t-9.5 -8.5l-22 -31q-4 -5 -9 -14t-8 -14t-6 -5q-6 0 -12 4l-31 2q-4 4 -8 4q-30 2 -77.5 9.5t-47.5 11.5q2 2 2 4l12 28l2 3l6 14q4 7 13 17.5t10 11.5l18 24q8 5 17.5 14t11.5 11l8 6l6 6q0 -1 5.5 3.5t16.5 12.5t24 16 t30.5 15.5t32.5 10.5l24 10l27 6q16 0 38.5 6t31.5 6h10h20q1 0 4.5 -1t4.5 -1q2 0 5.5 1t6.5 1q32 0 65 -10l31 -6q20 -3 54.5 -18t48.5 -29q39 -32 55.5 -68.5t5.5 -107.5q0 -11 -4 -19l-12 -29q-5 -10 -13 -18l-6 -12q-4 -6 -13 -16.5t-13 -16.5l-25 -23 q-65 -34 -102 -40v-5l22 -4l43 -14q22 -18 31 -23l4 -2q16 0 45 -59q14 -25 15 -50t-5 -52q-3 -16 -16 -45l-8 -17q0 -2 -5.5 -14t-5.5 -14l-14 -19q-21 -21 -26 -31q-21 -18 -35 -28l-35 -23q-34 -18 -47 -22l-13 -7q-8 -1 -29 -8.5t-32 -7.5h-6q-5 -1 -34 -6t-44 -6h-8 q-5 0 -14 1t-11 1h-26q-31 0 -37 2l-19 2q-1 0 -4 1t-4 1l-53 10l-16 6q-39 16 -82 50l-29 36q-1 1 -4 6t-6.5 9t-5.5 4l-15 31l-8 34q-8 19 -8 43l-2 11v8q1 3 4 3.5t8.5 0t13.5 0.5l29 4q2 0 10 4zM1622 848h27q5 0 22 1t27 1q5 0 23 -1t22 -1h20h19q-4 -16 -4 -31l-2 -6 q-2 -15 -3 -24.5t-1 -11.5t-1 -6t-2 -13q-1 -8 -5 -25.5t-5 -25.5l-2 -17q-3 -18 -12 -63l-21 -127q-1 -4 -1 -12t-1 -11v-8l-12 -78l-8 -49h113h10l2 -6l-4 -12v-7q-2 -11 -6 -43l-2 -6v-20l-7 -15q-1 -6 -1 -10v-5.5v-3v-3.5t-1 -6q-3 -8 -29 -8h-16q-10 0 -27 1t-26 1 h-35q-4 -44 -8 -62q-1 -9 -4 -25t-4 -22v-6q0 -1 -1 -4t-1 -4q0 -6 2 -6l-2 -19q-3 -25 -5 -32.5t-3.5 -10.5t-8.5 -2.5t-14 -1.5q-12 4 -18 4h-15h-39q-2 0 -20 -1t-23 -1h-16l-4 2h-6q-8 -2 -29 -2q-12 0 -15.5 4t-2.5 17l6 28q0 3 1 9t1 8q3 19 12 61l2 16l8 48h-12 q-2 -2 -4 -2l-2 2h-35q-7 0 -22 -1t-19 -1h-33q-1 0 -2 1t-2 1q-3 0 -6 -2.5t-4 -2.5q-2 0 -2 5q-88 0 -145 -2h-7h-16h-20.5t-23 0.5t-20 1t-15.5 2t-5 2.5q0 4 2 10v8q2 4 2 12q1 6 4 17.5t4 17.5q2 23 2 25q1 2 2.5 6t2.5 6q0 8 -3 8v-4l3 17l4 6v12v4l61 59l80 97 l180 207l31 34q4 4 9.5 11t13.5 17.5t14 18.5l55 60h35h16h33zM1554 653v23q0 2 3 6.5t4 5.5l2 12q-11 -11 -52 -56.5t-53 -61.5l-74 -84q-24 -30 -69 -83t-62 -75h170h43h35v6q6 6 6 12q2 6 2 17l4 20l7 43q3 13 4.5 22t2 16t1.5 11l4 29q2 14 5 30.5t4.5 26.5t2.5 21l4 18 q1 3 2.5 16t3.5 25z" />
<glyph unicode="&#xbf;" horiz-adv-x="1060" d="M559 612h31h12h45h27h14q0 -12 -2 -18q-6 -25 -10 -57q-2 -6 -2 -27q-2 -2 -1.5 -9t-1 -18.5t-5.5 -21.5q-7 -26 -15.5 -48.5t-14 -35t-15.5 -28t-12.5 -19.5t-14 -18t-12.5 -15l-35 -31q-68 -42 -144 -104l-41 -33l-32 -39q-4 -11 -20 -35t-19 -49q-6 -35 -0.5 -67 t14.5 -39l6 -19l13 -14q4 -2 14.5 -12t17.5 -15q12 -4 34 -9t38.5 -8t17.5 -3q6 2 23 4t25 4l18 4l41 21q70 40 115 196q10 0 45 -10l55 -16q9 -3 53 -12t78.5 -18t34.5 -13q-3 -22 -8 -33l-13 -33q-3 -2 -6 -11.5t-12 -32t-25 -48.5l-24 -41q-13 -10 -25.5 -30.5 t-19.5 -24.5q-4 -2 -27.5 -24.5t-60 -49t-74.5 -41.5l-49 -23l-23 -6l-20 -6q-22 1 -57 -4.5t-50 -5.5h-43q-3 0 -8 1t-8 1t-14.5 2t-14.5 2q-15 0 -23 1.5t-19 5t-25 5.5l-39 8l-31 15q-10 5 -24.5 11.5t-23 10.5t-22 12t-28.5 19q-18 15 -35.5 34t-26.5 31.5t-30 43.5 q-4 8 -14.5 30.5t-15.5 36t-12.5 36t-10.5 48t-3 55.5q0 50 6 80l11 51q2 14 15 37t15 31l37 47q6 3 33 30.5t33 31.5l8 8l59 43q22 10 109 69l59 39q32 21 49 80q1 4 8 20t12 34.5t3 35.5q2 0 12 1t17 1h20q27 -2 84 -2zM778 1038l-14 -61l-6 -45v-12q-1 -4 -6 -19l-4 -22 q0 -3 -1.5 -8t-3 -12t-2.5 -11v-6l-12 -76v-27q-3 -13 -6 -15.5t-14 -2.5q-14 0 -45.5 1t-40.5 1h-15q-7 0 -20 1t-19 1q-3 0 -9.5 -1t-8.5 -1h-21q-8 0 -12 -2l-39 6h-24q-42 -6 -43 -6q-9 0 -9 4v8l11 35q1 8 3 36t3 36q6 12 6 18l8 47l6 39v6q1 2 4.5 14.5t4.5 18.5 q-3 13 2 35l4 20q2 2 6 2h22q18 0 39.5 -1t26.5 -1q12 0 37 4l30 -6h15q21 6 41 6q6 0 14.5 -2t9.5 -2h11q5 0 23 1t24 1q18 0 24 -2z" />
<glyph unicode="&#xc0;" horiz-adv-x="1296" d="M35 -2q-11 0 -26 1t-21 1h-15q-5 0 -17 -1t-17 -1q-6 0 -9 0.5t-2 3.5q0 2 4 6.5t5 7.5v7q3 13 20 30l14 33l2 16q1 3 10.5 20.5t10.5 20.5l14 17q4 30 27.5 63.5t25.5 46.5l5 17l12 18q12 54 28 68l9 12q1 3 17.5 35t17.5 35l6 10q4 23 21 51.5t20 40.5l22 41l2 10 q1 11 12 22t15 19q0 29 20 47l8 11l5 22q2 12 13.5 37t12.5 33l8 10q9 10 9 16l24 49q21 33 51 110.5t39 96.5q9 18 31 65.5t35 74.5q18 37 20 39l56 108l12 31q0 12 4 12q1 0 2.5 -1t5 -2t8.5 -1l21 6v-4q1 0 4 1t4 1h74h2h22h49q4 0 26 -1t30 -1h8q2 0 7.5 1t8.5 1h27h25 q7 0 18 -1t18 -1h15q4 -1 10 -3q5 -1 6 -1.5t2 -2t1 -3.5q0 -5 1 -10l-2 -7q6 -49 12 -59q17 -120 27 -182l8 -62q3 -22 9.5 -65t9.5 -64t4 -20q3 -22 9 -46.5t7.5 -32.5t-0.5 -30v-22q1 2 7 -23.5t11.5 -52t4.5 -27.5l4 -12l2 -30q3 -29 2 -33l12 -37q9 -36 20.5 -110.5 t20.5 -111.5q-2 -9 4.5 -27t5.5 -22q0 -4 -4 -4l9 -33q5 -32 2 -47l4 -12v-27q1 -15 17 -84.5t11 -107.5q0 -2 -8 -2h-29l-73 6l-17 -6l-22 4q-6 2 -15 2q-18 -2 -30 -2h-37q-29 -4 -33 -4h-18l-8 -2q-1 0 -1.5 0.5t-3 1t-6.5 0.5h-16q-7 5 -16.5 24.5t-6.5 38.5 q2 16 -7 45.5t-7 42.5l-4 60q-1 1 -5 49.5t-18 54.5h-47q-26 -2 -192 -2h-4q-6 0 -18 3t-17 3q-15 0 -46 -3t-50 -3q-7 0 -33 3t-41 3q-14 0 -20.5 -13.5t-10.5 -34t-12 -29.5q1 9 -9 -13q-11 -23 -48 -110q-32 -73 -39 -88l-13 -27l-37 -2q-37 0 -49 4l-32 -2 q-27 -2 -74 -2zM492 598l-5 -12q-1 -5 -5 -14.5t-5 -12.5q8 -4 43 -4h31q2 0 18 -1t31 -1q14 0 75 2t79 2h30l11 6q-1 1 -3 16.5t-5.5 49.5t-6.5 59l-4 37q0 2 -2 6l-6 51q-5 66 -23 154l-4 41q-2 6 -8 76t-6 73q-4 -3 -18.5 -36t-30.5 -72t-21 -49q-3 -7 -43 -91.5 t-78 -169.5t-44 -110zM618 1778l-4 6q1 3 19.5 32t25.5 54l29 43q4 4 12 20l11 13l10 -7q47 -36 72 -51q2 -1 8 -4.5t8 -5.5q18 -14 43 -27t39 -26l33 -23q11 -12 22 -20t30 -18t30 -17l49 -33q9 -5 14 -10t10 -8l-6 -10l-5 -12q-7 -14 -7 -15l-8 -14q-2 -3 -5 -9.5 t-6 -11.5l-12 -20q-1 -3 -3 -8.5t-3.5 -9t-3.5 -3.5q-8 0 -39.5 17.5t-32.5 17.5l-16 4q-7 3 -18.5 9.5t-16.5 8.5l-12 9q-41 14 -45 22l-11 6q-3 0 -33.5 15.5t-33.5 15.5l-23 12q-1 3 -90 47q-1 0 -15.5 5.5t-15.5 5.5z" />
<glyph unicode="&#xc1;" horiz-adv-x="1296" d="M35 -2q-11 0 -26 1t-21 1h-15q-5 0 -17 -1t-17 -1q-6 0 -9 0.5t-2 3.5q0 2 4 6.5t5 7.5v7q3 13 20 30l14 33l2 16q1 3 10.5 20.5t10.5 20.5l14 17q4 30 27.5 63.5t25.5 46.5l5 17l12 18q12 54 28 68l9 12q1 3 17.5 35t17.5 35l6 10q4 23 21 51.5t20 40.5l22 41l2 10 q1 11 12 22t15 19q0 29 20 47l8 11l5 22q2 12 13.5 37t12.5 33l8 10q9 10 9 16l24 49q21 33 51 110.5t39 96.5q9 18 31 65.5t35 74.5q18 37 20 39l56 108l12 31q0 12 4 12q1 0 2.5 -1t5 -2t8.5 -1l21 6v-4q1 0 4 1t4 1h74h2h22h49q4 0 26 -1t30 -1h8q2 0 7.5 1t8.5 1h27h25 q7 0 18 -1t18 -1h15q4 -1 10 -3q5 -1 6 -1.5t2 -2t1 -3.5q0 -5 1 -10l-2 -7q6 -49 12 -59q17 -120 27 -182l8 -62q3 -22 9.5 -65t9.5 -64t4 -20q3 -22 9 -46.5t7.5 -32.5t-0.5 -30v-22q1 2 7 -23.5t11.5 -52t4.5 -27.5l4 -12l2 -30q3 -29 2 -33l12 -37q9 -36 20.5 -110.5 t20.5 -111.5q-2 -9 4.5 -27t5.5 -22q0 -4 -4 -4l9 -33q5 -32 2 -47l4 -12v-27q1 -15 17 -84.5t11 -107.5q0 -2 -8 -2h-29l-73 6l-17 -6l-22 4q-6 2 -15 2q-18 -2 -30 -2h-37q-29 -4 -33 -4h-18l-8 -2q-1 0 -1.5 0.5t-3 1t-6.5 0.5h-16q-7 5 -16.5 24.5t-6.5 38.5 q2 16 -7 45.5t-7 42.5l-4 60q-1 1 -5 49.5t-18 54.5h-47q-26 -2 -192 -2h-4q-6 0 -18 3t-17 3q-15 0 -46 -3t-50 -3q-7 0 -33 3t-41 3q-14 0 -20.5 -13.5t-10.5 -34t-12 -29.5q1 9 -9 -13q-11 -23 -48 -110q-32 -73 -39 -88l-13 -27l-37 -2q-37 0 -49 4l-32 -2 q-27 -2 -74 -2zM492 598l-5 -12q-1 -5 -5 -14.5t-5 -12.5q8 -4 43 -4h31q2 0 18 -1t31 -1q14 0 75 2t79 2h30l11 6q-1 1 -3 16.5t-5.5 49.5t-6.5 59l-4 37q0 2 -2 6l-6 51q-5 66 -23 154l-4 41q-2 6 -8 76t-6 73q-4 -3 -18.5 -36t-30.5 -72t-21 -49q-3 -7 -43 -91.5 t-78 -169.5t-44 -110zM1067 1780v-6q-1 0 -3 1t-3 1q-10 -2 -81 -32t-85 -40l-23 -14q-3 -1 -32.5 -11.5t-32.5 -11.5l-14 -6q-1 -4 -14.5 -10t-26.5 -9l-13 -4l-16 -10q-4 -3 -7 -4l-7.5 -2.5l-10.5 -3.5l-18 -6q-10 -4 -24.5 -12t-25 -13t-18.5 -6q-1 0 -2 4.5t-2.5 11 t-3.5 9.5l-8 16q-13 22 -10 31l-6 10q-9 11 -7 14l-8 17q22 15 35 16l51 35q4 4 6 4q14 8 32.5 17t32 17t28.5 21l38 23q16 13 45 27t50 30l16 8q22 14 29 16t28 17q2 1 4 2.5t5.5 4t5.5 3.5l16 11l6 -13q2 -2 8 -20l9 -12q59 -106 57 -119v-2z" />
<glyph unicode="&#xc2;" horiz-adv-x="1296" d="M35 -2q-11 0 -26 1t-21 1h-15q-5 0 -17 -1t-17 -1q-6 0 -9 0.5t-2 3.5q0 2 4 6.5t5 7.5v7q3 13 20 30l14 33l2 16q1 3 10.5 20.5t10.5 20.5l14 17q4 30 27.5 63.5t25.5 46.5l5 17l12 18q12 54 28 68l9 12q1 3 17.5 35t17.5 35l6 10q4 23 21 51.5t20 40.5l22 41l2 10 q1 11 12 22t15 19q0 29 20 47l8 11l5 22q2 12 13.5 37t12.5 33l8 10q9 10 9 16l24 49q21 33 51 110.5t39 96.5q9 18 31 65.5t35 74.5q18 37 20 39l56 108l12 31q0 12 4 12q1 0 2.5 -1t5 -2t8.5 -1l21 6v-4q1 0 4 1t4 1h74h2h22h49q4 0 26 -1t30 -1h8q2 0 7.5 1t8.5 1h27h25 q7 0 18 -1t18 -1h15q4 -1 10 -3q5 -1 6 -1.5t2 -2t1 -3.5q0 -5 1 -10l-2 -7q6 -49 12 -59q17 -120 27 -182l8 -62q3 -22 9.5 -65t9.5 -64t4 -20q3 -22 9 -46.5t7.5 -32.5t-0.5 -30v-22q1 2 7 -23.5t11.5 -52t4.5 -27.5l4 -12l2 -30q3 -29 2 -33l12 -37q9 -36 20.5 -110.5 t20.5 -111.5q-2 -9 4.5 -27t5.5 -22q0 -4 -4 -4l9 -33q5 -32 2 -47l4 -12v-27q1 -15 17 -84.5t11 -107.5q0 -2 -8 -2h-29l-73 6l-17 -6l-22 4q-6 2 -15 2q-18 -2 -30 -2h-37q-29 -4 -33 -4h-18l-8 -2q-1 0 -1.5 0.5t-3 1t-6.5 0.5h-16q-7 5 -16.5 24.5t-6.5 38.5 q2 16 -7 45.5t-7 42.5l-4 60q-1 1 -5 49.5t-18 54.5h-47q-26 -2 -192 -2h-4q-6 0 -18 3t-17 3q-15 0 -46 -3t-50 -3q-7 0 -33 3t-41 3q-14 0 -20.5 -13.5t-10.5 -34t-12 -29.5q1 9 -9 -13q-11 -23 -48 -110q-32 -73 -39 -88l-13 -27l-37 -2q-37 0 -49 4l-32 -2 q-27 -2 -74 -2zM492 598l-5 -12q-1 -5 -5 -14.5t-5 -12.5q8 -4 43 -4h31q2 0 18 -1t31 -1q14 0 75 2t79 2h30l11 6q-1 1 -3 16.5t-5.5 49.5t-6.5 59l-4 37q0 2 -2 6l-6 51q-5 66 -23 154l-4 41q-2 6 -8 76t-6 73q-4 -3 -18.5 -36t-30.5 -72t-21 -49q-3 -7 -43 -91.5 t-78 -169.5t-44 -110zM420 1632l24 17l21 10q0 6 42 32t44 29q9 8 166 113q29 15 77.5 51.5t55.5 40.5q29 -18 94 -88q7 -8 25.5 -20.5t23.5 -16.5l11 -14q25 -20 30 -25q4 -3 25.5 -24.5t38.5 -32.5l8 -8q50 -40 74 -58l-2 -10q-12 0 -63 0.5t-52 -4.5h-8q-40 -4 -47 -4h-4 q-3 0 -22 5t-21 5l-5 6l-24 23l-12 10q-17 17 -27 21q-38 26 -55 41l-17 12q-5 -3 -40 -27t-56 -37t-39 -20l-33 -21l-37 -20q-3 -1 -32 2.5t-33 1.5q-5 0 -15 2t-18 2q-2 0 -16.5 -1t-22.5 -1q-18 7 -34 4.5t-25 3.5z" />
<glyph unicode="&#xc3;" horiz-adv-x="1296" d="M35 -2q-11 0 -26 1t-21 1h-15q-5 0 -17 -1t-17 -1q-6 0 -9 0.5t-2 3.5q0 2 4 6.5t5 7.5v7q3 13 20 30l14 33l2 16q1 3 10.5 20.5t10.5 20.5l14 17q4 30 27.5 63.5t25.5 46.5l5 17l12 18q12 54 28 68l9 12q1 3 17.5 35t17.5 35l6 10q4 23 21 51.5t20 40.5l22 41l2 10 q1 11 12 22t15 19q0 29 20 47l8 11l5 22q2 12 13.5 37t12.5 33l8 10q9 10 9 16l24 49q21 33 51 110.5t39 96.5q9 18 31 65.5t35 74.5q18 37 20 39l56 108l12 31q0 12 4 12q1 0 2.5 -1t5 -2t8.5 -1l21 6v-4q1 0 4 1t4 1h74h2h22h49q4 0 26 -1t30 -1h8q2 0 7.5 1t8.5 1h27h25 q7 0 18 -1t18 -1h15q4 -1 10 -3q5 -1 6 -1.5t2 -2t1 -3.5q0 -5 1 -10l-2 -7q6 -49 12 -59q17 -120 27 -182l8 -62q3 -22 9.5 -65t9.5 -64t4 -20q3 -22 9 -46.5t7.5 -32.5t-0.5 -30v-22q1 2 7 -23.5t11.5 -52t4.5 -27.5l4 -12l2 -30q3 -29 2 -33l12 -37q9 -36 20.5 -110.5 t20.5 -111.5q-2 -9 4.5 -27t5.5 -22q0 -4 -4 -4l9 -33q5 -32 2 -47l4 -12v-27q1 -15 17 -84.5t11 -107.5q0 -2 -8 -2h-29l-73 6l-17 -6l-22 4q-6 2 -15 2q-18 -2 -30 -2h-37q-29 -4 -33 -4h-18l-8 -2q-1 0 -1.5 0.5t-3 1t-6.5 0.5h-16q-7 5 -16.5 24.5t-6.5 38.5 q2 16 -7 45.5t-7 42.5l-4 60q-1 1 -5 49.5t-18 54.5h-47q-26 -2 -192 -2h-4q-6 0 -18 3t-17 3q-15 0 -46 -3t-50 -3q-7 0 -33 3t-41 3q-14 0 -20.5 -13.5t-10.5 -34t-12 -29.5q1 9 -9 -13q-11 -23 -48 -110q-32 -73 -39 -88l-13 -27l-37 -2q-37 0 -49 4l-32 -2 q-27 -2 -74 -2zM492 598l-5 -12q-1 -5 -5 -14.5t-5 -12.5q8 -4 43 -4h31q2 0 18 -1t31 -1q14 0 75 2t79 2h30l11 6q-1 1 -3 16.5t-5.5 49.5t-6.5 59l-4 37q0 2 -2 6l-6 51q-5 66 -23 154l-4 41q-2 6 -8 76t-6 73q-4 -3 -18.5 -36t-30.5 -72t-21 -49q-3 -7 -43 -91.5 t-78 -169.5t-44 -110zM1153 1749q7 -10 13.5 -15.5t7.5 -7.5l-11 -8q0 2 -14 -10.5t-49 -35t-74 -36.5l-18 -6q-2 0 -5.5 -1t-8 -2.5l-7.5 -2.5l-47 -6q-1 0 -4 -1t-4 -1q-4 0 -12 1t-11 1l-39 4q-12 0 -16 2l-43 18q-35 17 -47 21q-3 9 -14 11.5t-36.5 7.5t-51.5 16h-9 q-64 0 -145 -70q-8 3 -23.5 18.5t-19.5 26.5l-21 27q-16 20 -22 26q8 5 20.5 15.5t20.5 15.5l16 10l4 2l23 15q13 9 29 16l49 25q50 20 96 20h6q16 0 38 -5l21 -5l21 -8q33 0 88 -33t90 -33q15 0 37 5t27 10l22 10q10 2 29 16l37 27q11 -11 39 -53l14 -21z" />
<glyph unicode="&#xc4;" horiz-adv-x="1296" d="M35 -2q-11 0 -26 1t-21 1h-15q-5 0 -17 -1t-17 -1q-6 0 -9 0.5t-2 3.5q0 2 4 6.5t5 7.5v7q3 13 20 30l14 33l2 16q1 3 10.5 20.5t10.5 20.5l14 17q4 30 27.5 63.5t25.5 46.5l5 17l12 18q12 54 28 68l9 12q1 3 17.5 35t17.5 35l6 10q4 23 21 51.5t20 40.5l22 41l2 10 q1 11 12 22t15 19q0 29 20 47l8 11l5 22q2 12 13.5 37t12.5 33l8 10q9 10 9 16l24 49q21 33 51 110.5t39 96.5q9 18 31 65.5t35 74.5q18 37 20 39l56 108l12 31q0 12 4 12q1 0 2.5 -1t5 -2t8.5 -1l21 6v-4q1 0 4 1t4 1h74h2h22h49q4 0 26 -1t30 -1h8q2 0 7.5 1t8.5 1h27h25 q7 0 18 -1t18 -1h15q4 -1 10 -3q5 -1 6 -1.5t2 -2t1 -3.5q0 -5 1 -10l-2 -7q6 -49 12 -59q17 -120 27 -182l8 -62q3 -22 9.5 -65t9.5 -64t4 -20q3 -22 9 -46.5t7.5 -32.5t-0.5 -30v-22q1 2 7 -23.5t11.5 -52t4.5 -27.5l4 -12l2 -30q3 -29 2 -33l12 -37q9 -36 20.5 -110.5 t20.5 -111.5q-2 -9 4.5 -27t5.5 -22q0 -4 -4 -4l9 -33q5 -32 2 -47l4 -12v-27q1 -15 17 -84.5t11 -107.5q0 -2 -8 -2h-29l-73 6l-17 -6l-22 4q-6 2 -15 2q-18 -2 -30 -2h-37q-29 -4 -33 -4h-18l-8 -2q-1 0 -1.5 0.5t-3 1t-6.5 0.5h-16q-7 5 -16.5 24.5t-6.5 38.5 q2 16 -7 45.5t-7 42.5l-4 60q-1 1 -5 49.5t-18 54.5h-47q-26 -2 -192 -2h-4q-6 0 -18 3t-17 3q-15 0 -46 -3t-50 -3q-7 0 -33 3t-41 3q-14 0 -20.5 -13.5t-10.5 -34t-12 -29.5q1 9 -9 -13q-11 -23 -48 -110q-32 -73 -39 -88l-13 -27l-37 -2q-37 0 -49 4l-32 -2 q-27 -2 -74 -2zM492 598l-5 -12q-1 -5 -5 -14.5t-5 -12.5q8 -4 43 -4h31q2 0 18 -1t31 -1q14 0 75 2t79 2h30l11 6q-1 1 -3 16.5t-5.5 49.5t-6.5 59l-4 37q0 2 -2 6l-6 51q-5 66 -23 154l-4 41q-2 6 -8 76t-6 73q-4 -3 -18.5 -36t-30.5 -72t-21 -49q-3 -7 -43 -91.5 t-78 -169.5t-44 -110zM532 1712v8q0 2 1.5 6.5t1.5 6.5q1 47 37 82.5t79 35.5q63 -9 93 -28t30 -68l6 -18l2 -11q-6 -38 -34 -68.5t-62 -41.5h-35q-19 0 -49.5 9t-30.5 15q0 -3 -8 8q-31 42 -31 64zM1044 1845q18 0 36.5 -16t23.5 -31l12 -31v-30q-1 -61 -37.5 -93 t-77.5 -32q-10 0 -32.5 5t-32.5 5l-8 6q-21 11 -38 43.5t-16 59.5v10l5 20q5 5 2 8l10 21q8 16 32.5 35.5t32.5 19.5h5q3 0 11.5 4t10.5 4q2 -2 31 -4.5t30 -3.5z" />
<glyph unicode="&#xc5;" horiz-adv-x="1296" d="M35 -2q-11 0 -26 1t-21 1h-15q-5 0 -17 -1t-17 -1q-6 0 -9 0.5t-2 3.5q0 2 4 6.5t5 7.5v7q3 13 20 30l14 33l2 16q1 3 10.5 20.5t10.5 20.5l14 17q4 30 27.5 63.5t25.5 46.5l5 17l12 18q12 54 28 68l9 12q1 3 17.5 35t17.5 35l6 10q4 23 21 51.5t20 40.5l22 41l2 10 q1 11 12 22t15 19q0 29 20 47l8 11l5 22q2 12 13.5 37t12.5 33l8 10q9 10 9 16l24 49q21 33 51 110.5t39 96.5q9 18 31 65.5t35 74.5q18 37 20 39l56 108l12 31q0 12 4 12q1 0 2.5 -1t5 -2t8.5 -1l21 6v-4q1 0 4 1t4 1h74h2h22h49q4 0 26 -1t30 -1h8q2 0 7.5 1t8.5 1h27h25 q7 0 18 -1t18 -1h15q4 -1 10 -3q5 -1 6 -1.5t2 -2t1 -3.5q0 -5 1 -10l-2 -7q6 -49 12 -59q17 -120 27 -182l8 -62q3 -22 9.5 -65t9.5 -64t4 -20q3 -22 9 -46.5t7.5 -32.5t-0.5 -30v-22q1 2 7 -23.5t11.5 -52t4.5 -27.5l4 -12l2 -30q3 -29 2 -33l12 -37q9 -36 20.5 -110.5 t20.5 -111.5q-2 -9 4.5 -27t5.5 -22q0 -4 -4 -4l9 -33q5 -32 2 -47l4 -12v-27q1 -15 17 -84.5t11 -107.5q0 -2 -8 -2h-29l-73 6l-17 -6l-22 4q-6 2 -15 2q-18 -2 -30 -2h-37q-29 -4 -33 -4h-18l-8 -2q-1 0 -1.5 0.5t-3 1t-6.5 0.5h-16q-7 5 -16.5 24.5t-6.5 38.5 q2 16 -7 45.5t-7 42.5l-4 60q-1 1 -5 49.5t-18 54.5h-47q-26 -2 -192 -2h-4q-6 0 -18 3t-17 3q-15 0 -46 -3t-50 -3q-7 0 -33 3t-41 3q-14 0 -20.5 -13.5t-10.5 -34t-12 -29.5q1 9 -9 -13q-11 -23 -48 -110q-32 -73 -39 -88l-13 -27l-37 -2q-37 0 -49 4l-32 -2 q-27 -2 -74 -2zM492 598l-5 -12q-1 -5 -5 -14.5t-5 -12.5q8 -4 43 -4h31q2 0 18 -1t31 -1q14 0 75 2t79 2h30l11 6q-1 1 -3 16.5t-5.5 49.5t-6.5 59l-4 37q0 2 -2 6l-6 51q-5 66 -23 154l-4 41q-2 6 -8 76t-6 73q-4 -3 -18.5 -36t-30.5 -72t-21 -49q-3 -7 -43 -91.5 t-78 -169.5t-44 -110zM635 1706q-6 40 4 84q15 68 53 100l6 8q8 9 35 23q10 3 27 11t32 13t31 5h6q1 0 17 -3t18 -3q8 0 21 -5.5t16 -5.5q7 0 14.5 -4t17.5 -11t17 -11q33 -19 56.5 -60.5t23.5 -81.5v-28q0 -11 -6.5 -35t-15.5 -33q-4 -30 -47.5 -65t-61.5 -37 q-9 0 -24 -5.5t-21 -5.5l-59 3q-59 1 -104 49.5t-56 97.5zM774 1688l33 -19h20h11h10t8 0.5t8 1t6.5 2.5t7.5 4t7 5.5t8.5 8.5t9.5 11q10 15 10 45v8q-1 4 1 10.5t0 13t-11 17.5l-12 14l-23 15q-16 8 -37 8h-8l-45 -18q-17 -7 -24.5 -30.5t-5.5 -41t2 -21.5z" />
<glyph unicode="&#xc6;" horiz-adv-x="1777" d="M1430 4q-6 2 -17 2q-4 0 -15 -2t-20 -2h-20q-6 -2 -25 -2l-16 6l-19 -6h-67q-31 0 -43 -2q-7 0 -17.5 1t-17.5 1h-29q-2 0 -8 -1t-8 -1q-9 0 -33 1t-33 1h-198q-10 0 -35 -2t-35 -2q-4 4 -6 4q-1 0 -11 -1t-12 -1h-16l-35 -4q-9 0 -6 6q0 4 4 20q1 5 1.5 21.5t2.5 24.5 q0 12 6 24q9 51 9 78q2 10 6.5 31t5.5 30q2 6 2 15l2 6v2q2 11 8 31.5t8 31.5l5 47l-50 3l-49 -3q-4 0 -11 1.5t-11 1.5q-2 0 -17 -5q-10 0 -35 1t-34 1h-70q-9 0 -20 1.5t-15 1.5q-3 0 -10.5 -2t-11.5 -3l-15 5h-4l-35 -58q-26 -50 -81 -139l-11 -18l-16 -27l-43 -74 l-12 -20l-9 -15t-6 -9t-5 -5.5t-5 -1.5q-2 0 -7 1t-9 1h-37q-103 0 -135 4h-11q-25 -2 -61 -2h-4l-12 -2q-2 0 -2 6l83 131q12 37 82 131l39 66q22 20 68 115q5 8 32 45t33 55l13 22q18 30 43.5 70.5t38.5 63.5l20 34l29 47l61 93q18 33 33.5 56.5t22.5 31t10.5 14t3.5 14.5 l45 72l20 27q3 7 12.5 21t12.5 20l18 28q3 5 11 14.5t13 18t7 16.5l12 27q20 24 38 56t20 42l8 15q1 2 11 18t17 26t11 11h53l-2 -2h98q1 4 33 4h29q18 -4 41 -4h14q8 0 28 -1t25 -1h33q3 0 10 1t11 1q0 -2 4 -2h12q20 4 37 4h65l7 -4q15 0 42.5 2t32.5 2q2 0 8 -1t9 -1 q6 0 24 2t23 2h8q18 -2 43 -2q10 0 21.5 2t21.5 2q3 0 7 -1t7 -1h15q5 0 16 -1t16 -1q2 2 7 2q4 0 12 -1t12 -1h17q2 0 8 -1t13.5 -1t16.5 2q4 0 12.5 -1t12.5 -1t15.5 3t15.5 3q6 0 14 -2t12 -2h66q4 0 13 1t14 1q4 -2 12 -2q3 0 9.5 1t10.5 1q0 -32 -4 -57q0 -15 -4 -19 q-2 -2 -4 -16l-2 -21q-4 -4 -4 -10q-1 -7 -3 -32.5t-3 -30.5q-4 -6 -4 -13q-3 -10 -2 -14l-5 -22l-6 -33q-12 0 -14 2q-4 0 -16.5 -1t-16.5 -1t-10 1t-10 1h-64h-10h-37q-22 0 -57 -3t-55 -3q-15 0 -42 2t-51 2q-53 0 -109 -1t-87 -1t-47 2q-3 -5 -11 -47l-2 -15l-26 -145 l-15 -86q25 2 111 2l29 -4q8 4 57 4l11 -1q10 -1 16 -1q25 2 75 2h29q6 0 10 2h35q8 -2 10 -2q3 0 9.5 1t9.5 1h51q5 0 16 -1t19 -1q7 0 16.5 2t11.5 2q10 0 5 -33l-13 -76l-4 -30l-10 -37q-4 -39 -2 -66v-8q-1 -5 -1.5 -5.5t-3 -1.5t-5.5 -3q-8 4 -11 4q-4 0 -10.5 -2 t-11.5 -2h-33q-3 0 -19 1t-18 1q-11 0 -36 -2t-44 -2q-13 0 -41.5 2t-44.5 2h-104q-5 0 -16 -2t-19 -2q-12 0 -24 2q-19 0 -31.5 -1t-14.5 -1h-8l-28 4q-11 -7 -11 -16q-1 -9 -0.5 -30t-5.5 -52l-6 -33l-6 -12l-29 -179q6 -6 33 -6q16 0 27 2t24 2h66l35 4q5 0 53 -8h16 q5 0 15.5 1t15.5 1q6 0 25.5 -2t25.5 -2l12 4l23 4q10 -1 18.5 -2t15.5 -1.5t19 -0.5t41 2t45 2h33q6 0 21 1t22 1q24 0 34 -4.5t7 -17.5l-6 -41q3 -6 0 -14q-4 -13 -4 -15q2 -2 2 -6l-6 -53q0 -4 -4 -16q3 -28 -7 -86q-1 -9 -4.5 -13t-8.5 -6t-7 -4h-47q-4 -2 -10 -2 q-5 0 -15 3t-14 3q-6 0 -13 -4t-8 -4q-4 0 -4 4q-17 2 -33 2.5t-24 1.5h-20zM877 1130q2 10 2 35l-109 -182l-12 -16l-6 -15q-10 -10 -21 -28l-24 -43l-19 -31q-5 -8 -12 -16t-19 -35l-18 -27q-11 -21 -34 -56l-23 -36l-15 -21q-7 -17 -26 -41l-13 -18q20 -2 64 -2h59 q5 0 19 1t18 1h94l2 14l17 91q0 3 -1 14t-1 14l35 156q1 2 3 22t3 23l28 178q6 9 9 18z" />
<glyph unicode="&#xc7;" horiz-adv-x="1310" d="M1233 395q-8 -14 -18.5 -44.5t-20.5 -49.5l-8 -6l-6 -27q-5 -7 -11.5 -15.5t-13.5 -19t-10 -14.5l-2 -4q-4 -5 -20.5 -24t-23 -26.5t-19.5 -21.5t-25.5 -24t-26.5 -19l-49 -32l-47 -23q-63 -36 -170 -53l-35 -4q-15 0 -31 -2t-20 -2l-25 -2q-23 0 -55 4h-12q-21 -3 -52 0 l-16 4q-10 1 -29.5 5t-29.5 5q-31 7 -74.5 40.5t-60.5 37.5l-21 14q-61 56 -108 119l-17 27l-10 28q-2 13 -15 35.5t-16 34.5l-2 14q1 3 -6.5 28.5t-7.5 27.5q1 28 -11.5 74.5t-9.5 72.5q0 5 -2.5 17.5t-1.5 19.5l2 12q-2 4 -2 26t2 25l10 101q0 4 4 11t3 11q0 26 26 113 q7 27 23 80l10 28l10 13q10 18 26 48.5t27.5 50t24.5 36.5l23 29q38 43 41 51q14 23 51 55l6 6q9 10 21 19.5t20 14.5t23 14t22 14q26 18 55 31.5t46.5 19.5t55.5 17t54 16q3 -2 16 0t27.5 5t17.5 3q13 0 37.5 -3t40.5 -1q2 0 6 -1t6 -1h11l32 -2q18 -1 105 -27l35 -14 q14 -6 44 -24t44 -26l8 -4l39 -26l43 -45q2 -7 17.5 -25t21.5 -29q76 -140 71 -276l-2 -62q-17 -7 -90 -2q-35 0 -54 -4t-32 -4q-3 1 -8 0.5t-12 -1.5t-8 -1q-8 2 -35 2l-72 -6q-3 8 1.5 30.5t2.5 39.5v30q-1 18 -16.5 60.5t-26.5 62.5q-68 84 -166 84q-82 -2 -138.5 -39.5 t-108.5 -134.5q-48 -72 -64 -205v-10q-1 -2 -6 -35l-4 -45q-1 -3 -4 -34.5t-4 -34.5q-4 -21 -7 -25q-4 -53 5 -117l8 -53q16 -89 71 -136.5t119 -47.5h43q13 0 41 4.5t35 9.5q126 55 170 180q2 3 13.5 29.5t17.5 34.5l69 -12q24 -1 43 -7.5t45 -7.5q2 0 21 -6t22 -6 q6 0 19 -2t20 -2l47 -8q-2 -10 -10.5 -31.5t-11.5 -28.5zM629 -2q5 0 17 2t16 2q6 0 6 -4q0 -2 -16.5 -39t-22.5 -49q1 0 10 1t12 1q9 0 37 -5t35 -5h-2l1 -1q1 -1 4 -2.5l6 -3t7 -3t7 -4l6 -5t4 -4.5l26 -22q17 -26 21.5 -50t-0.5 -57l-2 -14q-4 -8 -4 -15l-2 -8 q-1 -2 -7 -13.5t-6 -14.5l-14 -17q-12 -14 -22.5 -23.5t-15.5 -13.5t-21 -14t-25 -16l-18 -7q-2 0 -12.5 -3t-12.5 -3l-18 -6q-2 0 -10.5 -2t-10.5 -2h-24q-2 0 -6 -1t-5 -1q-57 0 -135 35l-57 29l8 18q2 8 12 20.5t13 30.5l8 17q3 -2 7.5 -6.5t6.5 -6t6 -3t8 -1.5l21 -4 l14 -10h10q24 -17 86 -17q58 0 89 68l2 8q1 5 -1 13.5t-4 14.5l-2 5l-10 16l-14 13q-4 0 -8 4l-23 6q-8 6 -20 6h-13q-24 0 -34 2l-43 -4l2 6l4 8l14 21v-2q0 1 1 4q10 40 17 49q13 10 13 23v4l4 4l12 24q7 9 9 18t8 11h36q11 0 15 -2z" />
<glyph unicode="&#xc8;" horiz-adv-x="1204" d="M834 4q-6 2 -17 2q-4 0 -15 -2t-20 -2h-20q-6 -2 -25 -2l-16 6l-19 -6h-38h-29q-31 0 -43 -2q-7 0 -17.5 1t-17.5 1h-14h-15q-2 0 -8 -1t-8 -1q-9 0 -38 1t-38 1h-221q-10 0 -35 -2t-35 -2q-4 4 -6 4q-1 0 -10.5 -1t-11.5 -1h-17l-34 -4q-5 0 -6.5 1.5t-0.5 4.5q0 4 4 20 q0 4 1.5 21t3.5 25q0 12 6 24q8 45 8 78q2 10 6.5 31t5.5 30q2 6 2 15l2 6v2q2 12 8.5 32t8.5 31q0 1 2 20.5t4 29.5l18 151l11 57l6 41q2 11 8 45.5t8 45.5q0 3 -1 14t-1 14l35 156q1 2 3 22t3 23l29 178q4 6 8 18q2 10 2 34t2 34v10l8 23l4 18q-1 3 0.5 9t1.5 8l2 18v35 q8 23 8 27l7 30v21q0 4 0.5 6t1.5 3.5t2 2t4 1t5.5 0t8 -0.5h10.5h29q18 -4 64 -4h14q8 0 28 -1t25 -1h33q3 0 9.5 1t10.5 1q0 -2 4 -2h13q20 4 37 4h65l6 -4q15 0 43 2t33 2q2 0 7.5 -1t8.5 -1q6 0 24.5 2t23.5 2h8q18 -2 53 -2q10 0 35 2t35 2q3 0 7 -1t7 -1h14 q5 0 16.5 -1t16.5 -1q2 2 6 2t12.5 -1t12.5 -1h16q2 0 8.5 -1t14 -1t16.5 2q4 0 12.5 -1t12.5 -1t15 3t15 3q6 0 15 -2t12 -2h18h48q4 0 12.5 1t13.5 1q4 -2 12 -2q3 0 10 1t11 1q0 -32 -4 -57q0 -15 -4 -19q-2 -2 -4 -16l-2 -21q-4 -4 -4 -10q-1 -5 -3.5 -31t-3.5 -32 q-4 -6 -4 -13q-3 -10 -2 -14l-4 -22l-6 -33q-12 0 -14 2q-4 0 -16.5 -1t-16.5 -1t-10.5 1t-10.5 1h-47h-16h-10h-37q-22 0 -57.5 -3t-55.5 -3q-15 0 -60 2t-69 2q-53 0 -109 -1t-87 -1q-32 0 -48 2q-1 -2 -10 -47l-2 -15q-23 -120 -26 -145l-15 -86q25 2 111 2l28 -4 q8 4 58 4l10 -1q10 -1 16 -1q25 2 76 2h29q6 0 10 2h62q8 -2 10 -2q3 0 9 1t9 1h51q5 0 16 -1t19 -1q7 0 17 2t12 2q9 0 4 -33l-12 -76l-4 -30q-1 -2 -5.5 -18.5t-5.5 -18.5q-4 -39 -2 -66v-8q-1 -5 -1.5 -5.5t-3 -1.5t-5.5 -3q-8 4 -10 4q-4 0 -11 -2t-12 -2h-32 q-3 0 -19 1t-18 1q-11 0 -49.5 -2t-57.5 -2q-13 0 -41.5 2t-44.5 2h-104q-5 0 -16 -2t-19 -2q-13 0 -25 2q-19 0 -31 -1t-14 -1h-8l-29 4q-10 -7 -10 -16q-1 -9 -0.5 -30t-5.5 -52l-6 -33l-6 -12l-6 -36l-12 -72t-11 -71q6 -6 33 -6q16 0 32 2t29 2h66l35 4q5 0 53 -8h16 q5 0 15.5 1t15.5 1q6 0 25.5 -2t25.5 -2l12 4l23 4q54 -4 80 -4q12 0 41 2t45 2h33q6 0 21 1t22 1q24 0 34 -4.5t7 -17.5l-7 -41q3 -6 0 -14q-4 -13 -4 -15q2 -2 2 -6l-6 -53q0 -4 -4 -16q3 -31 -6 -86q-1 -9 -4.5 -13t-8.5 -6t-7 -4h-48q-4 -2 -10 -2q-5 0 -14.5 3t-13.5 3 q-6 0 -13 -4t-8 -4q-4 0 -4 4q-17 2 -46 2.5t-38 1.5h-20zM635 1778l-4 6q1 3 19.5 32t25.5 54l29 43q4 4 12 20l10 13l10 -7q47 -36 72 -51q2 -1 8 -4.5t8 -5.5q18 -14 43 -27t39 -26l33 -23q11 -12 22 -20t30 -18t30 -17l49 -33q9 -6 14.5 -10.5t10.5 -7.5l-6 -10l-6 -12 l-7 -15l-8 -14q-2 -3 -4.5 -9.5t-5.5 -11.5l-12 -20q-1 -3 -3.5 -9t-4 -9t-3.5 -3q-8 0 -39 17.5t-32 17.5l-17 4q-7 3 -18.5 9.5t-16.5 8.5l-12 9q-41 14 -45 22l-10 6q-3 0 -34 15.5t-34 15.5l-22 12q-1 3 -90 47q-1 0 -15.5 5.5t-15.5 5.5z" />
</font>
</defs>
</svg>
