<?xml version="1.0" standalone="no"?>
<!DOCTYPE svg PUBLIC "-//W3C//DTD SVG 1.1//EN" "http://www.w3.org/Graphics/SVG/1.1/DTD/svg11.dtd" >
<svg xmlns="http://www.w3.org/2000/svg">
<metadata></metadata>
<defs>
<font id="futurablack_btregular" horiz-adv-x="1024" >
<font-face units-per-em="2048" ascent="1556" descent="-492" />
<missing-glyph horiz-adv-x="641" />
<glyph horiz-adv-x="2048" />
<glyph horiz-adv-x="2048" />
<glyph unicode="&#xd;" horiz-adv-x="641" />
<glyph unicode=" "  horiz-adv-x="641" />
<glyph unicode="&#x09;" horiz-adv-x="641" />
<glyph unicode="&#xa0;" horiz-adv-x="641" />
<glyph unicode="!" horiz-adv-x="639" d="M92 1479h455l-228 -1006zM111 188q0 87 61 148t147 61t147.5 -61.5t61.5 -147.5q0 -83 -62 -144.5t-147 -61.5t-146.5 61t-61.5 145z" />
<glyph unicode="&#x22;" horiz-adv-x="713" d="M76 877v561h219v-561h-219zM416 877v561h223v-561h-223z" />
<glyph unicode="#" horiz-adv-x="1575" d="M23 381l86 231h270l82 230h-283l86 231h279l141 393h250l-139 -393h235l141 393h250l-139 -393h270l-86 -231h-268l-80 -230h277l-84 -231h-275l-141 -393h-250l139 393h-235l-141 -393h-250l139 393h-274zM625 610h245l82 232h-245z" />
<glyph unicode="$" horiz-adv-x="1139" d="M45 1114q0 161 98 253.5t267 92.5h86v-1038l-332 407q-70 84 -94.5 146.5t-24.5 138.5zM59 229q0 93 64 155t160 62q93 0 153 -55t60 -137v-254h-156q-132 0 -206.5 61t-74.5 168zM377 -29h119v-284h-119v284zM377 1489v246h119v-246h-119zM621 0v1059l348 -416 q74 -89 99.5 -152t25.5 -139q0 -164 -102.5 -258t-280.5 -94h-90zM621 -29h116v-284h-116v284zM625 1206v254h155q132 0 206.5 -61t74.5 -168q0 -93 -63.5 -155t-159.5 -62q-93 0 -153 55t-60 137zM625 1489v246h118v-246h-118z" />
<glyph unicode="%" horiz-adv-x="1698" d="M33 1051q0 173 86 277.5t241 121.5v-795q-155 19 -241 122.5t-86 273.5zM319 -18l900 1468h161l-899 -1468h-162zM469 655v795q156 -17 242 -121.5t86 -277.5q0 -171 -85.5 -274t-242.5 -122zM901 377q0 173 86 277.5t242 121.5v-794q-156 18 -242 121.5t-86 273.5z M1337 -18v794q156 -17 241 -121.5t85 -277.5q0 -171 -84.5 -274t-241.5 -121z" />
<glyph unicode="&#x26;" horiz-adv-x="1432" d="M37 408q0 85 37.5 167t115.5 168q12 -59 72 -139q7 -10 11 -15l440 -595q-15 -1 -44 -3q-145 -9 -200 -9q-197 0 -314.5 117t-117.5 309zM256 936q0 115 51 210.5t154 172.5q14 -42 75 -118q12 -15 17 -21l530 -703l277 207v-199l-182 -139l264 -346h-596l-473 641 q-72 96 -94.5 158.5t-22.5 136.5zM547 1368q52 34 107.5 50t121.5 16q141 0 230.5 -81.5t89.5 -209.5q0 -80 -35.5 -150t-116.5 -149z" />
<glyph unicode="'" horiz-adv-x="371" d="M76 877v561h219v-561h-219z" />
<glyph unicode="(" horiz-adv-x="530" d="M47 541q0 264 100 507t293 449v-1915q-193 205 -293 449.5t-100 509.5z" />
<glyph unicode=")" horiz-adv-x="530" d="M90 -418v1915q194 -206 293.5 -449t99.5 -507q0 -265 -100 -509.5t-293 -449.5z" />
<glyph unicode="*" horiz-adv-x="758" d="M25 883l112 198l-112 199h229l125 217l127 -217h229l-114 -199l114 -198h-229l-127 -219l-125 219h-229z" />
<glyph unicode="+" horiz-adv-x="1706" d="M254 496v231h481v494h238v-494h479v-231h-479v-496h-238v496h-481z" />
<glyph unicode="," horiz-adv-x="639" d="M51 -285l201 273q-77 35 -114.5 87t-37.5 124q0 91 64.5 156t154.5 65q92 0 155 -63.5t63 -157.5q0 -44 -20 -89t-85 -133l-194 -262h-187z" />
<glyph unicode="-" horiz-adv-x="692" d="M66 360v332h561v-332h-561z" />
<glyph unicode="." horiz-adv-x="639" d="M100 199q0 92 64 156.5t155 64.5t156.5 -65.5t65.5 -155.5q0 -88 -65.5 -152.5t-156.5 -64.5q-90 0 -154.5 63.5t-64.5 153.5z" />
<glyph unicode="/" horiz-adv-x="834" d="M29 -190l616 1687h162l-617 -1687h-161z" />
<glyph unicode="0" horiz-adv-x="1241" d="M33 682q0 306 139.5 490.5t390.5 211.5v-1402q-252 27 -391 211t-139 489zM678 -18v1402q251 -27 390.5 -211.5t139.5 -490.5q0 -305 -139 -489t-391 -211z" />
<glyph unicode="1" horiz-adv-x="825" d="M29 922v133l692 405v-1460h-512v1014z" />
<glyph unicode="2" horiz-adv-x="1090" d="M-12 1118q0 100 73 173t175 73q101 0 174 -73t73 -173q0 -103 -72.5 -176.5t-174.5 -73.5t-175 73.5t-73 176.5zM86 0v389h948v-389h-948zM416 455q82 34 115.5 92t33.5 182v365q0 121 -33.5 180.5t-115.5 93.5q4 1 12 2q85 14 125 14q219 0 351 -131t132 -348 q0 -206 -134 -335.5t-349 -129.5q-34 0 -68 3.5t-69 11.5z" />
<glyph unicode="3" horiz-adv-x="1090" d="M14 209q0 92 68 160.5t160 68.5q91 0 159 -68t68 -159q0 -94 -67 -161.5t-160 -67.5q-92 0 -160 67.5t-68 159.5zM49 1151q0 86 65.5 150.5t153.5 64.5q87 0 151 -64t64 -151q0 -91 -63 -156t-152 -65t-154 65.5t-65 155.5zM355 678v90q117 5 159.5 29.5t42.5 83.5v45 v303q0 52 -19 83.5t-67 59.5l6 1q92 11 133 11q165 0 272 -94t107 -237q0 -130 -94.5 -207t-314.5 -123q244 -28 355.5 -117.5t111.5 -257.5q0 -166 -129.5 -266t-344.5 -100q-23 0 -58.5 1.5t-79.5 4.5q65 37 90.5 81t25.5 154v23v274q0 16 -1 32.5l-1 16.5q0 56 -43.5 81 t-150.5 28z" />
<glyph unicode="4" horiz-adv-x="1280" d="M-12 332l514 1034v-1034h-514zM616 0v1366h502v-901h152v-133h-152v-332h-502z" />
<glyph unicode="5" horiz-adv-x="1063" d="M4 213q0 89 66.5 155t156.5 66q91 0 156.5 -65t65.5 -156q0 -92 -65.5 -157.5t-156.5 -65.5q-92 0 -157.5 65.5t-65.5 157.5zM104 786v580h844v-371h-706v-209h-138zM295 787v108q36 1 78.5 2.5t48.5 1.5q291 0 433 -115.5t142 -351.5q0 -196 -133.5 -323t-333.5 -127 q-19 0 -45 1.5t-59 4.5q53 37 73.5 77.5t20.5 120.5v60v432q0 59 -46.5 83t-178.5 26z" />
<glyph unicode="6" horiz-adv-x="1194" d="M33 682q0 326 159.5 514t436.5 188h20q-47 -43 -66.5 -110.5t-19.5 -257.5v-1034q-252 27 -391 211t-139 489zM637 1163q0 90 65.5 155.5t155.5 65.5q91 0 157 -65t66 -156t-66 -157t-157 -66q-92 0 -156.5 65.5t-64.5 157.5zM678 -18v897q246 -7 365.5 -117.5 t119.5 -331.5q0 -215 -123 -328.5t-362 -119.5z" />
<glyph unicode="7" horiz-adv-x="977" d="M33 0l864 967l-248 -967h-616zM47 995v371h862v-371h-862z" />
<glyph unicode="8" horiz-adv-x="1085" d="M33 344q0 175 112.5 266t339.5 101v-729q-222 4 -337 96t-115 266zM92 1071q0 151 98.5 229t294.5 84v-626q-191 3 -292 83.5t-101 229.5zM600 -18v729q226 -8 339.5 -100t113.5 -267q0 -173 -116 -266t-337 -96zM600 758v626q196 -6 293.5 -84t97.5 -229 q0 -150 -100 -230t-291 -83z" />
<glyph unicode="9" horiz-adv-x="1194" d="M31 936q0 215 123 328.5t362 119.5v-899q-245 7 -365 118.5t-120 332.5zM115 203q0 91 65 156t156 65q92 0 157.5 -64.5t65.5 -156.5q0 -89 -66.5 -155t-156.5 -66q-91 0 -156 65t-65 156zM545 -18q47 43 66.5 110.5t19.5 257.5v1034q251 -27 390.5 -211.5t139.5 -490.5 q0 -326 -159.5 -513t-436.5 -187h-20z" />
<glyph unicode=":" horiz-adv-x="639" d="M100 199q0 92 64 156.5t155 64.5t156.5 -65.5t65.5 -155.5q0 -88 -65.5 -152.5t-156.5 -64.5q-90 0 -154.5 63.5t-64.5 153.5zM100 850q0 92 64 156.5t155 64.5t156.5 -65t65.5 -156q0 -88 -65.5 -152.5t-156.5 -64.5q-90 0 -154.5 64t-64.5 153z" />
<glyph unicode=";" horiz-adv-x="639" d="M51 -285l201 273q-77 35 -114.5 87t-37.5 124q0 91 64.5 156t154.5 65q92 0 155 -63.5t63 -157.5q0 -44 -20 -89t-85 -133l-194 -262h-187zM100 850q0 92 64 156.5t155 64.5t156.5 -65t65.5 -156q0 -88 -65.5 -152.5t-156.5 -64.5q-90 0 -154.5 64t-64.5 153z" />
<glyph unicode="&#x3c;" horiz-adv-x="1706" d="M264 494v233l1178 487v-253l-854 -351l854 -348v-254z" />
<glyph unicode="=" horiz-adv-x="1706" d="M254 272v230h1198v-230h-1198zM254 719v231h1198v-231h-1198z" />
<glyph unicode="&#x3e;" horiz-adv-x="1706" d="M264 8v254l854 348l-854 351v253l1178 -487v-233z" />
<glyph unicode="?" horiz-adv-x="985" d="M16 1251q0 82 61.5 142.5t143.5 60.5q83 0 144 -60t61 -143q0 -85 -60 -146t-145 -61t-145 61t-60 146zM299 186q0 82 61 143.5t144 61.5t144 -61t61 -144q0 -85 -60 -144.5t-145 -59.5t-145 59.5t-60 144.5zM348 1483q39 8 71 12t60 4q207 0 332 -137.5t125 -368.5 q0 -215 -124.5 -351t-322.5 -136v688q0 129 -31.5 191t-109.5 98z" />
<glyph unicode="@" horiz-adv-x="2048" d="M82 520q0 169 53 320.5t156 277.5q148 183 359.5 278t467.5 95q170 0 320 -46t260 -132q136 -107 203 -243t67 -306q0 -167 -65.5 -307t-190.5 -240q-69 -56 -154 -85.5t-176 -29.5q-106 0 -161 40t-60 120q-56 -82 -126.5 -120t-168.5 -38q-163 0 -247 87.5t-84 257.5 q0 241 141.5 404t349.5 163q77 0 134 -30.5t95 -92.5l52 92h206l-153 -610q0 -2 -1 -6q-3 -18 -3 -27q0 -30 16 -44.5t47 -14.5q137 0 240.5 143.5t103.5 335.5q0 239 -179.5 390t-467.5 151q-148 0 -274 -36.5t-230 -109.5q-155 -110 -239 -274.5t-84 -356.5 q0 -302 203 -481.5t544 -179.5q164 0 316 47.5t280 138.5l97 -135q-156 -117 -329 -175t-364 -58q-192 0 -354.5 49t-288.5 145q-157 122 -234 281.5t-77 361.5zM778 444q0 -83 35 -128.5t98 -45.5q84 0 148 59t88 158l51 209q-9 76 -50 116t-110 40q-103 0 -181.5 -121.5 t-78.5 -286.5z" />
<glyph unicode="A" horiz-adv-x="1186" d="M-39 0l332 1214l110 -579h127l-163 844h528l287 -1479h-527l-98 502h-127l98 -502h-567z" />
<glyph unicode="B" horiz-adv-x="1233" d="M66 0v1479h526v-1479h-526zM725 0v1478q11 2 23.5 2.5t35.5 0.5q183 0 294.5 -96t111.5 -250t-97.5 -240.5t-293.5 -108.5q185 -21 289 -125t104 -268q0 -174 -120 -283.5t-314 -109.5h-33z" />
<glyph unicode="C" horiz-adv-x="1204" d="M39 739q0 340 151 527.5t443 212.5v-1479q-292 23 -443 211.5t-151 527.5zM678 0l469 559v-559h-469zM678 1479h469v-559z" />
<glyph unicode="D" horiz-adv-x="1327" d="M66 0v1479h526v-1479h-526zM717 0v1479q280 -25 426.5 -214t146.5 -526t-146.5 -526.5t-426.5 -212.5z" />
<glyph unicode="E" horiz-adv-x="1204" d="M66 0v1479h518v-1479h-518zM621 770l323 305v-610zM627 0l520 666v-666h-520zM627 1479h512v-570z" />
<glyph unicode="F" horiz-adv-x="1165" d="M66 0v1479h518v-1479h-518zM621 770l323 305v-610zM627 1479h512v-570z" />
<glyph unicode="G" horiz-adv-x="1319" d="M39 729q0 346 145.5 535.5t427.5 214.5v-1497q-282 23 -427.5 212.5t-145.5 534.5zM700 1479h512v-570zM739 -18v753h531q0 -15 2 -43q2 -52 2 -67q0 -294 -137.5 -459.5t-397.5 -183.5z" />
<glyph unicode="H" horiz-adv-x="1319" d="M66 0v1479h526v-621h133v621h526v-1479h-526v725h-133v-725h-526z" />
<glyph unicode="I" horiz-adv-x="659" d="M66 0v1479h526v-1479h-526z" />
<glyph unicode="J" horiz-adv-x="1139" d="M10 256q0 106 70 183t164 77q93 0 163 -77t70 -183q0 -107 -69 -182.5t-164 -75.5q-96 0 -165 75.5t-69 182.5zM426 -4q69 53 97 124t28 216v1143h524v-875q0 -329 -131 -469.5t-434 -140.5q-20 0 -40.5 0.5t-43.5 1.5z" />
<glyph unicode="K" horiz-adv-x="1290" d="M66 0v1479h526v-1479h-526zM711 0v1479h630l-612 -672l623 -807h-641z" />
<glyph unicode="L" horiz-adv-x="1128" d="M66 0v1479h526v-1479h-526zM643 0l438 684v-684h-438z" />
<glyph unicode="M" horiz-adv-x="1651" d="M-39 0l246 950l244 -950h-490zM272 1192l76 287h340l377 -1479h-487zM895 1192l76 287h340l375 -1479h-486z" />
<glyph unicode="N" horiz-adv-x="1270" d="M66 0v1085l485 -1085h-485zM66 1384v95h550l588 -1366v-113h-526zM721 1479h483v-1086z" />
<glyph unicode="O" horiz-adv-x="1346" d="M39 739q0 348 147 542t426 216v-1515q-279 21 -426 215.5t-147 541.5zM735 -18v1515q279 -22 426.5 -216t147.5 -542q0 -347 -147.5 -541.5t-426.5 -215.5z" />
<glyph unicode="P" horiz-adv-x="1280" d="M66 0v1479h526v-1479h-526zM717 621v857q13 2 27.5 2.5t41.5 0.5q242 0 356.5 -105.5t114.5 -324.5q0 -221 -115 -327t-356 -106q-27 0 -41.5 0.5t-27.5 2.5z" />
<glyph unicode="Q" horiz-adv-x="1346" d="M39 739q0 348 147 542t426 216v-1515q-279 21 -426 215.5t-147 541.5zM735 -408v1905q279 -22 426.5 -216t147.5 -542q0 -330 -135.5 -523.5t-397.5 -240.5l406 -383h-447z" />
<glyph unicode="R" horiz-adv-x="1280" d="M66 0v1479h526v-1479h-526zM717 0v1478q13 2 27.5 2.5t41.5 0.5q230 0 339.5 -91.5t109.5 -283.5q0 -184 -104 -277.5t-308 -93.5q-24 0 -80 4h-6l586 -739h-606z" />
<glyph unicode="S" horiz-adv-x="1090" d="M37 1135q0 148 100 247t254 99q27 0 79 -8h5q-21 -23 -31 -45.5t-10 -47.5q0 -29 16 -62.5t54 -82.5l448 -576q68 -86 93.5 -156.5t25.5 -158.5q0 -145 -98 -244.5t-242 -99.5q-21 0 -45 2t-53 6q21 20 32 41t11 43q0 33 -14.5 66t-57.5 88l-446 573q-69 89 -95 159 t-26 157zM57 0v674l521 -674h-521zM530 1479h484v-625z" />
<glyph unicode="T" horiz-adv-x="1319" d="M29 780v699h350zM395 0v1479h527v-1479h-527zM938 1479h352v-699z" />
<glyph unicode="U" horiz-adv-x="1280" d="M66 524v955h518v-1497q-287 4 -402.5 123t-115.5 419zM696 -18v1497h518v-955q0 -300 -115.5 -419t-402.5 -123z" />
<glyph unicode="V" horiz-adv-x="1186" d="M-51 1479h545l374 -1200l-80 -279h-380zM616 1479h617l-301 -992z" />
<glyph unicode="W" horiz-adv-x="1651" d="M-39 1479h488l305 -1192l-76 -287h-340zM584 1479h485l307 -1192l-78 -287h-340zM1196 1479h490l-244 -951z" />
<glyph unicode="X" horiz-adv-x="1165" d="M-53 0l280 602l244 -602h-524zM-4 1479h571l598 -1479h-571zM690 1479h524l-280 -600z" />
<glyph unicode="Y" horiz-adv-x="1186" d="M-39 1479h571l340 -787v-692h-526v578zM666 1479h551l-281 -643z" />
<glyph unicode="Z" horiz-adv-x="1356" d="M-47 0l827 1479h602l-825 -1479h-604zM141 580v899h502zM698 0l533 958v-958h-533z" />
<glyph unicode="[" horiz-adv-x="682" d="M61 -436v1915h603v-133h-224v-1649h224v-133h-603z" />
<glyph unicode="\" horiz-adv-x="834" d="M47 1497h162l616 -1687h-161z" />
<glyph unicode="]" horiz-adv-x="682" d="M18 -303h224v1649h-224v133h603v-1915h-603v133z" />
<glyph unicode="^" horiz-adv-x="2048" d="M414 899l465 563h288l465 -563h-264l-344 342l-346 -342h-264z" />
<glyph unicode="_" d="M0 -244h1024v-239h-1024v239z" />
<glyph unicode="`" d="M156 1497h432v-379z" />
<glyph unicode="a" horiz-adv-x="1053" d="M25 293q0 145 93.5 221t272.5 76q23 0 34 -0.5t21 -1.5v-588q-9 -1 -20.5 -1.5t-32.5 -0.5q-179 0 -273.5 76t-94.5 219zM76 844q0 85 61.5 147t147.5 62q85 0 147 -62t62 -147q0 -87 -61.5 -149t-147.5 -62q-87 0 -148 62t-61 149zM444 1051q64 11 106 15.5t73 4.5 q174 0 259 -96.5t85 -294.5v-680h-398v754q0 127 -27.5 188t-97.5 109z" />
<glyph unicode="b" horiz-adv-x="1067" d="M57 0v1470h408v-1470h-408zM578 0v1053q220 -22 340 -160t120 -369q0 -228 -121.5 -366t-338.5 -158z" />
<glyph unicode="c" horiz-adv-x="1014" d="M29 516q0 245 128 387t357 150v-946q11 -2 23.5 -2.5t35.5 -0.5q125 0 223 63t181 195v-198q-96 -98 -198 -140t-242 -42q-237 0 -372.5 142.5t-135.5 391.5zM557 1053h420v-428z" />
<glyph unicode="d" horiz-adv-x="1067" d="M29 528q0 228 120.5 366.5t337.5 158.5v-1053q-219 22 -338.5 159.5t-119.5 368.5zM602 0v1470h408v-1470h-408z" />
<glyph unicode="e" horiz-adv-x="995" d="M29 524q0 243 119 387.5t331 159.5v-962l5 -1q48 -8 75 -8q117 0 213 66.5t176 202.5v-201q-89 -97 -186 -141.5t-219 -44.5q-246 0 -380 141.5t-134 400.5zM584 551v520q195 -12 283 -133.5t91 -386.5h-374z" />
<glyph unicode="f" horiz-adv-x="674" d="M10 909v144h109q-1 16 -1.5 31t-0.5 32q0 158 80.5 264.5t199.5 108.5q-53 -35 -78.5 -81.5t-25.5 -109.5q0 -120 76.5 -182.5t224.5 -62.5h102v-144h-174v-909h-407v909h-105zM354 1300q0 77 56 133t133 56t132.5 -55.5t55.5 -133.5t-55 -134t-133 -56q-77 0 -133 56 t-56 134z" />
<glyph unicode="g" horiz-adv-x="1071" d="M29 561q0 231 120.5 357.5t348.5 134.5v-989q-12 -2 -24 -2.5t-36 -0.5q-201 0 -305 127t-104 373zM109 -186q0 90 64 154.5t155 64.5q88 0 152.5 -65t64.5 -154t-64.5 -153t-152.5 -64q-91 0 -155 63.5t-64 153.5zM526 -401q52 43 74.5 100.5t22.5 159.5q0 17 -1 53.5 t-1 56.5v1084h399v-994q0 -254 -90.5 -366.5t-290.5 -112.5q-22 0 -48 4t-65 15z" />
<glyph unicode="h" horiz-adv-x="1042" d="M57 0v1470h408v-1470h-408zM578 0v1053h49q213 0 285.5 -77t72.5 -308v-668h-407z" />
<glyph unicode="i" horiz-adv-x="522" d="M39 1311q0 76 64.5 131t156.5 55t157.5 -55.5t65.5 -130.5q0 -77 -65 -134t-158 -57q-92 0 -156.5 56.5t-64.5 134.5zM57 0v1053h408v-1053h-408z" />
<glyph unicode="j" horiz-adv-x="522" d="M39 1311q0 76 64.5 131t156.5 55t157.5 -55.5t65.5 -130.5q0 -77 -65 -134t-158 -57q-92 0 -156.5 56.5t-64.5 134.5zM57 -418v1471h408v-930q0 -299 -89 -413.5t-319 -127.5z" />
<glyph unicode="k" horiz-adv-x="1042" d="M57 0v1470h408v-1470h-408zM578 0v1053h493l-430 -502l477 -551h-540z" />
<glyph unicode="l" horiz-adv-x="522" d="M57 0v1470h408v-1470h-408z" />
<glyph unicode="m" horiz-adv-x="1565" d="M57 0v1053h408v-1053h-408zM578 0v1053h407v-1053h-407zM1100 0v1053h47q214 0 287 -77.5t73 -307.5v-668h-407z" />
<glyph unicode="n" horiz-adv-x="1042" d="M57 0v1053h408v-1053h-408zM578 0v1053h49q213 0 285.5 -77t72.5 -308v-668h-407z" />
<glyph unicode="o" horiz-adv-x="1090" d="M29 524q0 241 119.5 383.5t338.5 163.5v-1089q-218 18 -338 160.5t-120 381.5zM602 -18v1089q221 -21 341 -164t120 -383q0 -238 -121 -380t-340 -162z" />
<glyph unicode="p" horiz-adv-x="1067" d="M57 -418v1471h408v-1471h-408zM578 0v1053q220 -22 340 -160t120 -369q0 -228 -121.5 -366t-338.5 -158z" />
<glyph unicode="q" horiz-adv-x="1067" d="M29 524q0 232 119.5 369.5t338.5 159.5v-1053q-217 20 -337.5 158t-120.5 366zM602 -418v1471h408v-1471h-408z" />
<glyph unicode="r" horiz-adv-x="938" d="M57 0v1053h408v-1053h-408zM512 868q0 82 60.5 142.5t142.5 60.5q83 0 144 -60t61 -143q0 -84 -60.5 -144t-144.5 -60q-83 0 -143 60.5t-60 143.5z" />
<glyph unicode="s" horiz-adv-x="938" d="M49 772q0 120 77.5 200.5t192.5 80.5h23q-15 -11 -24 -25.5t-9 -28.5q0 -35 41 -77q8 -8 12 -13l418 -438q55 -56 82 -114.5t27 -120.5q0 -114 -79.5 -176t-225.5 -62q-9 0 -24 1t-23 1q15 10 23.5 24.5t8.5 30.5q0 35 -41 78l-10 10l-403 439q-37 40 -51.5 80.5 t-14.5 109.5zM66 0v463l430 -463h-430zM383 1053h422v-449z" />
<glyph unicode="t" horiz-adv-x="664" d="M-29 909l551 570v-426h142v-144h-142v-909h-407v909h-144z" />
<glyph unicode="u" horiz-adv-x="1042" d="M57 385v668h408v-1071h-8q-223 0 -311.5 87t-88.5 316zM578 -18v1071h407v-668q0 -229 -88.5 -316t-310.5 -87h-8z" />
<glyph unicode="v" horiz-adv-x="958" d="M-39 1053h447l284 -797l-94 -256h-252zM522 1053h473l-245 -631z" />
<glyph unicode="w" horiz-adv-x="1518" d="M-39 1053h447l284 -797l-94 -256h-252zM522 1053h445l284 -797l-94 -256h-252zM1081 1053h473l-245 -631z" />
<glyph unicode="x" horiz-adv-x="977" d="M-51 0l246 408l223 -408h-469zM-39 1053h465l580 -1053h-465zM545 1053h422l-213 -375z" />
<glyph unicode="y" horiz-adv-x="1053" d="M-39 1053h457l325 -779v-692h-407v608zM537 1053h553l-283 -641z" />
<glyph unicode="z" horiz-adv-x="1071" d="M-33 0l625 1053h475l-627 -1053h-473zM86 412v641h379zM569 0l422 711v-711h-422z" />
<glyph unicode="{" d="M152 410v241q6 0 18 -1t18 -1q118 0 168 55.5t50 188.5v254q0 136 24 193.5t82 89.5q48 25 120.5 37t180.5 12q12 0 38.5 -1t41.5 -1v-242q-7 0 -21 1t-20 1q-98 0 -132 -35.5t-34 -146.5v-240q0 -140 -46 -200t-165 -85q120 -24 165.5 -82.5t45.5 -199.5v-242 q0 -110 33.5 -145t130.5 -35q7 0 21.5 1t21.5 1v-242q-15 0 -42 -1t-40 -1q-108 0 -179.5 12t-119.5 37q-59 32 -82.5 88.5t-23.5 192.5v256q0 133 -49.5 187.5t-168.5 54.5q-4 0 -17 -1t-19 -1z" />
<glyph unicode="|" d="M393 -483v2048h240v-2048h-240z" />
<glyph unicode="}" d="M133 -172q9 0 23 -1t20 -1q97 0 130.5 34.5t33.5 145.5v242q0 140 46 199t165 83q-120 25 -165.5 84t-45.5 201v240q0 111 -33.5 146.5t-126.5 35.5q-7 0 -22.5 -1t-24.5 -1v242q15 0 41.5 1t38.5 1q108 0 180 -12t121 -37q58 -32 82.5 -89.5t24.5 -193.5v-254 q0 -134 49 -189t168 -55q6 0 18 1t18 1v-241q-6 0 -18 1t-18 1q-119 0 -168 -55t-49 -187v-256q0 -137 -24.5 -194.5t-82.5 -88.5q-45 -24 -113.5 -35.5t-177.5 -11.5q-14 0 -44 1t-46 1v242z" />
<glyph unicode="~" horiz-adv-x="1706" d="M178 401v254q112 73 207.5 108.5t179.5 35.5q63 0 126.5 -12t169.5 -46q16 -5 51 -17q159 -56 247 -56q84 0 173.5 36t197.5 115v-254q-101 -69 -194 -103t-183 -34q-45 0 -89 7.5t-83 21.5q-13 4 -38 13q-255 89 -382 89q-84 0 -175.5 -37.5t-207.5 -120.5z" />
<glyph unicode="&#xa1;" horiz-adv-x="639" d="M92 0l227 1006l228 -1006h-455zM111 1292q0 85 61 145t147 60q85 0 147 -61t62 -144q0 -85 -62 -148t-147 -63q-86 0 -147 62t-61 149z" />
<glyph unicode="&#xa2;" horiz-adv-x="1014" d="M29 516q0 245 128 387t357 150v-942q27 -3 47 -5t31 -2q111 0 209 66t176 192v-198q-96 -98 -198 -140t-242 -42q-237 0 -372.5 142.5t-135.5 391.5zM483 -47h123v-209h-123v209zM483 1100v219h123v-219h-123zM557 1053h420v-428z" />
<glyph unicode="&#xa3;" horiz-adv-x="1128" d="M47 0v350h1071v-350h-1071zM54 418q42 53 60.5 105.5t18.5 119.5v143h-78v138h84v112q0 217 114.5 344t307.5 127q66 0 123.5 -11.5t101.5 -33.5q-88 -37 -126.5 -113.5t-38.5 -218.5v-206h165v-138h-172q-13 -180 -140 -275t-353 -95q-28 0 -42 0.5t-25 1.5zM721 1249 q0 84 59.5 144.5t143.5 60.5q85 0 145.5 -60.5t60.5 -144.5q0 -82 -61 -142t-145 -60q-83 0 -143 59.5t-60 142.5z" />
<glyph unicode="&#xa4;" horiz-adv-x="1241" d="M10 799l53 123h78q39 255 170.5 396t352.5 161v-557h350l-56 -123h-294v-117h243l-55 -125h-188v-557q-219 17 -353 160t-170 397h-102l53 125h41v117h-123zM696 1479h469v-559zM711 0l469 559v-559h-469z" />
<glyph unicode="&#xa5;" horiz-adv-x="1186" d="M20 1352h523l305 -713h258v-119h-254v-520h-481v520h-295v119h246l-52 125h-194v119h143zM662 1352h503l-202 -469h143v-119h-195z" />
<glyph unicode="&#xa6;" d="M393 -350v758h240v-758h-240zM393 674v758h240v-758h-240z" />
<glyph unicode="&#xa7;" d="M23 614q0 76 23 134t69 100q14 -53 46 -92.5t87 -71.5l502 -287q96 -55 145 -136t49 -185q0 -157 -104 -264t-254 -107q-23 0 -42 1.5t-40 4.5q72 48 102.5 98.5t30.5 118.5q0 82 -43 141t-143 113l-215 117q-130 71 -171.5 139t-41.5 176zM94 -86q0 90 64.5 154.5 t152.5 64.5q89 0 154 -65t65 -154q0 -87 -65.5 -152t-153.5 -65q-87 0 -152 64.5t-65 152.5zM106 1110q0 157 104.5 264t254.5 107q2 0 18 -1.5t29 -2.5q-61 -45 -90 -96t-29 -117q0 -79 43.5 -145t120.5 -103l231 -113q116 -58 163.5 -130t47.5 -185q0 -75 -23 -133.5 t-69 -100.5q-14 53 -46 92.5t-87 71.5l-473 268q-95 54 -145 137t-50 187zM483 1292q0 84 60.5 144.5t142.5 60.5q84 0 145.5 -60.5t61.5 -144.5q0 -82 -61.5 -142t-145.5 -60q-82 0 -142.5 60t-60.5 142z" />
<glyph unicode="&#xa8;" d="M119 1337q0 75 54 129t128 54q75 0 129.5 -54t54.5 -129q0 -73 -55 -128.5t-129 -55.5q-73 0 -127.5 55t-54.5 129zM539 1337q0 75 54.5 129t129.5 54q74 0 128 -54t54 -129q0 -74 -54.5 -129t-127.5 -55q-74 0 -129 55.5t-55 128.5z" />
<glyph unicode="&#xa9;" horiz-adv-x="1706" d="M106 737q0 148 57.5 285t164.5 246q105 106 238 161.5t286 55.5q154 0 289.5 -56t242.5 -163q106 -106 160.5 -240.5t54.5 -288.5q0 -153 -54 -287t-159 -237q-109 -108 -247 -165.5t-287 -57.5q-148 0 -283.5 57t-242.5 164t-163.5 241.5t-56.5 284.5zM242 737 q0 -119 47 -230.5t135 -199.5q87 -87 198 -133.5t232 -46.5t234 47t202 135q86 84 130 193t44 235q0 125 -45 235.5t-131 196.5q-88 89 -198.5 135t-235.5 46q-126 0 -235 -45.5t-195 -133.5q-88 -89 -135 -201t-47 -233zM446 731q0 207 111 329t299 122q157 0 257 -80 t108 -211h-213q-7 67 -47.5 104t-108.5 37q-83 0 -129.5 -77t-46.5 -216q0 -140 47.5 -212t138.5 -72q67 0 106.5 40.5t45.5 114.5h215q-6 -143 -107.5 -230t-263.5 -87q-190 0 -301 117.5t-111 320.5z" />
<glyph unicode="&#xaa;" horiz-adv-x="791" d="M18 948q0 102 70.5 155.5t204.5 53.5q18 0 27 -0.5t16 -1.5v-411q-8 -2 -16.5 -2.5t-24.5 -0.5q-134 0 -205.5 54t-71.5 153zM57 1333q0 61 46 104.5t110 43.5t111 -44t47 -104t-47 -103.5t-111 -43.5t-110 43.5t-46 103.5zM334 1479q52 8 82 11t51 3q130 0 194 -68 t64 -206v-476h-297v529q0 87 -21 130t-73 77z" />
<glyph unicode="&#xab;" horiz-adv-x="844" d="M18 526l371 398v-797zM418 526l368 398v-797z" />
<glyph unicode="&#xac;" horiz-adv-x="1706" d="M254 639v227h1198v-501h-229v274h-969z" />
<glyph unicode="&#xad;" horiz-adv-x="692" d="M66 360v332h561v-332h-561z" />
<glyph unicode="&#xae;" horiz-adv-x="1706" d="M106 737q0 151 59 290t169 247q105 104 237 157.5t281 53.5q156 0 294 -57.5t245 -167.5q101 -104 154.5 -238t53.5 -285q0 -155 -56.5 -291t-164.5 -239q-109 -105 -245 -161t-281 -56q-151 0 -287 58t-243 169q-105 108 -160.5 241.5t-55.5 278.5zM244 737 q0 -121 44 -229t130 -195q87 -90 199 -138t235 -48q121 0 232.5 45.5t199.5 130.5t134 196.5t46 237.5q0 124 -44 233.5t-128 194.5q-89 91 -200.5 138t-237.5 47q-124 0 -232 -44t-194 -128q-90 -90 -137 -203t-47 -238zM537 344v819h329q174 0 264.5 -60t90.5 -177 q0 -81 -46 -139t-128 -82l182 -361h-248l-154 326h-65v-326h-225zM762 803h80q74 0 110.5 26.5t36.5 79.5q0 59 -38 86t-122 27h-67v-219z" />
<glyph unicode="&#xaf;" d="M162 1176v266h700v-266h-700z" />
<glyph unicode="&#xb0;" horiz-adv-x="674" d="M27 1155q0 131 90.5 221t220.5 90q129 0 220 -91t91 -220q0 -128 -91.5 -219.5t-221.5 -91.5q-129 0 -219 90.5t-90 220.5zM172 1157q0 -70 48 -118t118 -48q68 0 116 49t48 117t-48 116t-116 48q-69 0 -117.5 -48t-48.5 -116z" />
<glyph unicode="&#xb1;" horiz-adv-x="1706" d="M254 -18v231h1198v-231h-1198zM254 690v232h481v319h238v-319h479v-232h-479v-319h-238v319h-481z" />
<glyph unicode="&#xb2;" horiz-adv-x="719" d="M-8 1219q0 60 48 103.5t116 43.5q66 0 114.5 -44t48.5 -103q0 -63 -48 -107.5t-115 -44.5q-68 0 -116 44.5t-48 107.5zM57 547v233h625v-233h-625zM274 819q55 20 77 56t22 110v217q0 75 -22 110.5t-76 55.5q9 1 28 4q42 6 62 6q144 0 231.5 -79t87.5 -209 q0 -124 -88.5 -201.5t-230.5 -77.5q-24 0 -46 2t-45 6z" />
<glyph unicode="&#xb3;" horiz-adv-x="719" d="M10 672q0 56 44.5 96.5t105.5 40.5q60 0 104.5 -40.5t44.5 -94.5q0 -56 -44.5 -96.5t-104.5 -40.5q-62 0 -106 39.5t-44 95.5zM33 1237q0 52 42.5 90.5t100.5 38.5t100.5 -38.5t42.5 -90.5q0 -54 -42 -93.5t-101 -39.5q-58 0 -100.5 39.5t-42.5 93.5zM234 954v54 q78 3 106.5 18t28.5 49v27v182q0 29 -13 49t-44 37l6 1q58 7 85 7q110 0 180 -56.5t70 -143.5q0 -78 -63 -124t-207 -73q162 -17 234.5 -70.5t72.5 -154.5q0 -100 -85 -159.5t-226 -59.5q-30 0 -51 0.5t-41 1.5q43 23 60.5 50t17.5 91v14v164q0 10 -1.5 20t-1.5 11 q0 33 -28 47.5t-100 17.5z" />
<glyph unicode="&#xb4;" d="M436 1118v379h432z" />
<glyph unicode="&#xb5;" horiz-adv-x="1315" d="M-45 -428l238 1518h358l-80 -529q-6 -41 -9 -77.5t-3 -65.5q0 -85 35.5 -127.5t107.5 -42.5q88 0 138.5 68.5t74.5 220.5l88 553h357l-175 -1090h-321l18 125q-40 -75 -89.5 -108t-119.5 -33q-59 0 -106.5 31t-77.5 89l-82 -532h-352z" />
<glyph unicode="&#xb6;" d="M29 1130q0 158 106 253.5t283 95.5h579v-123h-106v-1356h-176v1356h-150v-1356h-174v784q-164 6 -263 101t-99 245z" />
<glyph unicode="&#xb7;" horiz-adv-x="639" d="M139 682q0 75 53 128.5t127 53.5q75 0 129 -54t54 -128q0 -73 -54.5 -126.5t-128.5 -53.5q-73 0 -126.5 53.5t-53.5 126.5z" />
<glyph unicode="&#xb8;" d="M461 -66h364l-364 -380v380z" />
<glyph unicode="&#xb9;" horiz-adv-x="545" d="M18 1100v80l457 243v-876h-338v608z" />
<glyph unicode="&#xba;" horiz-adv-x="817" d="M23 1110q0 169 89 268.5t255 114.5v-762q-164 12 -254 111.5t-90 267.5zM453 731v762q165 -15 254.5 -115t89.5 -268q0 -167 -90.5 -266t-253.5 -113z" />
<glyph unicode="&#xbb;" horiz-adv-x="844" d="M57 127v797l369 -398zM455 127v797l370 -398z" />
<glyph unicode="&#xbc;" horiz-adv-x="1669" d="M18 1116v74l437 227v-817h-324v567zM178 -18l864 1402h160l-862 -1402h-162zM854 186l324 580v-580h-324zM1251 0v766h316v-506h96v-74h-96v-186h-316z" />
<glyph unicode="&#xbd;" horiz-adv-x="1548" d="M18 1116v74l437 227v-817h-324v567zM178 -18l864 1402h160l-862 -1402h-162zM854 627q0 55 46.5 96t109.5 41q64 0 110.5 -41t46.5 -96q0 -59 -46 -100.5t-111 -41.5q-64 0 -110 42t-46 100zM915 0v217h598v-217h-598zM1124 254q52 19 73.5 52t21.5 102v204 q0 69 -21.5 102t-72.5 52q8 1 26 4q40 6 59 6q139 0 222.5 -73.5t83.5 -194.5q0 -116 -85 -189t-221 -73q-25 0 -79 7z" />
<glyph unicode="&#xbe;" horiz-adv-x="1835" d="M8 717q0 52 43 90.5t101 38.5t100.5 -38t42.5 -89q0 -53 -42.5 -91t-100.5 -38q-57 0 -100.5 38t-43.5 89zM31 1245q0 48 41.5 84.5t97.5 36.5q54 0 94.5 -36.5t40.5 -84.5q0 -51 -40 -88t-95 -37q-57 0 -98 37t-41 88zM224 979v51q76 4 101 17.5t25 46.5v24v170 q0 29 -11.5 46.5t-41.5 33.5q37 5 55 6.5t33 1.5q103 0 170.5 -53t67.5 -133q0 -73 -60 -116t-198 -68q153 -16 223.5 -66.5t70.5 -144.5q0 -93 -81.5 -149t-217.5 -56q-15 0 -64 3q-13 0 -22 1q41 20 56.5 44.5t15.5 86.5v12v154v29q0 31 -26 44t-96 15zM344 -18l864 1402 h160l-862 -1402h-162zM1020 186l323 580v-580h-323zM1417 0v766h316v-506h96v-74h-96v-186h-316z" />
<glyph unicode="&#xbf;" horiz-adv-x="985" d="M14 485q0 216 124.5 352t322.5 136v-688q0 -127 32.5 -190t110.5 -99q-38 -8 -70.5 -12t-60.5 -4q-208 0 -333.5 138t-125.5 367zM244 1292q0 86 59.5 145.5t145.5 59.5q85 0 144.5 -59.5t59.5 -145.5q0 -82 -61 -143.5t-143 -61.5q-83 0 -144 61t-61 144zM526 229 q0 86 60 145.5t145 59.5t145 -59.5t60 -145.5q0 -82 -61 -143t-144 -61t-144 60.5t-61 143.5z" />
<glyph unicode="&#xc0;" horiz-adv-x="1186" d="M-39 0l332 1214l110 -579h127l-163 844h528l287 -1479h-527l-98 502h-127l98 -502h-567zM252 1923h432v-379z" />
<glyph unicode="&#xc1;" horiz-adv-x="1186" d="M-39 0l332 1214l110 -579h127l-163 844h528l287 -1479h-527l-98 502h-127l98 -502h-567zM532 1544v379h432z" />
<glyph unicode="&#xc2;" horiz-adv-x="1186" d="M-39 0l332 1214l110 -579h127l-163 844h528l287 -1479h-527l-98 502h-127l98 -502h-567zM252 1573l356 350l356 -350h-712z" />
<glyph unicode="&#xc3;" horiz-adv-x="1186" d="M-39 0l332 1214l110 -579h127l-163 844h528l287 -1479h-527l-98 502h-127l98 -502h-567zM213 1655q0 131 80.5 206.5t222.5 75.5q71 0 193.5 -20.5t170.5 -20.5q41 0 67 10t48 33q1 -3 2 -10q6 -41 6 -63q0 -132 -79.5 -207.5t-221.5 -75.5q-71 0 -194.5 20.5 t-171.5 20.5q-41 0 -67 -10t-48 -33q-1 4 -2 11q-6 41 -6 63z" />
<glyph unicode="&#xc4;" horiz-adv-x="1186" d="M-39 0l332 1214l110 -579h127l-163 844h528l287 -1479h-527l-98 502h-127l98 -502h-567zM215 1763q0 75 54 129t128 54q75 0 129.5 -54t54.5 -129q0 -73 -55 -128.5t-129 -55.5q-73 0 -127.5 55t-54.5 129zM635 1763q0 75 54.5 129t129.5 54q74 0 128 -54t54 -129 q0 -74 -54.5 -129t-127.5 -55q-74 0 -129 55.5t-55 128.5z" />
<glyph unicode="&#xc5;" horiz-adv-x="1186" d="M-39 0l332 1214l110 -579h127l-163 844h528l287 -1479h-527l-98 502h-127l98 -502h-567zM420 1749q0 86 62 147.5t149 61.5q86 0 148.5 -61.5t62.5 -147.5q0 -89 -61.5 -151t-149.5 -62t-149.5 62t-61.5 151z" />
<glyph unicode="&#xc6;" horiz-adv-x="1792" d="M-39 0l332 1214l110 -579h127l-163 844h528l287 -1479h-527l-98 502h-127l98 -502h-567zM930 1479h540l101 -514zM1065 793l278 282l134 -678zM1219 0l469 541l104 -541h-573z" />
<glyph unicode="&#xc7;" horiz-adv-x="1204" d="M39 739q0 340 151 527.5t443 212.5v-1479q-292 23 -443 211.5t-151 527.5zM678 0l469 559v-559h-469zM678 -66h364l-364 -380v380zM678 1479h469v-559z" />
<glyph unicode="&#xc8;" horiz-adv-x="1204" d="M66 0v1479h518v-1479h-518zM246 1923h432v-379zM621 770l323 305v-610zM627 0l520 666v-666h-520zM627 1479h512v-570z" />
<glyph unicode="&#xc9;" horiz-adv-x="1204" d="M66 0v1479h518v-1479h-518zM526 1544v379h432zM621 770l323 305v-610zM627 0l520 666v-666h-520zM627 1479h512v-570z" />
<glyph unicode="&#xca;" horiz-adv-x="1204" d="M66 0v1479h518v-1479h-518zM246 1573l356 350l356 -350h-712zM621 770l323 305v-610zM627 0l520 666v-666h-520zM627 1479h512v-570z" />
<glyph unicode="&#xcb;" horiz-adv-x="1204" d="M66 0v1479h518v-1479h-518zM209 1763q0 75 54 129t128 54q75 0 129.5 -54t54.5 -129q0 -73 -55 -128.5t-129 -55.5q-73 0 -127.5 55t-54.5 129zM621 770l323 305v-610zM627 0l520 666v-666h-520zM627 1479h512v-570zM629 1763q0 75 54.5 129t129.5 54q74 0 128 -54 t54 -129q0 -74 -54.5 -129t-127.5 -55q-74 0 -129 55.5t-55 128.5z" />
<glyph unicode="&#xcc;" horiz-adv-x="659" d="M-26 1923h432v-379zM66 0v1479h526v-1479h-526z" />
<glyph unicode="&#xcd;" horiz-adv-x="659" d="M66 0v1479h526v-1479h-526zM254 1544v379h432z" />
<glyph unicode="&#xce;" horiz-adv-x="659" d="M-26 1573l356 350l356 -350h-712zM66 0v1479h526v-1479h-526z" />
<glyph unicode="&#xcf;" horiz-adv-x="659" d="M-63 1763q0 75 54 129t128 54q75 0 129.5 -54t54.5 -129q0 -73 -55 -128.5t-129 -55.5q-73 0 -127.5 55t-54.5 129zM66 0v1479h526v-1479h-526zM357 1763q0 75 54.5 129t129.5 54q74 0 128 -54t54 -129q0 -74 -54.5 -129t-127.5 -55q-74 0 -129 55.5t-55 128.5z" />
<glyph unicode="&#xd0;" horiz-adv-x="1384" d="M0 725v133h123v621h526v-1479h-526v725h-123zM772 0v1479q280 -25 427 -214t147 -526t-147 -526.5t-427 -212.5z" />
<glyph unicode="&#xd1;" horiz-adv-x="1270" d="M66 0v1085l485 -1085h-485zM66 1384v95h550l588 -1366v-113h-526zM240 1655q0 131 80.5 206.5t222.5 75.5q71 0 193.5 -20.5t170.5 -20.5q41 0 67 10t48 33q1 -3 2 -10q6 -41 6 -63q0 -132 -79.5 -207.5t-221.5 -75.5q-71 0 -194.5 20.5t-171.5 20.5q-41 0 -67 -10 t-48 -33q-1 4 -2 11q-6 41 -6 63zM721 1479h483v-1086z" />
<glyph unicode="&#xd2;" horiz-adv-x="1346" d="M39 739q0 348 147 542t426 216v-1515q-279 21 -426 215.5t-147 541.5zM318 1923h432v-379zM735 -18v1515q279 -22 426.5 -216t147.5 -542q0 -347 -147.5 -541.5t-426.5 -215.5z" />
<glyph unicode="&#xd3;" horiz-adv-x="1346" d="M39 739q0 348 147 542t426 216v-1515q-279 21 -426 215.5t-147 541.5zM598 1544v379h432zM735 -18v1515q279 -22 426.5 -216t147.5 -542q0 -347 -147.5 -541.5t-426.5 -215.5z" />
<glyph unicode="&#xd4;" horiz-adv-x="1346" d="M39 739q0 348 147 542t426 216v-1515q-279 21 -426 215.5t-147 541.5zM318 1573l356 350l356 -350h-712zM735 -18v1515q279 -22 426.5 -216t147.5 -542q0 -347 -147.5 -541.5t-426.5 -215.5z" />
<glyph unicode="&#xd5;" horiz-adv-x="1346" d="M39 739q0 348 147 542t426 216v-1515q-279 21 -426 215.5t-147 541.5zM279 1655q0 131 80.5 206.5t222.5 75.5q71 0 193.5 -20.5t170.5 -20.5q41 0 67 10t48 33q1 -3 2 -10q6 -41 6 -63q0 -132 -79.5 -207.5t-221.5 -75.5q-71 0 -194.5 20.5t-171.5 20.5q-41 0 -67 -10 t-48 -33q-1 4 -2 11q-6 41 -6 63zM735 -18v1515q279 -22 426.5 -216t147.5 -542q0 -347 -147.5 -541.5t-426.5 -215.5z" />
<glyph unicode="&#xd6;" horiz-adv-x="1346" d="M39 739q0 348 147 542t426 216v-1515q-279 21 -426 215.5t-147 541.5zM281 1763q0 75 54 129t128 54q75 0 129.5 -54t54.5 -129q0 -73 -55 -128.5t-129 -55.5q-73 0 -127.5 55t-54.5 129zM701 1763q0 75 54.5 129t129.5 54q74 0 128 -54t54 -129q0 -74 -54.5 -129 t-127.5 -55q-74 0 -129 55.5t-55 128.5zM735 -18v1515q279 -22 426.5 -216t147.5 -542q0 -347 -147.5 -541.5t-426.5 -215.5z" />
<glyph unicode="&#xd7;" horiz-adv-x="1706" d="M268 170l441 440l-441 443l162 161l440 -440l441 440l162 -161l-441 -443l441 -440l-162 -162l-441 441l-440 -441z" />
<glyph unicode="&#xd8;" horiz-adv-x="1346" d="M39 739q0 348 147 542t426 216v-1515q-279 21 -426 215.5t-147 541.5zM139 -190l123 223l107 -58l-123 -225zM735 -18v1515q279 -22 426.5 -216t147.5 -542q0 -347 -147.5 -541.5t-426.5 -215.5zM977 1505l123 224l108 -60l-125 -223z" />
<glyph unicode="&#xd9;" horiz-adv-x="1280" d="M66 524v955h518v-1497q-287 4 -402.5 123t-115.5 419zM285 1923h432v-379zM696 -18v1497h518v-955q0 -300 -115.5 -419t-402.5 -123z" />
<glyph unicode="&#xda;" horiz-adv-x="1280" d="M66 524v955h518v-1497q-287 4 -402.5 123t-115.5 419zM565 1544v379h432zM696 -18v1497h518v-955q0 -300 -115.5 -419t-402.5 -123z" />
<glyph unicode="&#xdb;" horiz-adv-x="1280" d="M66 524v955h518v-1497q-287 4 -402.5 123t-115.5 419zM285 1573l356 350l356 -350h-712zM696 -18v1497h518v-955q0 -300 -115.5 -419t-402.5 -123z" />
<glyph unicode="&#xdc;" horiz-adv-x="1280" d="M66 524v955h518v-1497q-287 4 -402.5 123t-115.5 419zM248 1763q0 75 54 129t128 54q75 0 129.5 -54t54.5 -129q0 -73 -55 -128.5t-129 -55.5q-73 0 -127.5 55t-54.5 129zM668 1763q0 75 54.5 129t129.5 54q74 0 128 -54t54 -129q0 -74 -54.5 -129t-127.5 -55 q-74 0 -129 55.5t-55 128.5zM696 -18v1497h518v-955q0 -300 -115.5 -419t-402.5 -123z" />
<glyph unicode="&#xdd;" horiz-adv-x="1186" d="M-39 1479h571l340 -787v-692h-526v578zM518 1544v379h432zM666 1479h551l-281 -643z" />
<glyph unicode="&#xde;" horiz-adv-x="1280" d="M66 0v1479h526v-1479h-526zM717 355v857q12 1 27 1.5t42 0.5q242 0 356.5 -105t114.5 -325t-115 -326t-356 -106q-27 0 -41.5 0.5t-27.5 2.5z" />
<glyph unicode="&#xdf;" horiz-adv-x="1036" d="M57 -371v1383q0 262 90 367t318 118v-1868h-408zM578 1v843q213 -6 320.5 -111t107.5 -309q0 -209 -95 -317.5t-276 -108.5q-23 0 -35 0.5t-22 2.5zM578 922v575h20q174 0 264 -72.5t90 -212.5q0 -148 -88 -219t-270 -71h-16z" />
<glyph unicode="&#xe0;" horiz-adv-x="1053" d="M25 293q0 145 93.5 221t272.5 76q23 0 34 -0.5t21 -1.5v-588q-9 -1 -20.5 -1.5t-32.5 -0.5q-179 0 -273.5 76t-94.5 219zM76 844q0 85 61.5 147t147.5 62q85 0 147 -62t62 -147q0 -87 -61.5 -149t-147.5 -62q-87 0 -148 62t-61 149zM197 1497h432v-379zM444 1051 q64 11 106 15.5t73 4.5q174 0 259 -96.5t85 -294.5v-680h-398v754q0 127 -27.5 188t-97.5 109z" />
<glyph unicode="&#xe1;" horiz-adv-x="1053" d="M25 293q0 145 93.5 221t272.5 76q23 0 34 -0.5t21 -1.5v-588q-9 -1 -20.5 -1.5t-32.5 -0.5q-179 0 -273.5 76t-94.5 219zM76 844q0 85 61.5 147t147.5 62q85 0 147 -62t62 -147q0 -87 -61.5 -149t-147.5 -62q-87 0 -148 62t-61 149zM444 1051q64 11 106 15.5t73 4.5 q174 0 259 -96.5t85 -294.5v-680h-398v754q0 127 -27.5 188t-97.5 109zM477 1118v379h432z" />
<glyph unicode="&#xe2;" horiz-adv-x="1053" d="M25 293q0 145 93.5 221t272.5 76q23 0 34 -0.5t21 -1.5v-588q-9 -1 -20.5 -1.5t-32.5 -0.5q-179 0 -273.5 76t-94.5 219zM76 844q0 85 61.5 147t147.5 62q85 0 147 -62t62 -147q0 -87 -61.5 -149t-147.5 -62q-87 0 -148 62t-61 149zM197 1147l356 350l356 -350h-712z M444 1051q64 11 106 15.5t73 4.5q174 0 259 -96.5t85 -294.5v-680h-398v754q0 127 -27.5 188t-97.5 109z" />
<glyph unicode="&#xe3;" horiz-adv-x="1053" d="M25 293q0 145 93.5 221t272.5 76q23 0 34 -0.5t21 -1.5v-588q-9 -1 -20.5 -1.5t-32.5 -0.5q-179 0 -273.5 76t-94.5 219zM76 844q0 85 61.5 147t147.5 62q85 0 147 -62t62 -147q0 -87 -61.5 -149t-147.5 -62q-87 0 -148 62t-61 149zM158 1229q0 131 80.5 206.5 t222.5 75.5q71 0 193.5 -20.5t170.5 -20.5q41 0 67 10t48 33q1 -3 2 -10q6 -41 6 -63q0 -132 -79.5 -207.5t-221.5 -75.5q-71 0 -194.5 20.5t-171.5 20.5q-41 0 -67 -10t-48 -33q-1 4 -2 11q-6 41 -6 63zM444 1051q64 11 106 15.5t73 4.5q174 0 259 -96.5t85 -294.5v-680 h-398v754q0 127 -27.5 188t-97.5 109z" />
<glyph unicode="&#xe4;" horiz-adv-x="1053" d="M25 293q0 145 93.5 221t272.5 76q23 0 34 -0.5t21 -1.5v-588q-9 -1 -20.5 -1.5t-32.5 -0.5q-179 0 -273.5 76t-94.5 219zM76 844q0 85 61.5 147t147.5 62q85 0 147 -62t62 -147q0 -87 -61.5 -149t-147.5 -62q-87 0 -148 62t-61 149zM160 1337q0 75 54 129t128 54 q75 0 129.5 -54t54.5 -129q0 -73 -55 -128.5t-129 -55.5q-73 0 -127.5 55t-54.5 129zM444 1051q64 11 106 15.5t73 4.5q174 0 259 -96.5t85 -294.5v-680h-398v754q0 127 -27.5 188t-97.5 109zM580 1337q0 75 54.5 129t129.5 54q74 0 128 -54t54 -129q0 -74 -54.5 -129 t-127.5 -55q-74 0 -129 55.5t-55 128.5z" />
<glyph unicode="&#xe5;" horiz-adv-x="1053" d="M25 293q0 145 93.5 221t272.5 76q23 0 34 -0.5t21 -1.5v-588q-9 -1 -20.5 -1.5t-32.5 -0.5q-179 0 -273.5 76t-94.5 219zM76 844q0 85 61.5 147t147.5 62q85 0 147 -62t62 -147q0 -87 -61.5 -149t-147.5 -62q-87 0 -148 62t-61 149zM362 1339q0 86 62.5 147.5t148.5 61.5 q87 0 149 -61.5t62 -147.5q0 -88 -61.5 -150.5t-149.5 -62.5q-87 0 -149 62.5t-62 150.5zM444 1051q64 11 106 15.5t73 4.5q174 0 259 -96.5t85 -294.5v-680h-398v754q0 127 -27.5 188t-97.5 109z" />
<glyph unicode="&#xe6;" horiz-adv-x="1489" d="M25 293q0 145 93.5 221t272.5 76q23 0 34 -0.5t21 -1.5v-588q-9 -1 -20.5 -1.5t-32.5 -0.5q-179 0 -273.5 76t-94.5 219zM76 844q0 85 61.5 147t147.5 62q85 0 147 -62t62 -147q0 -87 -61.5 -149t-147.5 -62q-87 0 -148 62t-61 149zM444 1053q46 10 83 15t69 5 q60 0 100.5 -10t71.5 -33q59 22 108 31.5t97 9.5v-958q27 -3 50.5 -4.5t43.5 -2.5q109 0 204 67t171 196v-201q-90 -97 -187 -141.5t-219 -44.5q-73 0 -133 9.5t-115 31.5l-219 -23v756q0 127 -27.5 188t-97.5 109zM1077 551v520q196 -12 283 -133.5t90 -386.5h-373z" />
<glyph unicode="&#xe7;" horiz-adv-x="1014" d="M29 516q0 245 128 387t357 150v-946q11 -2 23.5 -2.5t35.5 -0.5q125 0 223 63t181 195v-198q-96 -98 -198 -140t-242 -42q-237 0 -372.5 142.5t-135.5 391.5zM553 -66h364l-364 -380v380zM557 1053h420v-428z" />
<glyph unicode="&#xe8;" horiz-adv-x="995" d="M29 524q0 243 119 387.5t331 159.5v-962l5 -1q48 -8 75 -8q117 0 213 66.5t176 202.5v-201q-89 -97 -186 -141.5t-219 -44.5q-246 0 -380 141.5t-134 400.5zM166 1497h432v-379zM584 551v520q195 -12 283 -133.5t91 -386.5h-374z" />
<glyph unicode="&#xe9;" horiz-adv-x="995" d="M29 524q0 243 119 387.5t331 159.5v-962l5 -1q48 -8 75 -8q117 0 213 66.5t176 202.5v-201q-89 -97 -186 -141.5t-219 -44.5q-246 0 -380 141.5t-134 400.5zM446 1118v379h432zM584 551v520q195 -12 283 -133.5t91 -386.5h-374z" />
<glyph unicode="&#xea;" horiz-adv-x="995" d="M29 524q0 243 119 387.5t331 159.5v-962l5 -1q48 -8 75 -8q117 0 213 66.5t176 202.5v-201q-89 -97 -186 -141.5t-219 -44.5q-246 0 -380 141.5t-134 400.5zM166 1147l356 350l356 -350h-712zM584 551v520q195 -12 283 -133.5t91 -386.5h-374z" />
<glyph unicode="&#xeb;" horiz-adv-x="995" d="M29 524q0 243 119 387.5t331 159.5v-962l5 -1q48 -8 75 -8q117 0 213 66.5t176 202.5v-201q-89 -97 -186 -141.5t-219 -44.5q-246 0 -380 141.5t-134 400.5zM129 1337q0 75 54 129t128 54q75 0 129.5 -54t54.5 -129q0 -73 -55 -128.5t-129 -55.5q-73 0 -127.5 55 t-54.5 129zM549 1337q0 75 54.5 129t129.5 54q74 0 128 -54t54 -129q0 -74 -54.5 -129t-127.5 -55q-74 0 -129 55.5t-55 128.5zM584 551v520q195 -12 283 -133.5t91 -386.5h-374z" />
<glyph unicode="&#xec;" horiz-adv-x="522" d="M-94 1497h432v-379zM57 0v1053h408v-1053h-408z" />
<glyph unicode="&#xed;" horiz-adv-x="522" d="M57 0v1053h408v-1053h-408zM186 1118v379h432z" />
<glyph unicode="&#xee;" horiz-adv-x="522" d="M-94 1147l356 350l356 -350h-712zM57 0v1053h408v-1053h-408z" />
<glyph unicode="&#xef;" horiz-adv-x="522" d="M-131 1337q0 75 54 129t128 54q75 0 129.5 -54t54.5 -129q0 -73 -55 -128.5t-129 -55.5q-73 0 -127.5 55t-54.5 129zM57 0v1053h408v-1053h-408zM289 1337q0 75 54.5 129t129.5 54q74 0 128 -54t54 -129q0 -74 -54.5 -129t-127.5 -55q-74 0 -129 55.5t-55 128.5z" />
<glyph unicode="&#xf0;" horiz-adv-x="1090" d="M29 465q0 214 120 341t338 144v-968q-217 15 -337.5 142t-120.5 341zM123 1210l293 74q-78 83 -121 126t-82 79h346q35 -33 68 -67t65 -68l324 82l37 -133l-267 -68q139 -179 208 -358t69 -361q0 -244 -118 -381t-343 -153v880q0 81 -22.5 149.5t-75.5 149.5l-346 -84z " />
<glyph unicode="&#xf1;" horiz-adv-x="1042" d="M57 0v1053h408v-1053h-408zM119 1229q0 131 80.5 206.5t222.5 75.5q71 0 193.5 -20.5t170.5 -20.5q41 0 67 10t48 33q1 -3 2 -10q6 -41 6 -63q0 -132 -79.5 -207.5t-221.5 -75.5q-71 0 -194.5 20.5t-171.5 20.5q-41 0 -67 -10t-48 -33q-1 4 -2 11q-6 41 -6 63zM578 0 v1053h49q213 0 285.5 -77t72.5 -308v-668h-407z" />
<glyph unicode="&#xf2;" horiz-adv-x="1090" d="M29 524q0 241 119.5 383.5t338.5 163.5v-1089q-218 18 -338 160.5t-120 381.5zM189 1497h432v-379zM602 -18v1089q221 -21 341 -164t120 -383q0 -238 -121 -380t-340 -162z" />
<glyph unicode="&#xf3;" horiz-adv-x="1090" d="M29 524q0 241 119.5 383.5t338.5 163.5v-1089q-218 18 -338 160.5t-120 381.5zM469 1118v379h432zM602 -18v1089q221 -21 341 -164t120 -383q0 -238 -121 -380t-340 -162z" />
<glyph unicode="&#xf4;" horiz-adv-x="1090" d="M29 524q0 241 119.5 383.5t338.5 163.5v-1089q-218 18 -338 160.5t-120 381.5zM189 1147l356 350l356 -350h-712zM602 -18v1089q221 -21 341 -164t120 -383q0 -238 -121 -380t-340 -162z" />
<glyph unicode="&#xf5;" horiz-adv-x="1090" d="M29 524q0 241 119.5 383.5t338.5 163.5v-1089q-218 18 -338 160.5t-120 381.5zM150 1229q0 131 80.5 206.5t222.5 75.5q71 0 193.5 -20.5t170.5 -20.5q41 0 67 10t48 33q1 -3 2 -10q6 -41 6 -63q0 -132 -79.5 -207.5t-221.5 -75.5q-71 0 -194.5 20.5t-171.5 20.5 q-41 0 -67 -10t-48 -33q-1 4 -2 11q-6 41 -6 63zM602 -18v1089q221 -21 341 -164t120 -383q0 -238 -121 -380t-340 -162z" />
<glyph unicode="&#xf6;" horiz-adv-x="1090" d="M29 524q0 241 119.5 383.5t338.5 163.5v-1089q-218 18 -338 160.5t-120 381.5zM152 1337q0 75 54 129t128 54q75 0 129.5 -54t54.5 -129q0 -73 -55 -128.5t-129 -55.5q-73 0 -127.5 55t-54.5 129zM572 1337q0 75 54.5 129t129.5 54q74 0 128 -54t54 -129 q0 -74 -54.5 -129t-127.5 -55q-74 0 -129 55.5t-55 128.5zM602 -18v1089q221 -21 341 -164t120 -383q0 -238 -121 -380t-340 -162z" />
<glyph unicode="&#xf7;" horiz-adv-x="1706" d="M254 496v231h1198v-231h-1198zM688 205q0 68 49 117t117 49t116 -48.5t48 -117.5q0 -68 -47.5 -116t-116.5 -48t-117.5 48t-48.5 116zM688 1016q0 68 49 117t117 49q67 0 115.5 -49t48.5 -117t-48.5 -116t-117.5 -48t-116.5 48t-47.5 116z" />
<glyph unicode="&#xf8;" horiz-adv-x="1090" d="M29 524q0 241 119.5 383.5t338.5 163.5v-1089q-218 18 -338 160.5t-120 381.5zM68 -184l118 215l99 -54l-119 -215zM602 -18v1089q221 -21 341 -164t120 -383q0 -238 -121 -380t-340 -162zM805 1075l119 215l98 -55l-119 -215z" />
<glyph unicode="&#xf9;" horiz-adv-x="1042" d="M57 385v668h408v-1071h-8q-223 0 -311.5 87t-88.5 316zM166 1497h432v-379zM578 -18v1071h407v-668q0 -229 -88.5 -316t-310.5 -87h-8z" />
<glyph unicode="&#xfa;" horiz-adv-x="1042" d="M57 385v668h408v-1071h-8q-223 0 -311.5 87t-88.5 316zM446 1118v379h432zM578 -18v1071h407v-668q0 -229 -88.5 -316t-310.5 -87h-8z" />
<glyph unicode="&#xfb;" horiz-adv-x="1042" d="M57 385v668h408v-1071h-8q-223 0 -311.5 87t-88.5 316zM166 1147l356 350l356 -350h-712zM578 -18v1071h407v-668q0 -229 -88.5 -316t-310.5 -87h-8z" />
<glyph unicode="&#xfc;" horiz-adv-x="1042" d="M57 385v668h408v-1071h-8q-223 0 -311.5 87t-88.5 316zM129 1337q0 75 54 129t128 54q75 0 129.5 -54t54.5 -129q0 -73 -55 -128.5t-129 -55.5q-73 0 -127.5 55t-54.5 129zM549 1337q0 75 54.5 129t129.5 54q74 0 128 -54t54 -129q0 -74 -54.5 -129t-127.5 -55 q-74 0 -129 55.5t-55 128.5zM578 -18v1071h407v-668q0 -229 -88.5 -316t-310.5 -87h-8z" />
<glyph unicode="&#xfd;" horiz-adv-x="1053" d="M-39 1053h457l325 -779v-692h-407v608zM450 1118v379h432zM537 1053h553l-283 -641z" />
<glyph unicode="&#xfe;" horiz-adv-x="1067" d="M57 -418v1888h408v-1888h-408zM578 0v1053q220 -22 340 -160t120 -369q0 -228 -121.5 -366t-338.5 -158z" />
<glyph unicode="&#xff;" horiz-adv-x="1053" d="M-39 1053h457l325 -779v-692h-407v608zM133 1337q0 75 54 129t128 54q75 0 129.5 -54t54.5 -129q0 -73 -55 -128.5t-129 -55.5q-73 0 -127.5 55t-54.5 129zM537 1053h553l-283 -641zM553 1337q0 75 54.5 129t129.5 54q74 0 128 -54t54 -129q0 -74 -54.5 -129t-127.5 -55 q-74 0 -129 55.5t-55 128.5z" />
<glyph unicode="&#x152;" horiz-adv-x="1872" d="M39 739q0 336 147.5 525t425.5 211v-1471q-278 20 -425.5 209t-147.5 526zM735 0v1479h516v-1479h-516zM1290 770l322 305v-610zM1294 0l523 666v-666h-523zM1294 1479h512v-570z" />
<glyph unicode="&#x153;" horiz-adv-x="1565" d="M29 524q0 241 119.5 383.5t338.5 163.5v-1089q-218 18 -338 160.5t-120 381.5zM602 -18l1 1089q60 -5 115 -21t107 -44q53 30 108 46t115 19l1 -958q27 -3 51 -5t43 -2q109 0 204 67t171 196v-201q-93 -100 -192 -144t-232 -44q-79 0 -142 15.5t-125 49.5 q-55 -28 -110.5 -43.5t-114.5 -19.5zM1153 551v520q195 -12 282 -133t90 -387h-372z" />
<glyph unicode="&#x178;" horiz-adv-x="1186" d="M-39 1479h571l340 -787v-692h-526v578zM201 1763q0 75 54 129t128 54q75 0 129.5 -54t54.5 -129q0 -73 -55 -128.5t-129 -55.5q-73 0 -127.5 55t-54.5 129zM621 1763q0 75 54.5 129t129.5 54q74 0 128 -54t54 -129q0 -74 -54.5 -129t-127.5 -55q-74 0 -129 55.5 t-55 128.5zM666 1479h551l-281 -643z" />
<glyph unicode="&#x2c6;" d="M156 1147l356 350l356 -350h-712z" />
<glyph unicode="&#x2dc;" d="M117 1229q0 131 80.5 206.5t222.5 75.5q71 0 193.5 -20.5t170.5 -20.5q41 0 67 10t48 33q1 -3 2 -10q6 -41 6 -63q0 -132 -79.5 -207.5t-221.5 -75.5q-71 0 -194.5 20.5t-171.5 20.5q-41 0 -67 -10t-48 -33q-1 4 -2 11q-6 41 -6 63z" />
<glyph unicode="&#x2000;" horiz-adv-x="979" />
<glyph unicode="&#x2001;" horiz-adv-x="1958" />
<glyph unicode="&#x2002;" horiz-adv-x="979" />
<glyph unicode="&#x2003;" horiz-adv-x="1958" />
<glyph unicode="&#x2004;" horiz-adv-x="652" />
<glyph unicode="&#x2005;" horiz-adv-x="489" />
<glyph unicode="&#x2006;" horiz-adv-x="326" />
<glyph unicode="&#x2007;" horiz-adv-x="326" />
<glyph unicode="&#x2008;" horiz-adv-x="244" />
<glyph unicode="&#x2009;" horiz-adv-x="391" />
<glyph unicode="&#x200a;" horiz-adv-x="108" />
<glyph unicode="&#x2010;" horiz-adv-x="692" d="M66 360v332h561v-332h-561z" />
<glyph unicode="&#x2011;" horiz-adv-x="692" d="M66 360v332h561v-332h-561z" />
<glyph unicode="&#x2012;" horiz-adv-x="692" d="M66 360v332h561v-332h-561z" />
<glyph unicode="&#x2013;" d="M0 360v332h1024v-332h-1024z" />
<glyph unicode="&#x2014;" horiz-adv-x="2048" d="M0 360v332h2048v-332h-2048z" />
<glyph unicode="&#x2018;" horiz-adv-x="639" d="M104 995q0 45 20.5 91.5t82.5 130.5l194 262h187l-199 -273q77 -35 114.5 -87t37.5 -124q0 -90 -65.5 -155.5t-156.5 -65.5t-153 63.5t-62 157.5z" />
<glyph unicode="&#x2019;" horiz-adv-x="639" d="M51 795l201 272q-77 35 -114.5 87t-37.5 124q0 91 64.5 155t154.5 64q93 0 155.5 -62.5t62.5 -156.5q0 -44 -20 -89t-85 -132l-194 -262h-187z" />
<glyph unicode="&#x201a;" horiz-adv-x="639" d="M51 -285l201 273q-77 35 -114.5 87t-37.5 124q0 91 64.5 156t154.5 65q92 0 155 -63.5t63 -157.5q0 -44 -20 -89t-85 -133l-194 -262h-187z" />
<glyph unicode="&#x201c;" horiz-adv-x="1143" d="M104 995q0 45 20.5 91.5t82.5 130.5l194 262h187l-199 -273q77 -35 114.5 -87t37.5 -124q0 -90 -65.5 -155.5t-156.5 -65.5t-153 63.5t-62 157.5zM606 995q0 44 20 89t85 133l194 262h185l-199 -273q77 -35 114 -87t37 -124q0 -91 -64 -156t-155 -65t-154 63.5t-63 157.5 z" />
<glyph unicode="&#x201d;" horiz-adv-x="1143" d="M51 795l201 272q-77 35 -114.5 87t-37.5 124q0 91 64.5 155t154.5 64q93 0 155.5 -62.5t62.5 -156.5q0 -44 -20 -89t-85 -132l-194 -262h-187zM555 795l199 272q-77 35 -114.5 87t-37.5 124q0 90 65 154.5t156 64.5q92 0 153.5 -62.5t61.5 -156.5q0 -45 -20 -91.5 t-82 -129.5l-195 -262h-186z" />
<glyph unicode="&#x201e;" horiz-adv-x="1143" d="M51 -285l201 273q-77 35 -114.5 87t-37.5 124q0 91 64.5 156t154.5 65q92 0 155 -63.5t63 -157.5q0 -44 -20 -89t-85 -133l-194 -262h-187zM555 -285l199 273q-77 35 -114.5 87t-37.5 124q0 90 65.5 155.5t155.5 65.5q92 0 153.5 -63.5t61.5 -157.5q0 -45 -20 -91.5 t-82 -130.5l-195 -262h-186z" />
<glyph unicode="&#x2022;" horiz-adv-x="1208" d="M307 762q0 123 87 209t210 86q122 0 208.5 -86.5t86.5 -208.5t-87.5 -209.5t-209.5 -87.5q-123 0 -209 87t-86 210z" />
<glyph unicode="&#x2026;" horiz-adv-x="2048" d="M123 199q0 92 64 156.5t155 64.5t156.5 -65.5t65.5 -155.5q0 -88 -65.5 -152.5t-156.5 -64.5q-90 0 -154.5 63.5t-64.5 153.5zM805 199q0 92 64 156.5t155 64.5t156.5 -65.5t65.5 -155.5q0 -88 -65.5 -152.5t-156.5 -64.5q-90 0 -154.5 63.5t-64.5 153.5zM1489 199 q0 92 64 156.5t155 64.5t156.5 -65.5t65.5 -155.5q0 -88 -65.5 -152.5t-156.5 -64.5q-90 0 -154.5 63.5t-64.5 153.5z" />
<glyph unicode="&#x202f;" horiz-adv-x="391" />
<glyph unicode="&#x2039;" horiz-adv-x="446" d="M18 526l371 398v-797z" />
<glyph unicode="&#x203a;" horiz-adv-x="446" d="M57 127v797l369 -398z" />
<glyph unicode="&#x205f;" horiz-adv-x="489" />
<glyph unicode="&#x20ac;" horiz-adv-x="1241" d="M10 799l53 123h78q39 255 170.5 396t352.5 161v-557h350l-56 -123h-294v-117h243l-55 -125h-188v-557q-219 17 -353 160t-170 397h-102l53 125h41v117h-123zM696 1479h469v-559zM711 0l469 559v-559h-469z" />
<glyph unicode="&#x2122;" horiz-adv-x="1706" d="M188 1337v127h502v-127h-164v-424h-174v424h-164zM797 913v551h223l113 -303l114 303h221v-551h-155v390l-146 -390h-65l-150 390v-390h-155z" />
<glyph unicode="&#xe000;" horiz-adv-x="1055" d="M0 0v1055h1055v-1055h-1055z" />
</font>
</defs>
</svg>
